<?xml version="1.0" encoding="UTF-8"?><svg id="uuid-b625c8df-20ee-46e2-84ab-95ee5a709450" xmlns="http://www.w3.org/2000/svg" xmlns:xlink="http://www.w3.org/1999/xlink" viewBox="0 0 1000 1000"><defs><style>.uuid-c520cdf6-268b-4951-9b20-8f3a498e38df{fill:url(#uuid-6be4222f-df3a-4eea-be83-fe8e13587931);}.uuid-5cd5a45d-5830-4641-91a0-06f6dc3e875a{fill:#fff;}.uuid-623a2ab6-6543-479d-8761-2c1c3cac0faf{fill:url(#uuid-c3415c39-e750-443a-86d2-35f9f733ce2e);}.uuid-d0049a11-40ab-4d69-b5a8-150a3b442859{fill:none;stroke:url(#uuid-25f321ee-7b85-43e1-a247-78695d40c81e);stroke-linejoin:round;stroke-width:27px;}</style><linearGradient id="uuid-6be4222f-df3a-4eea-be83-fe8e13587931" x1="0" y1="500" x2="1000" y2="500" gradientUnits="userSpaceOnUse"><stop offset="0" stop-color="#678561"/><stop offset="1" stop-color="#7abbcd"/></linearGradient><linearGradient id="uuid-25f321ee-7b85-43e1-a247-78695d40c81e" x1="49.41" y1="500" x2="950.59" y2="500" gradientUnits="userSpaceOnUse"><stop offset="0" stop-color="#ff565f"/><stop offset="1" stop-color="#8061a4"/></linearGradient><linearGradient id="uuid-c3415c39-e750-443a-86d2-35f9f733ce2e" x1="117.22" y1="858.96" x2="878.27" y2="858.96" xlink:href="#uuid-25f321ee-7b85-43e1-a247-78695d40c81e"/></defs><path class="uuid-c520cdf6-268b-4951-9b20-8f3a498e38df" d="m1000,500c0,276.14-223.86,500-500,500S0,776.14,0,500,223.86,0,500,0s500,223.86,500,500ZM500,99.08c-221.42,0-400.92,179.5-400.92,400.92s179.5,400.92,400.92,400.92,400.92-179.5,400.92-400.92S721.42,99.08,500,99.08Z"/><circle class="uuid-d0049a11-40ab-4d69-b5a8-150a3b442859" cx="500" cy="500" r="437.09"/><path class="uuid-623a2ab6-6543-479d-8761-2c1c3cac0faf" d="m856.9,845.94c-199.51,193.14-518.81,193.14-718.32,0-23.13-22.34-27.71-53.07-12.61-64.99,19-15.72,38.01-31.44,57.01-47.16,15.13-12,39.19-7,55.43,8.61,144.06,139.46,374.61,139.46,518.67,0,16.23-15.61,40.3-20.61,55.43-8.61,19,15.72,38.01,31.44,57.01,47.16,15.1,11.92,10.52,42.66-12.61,64.99Z"/><path class="uuid-5cd5a45d-5830-4641-91a0-06f6dc3e875a" d="m164.62,810.87c5.81-2.35,11.57-4.78,17.28-7.29-4.3-4.13-8.55-8.37-12.72-12.71,3.19-1.2,6.37-2.43,9.54-3.69,4.02,4.1,8.09,8.1,12.23,12.01,4.97-2.15,9.89-4.37,14.77-6.65-4.14-3.81-8.23-7.71-12.25-11.71,3.14-1.35,6.25-2.73,9.36-4.13,3.86,3.77,7.78,7.45,11.75,11.05,4.48-2.38,8.93-4.81,13.34-7.28.86.76,1.72,1.51,2.59,2.26-4.42,2.49-8.87,4.92-13.37,7.31,5.87,5.23,11.86,10.26,17.94,15.1,4.31-2.67,8.58-5.39,12.8-8.15.9.69,1.79,1.38,2.69,2.07-4.24,2.77-8.52,5.5-12.84,8.18,4.55,3.56,9.17,7.02,13.83,10.36-2.79,1.9-5.6,3.78-8.43,5.64-4.67-3.41-9.29-6.93-13.85-10.56-4.61,2.7-9.27,5.34-13.97,7.93,4.68,3.82,9.42,7.53,14.22,11.14-2.83,1.8-5.68,3.57-8.55,5.33-4.8-3.66-9.54-7.44-14.22-11.32-5.52,2.91-11.1,5.74-16.73,8.5-.97-.83-1.94-1.66-2.9-2.5,5.66-2.71,11.27-5.5,16.81-8.36-6.53-5.51-12.94-11.23-19.22-17.16-5.72,2.53-11.49,4.97-17.32,7.34-.93-.9-1.85-1.81-2.77-2.72Zm43.68-15.95c-4.86,2.32-9.76,4.58-14.71,6.77,6.18,5.76,12.5,11.3,18.92,16.64,4.72-2.55,9.4-5.15,14.04-7.81-6.2-5-12.28-10.21-18.25-15.6Z"/><path class="uuid-5cd5a45d-5830-4641-91a0-06f6dc3e875a" d="m307.15,828.22c18.49,9.86,28.55,17.94,23.89,28.94-3.25,7.62-14.56,12-34.65,3.79-.07.04-.14.08-.21.12,15.69,9.01,22.32,16.89,18.91,24.74-7.21,17-34.3,10.49-56.86-2.92-11.48-6.72-22.74-13.97-33.73-21.74.58-.38,1.16-.77,1.73-1.16,2.17,1.53,4.34,3.03,6.53,4.52,17.2-15.61,33.79-31.74,49.76-48.37-2.16-1.36-4.31-2.74-6.45-4.14.46-.47.92-.94,1.38-1.42,9.69,6.34,19.6,12.23,29.69,17.65Zm-51.39,50.94c.89.53,1.79,1.06,2.68,1.59,11.98,7.05,25.16,4.09,31.06-7.47,4.1-7.93,2.04-13.15-7.03-18.24-.8-.45-1.59-.9-2.39-1.36-7.94,8.62-16.05,17.11-24.32,25.48Zm25.76-26.89c.12.07.24.14.36.2,9.79,5.59,20.82,5.27,27.45-7.99,3.36-6.68,1.43-12.07-5.88-16.05-.3-.16-.59-.32-.89-.49-6.88,8.2-13.89,16.32-21.04,24.33Z"/><path class="uuid-5cd5a45d-5830-4641-91a0-06f6dc3e875a" d="m386.7,895.14c-2.48,9.74-17.52,8.86-30.22,6.02-4.35-1-7.67-2.05-10.42-3.02-6.74,12.88-5.1,20.2,4.61,23.4,6.76,2.22,15.41,1.05,23.16-8.37.85.45,1.69.9,2.54,1.34-8.31,10.74-20.19,12.95-36.84,7.14-17.65-6.25-25.04-17.2-20.24-28.23,8.46-19.26,27.57-22.45,49.41-15.52,14.05,4.41,19.89,9.86,18,17.23Zm-19.71-15.74c-6.71-2.16-13.86,6.04-20.01,17,9.01,2.88,18.23,2.17,21.91-9.85,1.12-3.62,1.1-6.19-1.9-7.14Z"/><path class="uuid-5cd5a45d-5830-4641-91a0-06f6dc3e875a" d="m425.43,934.07c-7.53,5.53-12.87,6.93-22.29,5.06-13.17-2.69-18.68-8.4-16.53-16.9.88-3.68,2.32-6.69,9.57-20.1,6.68-12.54,13.03-25.21,19.06-37.98-2.84-.59-5.67-1.22-8.49-1.87.26-.57.52-1.14.78-1.71,10.14,2.34,20.35,4.29,30.61,5.83-7.83,20.26-16.39,40.33-25.68,60.17-1.18,2.48-2.53,4.94-2.85,6.64-.35,1.81.31,2.98,3.01,3.47,2.26.41,5.66-.34,10.75-4.17.68.52,1.37,1.05,2.06,1.57Z"/><path class="uuid-5cd5a45d-5830-4641-91a0-06f6dc3e875a" d="m473.91,938.95c-5.41,5.44-11.03,8.43-21.74,7.43-11.02-1.06-18.07-5.39-16.87-13.88.32-2.33,1.87-6.45,3.12-9.59,3.47-8.31,6.82-16.66,10.03-25.04-3.42-.39-6.83-.83-10.24-1.3.21-.59.43-1.18.64-1.77,11.39,1.58,22.83,2.69,34.29,3.35-6.39,19.5-9.57,28.16-11.92,35.16-.76,2.5-1.83,5.09-1.99,7.02-.15,1.83,1.23,2.56,2.81,2.68,2.58.19,5.75-1.43,9.81-5.3.69.41,1.38.83,2.07,1.24Zm-23.77-57.87c.85-6.9,8.6-10.09,17.08-9.46,6.92.52,11.06,3.34,10.83,8.46-.29,6.94-8.28,10.59-16.97,9.82-9.31-.84-11.35-5.39-10.94-8.82Z"/><path class="uuid-5cd5a45d-5830-4641-91a0-06f6dc3e875a" d="m543.02,907.06c1.12,9.98-13.19,14.43-25.96,16.24-4.38.59-7.82.79-10.71.84-1.71,14.43,2.35,20.69,12.48,20.27,7.05-.3,14.66-4.43,18.56-15.96.95.12,1.89.24,2.84.36-3.94,12.96-14.22,19.2-31.67,19.63-18.53.37-29.14-7.24-28.57-19.24,1.08-21,17.54-30.76,40.24-31.95,14.58-.81,21.96,2.25,22.79,9.81Zm-23.86-7.81c-6.98.34-10.73,10.53-12.57,22.94,9.35-.48,17.65-4.38,16.84-16.93-.23-3.78-1.15-6.17-4.27-6.01Z"/><path class="uuid-5cd5a45d-5830-4641-91a0-06f6dc3e875a" d="m598.78,901.1c-4.84.08-8.68-1.82-9.47-5.52-1.11-5.2,3.27-8.33,8.7-9.64,9.45-2.32,13.69,4.17,15.2,9.62,3.96,13.58.5,39.71-34.45,46.12-12.41,2.15-24.77-1.16-23.47-14.09.85-8.87,2.29-16.69,3.35-25.21.35-3.15.16-4.46-1.66-4.21-2.22.3-4.95,2.33-9.16,7.55-.66-.3-1.32-.6-1.97-.91,6.69-9.17,13.47-11.36,20.29-12.46,10.1-1.65,16.41.65,17.86,7.68.26,1.3.3,2.86.23,4.54-.51,7.09-1.19,13.58-1.81,23.36-.06,1.99-.19,3.67.07,5.08.48,2.61,2.2,3.98,6.74,3.09,13.27-2.54,24.46-20.97,21.3-32.22-1.62-6.13-5.34-8.75-9.05-7.64-.89,1.62-1.79,3.24-2.7,4.85Z"/><path class="uuid-5cd5a45d-5830-4641-91a0-06f6dc3e875a" d="m677.73,870.75c4.22,9.12-8.17,17.96-19.86,23.74-4.02,1.96-7.26,3.23-10.02,4.2,2.9,14.24,8.77,18.91,18.36,15.28,6.68-2.53,12.7-8.89,12.82-21.1.95-.19,1.9-.38,2.85-.57.28,13.58-7.66,22.81-24.27,28.76-17.66,6.23-30.19,2.32-33.42-9.25-5.58-20.28,7.08-34.7,28.52-43.07,13.76-5.42,21.84-4.92,25.02,2.01Zm-25.42.23c-6.6,2.55-6.99,13.41-4.85,25.78,8.82-3.41,15.58-9.77,10.85-21.43-1.41-3.51-3.05-5.5-6-4.35Z"/><path class="uuid-5cd5a45d-5830-4641-91a0-06f6dc3e875a" d="m753.37,846.86c-5.98-15.25-12.3-30.33-18.95-45.21-2.33,1.69-4.67,3.34-7.03,4.97-.3-.58-.6-1.16-.89-1.75,5.22-3.61,10.37-7.36,15.44-11.24.29.59.58,1.19.87,1.78-1.85,1.41-3.71,2.81-5.58,4.18,6.55,14.44,12.78,29.07,18.69,43.88,6.03,14.98,2.54,28.09-19.68,41.19-18.28,10.6-34.33,12.47-40.28-.18-.93-1.94-2.1-5.35-2.83-8.75-3.19-14.22-6.68-28.34-10.47-42.34-2.28,1.17-4.58,2.32-6.88,3.45-.17-.64-.34-1.27-.52-1.91,11.52-5.65,22.83-11.89,33.87-18.71.27.6.54,1.19.8,1.79-2.35,1.45-4.71,2.87-7.09,4.27,5.31,15.55,10.26,31.27,14.85,47.13.52,1.82,1.36,4.51,2.45,6.48,3.57,6.52,9.96,8.66,21.2,1.93,9.32-5.56,17.8-16.28,12.02-30.97Z"/><path class="uuid-5cd5a45d-5830-4641-91a0-06f6dc3e875a" d="m799.17,817.41c-3.95-4.19-9.32-1.07-17.81,3.04-4.04,1.99-12.96,5.57-18.73-2.02-6.38-8.46-1.58-19.04,6.37-26.36,6.02-5.52,11.31-6.87,12.52-8.08.81-.83.52-1.99.31-3.55.31-.32.61-.64.92-.96,2.9,4.09,5.76,8.21,8.58,12.36-.28.29-.56.58-.85.87-8.2-6.21-14.01-5.67-20.05-.11-5.15,4.71-6.15,9.86-3.18,13.45,3.29,3.94,8.51,1.48,12.75-.62,7.37-3.55,16.38-9.72,23.67-2.75,8.05,7.6,3.74,21.44-7.15,30.86-7.93,6.9-15.83,9.1-17.72,10.56-1.04.79-.82,2.25-.77,4.69-.43.32-.87.64-1.3.97-2.27-5.26-4.6-10.49-6.99-15.68.43-.33.87-.66,1.3-.99,5.61,6.66,14.18,8.28,24.08-.22,6.88-6,7.66-11.66,4.05-15.46Z"/></svg>