<?xml version="1.0" encoding="UTF-8"?>
<svg data-name="BelieveUs-1" xmlns="http://www.w3.org/2000/svg" xmlns:xlink="http://www.w3.org/1999/xlink" viewBox="0 0 1000 1000"><defs><style>.uuid-a235b56c-5996-4c81-80ea-4ddf06673335{fill:url(#uuid-c8c25f8a-7026-4c58-b4ea-4097a9e9e11f);}.uuid-a235b56c-5996-4c81-80ea-4ddf06673335,.uuid-6c121d09-555d-41a6-905e-66ab83967b9d{stroke:#231f20;stroke-miterlimit:10;}.uuid-50d49a2b-c8cb-4829-b346-3f91b03ec27a{fill:#f9f8f8;}.uuid-021eb8e5-d298-4671-a434-e3c48dd366d8{fill:#ff513a;}.uuid-80d2d525-a321-4e49-a567-6b03abab7e76{fill:#fe99bd;}.uuid-a71433ea-5239-4fdf-ba3f-7dc74533e856{fill:#ff9abe;}.uuid-46af79d8-9036-4a4f-8131-984a57ee5a91{fill:#fff;}.uuid-574906a3-8a22-4945-a0ae-db1bed177b4c{fill:#fff9f8;}.uuid-06a15311-b5de-4aba-a425-d613fe096e11{fill:#fefdfd;}.uuid-a4d35387-f34c-4148-b1fb-521cae9fed3b{fill:#fdf7f6;}.uuid-c43ae3de-af9e-4c44-b53a-c689812d4a7b{fill:#fed2dc;}.uuid-ac561386-e765-4473-bba2-ba1eff9463be{fill:#d1321d;}.uuid-aeb8cd9c-8be9-46b2-83ad-7605b76a83d4{fill:#d23824;}.uuid-5ae13a26-6327-4904-8de5-517a450ae4c2{fill:#4c1510;}.uuid-07665c6f-50fd-4c42-8fbd-f131282a095e{fill:#4d1611;}.uuid-b228ed0d-e544-4133-b25b-3d50feffa346{fill:url(#uuid-08fc5e66-83bf-4901-9f00-5e6cbfca69ce);}.uuid-3f614aad-9aee-4e11-a1e7-0bf6b724cf2c{fill:url(#uuid-c25a18ad-1956-4398-9111-25491e20eca4);}.uuid-6c121d09-555d-41a6-905e-66ab83967b9d{fill:url(#uuid-83a4501f-c55d-4177-bbc6-eaeba87de492);}</style><linearGradient id="uuid-08fc5e66-83bf-4901-9f00-5e6cbfca69ce" x1="0" y1="500" x2="1000" y2="500" gradientUnits="userSpaceOnUse"><stop offset="0" stop-color="#a325c1"/><stop offset=".47" stop-color="#9414af"/><stop offset=".48" stop-color="#9414af"/><stop offset=".68" stop-color="#b31bce"/><stop offset=".69" stop-color="#b61cd1"/><stop offset=".85" stop-color="#c23bdc"/><stop offset="1" stop-color="#d05de8"/></linearGradient><linearGradient id="uuid-83a4501f-c55d-4177-bbc6-eaeba87de492" x1="701.9" y1="522.13" x2="773.79" y2="639.28" gradientTransform="translate(-60.74 351.89) rotate(-8.32)" gradientUnits="userSpaceOnUse"><stop offset="0" stop-color="#a325c1"/><stop offset=".47" stop-color="#9414af"/><stop offset=".48" stop-color="#9414af"/><stop offset=".68" stop-color="#b31bce"/><stop offset=".69" stop-color="#b61cd1"/><stop offset=".85" stop-color="#c23bdc"/><stop offset="1" stop-color="#d05de8"/></linearGradient><linearGradient id="uuid-c8c25f8a-7026-4c58-b4ea-4097a9e9e11f" x1="701.02" y1="457.5" x2="789.69" y2="457.5" gradientTransform="translate(-60.74 351.89) rotate(-8.32)" xlink:href="#uuid-08fc5e66-83bf-4901-9f00-5e6cbfca69ce"/><linearGradient id="uuid-c25a18ad-1956-4398-9111-25491e20eca4" x1="221.34" y1="840.12" x2="649.77" y2="840.12" xlink:href="#uuid-08fc5e66-83bf-4901-9f00-5e6cbfca69ce"/></defs><path class="uuid-b228ed0d-e544-4133-b25b-3d50feffa346" d="m1000,500c0,276.14-223.86,500-500,500S0,776.14,0,500,223.86,0,500,0s500,223.86,500,500ZM506.95,19.07c-198.95,0-360.23,165.28-360.23,369.16s161.28,369.16,360.23,369.16,360.23-165.28,360.23-369.16S705.9,19.07,506.95,19.07Z"/><path class="uuid-6c121d09-555d-41a6-905e-66ab83967b9d" d="m809.03,820.75c.21.76.5,1.48,1.02,2.09.15.17.24.4.35.61-.01.24.17.26.33.3.2,1.51,1,2.68,2.06,3.68.25.23.34.52.42.83-.03.1,0,.12.09.07.56.48.83,1.08.71,1.83-.3.16-.27.37-.1.62-.14.05-.21.15-.19.31.03.3-.09.52-.32.69-.08.06-.18.14-.21.24-.29.92-1.08.93-1.81,1.06-.42.08-.83.07-1.23.32-.31.2-.75.23-1.15.13-.74-.19-1.43-.02-2.11.28-.28.13-.58.24-.91.22-.23-.01-.48.04-.69.14-.92.42-1.89.58-2.88.63-1.2.07-2.35.51-3.57.41-.12-.06-.23-.03-.35.01-.83.12-1.64.3-2.33.81-.35.26-.63.32-1.06.11-.52-.26-1.07-.21-1.65.03-.66.28-1.39.42-2.08.61-.05,0-.11-.01-.16-.02-.62,0-1.22-.02-1.85.2-.49.17-1.08.03-1.58.28-.49-.35-.94.02-1.41.08-.28.04-.56.07-.86.05-.49-.04-1.02-.12-1.47.01-.66.19-1.35.24-1.98.45-.81.27-1.58.2-2.37-.01-.18-.05-.36-.13-.52.02-.49.47-1.24.34-1.73.81-.06.06-.21.07-.3.05-.61-.16-1.23.03-1.84-.04-.79-.09-1.5.06-2.2.4-.22.11-.47.25-.67.16-.67-.29-1.41.06-2.07-.3-.2-.11-.42-.06-.65.11-.37.28-.86.47-1.3.33-.51-.16-.8,0-1.07.38-.04,0-.08-.01-.11-.03-.01-.1-.06-.16-.17-.12-.23-.04-.47.06-.7-.07-1.02-.54-2.17-.43-3.26-.65-.55-.11-1.08-.28-1.54-.51-.59-.29-.63-1.01-.63-1.63-.01-1.15-.19-2.27-.47-3.39-.16-.65-.37-1.27-.59-1.89-.14-.39.01-.79.04-1.19.03-.38.06-.74-.17-1.08-.25-.36.09-.87-.29-1.2-.13-1.21-.82-2.31-.68-3.57,0-.08.04-.17.01-.24-.32-.86-.3-1.78-.52-2.65-.08-.32-.16-.62-.09-.94.06-.25.07-.49-.05-.71-.35-.66-.36-1.38-.41-2.09-.08-1.1-.44-2.15-.52-3.24-.55-.69-.09-1.69-.67-2.38-.1-.12-.03-.26.02-.38.25-.64.02-1.19-.24-1.76-.22-.47-.49-.96-.18-1.51.23-.1.35-.2.02-.33-.02-.02-.04-.04-.05-.06-.08-1.07-.56-2.03-.79-3.06-.05-.21-.12-.4-.21-.6-.27-.65-.32-1.37-.61-2.02-.06-.12.02-.31.04-.47.11-.65.29-1.29-.33-1.83-.26-.23-.27-.67-.13-.98.17-.39.14-.76,0-1.09-.25-.6-.35-1.24-.5-1.85-.3-1.19-.65-2.36-1.03-3.52-.09-.29-.13-.68-.02-.95.28-.71.04-1.3-.24-1.9-.08-.17-.21-.31-.2-.51.06-1.08-.44-2-.78-2.96-.22-.62-.51-1.25-.28-1.94.05-.14,0-.26-.08-.38-.24-.37-.23-.82-.32-1.24-.03-.13.03-.29-.07-.38-.49-.48-.57-1.12-.68-1.75-.03-.16-.1-.31-.22-.42-.1-.09-.23-.2-.19-.33.28-.87-.5-1.51-.47-2.33,0-.1,0-.25-.06-.31-.53-.52-.26-1.09-.07-1.62.13-.36.12-.69,0-1.02-.27-.82-.37-1.67-.53-2.51-.1-.54-.38-1.05-.6-1.56-.45-1.04-.98-2.06-.73-3.26.04-.19-.03-.35-.16-.42-.53-.27-.48-.76-.5-1.24-.01-.21.12-.42.01-.63.11-.29-.1-.56-.04-.85.08-.11.06-.23-.08-.2-.17.03-.12.19-.1.32-.03.26-.06.52-.09.78-.11.58-.13,1.16-.05,1.74.07.49.05.95-.19,1.39-.23.42-.22.92-.14,1.34.09.43-.01.68-.27.94-.11-.05-.12,0-.08.09-.03.18-.03.38-.1.55-.29.67-.41,1.37-.5,2.08-.09.7-.21,1.4-.32,2.11-.25.08-.11.2-.03.31-.02.13-.07.26-.07.39.03.73-.2,1.42-.42,2.09-.24.7-.06,1.38.04,2.05.07.41.03.71-.27,1.01-.33.33-.45.72-.41,1.23.03.49.06,1.02-.19,1.5-.07.14-.14.33-.1.47.25.92-.38,1.68-.42,2.55-.02.38-.15.73-.45.99-.22.19-.29.43-.17.72.08.2.12.43.02.63-.35.77-.26,1.61-.34,2.42-.02.16.04.38-.04.47-.66.69-.35,1.75-.93,2.46-.05.07-.04.21-.03.31.04.85-.1,1.69-.16,2.53-.01.18-.04.4-.14.54-.51.68-.38,1.46-.4,2.22,0,.16.1.35-.02.47-.46.47-.3,1.03-.27,1.58.03.63-.09,1.22-.39,1.78-.15.28-.31.57-.11.91.03.06.03.18,0,.23-.53.73-.13,1.79-.92,2.48-.39.34-.39.97-.3,1.52.08.49.06.97-.18,1.41-.15.27-.06.53-.03.79.09.63-.11,1.19-.51,1.61-.23.24-.37.54-.34.77.09.68-.26,1.21-.43,1.8-.15.51-.39.98-.37,1.54.03.61-.31,1.13-.47,1.69-.12.41-.21.82-.23,1.24-.02.44-.21.83-.28,1.24-.16.98-.56,1.88-.9,2.8-.08.22-.07.47-.09.71-.01.13.04.31-.02.4-.55.71-.48,1.67-.92,2.41-.16.27-.21.53-.25.81-.15,1.06-.56,2.05-.75,3.1-.11.61-.6,1.11-.65,1.78-.02.23-.09.46-.1.71-.01.48-.17.86-.51,1.27-.47.57-.61,1.37-.6,2.13.01.47-.1.85-.42,1.16-.18.18-.26.38-.35.61-.35.95-.81,1.85-1.03,2.85-.11.48-.35.9-.27,1.44.04.28-.13.62-.26.91-.36.78-.63,1.63-1.15,2.28-.56.7-1.1,1.55-2.11,1.73-.44.14-.89.13-1.31-.06-1.23-.54-2.47-.99-3.84-.67-.89-.32-1.87-.18-2.74-.45-.77-.23-1.41-.25-2.1.09-.21.1-.4.21-.67.11-.81-.32-1.66-.35-2.52-.3-.13,0-.3.05-.38-.02-.68-.55-1.62-.09-2.29-.65-.06-.05-.23-.04-.29.02-.25.19-.51.06-.76.04-.57-.05-1.13-.17-1.7-.24-.75-.09-1.51-.01-2.24-.26-.11-.04-.26,0-.39.04-.61.15-1.21.02-1.78-.17-.49-.16-.96-.15-1.46-.19-.66-.04-1.36.26-1.97-.23-.11-.09-.24,0-.37.04-.19.07-.4.12-.6.17-.09.02-.17.04-.26.06-.55-.14-1.15-.11-1.64-.47-.09-.07-.19-.08-.3-.06-.98.22-1.97-.23-2.95.08-.07.02-.18.03-.23-.01-.62-.5-1.4-.36-2.1-.53-.39-.09-.83.02-1.24.11-.47.1-.94.14-1.32-.26-.15-.15-.32-.14-.51-.09-.66.16-1.3,0-1.94-.13-.59-.12-1.16-.17-1.76.09-.51.22-1.09.37-1.67.1-.13-.06-.31-.03-.46-.01-1.13.12-1.7-.61-1.94-1.59-.3-1.21.03-2.31.99-3.17.23-.21.48-.48.56-.77.25-.93.89-1.62,1.3-2.44.29-.58.61-1.15,1.12-1.59.12-.11.15-.34.19-.52.04-.15,0-.33.17-.42.47-.25.57-.72.71-1.18.02-.08,0-.19.05-.23.87-.66,1.03-1.83,1.74-2.61.24-.26.16-.66.23-.99.06-.3.11-.56.35-.77.39-.35.63-.81.9-1.26.57-.93,1.04-1.91,1.62-2.83.18-.29.23-.66.4-.95.72-1.27,1.23-2.66,1.93-3.93.62-1.12,1.04-2.37,1.87-3.36.16-.19.25-.4.24-.66-.02-.67.31-1.19.79-1.59.29-.24.43-.54.32-.84-.13-.36.03-.54.21-.78.43-.56.7-1.19.64-1.92,0-.03,0-.07-.01-.1.3-.43.74-.72.99-1.21.42-.83.67-1.71,1.01-2.56.1-.25.2-.48.34-.71.22-.39.57-.68.56-1.25,0-.39.3-.86.69-1.12.2-.14.16-.33.23-.5.24-.58.1-1.33.7-1.76.15-.11.24-.28.28-.47.15-.72.63-1.27.92-1.92.04-.1.1-.18.11-.29.07-.97.16-.93.65-2.15.24-.6.43-1.24.76-1.81.31-.53.52-1.1.88-1.6.3-.41.29-.96.34-1.46.01-.16-.07-.34.04-.47.42-.47.48-1.12.79-1.63.19-.32.12-.66.26-.98.32-.73.83-1.33,1.11-2.07.09-.25.21-.51.21-.77,0-.66.35-1.21.54-1.8.31-.95.67-1.89.96-2.86.15-.51.2-1.06.73-1.35.13-.07.16-.2.16-.34.01-.48.26-.87.54-1.23.54-.7.77-1.48.66-2.36-.02-.18.05-.31.15-.44.18-.23.35-.47.56-.66.5-.45.66-1.02.62-1.66-.04-.61.14-1.09.6-1.48.29-.24.4-.56.42-.98.03-.65.38-1.26.41-1.94,0-.08.12-.18.2-.23.38-.26.45-.64.41-1.06-.03-.37,0-.7.33-.92.15-.1.16-.27.22-.41.16-.33.3-.66.56-.96.32-.37.48-.87.63-1.36.33-1.05.68-2.11.81-3.2.09-.72.41-1.27.7-1.87.05-.1.15-.19.14-.28,0-.76.41-1.36.69-2.01.29-.69.25-1.47.59-2.16.23-.47.55-.9.61-1.45.01-.11.09-.21.08-.31-.17-1.35.6-2.47.84-3.72.14-.71.64-1.4.57-2.12-.06-.65.19-1.16.36-1.68.15-.45.36-.88.44-1.36,0-.05.07-.12.06-.15-.41-.77.21-1.41.23-2.14.01-.6.37-1.14.22-1.79-.05-.21.25-.51.39-.76.13-.23.25-.41.09-.73-.23-.45.01-.94.08-1.41.04,0,.07-.02.11-.03l.17-.14c.44.03.88-.07,1.32.06.83.25,1.64.21,2.46-.11.4-.16.85-.37,1.29-.16.35.16.65.11.96-.07.52-.31,1.11-.45,1.67-.65.57-.2,1.11-.31,1.69-.22,1.03.17,1.97-.21,2.92-.47.68-.19,1.35-.39,2.03-.55.54-.13,1.12.03,1.62-.16.63-.24,1.25-.32,1.92-.31.51,0,1.11.12,1.53-.22.51-.43,1.05-.38,1.63-.37.81.01,1.61,0,2.27-.61.21-.2.49-.2.8-.15.93.14,1.87.26,2.77-.19.18-.09.4-.15.61-.15,1.02-.02,1.96-.63,3.01-.43.12.02.26-.04.38-.11.74-.43,1.53-.48,2.35-.36.24.04.49.05.65-.18.18-.26.44-.24.69-.3.51-.13,1.08.06,1.54-.15.88-.41,1.8-.53,2.74-.65.77-.1,1.55-.19,2.3-.5.51-.21,1.06-.48,1.66-.26.17.06.35-.05.49-.19.11-.11.25-.25.39-.26.71-.03,1.37-.33,2.06-.46.82-.16,1.75-.06,2.37-.83.06.23.13.47.17.7.04.23.01.48.29.61.14.07.2.24.24.4.24,1.21.81,2.32,1,3.54.06.36.17.67.43.92.28.27.41.58.39,1-.03.65.35,1.23.42,1.87.72.42.53,1.2.68,1.85.07.28.22.57.25.84.11.77.55,1.39.76,2.09.24.79.53,1.55.84,2.31.2.48.21,1.05.32,1.57.03.16.04.38.14.44,1.19.78,1.04,2.23,1.59,3.32-.11.8.51,1.36.63,2.09.04.24.27.39.45.54.01.1.06.17.15.22.11.24.05.51-.02.71-.23.67.06,1.13.5,1.52.28.24.37.54.49.87.32.87.51,1.77.94,2.62.32.64.43,1.42.6,2.14.1.4.27.74.44,1.09.26.51.44.99.33,1.6-.09.48.3.87.6,1.23.1.12.32.21.27.36-.19.54.27.79.42,1.18.33.88.82,1.72,1,2.64.23,1.15.36,2.33,1.16,3.25.03.04.08.09.08.14-.01.97.99,1.55.95,2.53.51.58.55,1.41,1.1,1.98.47.5.83,1.11.62,1.89-.04.14-.03.37.05.46.53.56.48,1.32.73,1.98.3.78.31,1.66.91,2.35.42.48.49,1.17.64,1.79.04.16.02.39.12.45.54.38.69.94.76,1.56.06.54.35.93.74,1.27.52.44.77.99.63,1.7-.05.23-.05.49.18.66.53.38.63.96.68,1.55.04.38.07.72.45.96.19.12.28.44.37.69.14.36.29.68.64.87.15.08.24.23.27.38.2,1.02.73,1.89,1.17,2.79l.07.13c-.11.62.3,1.03.58,1.5.51.85,1.15,1.65.95,2.76-.05.27.1.46.33.66.43.36,1.05.54,1.2,1.2.19.85.75,1.57.77,2.49.01.5.4.89.82,1.09.31.15.45.29.44.63-.01.5.16.94.44,1.35.1.15.23.29.24.5.01.67.39,1.11.94,1.41.35.2.66.44.78.85.07.25.24.41.41.58.24.24.29.5.18.8-.04.03-.08.06-.11.08.04.02.09.04.13.06.08.1.16.2.24.3-.04.28.14.37.34.46.08.09.15.19.23.28,0,.11.06.14.15.14.02.05.03.11.05.16-.35.49.15.62.35.88-.09.3.04.57.08.85-.03.12.04.14.13.13.54.54.67,1.35,1.19,1.91.17.18.18.49.19.76.04.49.07.97.57,1.29.2.13.23.51.35.77-.03.25.11.31.32.32Z"/><path class="uuid-a235b56c-5996-4c81-80ea-4ddf06673335" d="m721.81,736.04s-.07.02-.11.03c-.08-.15-.2-.24-.33-.34-.62-.45-1.04-1.07-1.51-1.68-.41-.54-.52-1.05-.6-1.65-.04-.28-.02-.55.16-.76.32-.37.3-.78.19-1.21-.09-.34-.11-.68-.05-1.04.04-.2.04-.46-.05-.63-.25-.51-.14-1.05-.14-1.57,0-.3,0-.59-.05-.88-.06-.35-.12-.69.08-1.02.04-.07.06-.15.06-.23,0-.32.02-.68-.24-.9-.32-.26-.57.06-.85.18-.52.23-.68.73-.82,1.21-.09.29-.21.51-.48.57-1.52.36-2.26,1.66-3.18,2.76-.08.1-.14.28-.24.31-.91.22-1.4,1.01-2.07,1.55-.27.21-.57.24-.89.28-.05,0-.11,0-.16.02-1.1.46-1.74-.22-2.33-1-.06-.08-.12-.18-.18-.27-.06-.04-.12-.08-.17-.12-.08-.14-.14-.3-.25-.41-.55-.59-1-1.23-1.15-2.06-.07-.35-.26-.65-.5-.9-.15-.16-.3-.33-.32-.54-.11-.88-.58-1.53-1.19-2.1-.08-.08-.1-.18-.14-.28-.33-.98-.72-1.95-.8-2.99-.04-.53-.25-.95-.64-1.32-.42-.39-.57-.93-.39-1.51.08-.25.03-.47-.02-.71-.05-.23-.14-.46-.03-.7.14-.3.01-.58-.13-.84-.47-.87-.68-1.79-.59-2.78.02-.29,0-.61-.1-.87-.37-.91-.63-1.85-.84-2.81-.04-.18-.04-.38-.16-.53-.46-.62-.51-1.36-.49-2.08.02-.61-.06-1.1-.55-1.48-.15-.12-.15-.34-.24-.49-.26-.47.06-.96-.07-1.42-.05-.11-.04-.25-.18-.3.06-.48.45-.77.65-1.17.54-1.09.99-2.23,1.67-3.25.18-.27.36-.53.55-.79.13-.17.28-.34.29-.56.06-1.05.8-1.65,1.49-2.21.52-.42.51-1.02.78-1.52.07-.13.01-.31.12-.45.56-.7.93-1.53,1.66-2.13.51-.42,1-.9,1.49-1.36.29-.27.61-.66.7-1.17.09-.52.56-.84.95-1.14.52-.39.94-.93,1.56-1.19.23-.1.4-.33.48-.61.25-.83.66-1.49,1.56-1.75.33-.09.58-.43.82-.73.28-.35.61-.59,1.1-.68.48-.09.96-.44,1.26-.84.23-.31.48-.56.78-.77.24-.17.46-.35.63-.6.17-.25.39-.48.68-.52.44-.06.7-.31.89-.68.15-.29.4-.47.69-.63.65-.37,1.32-.72,1.95-1.15.2-.14.46-.26.73-.26.91,0,1.8-.21,2.71-.32.35.1.71.24.91-.24.75-.33,1.59-.05,2.36-.39.32-.14.82-.1,1.14.07.95.49,1.92.42,2.91.26.21-.03.44-.11.62-.05.78.26,1.55,0,2.32-.02.06.06.12.08.2.04.23.08.41-.03.58-.16.4-.3.81-.59,1.19-.91.37-.31.77-.56,1.25-.61.25-.03.42-.14.61-.31.37-.33.68-.78,1.17-.91.56-.14.99-.52,1.41-.85.28-.22.64-.49.73-.9.21-.93.83-1.51,1.62-1.92.14-.07.3-.1.38-.26.32-.04.63.05.92.18.36.15.73.15,1.07-.02.37-.19.74-.16,1.14-.18.61-.02,1.29.04,1.78-.43.32-.3.61-.58,1.07-.59.2,0,.32-.13.41-.32.15-.29.27-.57.32-.9.17-1.07.52-2.13.15-3.22-.02-.05-.03-.12-.01-.16.35-.76.04-1.52,0-2.28-.01-.16-.04-.33.09-.45.49-.47.84-1.06,1.24-1.61.13-.18.32-.27.54-.3.8-.18,1.64-.2,2.42-.51.57-.23,1.19-.15,1.77.05.43.14.82-.06,1.23-.07.39,0,.67.44,1.14.45.75.02,1.49.36,2.24-.03.08-.04.21-.01.31.02.85.32,1.72-.06,2.59.08.66.1,1.35,0,2.03.09.86.11,1.72-.07,2.56-.25.28-.06.53-.13.82-.12.54.03,1.07.07,1.57.33.27.14.6.15.92.13.63-.03,1.25-.04,1.88-.06.88-.02,1.75.19,2.65.05.6-.09,1.22.28,1.86.21.07,0,.15.05.21.09.57.39,1.28.61,1.49,1.41.02.06.12.09.19.14.28.24.57.47.83.73.37.37.6.78.41,1.37-.17.53.04,1.06.16,1.58.13.57.48,1.08.49,1.68.01.59.04,1.16.35,1.69.17.3.09.63-.04.94-.08.2-.19.39-.15.61.21,1.25-.01,2.52.19,3.76,0,.05.03.11.01.16-.22.83-.13,1.71-.34,2.53-.16.64-.25,1.24-.11,1.89.09.45.18.91-.33,1.21-.18.11-.22.36-.21.58.03.49-.26.92-.19,1.42.02.18-.1.46-.24.58-.54.41-.45,1.04-.64,1.58-.32.9-.61,1.82-1.07,2.64-.4.71-.58,1.48-.79,2.24-.09.32-.16.64-.37.86-.29.3-.35.63-.33,1.03.02.54-.13,1-.58,1.38-.42.35-.65.9-1.1,1.25-.15.12-.19.33-.19.52,0,.88-.34,1.58-1,2.15-.23.2-.45.5-.51.8-.1.48-.4.74-.77.96-.28.17-.47.42-.67.67-.7.85-1.41,1.69-2.11,2.55-.2.25-.34.54-.51.81-.17.27-.33.52-.67.64-.51.2-.77.78-1.29,1-.11.05-.17.27-.21.42-.33,1.29-.68,2.59-.41,3.95.18.92.26,1.85.5,2.76.18.7.37,1.44.38,2.2,0,.32.07.65.19.94.11.27.12.5.05.78-.23.93.15,1.81.28,2.7.05.32.47.6.41,1-.18,1.19.3,2.33.23,3.52-.05.77.28,1.52.55,2.25.33.9.05,1.75-.13,2.61-.04.18-.25.37-.43.45-.39.19-.61.5-.79.86-.62.77-1.55.67-2.37.83-.69.14-1.34.43-2.06.46-.13,0-.28.15-.39.26-.14.14-.32.25-.49.19-.61-.22-1.15.05-1.66.26-.75.31-1.52.4-2.3.5-.94.12-1.86.24-2.74.65-.46.21-1.02.03-1.54.15-.25.06-.51.04-.69.3-.16.23-.41.21-.65.18-.82-.12-1.61-.08-2.35.36-.11.06-.26.13-.38.11-1.05-.19-1.99.41-3.01.43-.2,0-.42.06-.61.15-.9.45-1.84.33-2.77.19-.32-.05-.59-.05-.8.15-.66.62-1.46.63-2.27.61-.58,0-1.11-.05-1.63.37-.42.34-1.02.23-1.53.22-.67,0-1.29.07-1.92.31-.5.19-1.08.03-1.62.16-.68.17-1.36.37-2.03.55-.95.26-1.89.64-2.92.47-.57-.09-1.12.02-1.69.22-.57.2-1.15.33-1.67.65-.3.18-.6.24-.96.07-.44-.2-.89,0-1.29.16-.82.31-1.63.36-2.46.11-.44-.13-.88-.04-1.32-.06-.1,0-.14.06-.17.14Zm13.43-24.57c.08.14.21.13.34.13.13.08.31.13.39.25.55.87,1.56.89,2.34,1.34.1.06.26.04.38.02.56-.09,1.16-.02,1.64-.44.15-.13.35-.07.52-.12.85-.23,1.75-.22,2.57-.62.2-.1.31-.34.6-.33.8.02,1.33-.43,1.73-1.12.46-.78.71-1.65,1.1-2.46.05-.02.11-.02.15-.06.9-.79,1.29-1.98,2.15-2.8.12-.11.15-.28.16-.44.01-.2.12-.37.27-.48.47-.36.47-.86.41-1.38-.03-.24-.14-.49,0-.71.25-.35.31-.82.54-1.14.55-.75.33-1.74.85-2.47.04-.05.02-.18-.01-.23-.18-.26-.06-.5-.02-.77.12-.89.27-1.8.32-2.69.09-1.43-.07-2.88-.12-4.32-.04-1.27-.24-2.54-.37-3.81-.09-.83-.3-1.63-.48-2.44-.11-.53-.31-.95-.65-1.33-.49-.55-1.08-.55-1.61-.02-.17.17-.33.35-.52.49-.94.66-1.64,1.57-2.32,2.49-.79,1.07-1.79,1.94-2.66,3.05-.38-.75-.93-1.32-.85-2.17.02-.19-.07-.36-.18-.52-.35-.52-.53-1.1-.61-1.72-.07-.57-.35-1.09-.84-1.29-.56-.23-.78-.61-.98-1.14-.26-.69-.85-.86-1.48-.48-.45.27-.84.62-1.11,1.11-.18.33-.26.71-.47,1.01-.51.73-.98,1.49-1.41,2.28-.3.56-.5,1.17-.88,1.68-.59.78-.59.82-1.31.19-.98-.86-2.11-1.51-3.04-2.44-.45-.45-1.03-.32-1.57-.16-.16.05-.26.19-.27.36-.03.64-.14,1.27.05,1.9.26.87.29,1.79.51,2.68.19.78.14,1.63.26,2.44.14.9.33,1.8.17,2.72-.03.17.03.31.07.46.17.56.26,1.14.24,1.77-.63-.05-1.24.17-1.81-.08-.81-.35-1.67-.56-2.43-1.06-.7-.46-1.48-.11-1.77.7-.17.48-.12.94.08,1.41.3.71.6,1.43.86,2.16.49,1.37,1.19,2.63,2.07,3.76.68.87,1.44,1.68,2.18,2.5,1.01,1.13,2.34,1.78,3.46,2.74.5.43,1.14.75,1.71,1.1.49.31,1.04.62,1.68.45h-.02Z"/><path class="uuid-5ae13a26-6327-4904-8de5-517a450ae4c2" d="m792.93,656.44c-.73.47-1.54.71-2.37.95-.56.16-1.16.42-1.5,1.01-.21,0-.24.16-.27.31-.39.32-.78.41-1.28.2-.32-.13-.76-.11-1.04.16-.7.67-1.48.8-2.34.46-.72-.28-1.45-.03-2.17-.11-.13-.02-.26-.04-.39-.06-.02-.03-.05-.06-.08-.07.02-.26-.07-.52.15-.76.19-.21.19-.47.04-.75-.07-.13-.09-.32-.06-.47.07-.5-.01-.95-.21-1.41-.12-.28-.28-.68.01-.91.46-.37.35-.79.26-1.24-.07-.34-.07-.69-.05-1.04.05-.7-.17-1.37-.38-2-.2-.61-.31-1.16-.21-1.8.09-.54.28-1.13.03-1.65-.27-.55-.31-1.13-.39-1.71-.07-.5-.07-1.01-.32-1.48-.11-.2-.2-.51-.07-.7.39-.59.09-1.11-.07-1.65-.06-.19-.15-.38-.02-.54.35-.42.29-.81.03-1.25-.09-.15-.06-.36-.01-.55.09-.42.14-.85.24-1.26.05-.21.14-.45.02-.63-.26-.38-.21-.77-.09-1.15.14-.47-.46-.74-.28-1.21,0-.02,0-.05,0-.08-.13-.58.12-1.23-.09-1.74-.35-.84-.06-1.82-.61-2.6-.06-.09-.02-.26,0-.39.03-.45.12-.9.17-1.35.09-.79.21-1.59-.12-2.36-.32-.75-.28-1.45.02-2.21.23-.6.38-1.29,0-1.93-.06-.1-.07-.27-.05-.39.05-.28.04-.52-.18-.73-.12-.12-.11-.29-.07-.46.17-.84,0-1.7.18-2.54.16-.72-.25-1.4-.15-2.13.08-.55.05-1.11-.09-1.67-.14-.57-.27-1.18-.21-1.75.1-.84.14-1.64-.18-2.44.1-.05.31.05.26-.2v.02c.35.05.46-.27.65-.47.31-.32.69-.51,1.08-.71.94-.46,1.99-.33,2.93-.7.03.1.08.15.18.11.28-.17.57-.22.89-.2.39.03.76.01,1.12-.22.84-.55,1.74-.41,2.62-.12.18.06.37.15.52.05.57-.37,1.05-.11,1.48.23.31.25.61.29,1,.28.75-.03,1.32.47,1.88.9.5.38.98.8,1.46,1.21.34.3.85.18,1.11.67.2.38.51.73.9.98.31.2.39.61.6.91.07.11.1.25.15.37.36.73.52.74,1.01.09.86-1.13,1.93-1.91,3.29-2.34,1.29-.41,2.65-.77,3.6-1.89.11-.02.22,0,.3-.1.41-.06.84-.06,1.19-.32.15-.11.3-.07.45-.06.77.04,1.52.04,2.25-.35.65-.34,1.39-.47,2.13-.31.07.02.16.05.22.02.78-.36,1.53-.05,2.28.09.86.17,1.72.36,2.58.53.19.04.35.11.47.26.49.58,1.16.98,1.56,1.64.11.17.27.24.45.31,1.07.39,1.7,1.11,1.77,2.34.02.4.28.8.42,1.19.08.2.17.41.11.62-.3,1.04-.04,2.16-.37,3.19-.25.78-.6,1.53-.94,2.28-.1.23-.18.45-.16.69,0,.1,0,.28.04.3.67.29.87,1.19,1.68,1.32.67.1,1.15.48,1.27,1.23.03.18.07.36.23.5.54.46.73,1.16,1.14,1.72.1.14.14.28.09.45-.18.63-.2,1.29-.4,1.92-.12.4-.31.79-.28,1.24.02.3-.17.56-.42.74-.29.21-.54.47-.6.82-.12.73-.57,1.09-1.18,1.36-.44.19-.46.25-.13.6.16.17.19.36.27.54.2.44.2.98.64,1.31.16.12.31.4.28.65-.07.48.15.84.41,1.16.26.33.3.64.22,1.03-.07.37-.26.8.22,1.07.04.02.06.09.06.14.02,1.34.48,2.66.09,4.01-.07.23-.2.44-.32.64-.12.21-.2.4-.21.66-.02.53-.18,1.03-.65,1.36-.29.21-.31.57-.3.88.02.28-.03.5-.26.61-.36.16-.44.47-.56.81-.34.93-1.06,1.57-1.83,2.13-.48.35-1.13.45-1.39,1.13-.1.25-.44.35-.71.45-.25.09-.49.18-.74.27-.11-.01-.14.06-.14.16-.41.2-.72.57-1.17.7-.11,0-.14.05-.12.16-.05.03-.11.06-.16.09-.13-.06-.13,0-.1.1-.32.45-.71.66-1.28.57-.48-.07-.96-.09-1.41.26-.27.21-.68.25-1.04.34-.53.13-1.06.2-1.59.37-.53.17-1.08-.04-1.58-.26-.49-.21-.97-.39-1.51-.33-.2.02-.35-.12-.52-.14-.36-.04-.71-.29-1.11,0-.37.27-.74-.13-1.07-.24-.36-.13-.73-.25-1.09-.41-.45-.2-.96-.25-1.37-.56-.17-.13-.39-.19-.59-.18-.65.01-1.24,0-1.77-.55-.26-.27-.84-.12-1.14-.53-.11-.15-.31,0-.39.13-.29.5-.7.74-1.27.81-.31.04-.53.34-.64.65-.22.62-.63,1.05-1.22,1.3-.34.15-.61.39-.87.65-.23.03-.26.18-.23.38-.23.05-.27.32-.45.43-.12-.03-.14.05-.14.14Z"/><path class="uuid-5ae13a26-6327-4904-8de5-517a450ae4c2" d="m730.6,614.11c.41-.04.83-.12,1.19.19.04.03.1.06.15.05.89-.2,1.7.39,2.58.3.68-.07,1.19.28,1.64.73.11.11.16.3.33.33,1.04.17,1.79.89,2.64,1.42.16.21.27.16.35-.07.5-.12.74-.52.93-.95.08-.17.1-.39.31-.4.78,0,1.19-.73,1.86-.94.31,0,.39-.18.34-.45.37-.13.74-.26,1.11-.38.48-.15.9-.39,1.21-.81.38-.51.9-.74,1.51-.71.45.02.82-.01,1.25-.25.38-.21.91-.12,1.32-.35.68-.37,1.35-.22,2.04-.03.15.04.31.04.47.05.03.04.07.06.11.07.08.33.18.65.03.99-.09.03-.21.05-.22.16,0,.18.15.15.26.16.25.27.27.58.09.87-.27.42-.22.84-.09,1.28.07.25.07.52.1.78-.34.13-.37.3-.06.51.04.68.31,1.36-.03,2.05-.04.08-.02.21,0,.32.13.76.26,1.53.4,2.29-.38.41-.38.44-.06.85.06.5-.06,1.02-.01,1.51.08.86-.23,1.72.07,2.56-.49.23-.11.47,0,.7,0,.42-.07.84.15,1.25.31.59.32,1.22.03,1.85-.06.13-.05.32-.03.47.19,1.51.29,3.02.16,4.55-.08.94-.24,1.91-.04,2.87.04.17.05.38-.08.54-.16.04-.31.09-.27.3.03.17.17.17.3.18.28.44.41.96.37,1.45-.06.6.09,1.17.1,1.75-.22.08-.38.17-.07.35.01.21.02.43.04.64-.23.33,0,.56.16.81.09.47.14.95.02,1.43-.05.21-.11.42.01.62.14.23.12.45-.01.68-.11.2-.09.41-.04.62.06.24.08.47-.06.69-.15.25-.12.53-.04.78.32,1.01-.11,2.07.21,3.08.02.06-.04.15-.06.23-.23.08-.37.17-.07.36,0,.48.12.96.04,1.44-.09.03-.19.05-.28.08-.31-.52-.34-.55-.71-.2-.28.26-.58.38-.92.39-.45,0-.81.2-1.12.48-.57.5-1.08,1.09-1.91,1.15-.11,0-.21.15-.31.24-.15.13-.31.2-.5.19-.06-.04-.11-.08-.17-.12-.43-.7-.7-1.42-.43-2.27.12-.37.05-.79-.25-1.04-.34-.29-.39-.67-.48-1.06.23-.19.17-.43.09-.65-.06-.17-.18-.15-.29-.01-.29,0-.47.2-.7.33-.34.19-.68.45-1.09.41-.85-.07-1.67.1-2.49.27-.14-.05-.29-.1-.43-.14-.39-.13-.64,0-.69.44-.26.05-.52.14-.77.12-.38-.03-.7-.04-.94.36-.11.18-.37.15-.59.1-.61-.15-1.23-.2-1.83-.43-.23-.38-.27-.39-.65-.09-.59.24-1.21.23-1.83.24-.36,0-.7-.2-1.08-.11-.52.13-1.01,0-1.52-.18-.68-.25-1.33-.62-2.09-.58-.37.02-.73.02-1.09-.08-.09-.34-.33-.4-.62-.35-.89-.5-1.75-1.03-2.25-2-.06-.11-.19-.21-.33-.13-.13.07-.17.22-.13.35.2.72-.02,1.38-.25,2.05-.1.28-.04.54.03.79.08.31.02.54-.18.81-.42.56-.66,1.21-.56,1.94.03.22-.05.39-.14.6-.28.6-.49,1.23-1.08,1.61-.23,1-1.03,1.56-1.69,2.21-.38.37-.44.98-.93,1.24-.34.02-.43.21-.37.52-.36.48-.96.72-1.21,1.32-.06.15-.27.24-.46.28-.6.1-1.05.43-1.39.94-.08.12-.2.17-.33.19-.35-.25-.38-.24-.49.17-.41.4-.48.84-.2,1.35.1.18.15.4.25.58.34.63.57,1.31.7,2.02-.14.09-.15.23-.14.38-.5.03-.99.09-1.31.56-.13.19-.36.17-.57.2-.97.16-1.96.2-2.92.38-.91.17-1.72-.04-2.56-.21-.01-.42-.24-.52-.6-.4-.69-.22-1.23-.54-1.62-1.26-.3-.55-.64-1.14-1.2-1.54-.29-.21-.28-.67-.52-.97-.23-.29-.45-.59-.78-.77-.35-.19-.56-.44-.57-.88,0-.38-.11-.69-.54-.87-.37-.16-.46-.66-.55-1.02-.23-.99-.5-1.98-.72-2.97-.1-.47-.29-.91-.34-1.4-.02-.16-.06-.32-.07-.48-.03-.69.4-1.34.23-2.05.42-.54.38-1.26.72-1.82.12-.2.13-.4.16-.61.45-.12.47-.16.25-.52.26-.38.47-.78.65-1.21.28-.64.69-1.31,1.36-1.67.37-.2.49-.46.34-.84-.35-.88-.14-1.84-.37-2.73-.08-.31-.09-.66-.32-.88-.66-.62-.63-1.4-.38-2.14.23-.67.08-1.21-.28-1.72-.17-.24-.17-.47-.1-.68.32-.87.3-1.76.19-2.66-.03-.2.06-.36.11-.53.23-.8.66-1.5,1.01-2.25.08-.17.18-.35.14-.53-.11-.55.1-1.04.4-1.42.29-.38.35-.95.85-1.17.03.1.08.22.2.18.16-.06.09-.21.07-.34.36-1.05,1.21-1.64,2.04-2.24.27-.2.58-.36.85-.56.3-.22.59-.42.97-.21.17.09.3.03.41-.11.07-.08.15-.14.27-.12,1.28.14,2.52-.51,3.81-.24.17.04.39,0,.53-.1.29-.21.56-.16.78.03.31.27.43.05.5-.18.2-.65.47-1.25.49-1.99.02-.97.39-1.92.51-2.89.02-.19.17-.4.31-.55.62-.61,1.14-1.28,1.4-2.14.03-.09.15-.15.23-.22.24-.03.42-.11.36-.41.6-.32.89-.89,1.18-1.47.25-.5.65-.81,1.12-1.06,1.1-.57,2.19-1.16,3.3-1.71.24-.12.51-.31.81-.12.03.1.06.23.17.22.18-.01.13-.17.13-.3.97-.51,2.03-.63,3.09-.74.05.17.14.27.33.25.23-.03.3-.17.28-.39Z"/><path class="uuid-80d2d525-a321-4e49-a567-6b03abab7e76" d="m752.4,621.31c-.13-.76-.27-1.53-.4-2.29-.02-.1-.04-.23,0-.32.34-.68.07-1.36.03-2.05.13-.16.12-.33.06-.51-.03-.26-.03-.53-.1-.78-.13-.45-.18-.86.09-1.28.18-.28.16-.6-.09-.87-.02-.11-.03-.21-.05-.32.15-.33.05-.66-.03-.99.01-.05.02-.11.03-.16.12-.41.22-.79.11-1.24-.07-.28-.11-.62.02-.94.09-.22.1-.5-.05-.7-.34-.46.33-.98-.16-1.51-.34-.37.03-.96.12-1.46.08-.46.23-.94-.09-1.39-.13-.19-.12-.45-.1-.7.08-.76-.3-1.58.27-2.27-.12-.62.17-1.25-.05-1.87-.08-.21-.05-.49,0-.72.19-.89.09-1.81.34-2.69,0-.03.02-.06.01-.08-.43-.97.55-1.72.38-2.65.3-.39.29-.95.72-1.28.58-.45,1.07-1.01,1.54-1.58.24-.29.48-.4.88-.32.58.11,1.09.23,1.54.69.27.28.71.43,1.1.55.28.09.49.25.58.49.3.82.9,1.5,1.09,2.34.11.48.24.91.52,1.3.12.19.23.24.32-.03.09-.34.41-.62.26-1.03-.02-.05.03-.18.09-.21.69-.47.48-1.28.68-1.93.1-.31.17-.58.39-.84.5-.61,1-1.24,1.51-1.81.55-.62,1.3-1.25,2.32-1.05.25.05.45.09.61.28.34.41.76.71,1.17,1.04.64.51,1.02,1.17,1.23,2.05.23.94.32,1.92.65,2.83,0,.11,0,.22-.01.33-.02.38-.23.74-.16,1.22.36-.42.35-.85.41-1.26.05-.12.09-.23.14-.35.38-.13.59-.4.5-.79-.14-.62.17-1.05.53-1.43.29-.31.59-.59.75-1,.04-.09.12-.21.2-.23.59-.18,1.08-.6,1.69-.72.32-.06.59-.24.9-.28.87-.12,1.3.02,1.41.89.04.3.15.59.42.74.47.27.54.71.48,1.17-.06.46-.04.91.06,1.36.11.48-.08.94-.11,1.41-.09.01-.16.04-.08.15.07.17-.02.41.17.51.82.43.7,1.27.7,1.96,0,.75.09,1.43.28,2.16.28,1.04.57,2.19.04,3.27-.15.3.05.51.03.77-.09.02-.19.04-.16.18.04.16.18.12.29.14.25.55.36,1.08.3,1.74-.06.6-.02,1.23-.06,1.86-.03.45.2.92.32,1.38v-.02c-.17-.06-.22.06-.25.2.32.79.28,1.6.18,2.44-.07.57.06,1.19.21,1.75.14.56.17,1.12.09,1.67-.1.73.31,1.41.15,2.13-.19.84-.01,1.7-.18,2.54-.03.17-.05.34.07.46.22.21.23.45.18.73-.02.12,0,.29.05.39.39.65.24,1.33,0,1.93-.3.77-.34,1.47-.02,2.21.32.77.21,1.57.12,2.36-.05.45-.14.9-.17,1.35,0,.13-.05.3,0,.39.54.78.26,1.75.61,2.6.21.51-.04,1.16.09,1.74,0,.03,0,.06,0,.08-.18.47.42.74.28,1.21-.12.39-.17.77.09,1.15.12.17.03.41-.02.63-.1.42-.15.84-.24,1.26-.04.19-.08.4.01.55.26.43.32.83-.03,1.25-.13.15-.04.35.02.54.16.54.46,1.06.07,1.65-.13.19-.04.5.07.7.25.47.25.97.32,1.48.08.58.12,1.16.39,1.71.25.52.06,1.11-.03,1.65-.1.63,0,1.19.21,1.8.21.63.43,1.31.38,2-.02.35-.02.7.05,1.04.09.45.2.87-.26,1.24-.29.23-.13.63-.01.91.2.46.28.91.21,1.41-.02.15,0,.34.06.47.15.27.15.54-.04.75-.22.24-.13.5-.15.76-.17.07-.29.16-.13.35-.19.31-.06.66-.14.99-.06-.05-.17-.08-.19-.14-.21-.8-.92-1.02-1.49-1.41-.06-.04-.14-.1-.21-.09-.64.07-1.26-.31-1.86-.21-.9.14-1.77-.07-2.65-.05-.63.02-1.25.02-1.88.06-.32.02-.65,0-.92-.13-.5-.26-1.03-.3-1.57-.33-.29-.02-.55.06-.82.12-.84.18-1.7.36-2.56.25-.68-.09-1.37.02-2.03-.09-.87-.14-1.73.24-2.59-.08-.09-.03-.23-.06-.31-.02-.75.39-1.49.05-2.24.03-.47-.02-.75-.46-1.14-.45-.4,0-.8.21-1.23.07-.58-.19-1.2-.27-1.77-.05-.79.31-1.62.33-2.42.51-.02-.35-.31-.69.02-1.05.06-.07,0-.25,0-.39,0-.5-.21-.93-.39-1.38.04-.01.07-.04.08-.08.35-.37.51-.78.29-1.29.02-.2.05-.39-.13-.53.08-.48-.04-.96-.04-1.44.11-.1.11-.22.07-.36.02-.08.08-.17.06-.23-.32-1.01.11-2.07-.21-3.08-.08-.25-.11-.53.04-.78.14-.23.11-.45.06-.69-.05-.21-.07-.43.04-.62.13-.23.15-.45.01-.68-.12-.2-.06-.42-.01-.62.12-.48.07-.95-.02-1.43.16-.31.18-.6-.16-.81-.01-.21-.02-.43-.04-.64.11-.1.11-.22.07-.35-.02-.58-.16-1.15-.1-1.75.05-.49-.09-1.01-.37-1.45-.01-.16-.02-.32-.03-.48.14-.16.12-.37.08-.54-.2-.96-.04-1.93.04-2.87.13-1.53.03-3.04-.16-4.55-.02-.16-.03-.34.03-.47.28-.63.28-1.25-.03-1.85-.22-.41-.16-.82-.15-1.25.17-.23.08-.47,0-.7-.3-.84,0-1.71-.07-2.56-.04-.49.07-1,.01-1.51.14-.28.39-.54.06-.85Z"/><path class="uuid-a71433ea-5239-4fdf-ba3f-7dc74533e856" d="m699.25,702.82c.13.47-.19.95.07,1.42.09.16.09.38.24.49.49.38.57.87.55,1.48-.02.71.02,1.46.49,2.08.12.16.12.35.16.53.22.96.48,1.9.84,2.81.11.26.13.59.1.87-.08,1,.12,1.91.59,2.78.14.26.27.54.13.84-.11.25-.02.47.03.7.05.24.09.46.02.71-.18.58-.02,1.12.39,1.51.4.37.6.78.64,1.32.08,1.05.48,2.01.8,2.99.03.1.05.2.14.28.61.57,1.09,1.22,1.19,2.1.03.21.17.39.32.54.24.25.43.55.5.9.16.83.6,1.47,1.15,2.06.11.11.17.27.25.41,0,.04.01.08.02.12-.04.03-.08.09-.12.1-.94.15-1.64.86-2.52,1.13-.15.05-.28.11-.4.23-.72.66-1.58,1.07-2.5,1.33-.13.04-.27.11-.38.08-.64-.19-1.21-.07-1.76.31-.16.11-.37.01-.52-.08-.19-.11-.38-.16-.59-.12-1.67.32-3.29-.15-4.92-.4-.6-.09-1.18-.36-1.8-.44-.4-.05-.58-.56-.99-.73-.22-.09-.4-.25-.65-.23-.45.04-.82-.24-1-.54-.31-.53-.77-.61-1.24-.64-.41-.03-.6-.2-.75-.56-.14-.34-.45-.51-.74-.73-.52-.39-1.33-.46-1.49-1.28,0-.05-.05-.11-.09-.13-.84-.43-1.36-1.31-2.26-1.68-.55-.22-.89-.7-1.03-1.31.2-.14.22-.34.01-.44-.49-.24-.86-.65-1.33-.92-.33-.19-.62-.22-.95-.12-.59-.06-.83-.6-1.19-.95-.19-.19-.44-.38-.54-.67-.02-.07-.08-.18-.14-.18-.76-.08-.85-.77-1.08-1.3-.11-.26-.29-.4-.49-.58-.48-.45-1.04-.85-1.27-1.53.03-.12-.03-.16-.14-.16-.01-.04-.03-.07-.03-.11-.05-.38-.27-.49-.61-.4-.4.04-.51-.26-.64-.55-.1-.21-.1-.46-.27-.64.08-.07.16-.17.07-.24-.15-.11-.2.05-.24.16-.59-.12-.87-.63-1.05-1.1-.24-.65-.68-1.05-1.24-1.35-.19-.1-.39-.19-.47-.41-.31-.93-1.05-1.59-1.49-2.43-.15-.29-.58-.31-.58-.71q-.1-.7-.66-.76c-.06-.12-.16-.34-.19-.33-.58.18-.63-.34-.86-.65-.2-.27-.45-.49-.68-.73-.02-.05-.05-.1-.07-.15-.09-.59-.36-1.12-.73-1.54-.22-.24-.27-.49-.38-.75,0-.11-.05-.14-.15-.11-.35-.02-.54-.23-.68-.55-.19-.46-.41-.91-.86-1.18-.14-.78-.19-.83-.9-.87-.13-.17-.19-.38-.22-.59-.06-.42-.3-.7-.61-.97-.46-.41-.85-.89-1.28-1.34.22-.42.11-.58-.44-.64-.51-.46-.81-1.07-1.04-1.71-.06-.16-.12-.28-.26-.37-.12-.3-.21-.64-.64-.52-.47-.83-.9-1.69-1.57-2.4-.33-.35-.31-.97-.84-1.18-.01-.05-.02-.11-.03-.16.43-.62.35-.84-.39-1.09-.26-.26-.52-.53-.78-.79-.11-.11-.27-.22-.3-.36-.26-1.02-.99-1.8-1.26-2.82-.18-.69-.06-1.38-.2-2.05.11-.02.27.01.29-.14.03-.18-.13-.15-.23-.17-.12-.32.03-.57.21-.81.17-.22.25-.47.26-.74.04-.03.06-.06.08-.11.6-.47,1.23-.86,1.93-1.13.16-.06.3-.06.46-.05.05.14.13.24.28.21.16-.03.18-.17.18-.31.42-.06.85.05,1.26-.09.04.15.07.31.27.3.16,0,.2-.13.21-.26.24.08.5.1.69.29.02.26.21.35.42.38.3.05.59.16.9.1.5-.27.13-.73.2-1.09.02-.11-.09-.24-.14-.36.3-.26.12-.58.09-.88-.02-.19-.15-.26-.32-.26l-.17-.46c-.02-.06-.04-.12-.06-.18.03.02.07.02.1,0,.11-.03.26-.05.23-.21-.02-.11-.14-.11-.24-.11,0-.32.15-.6.28-.88.1-.01.23-.03.26-.14.03-.12-.07-.18-.18-.21.1-.22.09-.5.31-.67.06-.03.12-.06.18-.09,0,0,0,0,0,0,0,.17,0,.34.22.33.2,0,.22-.18.21-.34.6-.18,1.07-.61,1.63-.87.43.4,1,.22,1.49.38.03,0,.09-.11.14-.17.75.5,1.71.22,2.48.7.2.12.36,0,.4-.22.03-.18,0-.37,0-.55.34-.25.34-.3-.03-.49-.08-.27-.1-.54,0-.82.21-.04.43-.06.4-.37-.03-.31-.24-.3-.46-.27-.06-.23-.11-.46-.18-.69-.14-.49-.28-.92.09-1.43.25-.34.28-.87.48-1.3.06-.12.09-.24.23-.29q.82-.08.93-.64c.66-.89,1.76-1.11,2.62-.45.31.24.75.2.99.55-.21.16-.25.38-.04.53.21.15.48.42.71,0,.22.02.35.2.51.32,0,.1.05.15.15.1.15.06.3.13.35.31-.32.11-.32.3-.11.51.14.15.33.1.51.08.52.8,1.37,1.26,2,1.97.21.23.43.43.51.74-.16.14-.15.27.02.38.18.12.35.1.46-.11.56.18,1.02.45,1.01,1.15,0,.23.09.45.24.57.27.22.49.43.6.79.07.24.31.24.53.21-.06.25.09.31.29.33.23.54.44,1.1.92,1.49.07.06.09.19.13.28-.12.04-.26.08-.21.25.03.1.12.17.22.17.17,0,.17-.14.17-.27.35.24.65.59.79.93.04.1.07.19.19.22.94.25,1.24,1.14,1.43,1.87.17.65.5,1,.95,1.35-.1.77.28,1.36.68,1.94.05.08.18-.04.22-.15.23.48.74.66,1.06,1.04-.1.03-.25.1-.21.18.23.45.4.98,1.03,1,.45.51.88.98,1.17,1.65.26.6.63,1.2.95,1.8.04.07.05.19.11.21.78.3.84,1.16,1.31,1.7-.01.1.01.15.11.07.44.26.78.59.87,1.13.03.16.13.29.27.37.6.32,1.04.77,1.19,1.48.02.11.08.26.22.31.02.1.07.15.17.13.02.05.04.12.08.13.65.22,1.01.78,1.42,1.28.01.1.06.15.16.1.07.17.23.1.34.15.01.1.06.15.16.12.34.46.63,1,1.02,1.36.44.42.72.94,1.11,1.36.4.42.87.81,1.31,1.19.06.17.2.22.35.27Z"/><path class="uuid-5ae13a26-6327-4904-8de5-517a450ae4c2" d="m685.33,870.26c.15-.36.57-.57.55-1.03,0-.04.05-.1.09-.12.91-.42,1.35-1.36,2.09-1.98.39-.33.8-.66.85-1.27.02-.21.23-.41.43-.55.45-.33.64-.92,1.18-1.2.18-.1.27-.52.29-.8.02-.42.19-.76.35-1.12.15-.34.18-.73.31-1.03.28-.66.34-1.36.55-2.01.2-.63.55-1.36,1.44-1.36.09,0,.17-.02.26-.03,1.2-.06,2.4-.07,3.59.18.99.21,2.01-.04,2.99.3.07.02.16,0,.23-.02.53-.11,1.04-.06,1.54.15.3.12.62.16.93.12.45-.06.8.1,1.19.29.41.2.86.38,1.35.3.31-.05,1.14.06,1.45.16.1.03.22.09.3.07.46-.15.89.06,1.29.18.48.15,1.01.06,1.43.31.4.24.72.21,1.1.04.54-.24,1.07-.15,1.6.08.97.44,1.97.71,3.04.44.43-.11.82-.1,1.15.28.16.18.43.26.65.23.57-.07,1.15.13,1.72-.06.17-.06.36-.07.54,0,.53.23,1.1.33,1.59.66.06.06.12.12.18.18,0,0-.02.05-.02.05l.05.02c.16.64.2,1.29.35,1.94.19.83.21,1.77-.58,2.42-.12.1-.09.24-.09.37-.27.18-.39.37-.05.6.02.1.03.19.05.29-.09.04-.14.1-.1.2.01.13.08.31.02.39-.45.6-.52,1.37-.89,2.01-.28.48-.4,1.02-.58,1.55-.29.86-.22,1.78-.56,2.62-.1.25-.16.5-.3.74-.14.23-.28.47-.09.74-.02.06-.05.12-.07.18-.52.72-.61,1.63-1.01,2.39-.36.7-.38,1.53-.86,2.17-.23.31-.22.72-.27,1.08-.11.74-.53,1.34-.73,2.03-.04.13-.04.28-.15.36-.59.43-.61,1.2-1.01,1.74-.12.16-.21.31-.15.52.06.22-.05.39-.2.48-.42.25-.43.67-.51,1.08-.15.82-.49,1.57-.83,2.31-.08.17-.23.35-.18.51.19.67-.17,1.23-.28,1.85-.14.82-1.05,1.55-2.01,1.55-1.04,0-2.09.03-3.14.07-.08,0-.16.02-.22.07-.64.43-1.29.24-1.94.05-.62-.18-1.22-.25-1.83.04-.35.16-.69.19-.99-.17-.12-.15-.37-.19-.55-.3-.27-.17-.58-.36-.66-.66-.17-.57-.57-.95-.96-1.31-.55-.5-.55-1.09-.36-1.69.35-1.1.46-2.23.6-3.36.11-.93.41-1.81.51-2.74.04-.34.25-.73.53-.86.72-.33.56-.87.45-1.43.02-.09.05-.18.07-.26.03-.08,0-.15-.08-.15-.1,0-.17.06-.15.18-.04.07-.08.15-.13.22-.58.14-.85.65-1.19,1.07-.06.08-.07.26-.14.28-.75.2-1.18.86-1.77,1.27-.56.38-1.16.7-1.79.97-.38.16-.77.48-1.03.8-.39.51-.94.72-1.44,1.04-.32.2-.55.45-.77.74-.4-.17-.45.05-.4.38-.03.11-.09.19-.2.22-.13.03-.31,0-.37.08-.72.89-1.87.87-2.76,1.4-.22-.02-.56-.28-.5.26-.22.37-.63.34-.96.46-.79.29-1.52.79-2.4.79-.16,0-.36.08-.48.24-.66.81-1.45.77-2.29.38-.04-.16-.1-.31-.29-.26-.19.04-.18.21-.15.37-.37.61-.86.93-1.61.82-.46-.06-.94.02-1.41.03-.24,0-.44.12-.64.25-.96.63-1.93.58-2.89-.01-.03-.1-.07-.16-.18-.1-.28.04-.58,0-.84.15-.12.07-.26.13-.37.07-.83-.45-1.89.02-2.65-.7-.14-.13-.28-.04-.43.04-.31.18-.61.07-.9-.07-.67-.33-1.17-.98-1.95-1.1-.04,0-.09-.06-.11-.11-.41-.86-1.35-1.25-1.78-2.1-.08-.16-.22-.32-.37-.41-.55-.29-.58-.79-.66-1.34-.1-.69.03-1.41-.25-2.09-.15-.37.01-.79.26-1.05.44-.46.57-1.06.82-1.6.23-.5.49-.94.98-1.21.28-.15.47-.41.58-.71.18-.49.54-.86.99-.93.53-.08.8-.42,1.08-.75.23-.27.42-.38.79-.33.78.09,1.18-.21,1.55-1.01.04-.02.07-.05.08-.09.63-.27,1.34-.23,1.95-.58.88-.5,1.78-.97,2.64-1.5.63-.39,1.35-.63,2.02-.96.66-.32,1.18-.83,1.77-1.26.43-.31.78-.72,1.32-.86.25-.07.56-.12.67-.38.35-.78.99-1.21,1.67-1.6.23.05.52.23.46-.26Z"/><path class="uuid-5ae13a26-6327-4904-8de5-517a450ae4c2" d="m821.64,867.65c.82.15,1.03.88,1.35,1.5.38.73.61,1.51.76,2.33.07.36.04.6-.15.88-.17.25-.44.48-.25.85.07.14-.03.27-.12.36-.41.39-.57.91-.74,1.43-.02.08-.05.17-.11.21-.69.52-.98,1.32-1.42,2.03-.41.67-1.07,1.11-1.93,1.19-.49.05-.97.35-1.43.58-.89.44-1.76.91-2.79.95-.33.01-.66.12-.98.26-.5.21-1,.46-1.56.17-.15-.08-.31.03-.46.06-.36.09-.74.09-1.08-.02-.26-.08-.41-.06-.63.1-.35.25-.77.32-1.18.12-.89-.41-1.83-.46-2.78-.45-.48,0-.91-.21-1.38-.27-.52-.07-1.11.12-1.58-.3-.08-.08-.3-.01-.46.02-.58.11-1.15.08-1.65-.27-.63-.45-1.41-.34-2.1-.58-.58-.2-1.18-.37-1.78-.53-.23-.06-.43-.19-.68-.12-.1.03-.24.06-.3.01-.81-.63-1.91-.45-2.72-1.08-.25-.19-.59-.23-.91-.16-.32.07-.63-.02-.91-.16-.44-.21-.83-.56-1.37-.38-.67-.47-1.67-.39-2.07-1.32-.1-.23-.33-.37-.59-.26-.19.08-.36-.08-.53,0-.27.1-.11.18,0,.26.32.4.42.85.3,1.35-.12.48-.11.91.17,1.37.37.62.52,1.33.41,2.08-.02.15-.12.31-.04.47.38.73.33,1.55.45,2.33.14.97-.28,1.76-.79,2.52-.13.19-.37.28-.41.56-.03.23-.29.28-.43.28-1.01-.02-1.97.52-3,.25-.16-.04-.34.01-.43.14-.44.64-1.13.58-1.75.65-.44.05-.87.06-1.29.23-.35.15-.69.3-1.11.05-.21-.12-.58-.07-.84.07-.4.22-.82.22-1.23.17-.52-.06-1.04.19-1.57-.03-.09-.04-.24.06-.36.09-.02-.05-.06-.08-.11-.09-.14-.26-.34-.51-.58-.61-.83-.33-1.2-1-1.26-1.83-.04-.52-.22-.97-.38-1.45-.19-.57-.25-1.15-.13-1.74.08-.41,0-.77-.24-1.14-.33-.5-.4-1.1-.33-1.7.02-.13.08-.27.03-.39-.32-.72-.3-1.51-.35-2.27-.06-.81-.34-1.55-.49-2.33-.09-.46-.28-.93-.1-1.42.06-.17-.02-.3-.05-.45-.19-.96-.63-1.89-.55-2.9.07-.84-.42-1.55-.44-2.37,0-.35-.21-.75.21-1.02.12-.08.03-.24.02-.37-.06-.72-.22-1.43-.11-2.15.03-.2-.09-.36-.17-.53-.14-.3-.21-.63-.19-.94.07-1.2.02-2.4-.22-3.58-.11-.53.24-.83.54-1.15.37-.2.61-.59,1.05-.67,1.27-.24,2.53-.57,3.84-.46.33.03.64-.01.91-.34.44-.54.96-1.02,1.74-.61.04.02.12.04.15.02.56-.38,1.32-.29,1.83-.79.26-.25.58-.26.94-.28.75-.04,1.56.04,2.19-.45.54-.42,1.15-.56,1.77-.54,1.07.03,2.03-.35,3.03-.63.12-.03.26-.1.34-.19.48-.58,1.37-.41,1.82-1.04.03-.04.15-.04.22-.02.48.13.87-.1,1.26-.31.26-.14.54-.28.82-.25.61.06,1.17-.16,1.75-.26.83.19,1.41.74,1.87,1.43.13.19.26.37.29.64.05.41.32.73.66.94.17.1.38.16.35.37-.1.75.5,1.17.76,1.74.28.6.6,1.2,1.04,1.68.41.45.79.96,1.31,1.33.64.44,1.14,1.07,1.83,1.45,0,.11.06.15.16.11.83-.14,1.33.44,1.89.89.08.06.11.22.19.24.83.26,1.4,1.05,2.3,1.2.23.04.48.18.58.39.14.28.38.31.59.31.42,0,.71.16,1.03.42.3.24.72.14,1.05,0,.48-.2.92-.03,1.38.03.03,0,.06,0,.08.01.55.73,1.44.4,2.12.72.72.33,1.49.46,2.25.63.67.15,1.37.26,1.99.62.37.22.82.24,1.23.35.36.1.52.27.66.54.37.69.94,1.02,1.69.93.04.24.16.34.39.26Z"/><path class="uuid-80d2d525-a321-4e49-a567-6b03abab7e76" d="m720.01,660.83c.5-.26.56-.87.93-1.24.66-.65,1.46-1.2,1.69-2.21.59-.38.8-1.01,1.08-1.61.09-.2.17-.37.14-.6-.1-.73.14-1.38.56-1.94.2-.27.26-.5.18-.81-.06-.26-.12-.52-.03-.79.23-.66.45-1.32.25-2.05-.04-.13,0-.28.13-.35.14-.08.27.02.33.13.5.97,1.36,1.5,2.25,2,.14.24.29.46.62.35.36.1.72.1,1.09.08.75-.04,1.41.33,2.09.58.5.19,1,.31,1.52.18.38-.09.72.12,1.08.11.62-.01,1.24,0,1.83-.24.19.22.43.1.65.09.59.22,1.22.28,1.83.43.22.05.48.08.59-.1.24-.4.56-.39.94-.36.25.02.52-.08.77-.12.38-.07.8.01,1.12-.3.82-.16,1.64-.34,2.49-.27.41.03.75-.22,1.09-.41.23-.13.41-.34.7-.33.01.24,0,.49.2.67.09.38.13.77.48,1.06.29.25.36.67.25,1.04-.26.85,0,1.57.43,2.27.01.08.03.16.04.23.02.4.02.8.02,1.19,0,.5-.15,1.01,0,1.5.19.61.07,1.19-.07,1.8-.11.5-.64.92-.33,1.51.17.33.09.68,0,1-.2.83-.61,1.58-1.06,2.28-.28.43-.42.83-.38,1.31.04.41-.08.76-.36,1.02-.3.27-.43.59-.5.96-.09.15-.25.18-.38.26-.79.41-1.41.98-1.62,1.92-.1.42-.45.68-.73.9-.42.34-.84.71-1.41.85-.49.13-.8.58-1.17.91-.19.17-.36.29-.61.31-.49.05-.88.3-1.25.61-.38.32-.79.61-1.19.91-.17.13-.35.25-.58.16-.07-.01-.13-.03-.2-.04-.77.03-1.54.27-2.32.02-.18-.06-.42.02-.62.05-.99.16-1.95.23-2.91-.26-.32-.16-.82-.21-1.14-.07-.77.33-1.61.06-2.36.39-.32.05-.62-.21-.95-.08-.59-.3-1.03-.87-1.77-.92-.35-.02-.58-.45-.78-.74-.45-.65-1.05-.91-1.78-.91-.27,0-.45-.15-.6-.32-.67-.72-1.32-1.46-1.98-2.2-.07-.08-.09-.19-.14-.28-.3-.56-.59-1.14-1.26-1.33-.18-.05-.17-.25-.25-.38-.01-.15.04-.33-.13-.44-.13-.71-.36-1.38-.7-2.02-.1-.18-.15-.4-.25-.58-.28-.51-.21-.95.2-1.35.18-.01.35-.04.49-.17.13-.02.26-.08.33-.19.34-.51.79-.84,1.39-.94.19-.03.4-.13.46-.28.25-.6.85-.84,1.21-1.32.19-.13.33-.29.37-.52Z"/><path class="uuid-80d2d525-a321-4e49-a567-6b03abab7e76" d="m793.94,850.43c-.58.1-1.14.32-1.75.26-.28-.03-.56.12-.82.25-.39.21-.78.45-1.26.31-.07-.02-.19-.02-.22.02-.45.63-1.34.46-1.82,1.04-.08.09-.22.16-.34.19-.99.28-1.96.66-3.03.63-.62-.02-1.22.12-1.77.54-.63.49-1.45.42-2.19.45-.36.02-.68.02-.94.28-.52.5-1.27.41-1.83.79-.03.02-.11,0-.15-.02-.78-.41-1.31.06-1.74.61-.27.33-.58.37-.91.34-1.31-.11-2.57.22-3.84.46-.44.09-.69.47-1.05.67-.3-1.34-.6-2.69-.91-4.03-.1-.42-.12-.84-.07-1.28.06-.58.03-1.14-.18-1.72-.21-.57-.26-1.2-.32-1.81-.08-.83-.22-1.64-.34-2.47-.05-.32-.08-.63-.27-.91-.07-.1-.11-.24-.14-.37-.18-.97-.49-1.91-.7-2.87-.09-.4,0-.85.07-1.27.05-.28-.01-.53-.05-.79.27-.39.56-.53,1.07-.38.44.13.92-.06,1.3-.33.23-.17.45-.22.65-.11.66.36,1.4.02,2.07.3.21.09.45-.05.67-.16.69-.34,1.41-.5,2.2-.4.6.07,1.22-.11,1.84.04.09.02.24.01.3-.05.49-.47,1.25-.33,1.73-.81.16-.16.34-.07.52-.02.79.21,1.56.28,2.37.01.64-.21,1.33-.26,1.98-.45.46-.13.98-.06,1.47-.01.29.03.57,0,.86-.05.47-.06.92-.43,1.41-.08.51-.26,1.1-.12,1.58-.28.63-.21,1.23-.19,1.85-.2.02.05.05.1.07.15.12.8.02,1.65.55,2.35-.1.74.33,1.35.46,2.02.04.22-.02.47-.03.71-.1.1-.16.2-.09.35.35.79.43,1.67.85,2.45.34.64.51,1.38.39,2.14-.06.37,0,.74.08,1.1,0,.11.05.14.15.12.3.38.19.83.21,1.26.02.34,0,.67.06,1.01Z"/><path class="uuid-80d2d525-a321-4e49-a567-6b03abab7e76" d="m721.4,861.47c-.49-.33-1.06-.44-1.59-.66-.18-.08-.37-.06-.54,0-.57.19-1.14-.02-1.72.06-.22.03-.5-.05-.65-.23-.33-.38-.71-.39-1.15-.28-1.07.27-2.07,0-3.04-.44-.53-.24-1.06-.33-1.6-.08-.38.17-.71.2-1.1-.04-.42-.25-.95-.16-1.43-.31-.4-.13-.83-.33-1.29-.18-.09.03-.2-.03-.3-.07-.32-.1-1.15-.21-1.45-.16-.49.08-.94-.09-1.35-.3-.39-.19-.74-.35-1.19-.29-.3.04-.63,0-.93-.12-.5-.2-1.01-.25-1.54-.15-.08.02-.17.05-.23.02-.97-.34-2-.08-2.99-.3-1.18-.26-2.38-.24-3.59-.18-.03-.05-.05-.1-.08-.14-.03-.51.02-1,.33-1.44.13-.19.24-.44.24-.66.01-1.27.55-2.34,1.18-3.37.11-.18.24-.35.2-.59-.17-.96.34-1.74.71-2.55.1-.23.15-.43.16-.67.03-.66.16-1.3.48-1.89.11.02.13-.03.1-.12.04-.17.18-.32.12-.51.03-.05.06-.11.1-.16.2-.06.41-.1.6-.17.13-.05.26-.13.37-.04.61.48,1.31.18,1.97.23.49.03.97.03,1.46.19.57.19,1.17.32,1.78.17.13-.03.28-.08.39-.04.73.25,1.5.17,2.24.26.57.07,1.13.19,1.7.24.25.02.51.15.76-.04.07-.05.24-.06.29-.02.67.56,1.61.1,2.29.65.08.07.25.02.38.02.86-.05,1.71-.02,2.52.3.26.1.46,0,.67-.11.69-.34,1.33-.32,2.1-.09.87.26,1.85.13,2.74.45,1.37-.32,2.61.14,3.84.67.42.18.87.2,1.31.06,0,.5-.06.94-.4,1.39-.3.39-.44.97-.37,1.5.09.72,0,1.32-.43,1.96-.25.38-.61.98-.2,1.55.12.16.02.32-.05.45-.43.81-.31,1.82-.94,2.58-.17.2-.3.6-.29.89.04.99-.42,1.86-.6,2.79Z"/><path class="uuid-ac561386-e765-4473-bba2-ba1eff9463be" d="m685.04,685.79c-.04.11-.17.23-.22.15-.4-.58-.78-1.17-.68-1.94.41-.04.67.18.64.57-.03.45.19.81.26,1.22Z"/><path class="uuid-ac561386-e765-4473-bba2-ba1eff9463be" d="m679.83,722.6c.34-.1.62-.07.95.12.47.27.84.68,1.33.92.2.1.19.3-.01.44-.03,0-.06,0-.08-.01-.73-.49-1.47-.98-2.2-1.46Z"/><path class="uuid-ac561386-e765-4473-bba2-ba1eff9463be" d="m686.92,688.01c-.63-.02-.8-.55-1.03-1-.04-.08.11-.15.21-.18.18.17.36.35.55.5.22.18.32.39.28.67Z"/><path class="uuid-ac561386-e765-4473-bba2-ba1eff9463be" d="m663.87,676.08c-.05.06-.11.18-.14.17-.49-.16-1.06.02-1.49-.38.59-.3,1.13-.22,1.63.21Z"/><path class="uuid-ac561386-e765-4473-bba2-ba1eff9463be" d="m659.45,679.71c.17,0,.31.08.32.26.03.3.21.62-.09.88q-.52-.36-.23-1.15Z"/><path class="uuid-ac561386-e765-4473-bba2-ba1eff9463be" d="m659.62,682.3c-.31.06-.6-.05-.9-.1-.21-.03-.39-.12-.42-.38.49,0,1.05-.16,1.32.48Z"/><path class="uuid-ac561386-e765-4473-bba2-ba1eff9463be" d="m662.28,701.83c.71.05.76.09.9.87-.35.1-.59-.01-.7-.38-.05-.17-.13-.33-.2-.5Z"/><path class="uuid-ac561386-e765-4473-bba2-ba1eff9463be" d="m672.48,670.33c-.23.43-.5.16-.71,0-.22-.15-.17-.37.04-.53.27.11.48.31.67.53Z"/><path class="uuid-ac561386-e765-4473-bba2-ba1eff9463be" d="m654.96,690.84c.74.25.82.47.39,1.09-.05-.04-.1-.09-.15-.13,0-.34-.17-.64-.25-.96Z"/><path class="uuid-ac561386-e765-4473-bba2-ba1eff9463be" d="m668.2,669.7q-.1.56-.93.64c.13-.48.45-.69.93-.64Z"/><path class="uuid-50d49a2b-c8cb-4829-b346-3f91b03ec27a" d="m725.21,675.72c.33-.13.63.13.95.08-.21.48-.57.33-.91.24-.01-.11-.03-.21-.04-.32Z"/><path class="uuid-ac561386-e765-4473-bba2-ba1eff9463be" d="m667.78,708.69q.56.06.66.76c-.32-.16-.6-.36-.66-.76Z"/><path class="uuid-ac561386-e765-4473-bba2-ba1eff9463be" d="m673.89,671.67c-.18.02-.36.06-.51-.08-.21-.22-.22-.41.11-.51.2.15.34.34.4.6Z"/><path class="uuid-ac561386-e765-4473-bba2-ba1eff9463be" d="m666.64,674.05c.22-.03.43-.03.46.27.03.31-.19.33-.4.37-.09-.21-.12-.42-.06-.65Z"/><path class="uuid-ac561386-e765-4473-bba2-ba1eff9463be" d="m659.73,698.28c.55.06.67.22.44.64-.31-.1-.25-.46-.44-.64Z"/><path class="uuid-a4d35387-f34c-4148-b1fb-521cae9fed3b" d="m806.2,814.72c-.21-.25-.7-.39-.35-.88.22.25.32.55.35.88Z"/><path class="uuid-ac561386-e765-4473-bba2-ba1eff9463be" d="m657.79,695.67c.44-.11.53.22.64.52-.44.12-.53-.22-.64-.52Z"/><path class="uuid-ac561386-e765-4473-bba2-ba1eff9463be" d="m676.89,674.65c-.12.21-.28.22-.46.11-.17-.11-.18-.25-.02-.38.16.09.32.18.49.28Z"/><path class="uuid-5ae13a26-6327-4904-8de5-517a450ae4c2" d="m730.6,614.11c.02.22-.06.36-.28.39-.19.02-.29-.08-.33-.25.21-.05.38-.24.62-.14Z"/><path class="uuid-5ae13a26-6327-4904-8de5-517a450ae4c2" d="m702.87,651.97c.22.35.2.4-.25.52-.05-.24.07-.4.25-.52Z"/><path class="uuid-ac561386-e765-4473-bba2-ba1eff9463be" d="m680.78,679.63c0,.13,0,.27-.17.27-.1,0-.2-.07-.22-.17-.05-.17.09-.21.21-.25.06.05.13.1.19.15Z"/><path class="uuid-ac561386-e765-4473-bba2-ba1eff9463be" d="m674.35,716.72c.35-.09.56.03.61.4-.35.1-.46-.19-.61-.4Z"/><path class="uuid-574906a3-8a22-4945-a0ae-db1bed177b4c" d="m746.06,765.1c.03-.26.06-.52.09-.78.06-.04.12-.08.18-.11-.05.29.15.56.04.85-.11.01-.21.03-.32.04Z"/><path class="uuid-a4d35387-f34c-4148-b1fb-521cae9fed3b" d="m813.92,830.78c-.17-.24-.2-.46.1-.62.06.22.16.45-.1.62Z"/><path class="uuid-5ae13a26-6327-4904-8de5-517a450ae4c2" d="m708.4,669.13c.36-.12.58-.03.6.4-.31.04-.45-.18-.6-.4Z"/><path class="uuid-ac561386-e765-4473-bba2-ba1eff9463be" d="m666.71,675.51c.37.19.38.24.03.49-.07-.16-.11-.32-.03-.49Z"/><path class="uuid-07665c6f-50fd-4c42-8fbd-f131282a095e" d="m693.14,888.07c-.06-.33,0-.55.4-.38-.04.23-.25.27-.4.38Z"/><path class="uuid-07665c6f-50fd-4c42-8fbd-f131282a095e" d="m682.72,891.98c-.02-.16-.04-.32.15-.37.19-.04.25.11.29.26-.15.03-.29.07-.44.1Z"/><path class="uuid-5ae13a26-6327-4904-8de5-517a450ae4c2" d="m716.5,668.2c.16.11.12.28.13.44-.1.03-.2.06-.27-.05-.01-.15,0-.29.14-.38Z"/><path class="uuid-ac561386-e765-4473-bba2-ba1eff9463be" d="m660.6,676.74c0,.16,0,.34-.21.34-.21,0-.22-.16-.22-.33.14,0,.28,0,.43-.01Z"/><path class="uuid-ac561386-e765-4473-bba2-ba1eff9463be" d="m657.62,681.53c-.02.13-.06.25-.21.26-.2,0-.23-.15-.27-.3.18-.19.33-.01.48.04Z"/><path class="uuid-ac561386-e765-4473-bba2-ba1eff9463be" d="m655.87,681.57c0,.14-.02.28-.18.31-.16.03-.24-.07-.28-.21.14-.1.29-.16.46-.1Z"/><path class="uuid-50d49a2b-c8cb-4829-b346-3f91b03ec27a" d="m721.23,867.05c-.34-.23-.22-.42.05-.6.05.21.14.42-.05.6Z"/><path class="uuid-07665c6f-50fd-4c42-8fbd-f131282a095e" d="m685.33,870.26c.06.48-.23.31-.46.26.09-.19.28-.22.46-.26Z"/><path class="uuid-50d49a2b-c8cb-4829-b346-3f91b03ec27a" d="m821.64,867.65c-.24.08-.36-.03-.39-.26.19,0,.36.02.39.26Z"/><path class="uuid-5ae13a26-6327-4904-8de5-517a450ae4c2" d="m720.19,619.42c.07.3-.12.38-.36.41.03-.22.11-.39.36-.41Z"/><path class="uuid-50d49a2b-c8cb-4829-b346-3f91b03ec27a" d="m788.8,658.71c.03-.16.07-.31.27-.31,0,.18.13.49-.27.31Z"/><path class="uuid-a4d35387-f34c-4148-b1fb-521cae9fed3b" d="m805.42,813.26c-.2-.09-.39-.18-.34-.46.32,0,.31.24.34.46Z"/><path class="uuid-5ae13a26-6327-4904-8de5-517a450ae4c2" d="m742.91,614.31c.05.28-.03.46-.34.45.05-.2.1-.4.34-.45Z"/><path class="uuid-07665c6f-50fd-4c42-8fbd-f131282a095e" d="m689.3,890.02c-.06-.54.28-.28.5-.26-.09.24-.33.18-.5.26Z"/><path class="uuid-ac561386-e765-4473-bba2-ba1eff9463be" d="m652.48,684.51c.11.02.27-.01.23.17-.03.15-.18.12-.29.14.02-.1.04-.21.06-.31Z"/><path class="uuid-50d49a2b-c8cb-4829-b346-3f91b03ec27a" d="m793.52,655.87c-.03-.19,0-.35.23-.38.03.19-.04.33-.23.38Z"/><path class="uuid-a4d35387-f34c-4148-b1fb-521cae9fed3b" d="m778.43,605.2c-.11-.02-.25.02-.29-.14-.04-.13.06-.16.16-.18.11.08.13.19.13.32Z"/><path class="uuid-06a15311-b5de-4aba-a425-d613fe096e11" d="m798.51,835.23c.11-.05.23-.08.35-.01-.1.32-.22.31-.35.01Z"/><path class="uuid-a4d35387-f34c-4148-b1fb-521cae9fed3b" d="m810.74,823.74c-.16-.04-.34-.06-.33-.3.21-.02.32.09.33.3Z"/><path class="uuid-a4d35387-f34c-4148-b1fb-521cae9fed3b" d="m655.21,691.8s.1.09.15.13c0,.05.02.11.03.16-.19-.02-.32-.06-.18-.29Z"/><path class="uuid-50d49a2b-c8cb-4829-b346-3f91b03ec27a" d="m781.37,659.64c-.16-.19-.05-.29.13-.35.04.01.06.04.08.07-.02.14-.08.23-.21.28Z"/><path class="uuid-574906a3-8a22-4945-a0ae-db1bed177b4c" d="m809.03,820.75c-.2,0-.35-.07-.32-.32.22-.01.31.11.32.32Z"/><path class="uuid-a4d35387-f34c-4148-b1fb-521cae9fed3b" d="m679.55,677.71c-.2-.02-.34-.09-.29-.33.2.02.28.14.29.33Z"/><path class="uuid-5ae13a26-6327-4904-8de5-517a450ae4c2" d="m706.73,631.36c.01.12.09.28-.07.34-.11.04-.16-.08-.2-.18.09-.05.18-.1.27-.16Z"/><path class="uuid-50d49a2b-c8cb-4829-b346-3f91b03ec27a" d="m805.8,609.22c-.08.1-.2.08-.3.1.05-.2.13-.27.3-.1Z"/><path class="uuid-021eb8e5-d298-4671-a434-e3c48dd366d8" d="m756.17,808.2c.33.13.21.24-.02.33l.02-.33Z"/><path class="uuid-574906a3-8a22-4945-a0ae-db1bed177b4c" d="m744.38,775.66c-.08-.11-.22-.23.03-.31.18.12.12.22-.03.31Z"/><path class="uuid-5ae13a26-6327-4904-8de5-517a450ae4c2" d="m726.89,614.99c0,.12.05.28-.13.3-.11,0-.14-.12-.17-.22.1-.03.2-.05.3-.08Z"/><path class="uuid-ac561386-e765-4473-bba2-ba1eff9463be" d="m659.32,678.75c.1,0,.22,0,.24.11.03.17-.12.18-.23.21-.06-.11-.07-.21,0-.32Z"/><path class="uuid-ac561386-e765-4473-bba2-ba1eff9463be" d="m673.27,715.46c.05-.11.09-.27.24-.16.09.07,0,.17-.07.24-.08.02-.14,0-.17-.08Z"/><path class="uuid-06a15311-b5de-4aba-a425-d613fe096e11" d="m792.19,842.35c-.07-.14,0-.25.09-.35.3.21.1.28-.09.35Z"/><path class="uuid-06a15311-b5de-4aba-a425-d613fe096e11" d="m785.45,757.53l-.04.14s-.12-.01-.13-.04c-.02-.03.02-.09.03-.14.05.01.09.03.14.04Z"/><path class="uuid-574906a3-8a22-4945-a0ae-db1bed177b4c" d="m770.32,594.96c-.05.12-.09.23-.14.35-.08.01-.17.03-.25.04,0-.11,0-.22.01-.33.13-.02.25-.04.38-.06Z"/><path class="uuid-ac561386-e765-4473-bba2-ba1eff9463be" d="m659.69,677.52c.1.03.21.09.18.21-.03.11-.16.12-.26.14,0-.13-.04-.26.09-.35Z"/><path class="uuid-a4d35387-f34c-4148-b1fb-521cae9fed3b" d="m699.25,702.82c-.15-.05-.29-.1-.35-.27.06,0,.11-.02.17-.03.14.05.13.19.18.3Z"/><path class="uuid-a4d35387-f34c-4148-b1fb-521cae9fed3b" d="m761.04,595.7c-.09.26-.2.22-.32.03.11,0,.21-.02.32-.03Z"/><path class="uuid-a4d35387-f34c-4148-b1fb-521cae9fed3b" d="m693.64,857.61s.05.1.08.14c-.09,0-.18.02-.26.03.03-.1.09-.15.19-.17Z"/><path class="uuid-a4d35387-f34c-4148-b1fb-521cae9fed3b" d="m659.23,679.07c.02.06.04.12.06.18-.07,0-.16.02-.16-.08,0-.03.07-.06.1-.1Z"/><path class="uuid-a4d35387-f34c-4148-b1fb-521cae9fed3b" d="m665.98,706.84s.05.1.07.15c-.07,0-.21,0-.21-.02-.03-.11.07-.11.14-.13Z"/><path class="uuid-a4d35387-f34c-4148-b1fb-521cae9fed3b" d="m697.26,845.65c-.03.05-.06.11-.1.16-.05-.03-.11-.06-.16-.1.09-.02.17-.04.26-.06Z"/><path class="uuid-50d49a2b-c8cb-4829-b346-3f91b03ec27a" d="m739.47,617.05c-.07.23-.19.28-.35.07.12-.02.23-.05.35-.07Z"/><path class="uuid-a4d35387-f34c-4148-b1fb-521cae9fed3b" d="m695.46,698.64c-.1.03-.15-.02-.16-.12.05.04.11.08.16.12Z"/><path class="uuid-021eb8e5-d298-4671-a434-e3c48dd366d8" d="m695.26,810.01s0,.07.01.1c-.04-.01-.08-.02-.12-.03.04-.02.07-.04.11-.07Z"/><path class="uuid-574906a3-8a22-4945-a0ae-db1bed177b4c" d="m796.75,796.55l-.07-.13s.06.05.08.08c0,0,0,.04-.01.06Z"/><path class="uuid-a4d35387-f34c-4148-b1fb-521cae9fed3b" d="m694.95,698.37c-.1.05-.15,0-.16-.1l.16.1Z"/><path class="uuid-a71433ea-5239-4fdf-ba3f-7dc74533e856" d="m804.83,812.51s-.09-.04-.13-.06c.04-.03.08-.06.11-.08.02.05.02.09.01.14Z"/><path class="uuid-aeb8cd9c-8be9-46b2-83ad-7605b76a83d4" d="m707.88,729.78s-.01-.08-.02-.12c.06.04.12.08.17.12-.05,0-.1,0-.15,0Z"/><path class="uuid-a4d35387-f34c-4148-b1fb-521cae9fed3b" d="m805.8,813.68c-.09,0-.16-.03-.15-.14.05.05.1.1.15.14Z"/><path class="uuid-a4d35387-f34c-4148-b1fb-521cae9fed3b" d="m690.56,693.43c-.1.08-.12.03-.11-.07.05,0,.08.03.11.07Z"/><path class="uuid-a4d35387-f34c-4148-b1fb-521cae9fed3b" d="m806.41,815.7c-.09,0-.16-.01-.13-.13.04.04.09.09.13.13Z"/><path class="uuid-5ae13a26-6327-4904-8de5-517a450ae4c2" d="m751.96,611.75c-.01.05-.02.11-.03.16-.05-.01-.08-.04-.11-.07l.14-.09Z"/><path class="uuid-574906a3-8a22-4945-a0ae-db1bed177b4c" d="m745.33,770.6c-.03-.09-.03-.14.08-.09-.02.04-.04.07-.08.09Z"/><path class="uuid-a4d35387-f34c-4148-b1fb-521cae9fed3b" d="m664.72,704.45c.1-.04.15,0,.15.11-.05-.04-.1-.07-.15-.11Z"/><path class="uuid-a4d35387-f34c-4148-b1fb-521cae9fed3b" d="m813.31,828.34c-.08.04-.12.02-.09-.07.04.01.07.04.09.07Z"/><path class="uuid-a4d35387-f34c-4148-b1fb-521cae9fed3b" d="m697.04,846.32c.03.1.01.15-.1.12.03-.04.07-.08.1-.12Z"/><path class="uuid-a4d35387-f34c-4148-b1fb-521cae9fed3b" d="m767.08,839.6c.11-.04.16.02.17.12-.06-.04-.11-.08-.17-.12Z"/><path class="uuid-ac561386-e765-4473-bba2-ba1eff9463be" d="m653.02,682.86s-.04.08-.08.11c-.05-.09-.02-.13.08-.11Z"/><path class="uuid-a4d35387-f34c-4148-b1fb-521cae9fed3b" d="m675,717.24c.11,0,.17.03.14.16-.05-.05-.09-.1-.14-.16Z"/><path class="uuid-a4d35387-f34c-4148-b1fb-521cae9fed3b" d="m777.07,596.22c-.08-.11-.02-.14.08-.15-.03.05-.05.1-.08.15Z"/><path class="uuid-06a15311-b5de-4aba-a425-d613fe096e11" d="m791.31,836.93s-.05-.1-.07-.15c.05,0,.11.01.16.02-.03.04-.06.09-.09.13Z"/><path class="uuid-50d49a2b-c8cb-4829-b346-3f91b03ec27a" d="m815.21,653.59c-.03-.1-.03-.17.1-.1-.01.05-.05.09-.1.1Z"/><path class="uuid-021eb8e5-d298-4671-a434-e3c48dd366d8" d="m778.85,751.2c-.09-.05-.13-.12-.15-.22.11.03.17.1.15.22Z"/><path class="uuid-ac561386-e765-4473-bba2-ba1eff9463be" d="m660.17,676.76c-.06.03-.12.06-.18.09,0-.16.06-.19.18-.09Z"/><path class="uuid-06a15311-b5de-4aba-a425-d613fe096e11" d="m793.66,848.16c-.1.02-.16,0-.15-.12.05.04.1.08.15.12Z"/><path class="uuid-50d49a2b-c8cb-4829-b346-3f91b03ec27a" d="m815.47,653.39c-.02-.1.01-.16.12-.16-.04.05-.08.1-.12.16Z"/><polygon class="uuid-50d49a2b-c8cb-4829-b346-3f91b03ec27a" points="721.61 861.72 721.56 861.7 721.58 861.65 721.61 861.72"/><path class="uuid-50d49a2b-c8cb-4829-b346-3f91b03ec27a" d="m792.93,656.44c0-.09.02-.17.14-.14-.05.05-.09.09-.14.14Z"/><path class="uuid-50d49a2b-c8cb-4829-b346-3f91b03ec27a" d="m816.77,652.54c0-.1.03-.17.14-.16-.05.05-.09.11-.14.16Z"/><path class="uuid-50d49a2b-c8cb-4829-b346-3f91b03ec27a" d="m721.18,867.54c-.04-.11,0-.16.1-.2-.03.07-.06.13-.1.2Z"/><path class="uuid-07665c6f-50fd-4c42-8fbd-f131282a095e" d="m672.84,877.64s-.04.07-.08.09c-.04-.1-.04-.15.08-.09Z"/><path class="uuid-06a15311-b5de-4aba-a425-d613fe096e11" d="m802.22,860.11c-.1.04-.15,0-.16-.11.05.04.11.07.16.11Z"/><path class="uuid-50d49a2b-c8cb-4829-b346-3f91b03ec27a" d="m718.72,875.76c.02-.06.05-.12.07-.18-.02.06-.05.12-.07.18Z"/><path class="uuid-a4d35387-f34c-4148-b1fb-521cae9fed3b" d="m673.14,670.76c-.1.04-.14,0-.15-.1.05.03.1.07.15.1Z"/><path class="uuid-50d49a2b-c8cb-4829-b346-3f91b03ec27a" d="m702.02,881.27c-.02.09-.05.18-.07.26-.09,0-.19,0-.28-.01.04-.07.08-.15.13-.22.08,0,.15-.02.23-.03Z"/><path class="uuid-50d49a2b-c8cb-4829-b346-3f91b03ec27a" d="m787.11,875.07c-.12-.08-.28-.17,0-.26,0,.09,0,.18,0,.26Z"/><path class="uuid-50d49a2b-c8cb-4829-b346-3f91b03ec27a" d="m783.85,608.42c-.11.05-.15-.01-.18-.11l.18.11Z"/><path class="uuid-50d49a2b-c8cb-4829-b346-3f91b03ec27a" d="m675.99,892.98c.11-.06.15,0,.18.1-.06-.03-.12-.07-.18-.1Z"/><path class="uuid-a71433ea-5239-4fdf-ba3f-7dc74533e856" d="m775.07,887.59c.05,0,.09.04.11.09-.1.06-.12,0-.11-.09Z"/><path class="uuid-a4d35387-f34c-4148-b1fb-521cae9fed3b" d="m693.29,696.85c-.1.02-.16-.03-.18-.13.06.04.12.09.18.13Z"/><path class="uuid-021eb8e5-d298-4671-a434-e3c48dd366d8" d="m746.33,764.21c-.06.04-.12.08-.18.11-.02-.13-.06-.29.1-.32.14-.02.16.09.08.2Z"/><path class="uuid-021eb8e5-d298-4671-a434-e3c48dd366d8" d="m721.81,736.04c.02-.09.07-.14.17-.14-.06.05-.11.1-.17.14Z"/><path class="uuid-c43ae3de-af9e-4c44-b53a-c689812d4a7b" d="m735.27,711.48c-.64.17-1.19-.15-1.68-.45-.58-.36-1.21-.67-1.71-1.1-1.12-.96-2.45-1.61-3.46-2.74-.73-.83-1.5-1.63-2.18-2.5-.88-1.13-1.58-2.39-2.07-3.76-.26-.73-.55-1.45-.86-2.16-.2-.47-.25-.93-.08-1.41.28-.81,1.07-1.16,1.77-.7.76.5,1.62.71,2.43,1.06.57.25,1.18.03,1.81.08.02-.63-.07-1.21-.24-1.77-.05-.16-.1-.29-.07-.46.16-.92-.03-1.82-.17-2.72-.12-.81-.07-1.67-.26-2.44-.22-.89-.25-1.81-.51-2.68-.18-.63-.08-1.27-.05-1.9,0-.17.11-.32.27-.36.54-.16,1.12-.29,1.57.16.93.92,2.07,1.58,3.04,2.44.72.63.72.6,1.31-.19.39-.51.58-1.13.88-1.68.43-.79.9-1.55,1.41-2.28.21-.31.29-.68.47-1.01.27-.49.66-.84,1.11-1.11.63-.38,1.22-.22,1.48.48.2.53.42.91.98,1.14.49.2.76.72.84,1.29.08.62.26,1.2.61,1.72.11.16.2.34.18.52-.07.85.47,1.42.85,2.17.87-1.11,1.87-1.98,2.66-3.05.68-.92,1.38-1.82,2.32-2.49.19-.14.35-.32.52-.49.53-.53,1.12-.53,1.61.02.34.38.53.8.65,1.33.17.81.39,1.61.48,2.44.13,1.27.33,2.54.37,3.81.05,1.44.2,2.89.12,4.32-.05.89-.2,1.79-.32,2.69-.04.26-.16.51.02.77.04.05.05.18.01.23-.53.73-.3,1.72-.85,2.47-.23.32-.3.78-.54,1.14-.15.22-.03.47,0,.71.06.52.06,1.02-.41,1.38-.15.11-.25.28-.27.48-.01.17-.05.33-.16.44-.86.81-1.25,2.01-2.15,2.8-.04.03-.1.04-.15.06.12-.58.05-1.18.26-1.74.07-.18.02-.39-.08-.55-.24-.36-.2-.75-.2-1.16,0-.46.04-.9.17-1.34.08-.26.15-.54.02-.79-.22-.43-.25-.86-.19-1.33.03-.21,0-.46-.08-.63-.24-.47-.19-.93-.07-1.4.05-.19.07-.43-.05-.54-.6-.51-.37-1.24-.44-1.85-.07-.66-.21-1.32-.27-1.98-.05-.59-.46-.93-.99-.98-.61-.05-1.12-.03-1.46.64-.26.5-.58.94-1.18,1.08-.26.06-.44.27-.58.52-.08.14-.14.36-.25.39-.5.14-.77.48-.88,1.03-.14-.14-.23-.2-.28-.29-.43-.64-.79-1.33-1.54-1.67-.15-.07-.31-.25-.35-.41-.1-.4-.37-.65-.66-.87-.28-.21-.53-.47-.67-.77-.26-.57-.75-.62-1.24-.69-.21-.03-.43.03-.53.27-.14.37-.42.77-.38,1.13.08.69-.28,1.19-.55,1.72-.17.34-.23.63-.09.99.19.49.21.97-.06,1.47-.16.3-.2.69.02,1.01.45.67.05,1.35.14,2.07-.93-.27-1.73-.69-2.64-.7-.35,0-.79-.06-.92.28-.22.57-.6,1.17-.1,1.81.27.34.35.76.42,1.18.09.52.12,1.11.4,1.51.54.77.77,1.64,1.02,2.51.2.71.61,1.23,1.2,1.62.14.09.26.15.32.32.23.63.74,1.02,1.18,1.47Z"/><path class="uuid-80d2d525-a321-4e49-a567-6b03abab7e76" d="m735.27,711.48c-.44-.45-.95-.84-1.18-1.47-.06-.17-.18-.23-.32-.32-.59-.38-1-.91-1.2-1.62-.25-.87-.48-1.74-1.02-2.51-.28-.4-.32-.99-.4-1.51-.07-.43-.16-.84-.42-1.18-.5-.64-.12-1.24.1-1.81.14-.34.58-.29.92-.28.91,0,1.71.43,2.64.7-.09-.72.31-1.4-.14-2.07-.22-.32-.18-.71-.02-1.01.27-.5.25-.98.06-1.47-.14-.36-.08-.65.09-.99.26-.54.62-1.03.55-1.72-.04-.36.23-.75.38-1.13.09-.24.32-.3.53-.27.49.07.98.12,1.24.69.14.3.38.56.67.77.29.22.56.47.66.87.04.16.2.35.35.41.74.34,1.11,1.03,1.54,1.67.06.08.14.15.28.29.11-.55.38-.89.88-1.03.11-.03.17-.25.25-.39.13-.24.32-.46.58-.52.6-.14.92-.58,1.18-1.08.34-.67.85-.69,1.46-.64.54.04.94.39.99.98.06.67.2,1.32.27,1.98.07.61-.16,1.34.44,1.85.13.11.1.35.05.54-.12.47-.18.93.07,1.4.09.18.11.43.08.63-.06.47-.03.9.19,1.33.13.25.05.54-.02.79-.13.44-.16.88-.17,1.34,0,.41-.04.79.2,1.16.1.16.15.37.08.55-.21.56-.14,1.17-.26,1.74-.39.81-.64,1.68-1.1,2.46-.41.69-.93,1.14-1.73,1.12-.29,0-.4.23-.6.33-.81.4-1.72.39-2.57.62-.17.05-.37-.01-.52.12-.48.42-1.08.34-1.64.44-.12.02-.28.03-.38-.02-.78-.45-1.78-.47-2.34-1.34-.08-.12-.26-.17-.39-.25-.09-.11-.19-.17-.34-.13h.02Z"/><path class="uuid-46af79d8-9036-4a4f-8131-984a57ee5a91" d="m744.66,668.89c.07-.37.21-.7.5-.96.29-.25.4-.61.36-1.02-.05-.48.1-.88.38-1.31.45-.7.85-1.45,1.06-2.28.08-.32.16-.67,0-1-.3-.6.22-1.01.33-1.51.14-.61.26-1.19.07-1.8-.15-.5,0-1,0-1.5,0-.39,0-.79-.02-1.19.04-.04.09-.07.13-.11.19,0,.36-.06.5-.19.1-.09.2-.23.31-.24.83-.07,1.34-.65,1.91-1.15.31-.27.68-.47,1.12-.48.34,0,.64-.13.92-.39.38-.35.4-.32.71.2.09.19.15.43.42.46.22.5.06.92-.29,1.29-.03.02-.06.05-.08.08.18.45.39.88.39,1.38,0,.13.07.32,0,.39-.33.36-.04.7-.02,1.05-.22.03-.41.12-.54.3-.4.54-.75,1.13-1.24,1.61-.13.13-.1.29-.09.45.05.76.36,1.52,0,2.28-.02.04,0,.11.01.16.37,1.09.02,2.15-.15,3.22-.05.32-.17.61-.32.9-.1.19-.21.31-.41.32-.46.01-.75.29-1.07.59-.5.47-1.17.41-1.78.43-.4.01-.77-.01-1.14.18-.34.17-.7.18-1.07.02-.29-.12-.59-.22-.92-.18Z"/><path class="uuid-c43ae3de-af9e-4c44-b53a-c689812d4a7b" d="m735.25,711.48c.14-.04.25.02.34.13-.13,0-.26.01-.34-.13Z"/><path class="uuid-aeb8cd9c-8be9-46b2-83ad-7605b76a83d4" d="m735.51,675.68c.07.01.13.03.2.04-.08.04-.14.02-.2-.04Z"/><path class="uuid-a71433ea-5239-4fdf-ba3f-7dc74533e856" d="m778.74,610.37c.03-.14.08-.27.26-.2.04.25-.16.15-.26.2Z"/><path class="uuid-5ae13a26-6327-4904-8de5-517a450ae4c2" d="m741.65,652.06c-.32.31-.74.23-1.12.3.05-.44.29-.57.69-.44.14.05.29.1.43.14Z"/><path class="uuid-5ae13a26-6327-4904-8de5-517a450ae4c2" d="m752.4,621.31c.33.31.08.58-.06.85-.31-.41-.31-.45.06-.85Z"/><path class="uuid-5ae13a26-6327-4904-8de5-517a450ae4c2" d="m746.12,651.71c-.2-.18-.18-.43-.2-.67.1-.14.23-.15.29.01.08.22.15.47-.09.65Z"/><path class="uuid-5ae13a26-6327-4904-8de5-517a450ae4c2" d="m753.06,643.14c.33.21.31.5.16.81-.15-.25-.39-.48-.16-.81Z"/><path class="uuid-5ae13a26-6327-4904-8de5-517a450ae4c2" d="m728.15,651.71c-.33.12-.48-.1-.62-.35.3-.05.53,0,.62.35Z"/><path class="uuid-5ae13a26-6327-4904-8de5-517a450ae4c2" d="m736.4,652.51c-.22.01-.46.13-.65-.09.38-.3.42-.29.65.09Z"/><path class="uuid-5ae13a26-6327-4904-8de5-517a450ae4c2" d="m752.39,626.23c.08.23.16.47,0,.7-.11-.23-.48-.47,0-.7Z"/><path class="uuid-5ae13a26-6327-4904-8de5-517a450ae4c2" d="m752.1,616.14c.06.18.07.35-.06.51-.31-.21-.27-.38.06-.51Z"/><path class="uuid-5ae13a26-6327-4904-8de5-517a450ae4c2" d="m716.24,664.08c-.14.13-.31.16-.49.17.11-.41.14-.42.49-.17Z"/><path class="uuid-5ae13a26-6327-4904-8de5-517a450ae4c2" d="m720.01,660.83c-.04.24-.18.4-.37.52-.06-.31.03-.51.37-.52Z"/><path class="uuid-5ae13a26-6327-4904-8de5-517a450ae4c2" d="m753.34,654.41c-.27-.02-.32-.26-.42-.46.09-.03.19-.05.28-.08.19.14.16.34.14.53Z"/><path class="uuid-5ae13a26-6327-4904-8de5-517a450ae4c2" d="m752.59,638.46c.01.16.02.32.03.48-.13,0-.27-.01-.3-.18-.04-.21.11-.26.27-.3Z"/><path class="uuid-5ae13a26-6327-4904-8de5-517a450ae4c2" d="m751.95,612.9c.02.11.03.21.05.32-.12,0-.27.02-.26-.16,0-.11.12-.13.22-.16Z"/><path class="uuid-5ae13a26-6327-4904-8de5-517a450ae4c2" d="m753.09,642.14c.03.13.04.25-.07.35-.3-.19-.15-.28.07-.35Z"/><path class="uuid-5ae13a26-6327-4904-8de5-517a450ae4c2" d="m753.24,652.09c.04.13.04.25-.07.36-.31-.18-.16-.28.07-.36Z"/><path class="uuid-5ae13a26-6327-4904-8de5-517a450ae4c2" d="m747.45,656.21s-.09.07-.13.11c-.01-.08-.03-.16-.04-.23.06.04.11.08.17.12Z"/><path class="uuid-a71433ea-5239-4fdf-ba3f-7dc74533e856" d="m769.92,595.35c.08-.01.17-.03.25-.04-.06.41-.04.85-.41,1.26-.07-.48.13-.84.16-1.22Z"/><path class="uuid-a4d35387-f34c-4148-b1fb-521cae9fed3b" d="m752.98,655.79s.04-.06.08-.08c0,.04-.03.07-.08.08Z"/><path class="uuid-aeb8cd9c-8be9-46b2-83ad-7605b76a83d4" d="m702.02,881.27c-.08.01-.15.02-.23.03-.02-.12.05-.18.15-.18.07,0,.11.07.08.15Z"/><rect class="uuid-3f614aad-9aee-4e11-a1e7-0bf6b724cf2c" x="221.34" y="785.29" width="428.43" height="109.67" rx="32.75" ry="32.75"/><path class="uuid-46af79d8-9036-4a4f-8131-984a57ee5a91" d="m244.56,861.96l3.67-13.18h-9.17l2.06-7.17h8.94l3.36-11.39h-9.17l2.06-7.25h8.94l2.9-10.92h1.99l-2.98,10.92h13.15l2.9-10.92h1.99l-2.98,10.92h9.79l-1.99,7.25h-9.63l-3.21,11.39h9.63l-1.91,7.17h-9.48l-3.75,13.18h-1.91l3.75-13.18h-13.3l-3.75,13.18h-1.91Zm10.78-31.74l-3.36,11.39h13.3l3.21-11.39h-13.15Z"/><path class="uuid-46af79d8-9036-4a4f-8131-984a57ee5a91" d="m313.05,807.37c12.77,0,20.41,2.89,20.41,11.93,0,6.39-4.97,12.56-17.05,13.96l-.08.16c10.17.62,15.37,4.29,15.37,10.76,0,14.04-14.14,17.78-27.52,17.78h-20.49l.38-1.48h4.05l8.41-51.63h-4.59l.23-1.48h20.87Zm-10.93,53.11h1.61c7.11,0,12.46-6.55,12.46-16.46,0-6.78-2.37-9.67-8.18-9.67h-1.53l-4.36,26.13Zm4.66-27.61h.23c6.27,0,11.7-3.98,11.7-15.29,0-5.69-2.52-8.73-7.57-8.73h-.61l-3.75,24.02Z"/><path class="uuid-46af79d8-9036-4a4f-8131-984a57ee5a91" d="m371.23,832.87c0,7.64-8.18,9.91-15.29,10.92-2.45.31-4.36.39-5.96.39-1.07,11,1.07,15.75,6.42,15.75,3.75,0,7.87-2.73,10.55-11.23l1.53.47c-2.83,9.59-8.41,13.57-17.58,13.57-9.71,0-15.44-5.3-15.44-14.51,0-15.99,9.48-24.18,23.01-24.18,8.64,0,12.77,3.04,12.77,8.81Zm-13.45-7.33c-4.13,0-6.5,7.72-7.64,17.16,5.2-.23,9.94-2.81,9.94-12.4,0-2.89-.46-4.76-2.29-4.76Z"/><path class="uuid-46af79d8-9036-4a4f-8131-984a57ee5a91" d="m396.6,855.95c-3.52,5.07-6.12,6.79-11.16,6.79-7.03,0-10.55-3.12-10.55-9.83,0-2.88.31-5.38,2.52-16.61l6.12-31.43h-5.43l.23-1.4h19.57l-8.87,48.51c-.38,2.03-.84,4.06-.84,5.38,0,1.4.46,2.18,1.91,2.18,1.22,0,2.9-1.01,5.27-4.52l1.22.94Z"/><path class="uuid-46af79d8-9036-4a4f-8131-984a57ee5a91" d="m422.75,855.88c-2.75,4.37-5.58,6.86-11.24,6.86s-9.79-2.5-9.79-9.05c0-1.79.54-5.07.99-7.56l3.9-19.89h-6.04l.23-1.4h20.26c-3.06,15.13-4.36,21.91-5.35,27.37-.31,1.95-.76,3.98-.76,5.46,0,1.4.76,1.87,1.61,1.87,1.38,0,2.98-1.4,5.05-4.52l1.15.86Zm-16.28-42.5c0-5.3,4.59-8.42,9.94-8.42,4.36,0,7.03,2.03,7.03,5.93,0,5.3-4.66,8.34-9.86,8.34-5.58,0-7.11-3.2-7.11-5.85Z"/><path class="uuid-46af79d8-9036-4a4f-8131-984a57ee5a91" d="m461.58,832.87c0,7.64-8.18,9.91-15.29,10.92-2.45.31-4.36.39-5.96.39-1.07,11,1.07,15.75,6.42,15.75,3.75,0,7.87-2.73,10.55-11.23l1.53.47c-2.83,9.59-8.41,13.57-17.58,13.57-9.71,0-15.44-5.3-15.44-14.51,0-15.99,9.48-24.18,23.01-24.18,8.64,0,12.77,3.04,12.77,8.81Zm-13.45-7.33c-4.13,0-6.5,7.72-7.64,17.16,5.2-.23,9.94-2.81,9.94-12.4,0-2.89-.46-4.76-2.29-4.76Z"/><path class="uuid-46af79d8-9036-4a4f-8131-984a57ee5a91" d="m493.54,835.44c-2.68-.78-4.59-2.81-4.59-5.69,0-4.06,2.91-5.69,6.19-5.69,5.73,0,7.11,5.69,7.11,9.98,0,11-5.43,28.7-23.85,28.7-6.57,0-12.84-3.59-11.31-13.26,1.07-6.63,2.45-12.4,3.75-18.72.46-2.34.46-3.35-.61-3.35-1.3,0-3.06,1.25-5.81,4.84l-1.07-.86c4.43-6.39,8.64-7.33,12.69-7.33,6.04,0,9.4,2.73,9.4,8.19,0,1.01-.15,2.18-.38,3.43-1.07,5.23-2.14,9.98-3.44,17.24-.23,1.48-.46,2.73-.46,3.82,0,2.03.76,3.28,3.21,3.28,7.03,0,15.21-11.46,15.21-20.36,0-4.83-1.68-7.49-3.9-7.33l-2.14,3.12Z"/><path class="uuid-46af79d8-9036-4a4f-8131-984a57ee5a91" d="m541.47,832.87c0,7.64-8.18,9.91-15.29,10.92-2.45.31-4.36.39-5.96.39-1.07,11,1.07,15.75,6.42,15.75,3.75,0,7.87-2.73,10.55-11.23l1.53.47c-2.83,9.59-8.41,13.57-17.58,13.57-9.71,0-15.44-5.3-15.44-14.51,0-15.99,9.48-24.18,23.01-24.18,8.64,0,12.77,3.04,12.77,8.81Zm-13.45-7.33c-4.13,0-6.5,7.72-7.64,17.16,5.2-.23,9.94-2.81,9.94-12.4,0-2.89-.46-4.76-2.29-4.76Z"/><path class="uuid-46af79d8-9036-4a4f-8131-984a57ee5a91" d="m584.12,845.35l5.89-36.5h-5.12l.15-1.48h11.39l-.23,1.48h-4.13l-5.81,35.48c-1.99,12.09-7.11,18.41-20.26,18.41-10.78,0-18.65-3.82-18.65-14.51,0-1.64.23-4.37.69-6.94l5.5-32.44h-4.66l.23-1.48h23.47l-.15,1.48h-4.97l-5.96,36.81c-.23,1.4-.54,3.51-.54,5.23,0,5.69,2.37,9.36,9.1,9.36,5.58,0,12.15-3.2,14.07-14.9Z"/><path class="uuid-46af79d8-9036-4a4f-8131-984a57ee5a91" d="m613.09,854.86c0-4.29-3.44-5.3-8.56-7.25-4.36-1.64-9.1-4.21-9.1-10.68,0-8.58,8.1-12.87,18.65-12.87,6.19,0,13.68,1.01,13.68,7.8,0,3.51-2.37,5.85-6.34,5.85-2.68,0-5.2-1.4-5.2-3.74,0-1.33.31-2.57,1.15-3.67h2.45c.31-.7.46-1.33.46-1.87,0-1.79-1.68-2.73-5.12-2.73-5.73,0-8.1,2.5-8.1,5.23,0,3.82,2.68,4.91,7.72,6.94,5.12,2.03,10.78,4.06,10.78,10.61,0,9.51-8.64,14.27-20.03,14.27-8.56,0-14.3-2.73-14.3-8.5,0-4.29,2.75-6.47,6.57-6.47,3.29,0,5.05,2.11,5.05,4.83,0,1.01-.23,2.11-.69,3.2h-3.06c-.23.55-.31,1.01-.31,1.48,0,2.03,1.83,3.74,6.12,3.74,6.65,0,8.18-3.59,8.18-6.16Z"/></svg>