<?xml version="1.0" encoding="UTF-8"?><svg id="uuid-d26460ed-2dbb-4bbf-8422-2f3c19141fe2" xmlns="http://www.w3.org/2000/svg" xmlns:xlink="http://www.w3.org/1999/xlink" viewBox="0 0 1000 1000"><defs><style>.uuid-175e32b5-0600-4d38-8a45-1dbdfff101ae{fill:url(#uuid-6bb1db3d-59ef-4460-ab6c-7340a60e9edf);}.uuid-d4c5a96f-70c3-4f9d-b41e-f1d378216302{fill:#fff;}.uuid-300f8d61-a991-41c2-84b4-97f0c180915b{fill:url(#uuid-25c32ae4-8821-48e4-9e3d-644b3d3a2a91);}.uuid-427562e2-a56a-4419-884b-ed65af9d9f55{fill:none;stroke:url(#uuid-06febba6-2db2-46a6-a8e4-a5b3a43a6bf1);stroke-dasharray:0 0 0 0 0 0 12.26 0 1.02 1.02 67.42 12.25;stroke-linejoin:round;stroke-width:27px;}</style><linearGradient id="uuid-25c32ae4-8821-48e4-9e3d-644b3d3a2a91" x1="0" y1="287.33" x2="1000" y2="287.33" gradientUnits="userSpaceOnUse"><stop offset="0" stop-color="#fd585f"/><stop offset=".33" stop-color="#7f3f98"/><stop offset=".96" stop-color="#2dbbcd"/></linearGradient><linearGradient id="uuid-06febba6-2db2-46a6-a8e4-a5b3a43a6bf1" x1="58.4" y1="514.25" x2="922.11" y2="514.25" gradientUnits="userSpaceOnUse"><stop offset="0" stop-color="#ff565f"/><stop offset="1" stop-color="#8061a4"/></linearGradient><linearGradient id="uuid-6bb1db3d-59ef-4460-ab6c-7340a60e9edf" x1="107.48" y1="869.52" x2="868.52" y2="869.52" gradientUnits="userSpaceOnUse"><stop offset="0" stop-color="#fd585f"/><stop offset=".96" stop-color="#2dbbcd"/></linearGradient></defs><path class="uuid-300f8d61-a991-41c2-84b4-97f0c180915b" d="m500,0C223.86,0,0,221.55,0,494.85c0,116.76,31.6,89.42,89.34,19.79,0-.13,0-.26,0-.38,0-219.14,179.5-396.79,400.92-396.79s400.92,177.65,400.92,396.79c0,5.85-.14,11.67-.39,17.46,67.4,56.21,109.21,69.78,109.21-36.87C1000,221.55,776.14,0,500,0Z"/><ellipse class="uuid-427562e2-a56a-4419-884b-ed65af9d9f55" cx="490.26" cy="514.25" rx="418.36" ry="414.05"/><path class="uuid-175e32b5-0600-4d38-8a45-1dbdfff101ae" d="m847.16,856.63c-199.51,191.15-518.81,191.15-718.32,0-23.13-22.11-27.71-52.52-12.61-64.32,19.01-15.56,38.01-31.12,57.01-46.68,15.13-11.88,39.19-6.93,55.43,8.52,144.05,138.02,374.61,138.02,518.67,0,16.23-15.45,40.29-20.4,55.43-8.52,19,15.56,38.01,31.12,57.01,46.68,15.09,11.8,10.52,42.22-12.61,64.32Z"/><path class="uuid-d4c5a96f-70c3-4f9d-b41e-f1d378216302" d="m154.88,821.92c5.81-2.33,11.57-4.73,17.28-7.21-4.31-4.09-8.55-8.29-12.72-12.58,3.2-1.19,6.37-2.41,9.54-3.65,4.02,4.06,8.09,8.02,12.23,11.89,4.97-2.13,9.89-4.32,14.77-6.58-4.14-3.77-8.23-7.63-12.25-11.59,3.13-1.34,6.25-2.7,9.35-4.09,3.86,3.73,7.78,7.38,11.75,10.93,4.48-2.35,8.93-4.76,13.34-7.21.86.75,1.72,1.5,2.59,2.24-4.42,2.46-8.87,4.87-13.37,7.24,5.87,5.17,11.86,10.15,17.94,14.94,4.31-2.65,8.58-5.34,12.8-8.07.9.69,1.8,1.37,2.7,2.05-4.24,2.75-8.52,5.45-12.84,8.1,4.55,3.52,9.16,6.94,13.83,10.26-2.79,1.88-5.6,3.74-8.43,5.58-4.67-3.38-9.29-6.86-13.85-10.45-4.61,2.67-9.27,5.28-13.97,7.84,4.68,3.78,9.42,7.46,14.22,11.02-2.83,1.78-5.68,3.54-8.55,5.28-4.8-3.63-9.54-7.36-14.22-11.2-5.52,2.88-11.1,5.69-16.73,8.42-.97-.82-1.93-1.65-2.9-2.48,5.66-2.68,11.27-5.44,16.81-8.27-6.53-5.45-12.94-11.11-19.22-16.98-5.72,2.5-11.49,4.92-17.32,7.26-.92-.89-1.85-1.79-2.77-2.69Zm43.68-15.78c-4.86,2.29-9.76,4.53-14.71,6.7,6.18,5.7,12.5,11.19,18.92,16.47,4.72-2.52,9.4-5.1,14.04-7.73-6.2-4.95-12.28-10.1-18.25-15.44Z"/><path class="uuid-d4c5a96f-70c3-4f9d-b41e-f1d378216302" d="m297.41,839.09c18.49,9.76,28.55,17.75,23.88,28.64-3.25,7.54-14.56,11.88-34.65,3.75-.07.04-.14.08-.21.12,15.69,8.92,22.33,16.72,18.91,24.48-7.21,16.82-34.3,10.38-56.86-2.89-11.48-6.65-22.74-13.82-33.73-21.51.58-.38,1.16-.76,1.73-1.14,2.17,1.51,4.34,3,6.53,4.47,17.2-15.45,33.79-31.42,49.76-47.87-2.16-1.34-4.31-2.71-6.45-4.1.46-.47.92-.93,1.38-1.4,9.69,6.28,19.6,12.1,29.69,17.47Zm-51.39,50.42c.89.53,1.79,1.05,2.68,1.57,11.98,6.97,25.16,4.05,31.06-7.39,4.09-7.85,2.05-13.02-7.03-18.05-.8-.45-1.59-.89-2.39-1.34-7.94,8.53-16.05,16.94-24.32,25.22Zm25.76-26.62c.12.07.24.13.36.2,9.79,5.54,20.82,5.22,27.45-7.91,3.36-6.62,1.43-11.94-5.88-15.89-.3-.16-.59-.32-.89-.48-6.88,8.12-13.89,16.15-21.04,24.08Z"/><path class="uuid-d4c5a96f-70c3-4f9d-b41e-f1d378216302" d="m376.96,905.32c-2.48,9.64-17.52,8.77-30.22,5.96-4.35-.99-7.67-2.03-10.42-2.99-6.74,12.75-5.11,19.99,4.61,23.16,6.76,2.2,15.41,1.04,23.16-8.28.85.44,1.69.89,2.54,1.33-8.3,10.63-20.19,12.82-36.84,7.07-17.65-6.18-25.04-17.03-20.24-27.93,8.47-19.06,27.57-22.22,49.41-15.36,14.05,4.36,19.89,9.76,18,17.05Zm-19.71-15.58c-6.71-2.13-13.86,5.97-20.01,16.82,9.01,2.86,18.23,2.15,21.91-9.75,1.12-3.58,1.1-6.12-1.9-7.07Z"/><path class="uuid-d4c5a96f-70c3-4f9d-b41e-f1d378216302" d="m415.69,943.85c-7.53,5.48-12.87,6.86-22.29,5.01-13.17-2.66-18.68-8.31-16.53-16.72.88-3.65,2.32-6.62,9.57-19.9,6.67-12.42,13.03-24.95,19.06-37.59-2.83-.59-5.66-1.21-8.49-1.85.26-.56.52-1.13.78-1.69,10.14,2.32,20.35,4.24,30.61,5.77-7.83,20.06-16.39,39.92-25.68,59.55-1.19,2.46-2.53,4.88-2.86,6.57-.35,1.79.31,2.95,3.01,3.44,2.26.41,5.65-.33,10.75-4.13.68.52,1.37,1.04,2.06,1.55Z"/><path class="uuid-d4c5a96f-70c3-4f9d-b41e-f1d378216302" d="m464.16,948.68c-5.41,5.38-11.03,8.34-21.74,7.36-11.02-1.05-18.07-5.33-16.87-13.74.32-2.31,1.88-6.39,3.12-9.49,3.48-8.23,6.82-16.49,10.03-24.78-3.42-.39-6.83-.82-10.24-1.29.22-.58.43-1.17.64-1.75,11.39,1.56,22.83,2.67,34.29,3.32-6.39,19.3-9.57,27.87-11.92,34.8-.76,2.48-1.84,5.03-2,6.95-.15,1.82,1.23,2.54,2.81,2.65,2.58.19,5.75-1.42,9.81-5.25.69.41,1.38.82,2.07,1.22Zm-23.77-57.27c.85-6.83,8.59-9.99,17.08-9.36,6.92.51,11.06,3.31,10.83,8.37-.29,6.87-8.28,10.48-16.97,9.72-9.32-.83-11.34-5.33-10.93-8.73Z"/><path class="uuid-d4c5a96f-70c3-4f9d-b41e-f1d378216302" d="m533.27,917.12c1.13,9.88-13.19,14.28-25.96,16.07-4.38.59-7.83.78-10.71.83-1.71,14.28,2.35,20.48,12.48,20.06,7.05-.3,14.66-4.38,18.56-15.8.95.12,1.89.24,2.84.36-3.94,12.83-14.23,19-31.67,19.43-18.53.37-29.14-7.16-28.57-19.04,1.08-20.78,17.54-30.44,40.24-31.62,14.58-.8,21.96,2.22,22.79,9.71Zm-23.86-7.73c-6.98.34-10.73,10.42-12.57,22.71,9.35-.47,17.65-4.33,16.85-16.75-.23-3.74-1.15-6.11-4.27-5.95Z"/><path class="uuid-d4c5a96f-70c3-4f9d-b41e-f1d378216302" d="m589.03,911.22c-4.84.08-8.68-1.81-9.47-5.47-1.11-5.15,3.27-8.24,8.7-9.54,9.45-2.29,13.69,4.13,15.2,9.52,3.96,13.44.5,39.31-34.45,45.64-12.4,2.13-24.77-1.15-23.47-13.94.85-8.78,2.28-16.52,3.35-24.95.36-3.12.15-4.42-1.66-4.17-2.21.3-4.95,2.3-9.16,7.47-.66-.3-1.32-.6-1.97-.9,6.7-9.08,13.46-11.24,20.29-12.33,10.1-1.63,16.4.64,17.86,7.6.27,1.29.31,2.83.23,4.5-.51,7.01-1.19,13.43-1.81,23.12-.07,1.97-.19,3.64.07,5.03.48,2.58,2.2,3.94,6.74,3.06,13.28-2.51,24.47-20.75,21.3-31.89-1.62-6.07-5.34-8.66-9.05-7.56-.89,1.6-1.79,3.2-2.7,4.8Z"/><path class="uuid-d4c5a96f-70c3-4f9d-b41e-f1d378216302" d="m667.99,881.18c4.22,9.03-8.17,17.78-19.86,23.5-4.02,1.94-7.27,3.2-10.02,4.16,2.9,14.1,8.77,18.71,18.36,15.12,6.67-2.5,12.7-8.8,12.82-20.88.95-.18,1.9-.37,2.85-.56.28,13.44-7.66,22.58-24.27,28.46-17.66,6.16-30.19,2.3-33.42-9.16-5.58-20.08,7.08-34.35,28.52-42.62,13.77-5.37,21.84-4.86,25.02,1.99Zm-25.42.23c-6.6,2.52-6.99,13.27-4.85,25.52,8.82-3.38,15.57-9.67,10.85-21.21-1.41-3.48-3.05-5.44-6-4.3Z"/><path class="uuid-d4c5a96f-70c3-4f9d-b41e-f1d378216302" d="m743.63,857.54c-5.98-15.1-12.3-30.01-18.95-44.74-2.33,1.67-4.67,3.31-7.03,4.92-.3-.58-.59-1.15-.89-1.73,5.22-3.57,10.37-7.28,15.44-11.13.29.59.58,1.17.87,1.76-1.85,1.4-3.71,2.78-5.58,4.14,6.55,14.3,12.78,28.78,18.69,43.43,6.03,14.83,2.54,27.8-19.68,40.76-18.28,10.49-34.33,12.34-40.28-.17-.93-1.92-2.1-5.29-2.83-8.66-3.19-14.07-6.68-28.04-10.47-41.9-2.28,1.16-4.58,2.3-6.88,3.41-.17-.63-.34-1.26-.52-1.89,11.52-5.59,22.83-11.76,33.87-18.51.27.59.54,1.18.8,1.77-2.35,1.43-4.71,2.84-7.08,4.22,5.31,15.39,10.26,30.94,14.85,46.64.52,1.8,1.36,4.47,2.45,6.41,3.58,6.45,9.96,8.56,21.2,1.91,9.32-5.51,17.8-16.12,12.02-30.65Z"/><path class="uuid-d4c5a96f-70c3-4f9d-b41e-f1d378216302" d="m797.63,818.58c-4.5-4.72-10.61-1.2-20.29,3.43-4.6,2.24-14.76,6.28-21.34-2.27-7.26-9.54-1.8-21.46,7.26-29.71,6.86-6.22,12.89-7.75,14.26-9.11.92-.93.59-2.25.35-4,.35-.36.7-.72,1.05-1.08,3.3,4.61,6.56,9.25,9.78,13.94-.32.33-.64.65-.97.98-9.33-7-15.95-6.39-22.83-.12-5.87,5.31-7.01,11.11-3.62,15.16,3.74,4.45,9.7,1.67,14.52-.7,8.39-4,18.66-10.96,26.96-3.1,9.16,8.57,4.25,24.16-8.14,34.79-9.04,7.77-18.03,10.26-20.18,11.9-1.19.89-.93,2.54-.88,5.29-.49.36-.99.73-1.48,1.09-2.59-5.93-5.24-11.82-7.96-17.68.49-.37.99-.74,1.48-1.12,6.39,7.51,16.15,9.33,27.42-.25,7.84-6.76,8.73-13.15,4.61-17.43Z"/></svg>