<?xml version="1.0" encoding="UTF-8"?>
<svg data-name="BelieveUs-3" xmlns="http://www.w3.org/2000/svg" xmlns:xlink="http://www.w3.org/1999/xlink" viewBox="0 0 1000.12 1000.3"><defs><style>.uuid-8abe2dc2-977a-486d-ab8b-f1d85161755d{fill:none;}.uuid-0049a72d-b399-461b-a860-a5307cee9f64{fill:url(#uuid-d619275a-198d-4e12-b348-abd9fec4602e);}.uuid-a882cb64-505d-4b3a-9460-fd999901c9ce{fill:#fff;}.uuid-2fd947ce-ec3b-479a-bc02-3fb77305e517{fill:#c91fc5;}.uuid-03ca9a42-2546-411b-b0ff-edac504d4d60{clip-path:url(#uuid-0305e985-7670-4147-a353-2e0b534f5fde);}.uuid-540c85ac-c349-48c2-8668-fabd1152bde1{fill:url(#uuid-674c3327-7eca-4116-b46d-89f8a9431d8f);}</style><linearGradient id="uuid-674c3327-7eca-4116-b46d-89f8a9431d8f" x1=".12" y1="500.3" x2="1000.12" y2="500.3" gradientUnits="userSpaceOnUse"><stop offset="0" stop-color="#a325c1"/><stop offset=".47" stop-color="#9414af"/><stop offset=".48" stop-color="#9414af"/><stop offset=".68" stop-color="#b31bce"/><stop offset=".69" stop-color="#b61cd1"/><stop offset=".85" stop-color="#c23bdc"/><stop offset="1" stop-color="#d05de8"/></linearGradient><clipPath id="uuid-0305e985-7670-4147-a353-2e0b534f5fde"><path class="uuid-8abe2dc2-977a-486d-ab8b-f1d85161755d" d="m1000,500c0,276.14-223.85,500-500,500-129.28,0-247.1-49.06-335.85-129.59C63.32,778.94,0,646.86,0,500,0,223.86,223.86,0,500,0c117.36,0,225.27,40.44,310.57,108.14,115.41,91.59,189.43,233.08,189.43,391.86ZM499.79,90.42c-220.82,0-399.83,183.45-399.83,409.75s179.01,409.75,399.83,409.75,399.83-183.45,399.83-409.75S720.61,90.42,499.79,90.42Z"/></clipPath><linearGradient id="uuid-d619275a-198d-4e12-b348-abd9fec4602e" x1="246.53" y1="863.31" x2="763.82" y2="863.31" xlink:href="#uuid-674c3327-7eca-4116-b46d-89f8a9431d8f"/></defs><path class="uuid-540c85ac-c349-48c2-8668-fabd1152bde1" d="m1000.12,500.3c0,276.14-223.85,500-500,500-129.28,0-247.1-49.06-335.85-129.59C63.44,779.24.12,647.17.12,500.3.12,224.16,223.99.3,500.12.3c117.36,0,225.27,40.44,310.57,108.14,115.41,91.59,189.43,233.08,189.43,391.86ZM500.12,90.56c-220.82,0-399.83,183.45-399.83,409.75s179.01,409.75,399.83,409.75,399.83-183.45,399.83-409.75S720.94,90.56,500.12,90.56Z"/><g class="uuid-03ca9a42-2546-411b-b0ff-edac504d4d60"><path class="uuid-2fd947ce-ec3b-479a-bc02-3fb77305e517" d="m1000.12,500.3c0,276.14-223.85,500-500,500-129.28,0-247.1-49.06-335.85-129.59,34.08-17.5,57.6-44.83,65.16-86.47,6.04-33.21,1.88-64.81-16.57-93.57-4.54-7.09-8.44-14.64-12.39-22.1-8.46-15.95-8.13-15.26-24.91-8.47-18.46,7.49-37.39,13.75-56.34,19.88-5.44,1.77-11.58,1.82-17.39,1.67-20.31-.57-31.39-12.33-29.89-33.39.84-11.98-.94-20.74-11.06-28.17-8.93-6.56-7.61-9.49,5.72-19.21-.21-.63-.29-1.68-.66-1.83-21.98-8.27-22.09-8.34-10.89-29.96,3.86-7.51-.03-10.59-5.79-12.64-5.88-2.08-12.21-2.96-17.88-5.49-10.71-4.76-12.38-17-4.45-25.74,11.07-12.22,21.53-24.78,26.53-41.97-6.01-2.62-16.14-8.85-16.07-9.77,5.39-1.22,10.77-2.46,16.49-3.79-1.43-20.57-3.51-41.08-4.12-61.63-.92-30.82.77-61.34,19-87.68,25.87-37.41,61.81-55.83,105.13-60.38,47.7-5.04,93.91,6.13,140.47,13.57,32.05,5.1,64.13,8.38,96.7,4.48,38.02-4.57,70.12-21.67,97.37-48.67,26.6-26.37,51.67-54.39,78.21-80.8,35.29-35.13,77.58-50.11,126.34-45.54,25.63,2.41,51.33,3.86,77.02,5.74,7.44.55,14.27.4,20.72-.36,115.41,91.59,189.43,233.08,189.43,391.86Z"/></g><rect class="uuid-0049a72d-b399-461b-a860-a5307cee9f64" x="246.53" y="797.1" width="517.28" height="132.42" rx="32.75" ry="32.75"/><path class="uuid-a882cb64-505d-4b3a-9460-fd999901c9ce" d="m274.57,889.67l4.43-15.91h-11.08l2.49-8.66h10.8l4.06-13.75h-11.08l2.49-8.76h10.8l3.51-13.18h2.4l-3.6,13.18h15.88l3.51-13.18h2.4l-3.6,13.18h11.81l-2.4,8.76h-11.63l-3.88,13.75h11.63l-2.31,8.66h-11.44l-4.52,15.91h-2.31l4.52-15.91h-16.06l-4.52,15.91h-2.31Zm13.01-38.32l-4.06,13.75h16.06l3.88-13.75h-15.88Z"/><path class="uuid-a882cb64-505d-4b3a-9460-fd999901c9ce" d="m357.27,823.76c15.41,0,24.64,3.48,24.64,14.41,0,7.72-6,15.16-20.58,16.86l-.09.19c12.28.75,18.55,5.18,18.55,12.99,0,16.95-17.08,21.47-33.23,21.47h-24.74l.46-1.79h4.89l10.15-62.33h-5.54l.28-1.79h25.2Zm-13.2,64.12h1.94c8.58,0,15.04-7.91,15.04-19.87,0-8.19-2.86-11.68-9.88-11.68h-1.85l-5.26,31.54Zm5.63-33.33h.28c7.57,0,14.12-4.8,14.12-18.46,0-6.87-3.05-10.55-9.14-10.55h-.74l-4.52,29Z"/><path class="uuid-a882cb64-505d-4b3a-9460-fd999901c9ce" d="m427.51,854.55c0,9.23-9.88,11.96-18.46,13.18-2.95.38-5.26.47-7.2.47-1.29,13.28,1.29,19.02,7.75,19.02,4.52,0,9.51-3.3,12.74-13.56l1.85.57c-3.42,11.58-10.15,16.38-21.23,16.38-11.72,0-18.64-6.4-18.64-17.51,0-19.3,11.44-29.19,27.78-29.19,10.43,0,15.41,3.67,15.41,10.64Zm-16.24-8.85c-4.98,0-7.85,9.32-9.23,20.72,6.28-.28,12-3.39,12-14.97,0-3.48-.55-5.74-2.77-5.74Z"/><path class="uuid-a882cb64-505d-4b3a-9460-fd999901c9ce" d="m458.15,882.42c-4.25,6.12-7.38,8.19-13.48,8.19-8.49,0-12.74-3.77-12.74-11.86,0-3.48.37-6.5,3.05-20.06l7.38-37.95h-6.55l.28-1.69h23.63l-10.71,58.57c-.46,2.45-1.02,4.9-1.02,6.5,0,1.7.55,2.64,2.31,2.64,1.48,0,3.51-1.22,6.37-5.46l1.48,1.13Z"/><path class="uuid-a882cb64-505d-4b3a-9460-fd999901c9ce" d="m489.72,882.33c-3.32,5.27-6.74,8.29-13.57,8.29s-11.81-3.01-11.81-10.92c0-2.17.65-6.12,1.2-9.13l4.71-24.01h-7.29l.28-1.7h24.46c-3.69,18.27-5.26,26.46-6.46,33.05-.37,2.35-.92,4.8-.92,6.59,0,1.69.92,2.26,1.94,2.26,1.66,0,3.6-1.7,6.09-5.46l1.38,1.04Zm-19.66-51.32c0-6.4,5.54-10.17,12-10.17,5.26,0,8.49,2.45,8.49,7.16,0,6.4-5.63,10.08-11.91,10.08-6.74,0-8.58-3.86-8.58-7.06Z"/><path class="uuid-a882cb64-505d-4b3a-9460-fd999901c9ce" d="m536.6,854.55c0,9.23-9.88,11.96-18.46,13.18-2.95.38-5.26.47-7.2.47-1.29,13.28,1.29,19.02,7.75,19.02,4.52,0,9.51-3.3,12.74-13.56l1.85.57c-3.42,11.58-10.15,16.38-21.23,16.38-11.72,0-18.64-6.4-18.64-17.51,0-19.3,11.44-29.19,27.78-29.19,10.43,0,15.41,3.67,15.41,10.64Zm-16.24-8.85c-4.98,0-7.85,9.32-9.23,20.72,6.28-.28,12-3.39,12-14.97,0-3.48-.55-5.74-2.77-5.74Z"/><path class="uuid-a882cb64-505d-4b3a-9460-fd999901c9ce" d="m575.18,857.66c-3.23-.94-5.54-3.39-5.54-6.87,0-4.9,3.51-6.87,7.48-6.87,6.92,0,8.58,6.87,8.58,12.05,0,13.28-6.55,34.65-28.8,34.65-7.94,0-15.51-4.33-13.66-16.01,1.29-8,2.95-14.97,4.52-22.6.55-2.82.55-4.05-.74-4.05-1.57,0-3.69,1.51-7.01,5.84l-1.29-1.04c5.35-7.72,10.43-8.85,15.32-8.85,7.29,0,11.35,3.3,11.35,9.89,0,1.22-.18,2.64-.46,4.14-1.29,6.31-2.58,12.05-4.15,20.81-.28,1.79-.55,3.3-.55,4.61,0,2.45.92,3.95,3.88,3.95,8.49,0,18.37-13.84,18.37-24.58,0-5.84-2.03-9.04-4.71-8.85l-2.58,3.77Z"/><path class="uuid-a882cb64-505d-4b3a-9460-fd999901c9ce" d="m633.06,854.55c0,9.23-9.88,11.96-18.46,13.18-2.95.38-5.26.47-7.2.47-1.29,13.28,1.29,19.02,7.75,19.02,4.52,0,9.51-3.3,12.74-13.56l1.85.57c-3.42,11.58-10.15,16.38-21.23,16.38-11.72,0-18.64-6.4-18.64-17.51,0-19.3,11.44-29.19,27.78-29.19,10.43,0,15.41,3.67,15.41,10.64Zm-16.24-8.85c-4.98,0-7.85,9.32-9.23,20.72,6.28-.28,12-3.39,12-14.97,0-3.48-.55-5.74-2.77-5.74Z"/><path class="uuid-a882cb64-505d-4b3a-9460-fd999901c9ce" d="m684.56,869.61l7.11-44.07h-6.18l.18-1.79h13.75l-.28,1.79h-4.98l-7.01,42.84c-2.4,14.59-8.58,22.22-24.46,22.22-13.01,0-22.52-4.61-22.52-17.51,0-1.98.28-5.27.83-8.38l6.65-39.17h-5.63l.28-1.79h28.34l-.18,1.79h-6l-7.2,44.44c-.28,1.69-.65,4.24-.65,6.31,0,6.87,2.86,11.3,10.98,11.3,6.74,0,14.68-3.86,16.98-17.99Z"/><path class="uuid-a882cb64-505d-4b3a-9460-fd999901c9ce" d="m719.54,881.1c0-5.18-4.15-6.4-10.34-8.76-5.26-1.98-10.98-5.08-10.98-12.9,0-10.36,9.78-15.54,22.52-15.54,7.48,0,16.52,1.22,16.52,9.42,0,4.24-2.86,7.06-7.66,7.06-3.23,0-6.28-1.7-6.28-4.52,0-1.6.37-3.11,1.38-4.43h2.95c.37-.85.55-1.6.55-2.26,0-2.17-2.03-3.3-6.18-3.3-6.92,0-9.78,3.01-9.78,6.31,0,4.61,3.23,5.93,9.32,8.38,6.18,2.45,13.01,4.9,13.01,12.81,0,11.49-10.43,17.23-24.18,17.23-10.34,0-17.26-3.3-17.26-10.26,0-5.18,3.32-7.82,7.94-7.82,3.97,0,6.09,2.54,6.09,5.84,0,1.22-.28,2.54-.83,3.86h-3.69c-.28.66-.37,1.22-.37,1.79,0,2.45,2.22,4.52,7.38,4.52,8.03,0,9.88-4.33,9.88-7.44Z"/></svg>