<?xml version="1.0" encoding="UTF-8"?>
<svg data-name="CanWeTalkAboutIt-3" xmlns="http://www.w3.org/2000/svg" viewBox="0 0 213.6 213.6"><defs><style>.uuid-f8a87bd2-965e-49ed-87d3-9811d50eb339{fill:#e57354;}.uuid-c2c020e4-4dc5-4f39-adb0-458ecce40d50{fill:#fff;}.uuid-15886858-5f8e-45e6-90b3-8a08dce3ac01{fill:#f2d5a1;}.uuid-ea52f44d-8776-4a47-86ce-91522d81bd7e{fill:#383938;}.uuid-c16e4e1b-6e11-49c6-bc81-fc5d9677a0c9{fill:#8e4d9e;stroke:#fff;stroke-miterlimit:10;}</style></defs><path class="uuid-c16e4e1b-6e11-49c6-bc81-fc5d9677a0c9" d="m106.8.5C48.19.5.5,48.19.5,106.8s47.69,106.3,106.3,106.3,106.3-47.69,106.3-106.3S165.41.5,106.8.5Zm0,191.04c-46.73,0-84.74-38.01-84.74-84.74S60.07,22.06,106.8,22.06s84.74,38.01,84.74,84.74-38.01,84.74-84.74,84.74Z"/><path class="uuid-c2c020e4-4dc5-4f39-adb0-458ecce40d50" d="m15.98,96.41l.05-.39-2.53-.81.27-1.97-1.37-.42-.27,2.01-2.2-.69.28-2.01-1.4-.42-.27,2.03-2.1-.65-.05.42,2.1.63-.38,2.74-2.1-.65-.05.4,2.1.63-.26,1.86,1.39.43.27-1.9,2.17.71-.26,1.86,1.37.44.27-1.9,2.53.78.05-.4-2.53-.79.38-2.76,2.53.79Zm-4.3,1.59l-2.17-.73.36-2.74,2.18.69-.38,2.78Z"/><path class="uuid-c2c020e4-4dc5-4f39-adb0-458ecce40d50" d="m15.93,84.51l-.09.27c.78.36,1.79,1.24,1.47,2.65-.27,1.23-1.21,1.39-3.14.96l-.78-.19c-2.25-.51-3.05-1.08-2.83-1.99.09-.43.38-.7.89-.58.15.03.32.11.53.23l-.12.53c.19.11.39.16.53.2.84.19,1.37-.3,1.56-1.12.18-.78-.19-1.4-1.12-1.62-1.13-.26-2.13.51-2.56,2.43-.59,2.59.34,4.47,2.87,5.05,2.36.54,3.96-.51,4.5-2.92.59-2.61-.81-3.48-1.7-3.89Z"/><path class="uuid-c2c020e4-4dc5-4f39-adb0-458ecce40d50" d="m18.76,75.94l-.09.23c1.21.46,1.41.81,1.32,1.09-.08.26-.3.39-.9.2l-2.99-.96c-2.14-.67-3.05-.07-3.81,2.33-.65,2.09-.43,3.38.81,3.77.71.23,1.33.03,1.64-.93.24-.77-.04-1.48-.73-1.71-.28-.08-.49-.09-.7-.08l-.12.38c-.19.01-.34,0-.46-.04-.47-.15-.44-.63-.36-.9.2-.62.74-.63,2.61-.04l1.13.36-.15.44c-.69,2.18-.77,3.62.71,4.1,1.48.47,2.17-.63,2.51-1.7.34-1.08.09-1.64-.54-2.1.78.04,1.37-.53,1.77-1.77.42-1.32.09-2.05-1.64-2.68Zm.16,5.32c-.09.28-.28.35-1.35.01l-.23-.08c-.9-.28-1.24-.73-1.04-1.37l.03-.09,1.37.43c.94.3,1.29.81,1.21,1.1Z"/><path class="uuid-c2c020e4-4dc5-4f39-adb0-458ecce40d50" d="m22.84,71.95l1.78-4.18-.26-.11-.35.82-4.28-1.82c-1.72-.73-2.78-.09-3.36,1.28-.62,1.46-.08,2.26.53,2.82l-1.32-.55-1.51,3.56.26.11.35-.82,6.25,2.67-.34.81.26.11,1.78-4.19-.26-.11-.27.63-3.92-1.67c-1.16-.49-1.81-1.44-1.55-2.06.16-.38.38-.49,1.59.03l4.62,1.97-.26.61.26.11Z"/><path class="uuid-c2c020e4-4dc5-4f39-adb0-458ecce40d50" d="m29.13,59.63l-5.24-5.15.34-.58-.24-.13-1.06,1.89.24.13.54-.97,3.85,3.8-5.26-1.29.32-.57-.24-.13-2.02,3.61.24.13.3-.53,1.62.46,2.6,2.78-5.31-1.28.47-.85-.24-.13-2.38,4.24.24.13.36-.62,7.33,1.37,1.05-1.87-3.41-3.64,4.82,1.1,1.08-1.91Z"/><path class="uuid-c2c020e4-4dc5-4f39-adb0-458ecce40d50" d="m32.97,50.17l-.2.2c.77.98.89,2.06.22,3.02-.9,1.28-2.1.84-3.6-.22l-.49-.35,2.6-3.69c-1.82-1.4-3.44-1.24-4.89.82-1.29,1.82-1.41,4.04.77,5.59,1.83,1.29,3.85,1.16,5.5-1.19,1.32-1.85.97-3.13.09-4.19Zm-4.93,2.03c-1.35-.96-1.6-1.51-1.28-1.97.39-.54.9-.32,2.22.61l.62.44-.96,1.35-.61-.43Z"/><path class="uuid-c2c020e4-4dc5-4f39-adb0-458ecce40d50" d="m37.28,45.01l-.2.19c.73.78.94,1.59.46,2.18-.36.43-.84.23-1.54-.35l-4.03-3.33,1.33-1.6-.22-.18-1.33,1.6-2.08-1.72-1.36,2.75,1.54,1.28-.55.67.22.18.55-.67,3.76,3.1c1.48,1.23,2.55.63,3.56-.59,1.25-1.51.73-2.63-.11-3.5Z"/><path class="uuid-c2c020e4-4dc5-4f39-adb0-458ecce40d50" d="m43.28,38.63l-.18.16c.88.96.9,1.36.7,1.56-.19.2-.44.22-.9-.22l-2.25-2.18c-1.62-1.56-2.69-1.43-4.45.39-1.52,1.56-1.9,2.83-.96,3.73.54.53,1.19.61,1.87-.11.57-.57.63-1.35.12-1.85-.22-.2-.39-.31-.59-.39l-.28.28c-.16-.07-.3-.15-.39-.24-.35-.34-.12-.77.08-.97.44-.46.94-.23,2.34,1.13l.86.82-.32.34c-1.59,1.66-2.3,2.91-1.19,3.99,1.12,1.08,2.22.4,2.99-.4.78-.81.82-1.41.46-2.12.69.38,1.47.13,2.37-.81.96-.98.98-1.78-.3-3.13Zm-2.21,4.84c-.22.22-.4.19-1.21-.58l-.18-.18c-.67-.66-.78-1.21-.32-1.7l.08-.08,1.04,1c.71.7.79,1.32.59,1.54Z"/><path class="uuid-c2c020e4-4dc5-4f39-adb0-458ecce40d50" d="m48.29,36.87l-.67.59-7.53-8.42-2.94,2.61.19.2.71-.62,7.34,8.22-.65.58.18.22,3.56-3.18-.19-.2Z"/><path class="uuid-c2c020e4-4dc5-4f39-adb0-458ecce40d50" d="m56.01,30.84l-.46.35-5.38-2.49.57-2.4.89-.67-.16-.22-2.52,1.91.18.22,1.2-.92-1.12,4.49-.15.23-4.54-5.96-3.13,2.38.16.22.75-.58,6.7,8.79-.7.54.16.22,3.66-2.79-.18-.22-.58.44-2.13-2.79.19-.26,3.62,1.75-.59.46.18.22,3.54-2.71-.18-.22Z"/><path class="uuid-c2c020e4-4dc5-4f39-adb0-458ecce40d50" d="m62.12,24.83l-.22.11c.61,1.15.54,1.55.3,1.7-.24.13-.49.09-.82-.44l-1.66-2.67c-1.19-1.9-2.26-2.03-4.41-.7-1.85,1.15-2.52,2.28-1.85,3.38.4.65,1.01.89,1.85.36.69-.43.96-1.16.57-1.77-.15-.26-.3-.4-.47-.53l-.34.2c-.15-.11-.26-.22-.32-.32-.26-.42.07-.77.32-.93.54-.34.96.01,1.99,1.67l.62,1.01-.39.26c-1.95,1.2-2.95,2.24-2.13,3.57.82,1.31,2.05.93,3,.34.96-.59,1.15-1.17.97-1.94.55.54,1.37.49,2.48-.2,1.17-.73,1.4-1.48.5-3.1Zm-3.34,4.14c-.26.16-.44.09-1.02-.85l-.13-.22c-.5-.8-.47-1.36.11-1.72l.09-.05.75,1.23c.53.84.46,1.46.2,1.62Z"/><path class="uuid-c2c020e4-4dc5-4f39-adb0-458ecce40d50" d="m69.61,19.54c-1.17-2.38-2.69-2.98-4.33-2.17-1.1.54-1.37,1.29-1.35,2.14l-2.38-4.85-3.46,1.7.12.26.78-.39,4.86,9.9-.8.39.12.26,3.29-1.62-.3-.88c.54.61,1.16.62,2.14.13,1.97-.96,2.45-2.51,1.29-4.88Zm-2.14,4.8c-.61.3-1.28-.22-1.64-.97l-1.27-2.57c-.59-1.21-.38-2.14.2-2.43.5-.24.89.13,1.85,2.09l.36.71c.94,1.94,1.2,2.83.5,3.17Z"/><path class="uuid-c2c020e4-4dc5-4f39-adb0-458ecce40d50" d="m77.86,16.31c-.88-2.34-2.51-3.05-5.04-2.1-2.41.9-3.42,2.69-2.53,5.08.84,2.25,2.6,3.07,5.13,2.14,2.67-1.01,3.31-2.75,2.44-5.12Zm-2.51,4.84c-.92.35-1.36-.73-1.98-2.41l-.42-1.12c-.62-1.64-1-2.79-.08-3.13.85-.32,1.31.79,1.9,2.36l.46,1.23c.7,1.89.97,2.76.12,3.07Z"/><path class="uuid-c2c020e4-4dc5-4f39-adb0-458ecce40d50" d="m88.37,17.1l-.85.23-1.79-6.84-3.6.94.07.27.71-.19,1.19,4.58c.31,1.13-.01,1.87-.63,2.03-.39.09-.63-.04-.96-1.32l-1.35-5.12-3.76.98.08.27.86-.23,1.17,4.5c.47,1.81,1.62,2.24,3.06,1.86,1.4-.36,1.75-1.02,1.87-1.81l.46,1.04,3.53-.93-.07-.27Z"/><path class="uuid-c2c020e4-4dc5-4f39-adb0-458ecce40d50" d="m94.23,14.28h-.27c.03,1.06-.32,1.82-1.09,1.95-.55.09-.78-.38-.93-1.27l-.88-5.15,2.06-.34-.05-.28-2.05.35-.46-2.67-2.82,1.2.34,1.97-.88.15.05.27.86-.15.82,4.81c.31,1.89,1.51,2.13,3.09,1.87,1.93-.32,2.26-1.51,2.2-2.72Z"/><path class="uuid-c2c020e4-4dc5-4f39-adb0-458ecce40d50" d="m95.82,4.93c-1.2.13-1.55.85-1.47,1.6.07.65.44,1.4,1.74,1.27,1.15-.12,1.55-.81,1.46-1.62-.09-.94-.73-1.35-1.72-1.25Zm3.49,10.73l-.89.09-.75-7.05-3.91.42.04.27.93-.09.71,6.76-.88.09.03.28,4.74-.51-.03-.27Z"/><path class="uuid-c2c020e4-4dc5-4f39-adb0-458ecce40d50" d="m105.26,13.46c-.09,1.05-.54,1.75-1.32,1.79-.55.03-.71-.47-.75-1.37l-.23-5.2,2.09-.09v-.28s-2.1.09-2.1.09l-.11-2.71-2.95.84.08,1.99-.88.04v.28s.89-.04.89-.04l.22,4.86c.08,1.91,1.23,2.32,2.82,2.25,1.95-.08,2.44-1.23,2.53-2.43l-.28-.03Z"/><path class="uuid-15886858-5f8e-45e6-90b3-8a08dce3ac01" d="m184.22,59.04l4.16,6.65c.39.57.94.7,1.94.94.65.16,1.99,2.7,1.99,2.7l5.41-3.4-1.33-2.17c-.2-.94.71-2.31.38-4.03-.33-1.72-.7-6.35-.7-6.35-.59-.41-1.67.34-1.56,1.9.08,1.44-.12,3.14-.61,3.44-.34-.56-1.62-3.14-1.62-3.14l-8.06,3.45Z"/><path class="uuid-15886858-5f8e-45e6-90b3-8a08dce3ac01" d="m177.26,44.69l5.45-3.34,1.52,2.48c.61.09,1.51.31,2.34.61.83.3,6.57,4.11,6.57,4.11.22.42-.73,1.3-2.51.35-1.29-.57-2.71-1.02-3-.93.7,1.15,4.8,8.17,4.8,8.17.46.74-.25,2.37-1.56,1.42.6,1.04.78,2.04-.1,2.4-.74.24-1.32-.21-1.92-1.25-.23.74-.89,1.74-2.01.89-.46-.74-1.16-1.76-1.16-1.76.24.74-.53,1.77-1.45,1.18-.56-.98-5.37-8.68-5.37-8.68-.37-.67-.44-1.27-.22-1.95.22-.69.18-1.17-.24-1.85-.42-.68-1.14-1.86-1.14-1.86Z"/><path class="uuid-ea52f44d-8776-4a47-86ce-91522d81bd7e" d="m176.88,44.61c.02-.08.07-.15.14-.19l5.47-3.36c.15-.09.33-.04.42.1l1.28,2.08c.18.29.47.47.78.49,1.69.1,3.44,1.29,5.12,2.44.69.47,1.41.96,2.09,1.35,0,0,.02.01.03.02.13.09.27.17.41.26.43.25.97.57.8,1.13,0,.02-.01.04-.03.06-.19.33-.5.58-.88.68-.4.11-1.07.13-1.99-.41-.79-.44-2.28-1.05-3.09-1-.17,0-.32-.12-.32-.29,0-.17.12-.32.29-.32.99-.05,2.62.63,3.43,1.08.58.34,1.12.46,1.52.35.21-.06.37-.18.48-.35-.01-.1-.32-.28-.53-.4-.15-.09-.3-.17-.44-.28-.7-.4-1.42-.89-2.12-1.37-1.62-1.1-3.29-2.25-4.81-2.34-.51-.03-.98-.32-1.26-.78l-1.12-1.82-4.95,3.03,1.18,1.92c.3.49.34,1.12.11,1.68-.23.55-.2,1.02.6,2.32l4.85,7.91c.19.3.58.4.88.21.29-.18.39-.57.21-.86l-2.48-4.05c-.09-.15-.04-.33.1-.42.15-.09.33-.04.42.1l2.48,4.05c.36.58.18,1.35-.41,1.71-.29.18-.62.23-.95.15s-.6-.28-.78-.57l-4.85-7.91c-.73-1.19-1.03-1.96-.64-2.88.16-.38.14-.79-.06-1.12l-1.34-2.18c-.04-.07-.06-.16-.04-.23Z"/><path class="uuid-ea52f44d-8776-4a47-86ce-91522d81bd7e" d="m184.78,52.53c.02-.08.07-.15.14-.19.15-.09.33-.04.42.1l3.49,5.69c.2.32.26.7.17,1.06s-.31.68-.63.87c-.32.2-.7.26-1.06.17s-.68-.31-.87-.63l-1.07-1.74c-.09-.15-.04-.33.1-.42.15-.09.33-.04.42.1l1.07,1.74c.11.18.28.3.49.35s.42.02.6-.09c.36-.22.48-.73.26-1.09l-3.49-5.69c-.04-.07-.06-.16-.04-.23Z"/><path class="uuid-ea52f44d-8776-4a47-86ce-91522d81bd7e" d="m186.66,51.38c.02-.08.07-.15.14-.19.15-.09.33-.04.42.1l4.27,6.96c.4.66.2,1.53-.46,1.93-.32.2-.7.26-1.06.17s-.68-.31-.87-.63l-1.2-1.95c-.09-.15-.04-.33.1-.42.15-.09.33-.04.42.1l1.2,1.95c.11.18.28.3.49.35s.42.02.6-.09c.37-.23.49-.71.26-1.09l-4.27-6.96c-.04-.07-.06-.16-.04-.23Z"/><path class="uuid-ea52f44d-8776-4a47-86ce-91522d81bd7e" d="m187.12,47.93c.02-.08.07-.15.14-.19.15-.09.33-.04.42.1l5.04,8.22c.4.66.2,1.53-.46,1.93-.66.41-1.53.2-1.93-.46l-.95-1.55c-.09-.15-.04-.33.1-.42s.33-.04.42.1l.95,1.55c.23.37.71.49,1.09.26.37-.23.49-.71.26-1.09l-5.04-8.22c-.04-.07-.06-.16-.04-.23Z"/><path class="uuid-ea52f44d-8776-4a47-86ce-91522d81bd7e" d="m182.57,56.73c.02-.08.07-.15.14-.19.15-.09.33-.04.42.1l4.85,7.91c.8,1.3,1.2,1.54,1.8,1.59.6.04,1.15.36,1.45.86l1.18,1.92,4.95-3.03-1.12-1.82c-.28-.46-.33-1.01-.12-1.48.61-1.4.35-3.41.1-5.35-.11-.84-.22-1.71-.26-2.51-.03-.17-.04-.35-.05-.52-.01-.24-.04-.59-.12-.65-.2.02-.38.11-.53.27-.28.31-.42.84-.38,1.51.03.92-.09,2.7-.59,3.55-.09.15-.27.2-.42.11-.15-.09-.2-.27-.11-.42.41-.7.54-2.3.51-3.21-.06-1.06.26-1.65.54-1.95.27-.29.62-.46,1.01-.48.02,0,.04,0,.07,0,.58.1.61.73.64,1.23.01.16.02.33.04.48,0,.01,0,.02,0,.03.04.78.15,1.64.26,2.47.26,2.03.53,4.12-.14,5.67-.12.29-.09.63.08.91l1.28,2.08c.09.15.04.33-.1.42l-5.47,3.36c-.07.04-.15.06-.23.04s-.15-.07-.19-.14l-1.34-2.18c-.2-.33-.55-.53-.97-.56-1-.07-1.55-.69-2.28-1.88l-4.85-7.91c-.04-.07-.06-.16-.04-.23Z"/><path class="uuid-ea52f44d-8776-4a47-86ce-91522d81bd7e" d="m190.31,53.12c.02-.08.07-.15.14-.19.15-.09.33-.04.42.1l3.42,5.57c.07.12.06.27-.04.37-1.47,1.61-1.79,3.14-.93,4.54.09.15.04.33-.1.42-.15.09-.33.04-.42-.1-.68-1.11-1.07-2.89.85-5.1l-3.3-5.37c-.04-.07-.06-.16-.04-.23Z"/><path class="uuid-15886858-5f8e-45e6-90b3-8a08dce3ac01" d="m126.23,17.93l7.67,1.62c.68.11,1.16-.19,2.02-.74.56-.36,3.32.44,3.32.44l1.31-6.26-2.48-.55c-.82-.52-1.17-2.12-2.63-3.07-1.46-.96-5.05-3.91-5.05-3.91-.7.14-.91,1.43.28,2.44,1.09.95,2.18,2.27,2.05,2.83-.64-.14-3.38-1.01-3.38-1.01l-3.12,8.2Z"/><path class="uuid-15886858-5f8e-45e6-90b3-8a08dce3ac01" d="m111.07,12.97l1.38-6.24,2.84.63c.49-.37,1.27-.87,2.06-1.25.79-.38,7.52-1.87,7.52-1.87.45.14.43,1.43-1.49,2.05-1.31.53-2.62,1.24-2.75,1.51,1.31.29,9.21,2.23,9.21,2.23.85.19,1.53,1.83-.06,2.11,1.16.29,2.01.85,1.66,1.74-.34.71-1.07.8-2.23.51.37.68.63,1.85-.75,2.06-.85-.19-2.07-.38-2.07-.38.71.34.91,1.61-.15,1.86-1.09-.28-9.97-2.17-9.97-2.17-.74-.2-1.21-.57-1.56-1.2-.34-.63-.72-.94-1.5-1.11-.78-.17-2.13-.47-2.13-.47Z"/><path class="uuid-ea52f44d-8776-4a47-86ce-91522d81bd7e" d="m110.75,13.18c-.04-.07-.06-.15-.04-.23l1.39-6.27c.04-.17.2-.27.37-.23l2.39.53c.33.07.66,0,.89-.22,1.25-1.15,3.32-1.57,5.32-1.99.82-.17,1.67-.35,2.42-.57.01,0,.02,0,.03,0,.15-.03.31-.07.47-.12.48-.13,1.09-.3,1.37.21.01.02.02.04.03.06.11.37.07.76-.12,1.11-.2.36-.65.86-1.67,1.15-.87.26-2.33.91-2.87,1.53-.11.13-.31.14-.43.03-.13-.11-.14-.31-.03-.43.65-.75,2.28-1.45,3.16-1.71.64-.18,1.11-.49,1.31-.85.1-.19.13-.39.09-.59-.08-.06-.42.04-.65.1-.16.05-.33.09-.5.12-.77.23-1.63.4-2.46.57-1.92.4-3.9.81-5.02,1.84-.38.35-.92.48-1.44.37l-2.08-.46-1.25,5.67,2.19.49c.56.12,1.04.53,1.28,1.09.24.55.59.85,2.09,1.18l9.06,2.01c.35.08.69-.14.77-.49.07-.34-.14-.67-.48-.75l-4.64-1.03c-.17-.04-.27-.2-.23-.37.04-.17.2-.27.37-.23l4.64,1.03c.67.15,1.09.81.95,1.48-.07.33-.27.61-.55.79s-.62.24-.95.17l-9.06-2.01c-1.36-.3-2.12-.62-2.52-1.54-.16-.38-.47-.65-.85-.73l-2.5-.55c-.08-.02-.15-.07-.19-.14Z"/><path class="uuid-ea52f44d-8776-4a47-86ce-91522d81bd7e" d="m121.93,13.01c-.04-.07-.06-.15-.04-.23.04-.17.2-.27.37-.23l6.52,1.44c.37.08.68.3.88.62s.27.69.19,1.06c-.08.37-.3.68-.62.88s-.69.27-1.06.19l-2-.44c-.17-.04-.27-.2-.23-.37.04-.17.2-.27.37-.23l2,.44c.2.05.42,0,.59-.11s.3-.29.35-.49c.09-.41-.19-.85-.6-.94l-6.52-1.44c-.08-.02-.15-.07-.19-.14Z"/><path class="uuid-ea52f44d-8776-4a47-86ce-91522d81bd7e" d="m122.41,10.86c-.04-.07-.06-.15-.04-.23.04-.17.2-.27.37-.23l7.97,1.76c.76.17,1.24.92,1.07,1.68-.08.37-.3.68-.62.88s-.69.27-1.06.19l-2.24-.49c-.17-.04-.27-.2-.23-.37.04-.17.2-.27.37-.23l2.24.49c.2.05.42,0,.59-.11s.3-.29.35-.49c.09-.42-.18-.85-.6-.94l-7.97-1.76c-.08-.02-.15-.07-.19-.14Z"/><path class="uuid-ea52f44d-8776-4a47-86ce-91522d81bd7e" d="m120.25,8.12c-.04-.07-.06-.15-.04-.23.04-.17.2-.27.37-.23l9.41,2.08c.76.17,1.24.92,1.07,1.68-.17.76-.92,1.24-1.68,1.07l-1.77-.39c-.17-.04-.27-.2-.23-.37s.2-.27.37-.23l1.77.39c.42.09.85-.18.94-.6.09-.43-.18-.85-.6-.94l-9.41-2.08c-.08-.02-.15-.07-.19-.14Z"/><path class="uuid-ea52f44d-8776-4a47-86ce-91522d81bd7e" d="m123.41,17.51c-.04-.07-.06-.15-.04-.23.04-.17.2-.27.37-.23l9.06,2.01c1.49.33,1.94.21,2.39-.19.45-.4,1.06-.57,1.62-.45l2.2.49,1.25-5.67-2.08-.46c-.52-.12-.96-.47-1.15-.94-.58-1.41-2.21-2.62-3.78-3.79-.68-.5-1.38-1.03-1.98-1.56-.14-.1-.28-.22-.4-.33-.18-.16-.45-.39-.55-.37-.13.16-.18.35-.17.57.03.42.32.89.82,1.32.69.62,1.87,1.94,2.14,2.89.05.16-.05.33-.21.38-.16.05-.33-.05-.38-.21-.22-.78-1.28-1.99-1.96-2.6-.8-.7-1-1.33-1.03-1.74-.02-.4.1-.77.36-1.06.01-.02.03-.03.05-.04.47-.34.95.06,1.33.39.12.1.25.21.37.3,0,0,.02.01.03.02.59.52,1.28,1.03,1.96,1.53,1.64,1.22,3.33,2.48,3.98,4.04.12.29.39.5.71.58l2.39.53c.17.04.27.2.23.37l-1.39,6.27c-.02.08-.07.15-.14.19s-.15.06-.23.04l-2.5-.55c-.38-.08-.77.03-1.08.3-.75.67-1.57.63-2.93.33l-9.06-2.01c-.08-.02-.15-.07-.19-.14Z"/><path class="uuid-ea52f44d-8776-4a47-86ce-91522d81bd7e" d="m126.2,9.44c-.04-.07-.06-.15-.04-.23.04-.17.2-.27.37-.23l6.38,1.41c.13.03.23.15.24.28.14,2.18,1.02,3.47,2.62,3.82.17.04.27.2.23.37-.04.17-.2.27-.37.23-1.27-.28-2.82-1.23-3.08-4.15l-6.15-1.36c-.08-.02-.15-.07-.19-.14Z"/><path class="uuid-15886858-5f8e-45e6-90b3-8a08dce3ac01" d="m16.32,116.24l-.87-7.8c-.11-.68-.54-1.04-1.34-1.69-.52-.42-.63-3.29-.63-3.29l-6.35.72.26,2.53c-.23.94-1.64,1.77-2.09,3.46-.45,1.69-2.13,6.02-2.13,6.02.36.62,1.65.42,2.23-1.03.56-1.33,1.47-2.78,2.05-2.84.07.65.1,3.53.1,3.53l8.76.39Z"/><path class="uuid-15886858-5f8e-45e6-90b3-8a08dce3ac01" d="m16.37,132.18l-6.36.65-.29-2.89c-.51-.35-1.23-.93-1.84-1.57-.61-.63-4.13-6.55-4.13-6.55-.01-.47,1.23-.85,2.41.78.91,1.08,2,2.1,2.3,2.14-.14-1.34-.78-9.45-.78-9.45-.09-.87,1.25-2.03,2.02-.61-.09-1.2.18-2.17,1.13-2.12.78.1,1.1.76,1.18,1.96.53-.56,1.56-1.18,2.2.07.09.87.29,2.09.29,2.09.1-.78,1.25-1.37,1.82-.44.08,1.12,1.07,10.15,1.07,10.15.04.76-.16,1.33-.65,1.85-.49.52-.67.98-.59,1.78.08.79.22,2.17.22,2.17Z"/><path class="uuid-ea52f44d-8776-4a47-86ce-91522d81bd7e" d="m16.67,132.42c-.05.06-.12.1-.21.11l-6.39.65c-.17.02-.32-.11-.34-.28l-.25-2.43c-.03-.33-.22-.62-.49-.78-1.48-.83-2.53-2.66-3.55-4.42-.42-.73-.85-1.48-1.3-2.12,0,0-.01-.02-.02-.03-.07-.14-.17-.27-.26-.41-.28-.42-.63-.94-.23-1.37.01-.02.03-.03.05-.04.31-.22.7-.3,1.09-.23.41.07,1.02.35,1.62,1.23.52.74,1.6,1.93,2.35,2.24.16.07.23.25.17.4-.07.16-.25.23-.4.17-.91-.38-2.09-1.71-2.62-2.46-.38-.55-.81-.9-1.22-.97-.21-.04-.41,0-.59.1-.03.1.17.39.3.59.09.14.19.29.28.44.46.66.89,1.42,1.31,2.15.98,1.7,1.99,3.45,3.32,4.19.45.25.75.72.8,1.25l.22,2.12,5.77-.59-.23-2.24c-.06-.57.18-1.16.63-1.56.45-.4.62-.83.47-2.35l-.94-9.23c-.04-.35-.35-.61-.7-.57-.34.04-.6.34-.56.69l.48,4.72c.02.17-.11.32-.28.34-.17.02-.32-.11-.34-.28l-.48-4.72c-.07-.68.43-1.29,1.11-1.36.33-.03.66.06.92.28s.42.51.46.85l.94,9.23c.14,1.39.07,2.21-.67,2.88-.31.27-.47.65-.43,1.04l.26,2.54c0,.08-.02.16-.07.23Z"/><path class="uuid-ea52f44d-8776-4a47-86ce-91522d81bd7e" d="m13,121.86c-.05.06-.12.1-.21.11-.17.02-.32-.11-.34-.28l-.68-6.64c-.04-.37.07-.74.31-1.03s.57-.47.95-.51c.37-.04.74.07,1.03.31s.47.57.51.95l.21,2.04c.02.17-.11.32-.28.34-.17.02-.32-.11-.34-.28l-.21-2.04c-.02-.21-.12-.4-.29-.53s-.37-.2-.58-.17c-.42.04-.75.45-.71.87l.68,6.64c0,.08-.02.16-.07.23Z"/><path class="uuid-ea52f44d-8776-4a47-86ce-91522d81bd7e" d="m10.8,122.08c-.05.06-.12.1-.21.11-.17.02-.32-.11-.34-.28l-.83-8.13c-.08-.77.49-1.46,1.26-1.54.37-.04.74.07,1.03.31s.47.57.51.95l.23,2.28c.02.17-.11.32-.28.34-.17.02-.32-.11-.34-.28l-.23-2.28c-.02-.21-.12-.4-.29-.53s-.37-.2-.58-.17c-.43.04-.75.43-.71.87l.83,8.13c0,.08-.02.16-.07.23Z"/><path class="uuid-ea52f44d-8776-4a47-86ce-91522d81bd7e" d="m8.89,124.99c-.05.06-.12.1-.21.11-.17.02-.32-.11-.34-.28l-.98-9.59c-.08-.77.48-1.46,1.26-1.54.77-.08,1.46.49,1.54,1.26l.18,1.81c.02.17-.11.32-.28.34s-.32-.11-.34-.28l-.18-1.81c-.04-.43-.43-.75-.87-.71-.43.04-.75.43-.71.87l.98,9.59c0,.08-.02.16-.07.23Z"/><path class="uuid-ea52f44d-8776-4a47-86ce-91522d81bd7e" d="m16.81,119.04c-.05.06-.12.1-.21.11-.17.02-.32-.11-.34-.28l-.94-9.23c-.15-1.52-.41-1.91-.93-2.21-.52-.3-.87-.83-.93-1.4l-.23-2.24-5.77.59.22,2.12c.05.53-.14,1.05-.53,1.39-1.15,1-1.79,2.92-2.41,4.78-.27.8-.54,1.63-.85,2.37-.05.17-.12.33-.18.49-.09.22-.22.55-.17.64.19.07.39.06.59-.02.39-.16.74-.58,1-1.19.37-.85,1.25-2.39,2.07-2.94.14-.1.33-.06.43.08.1.14.06.33-.08.43-.67.46-1.49,1.84-1.85,2.67-.41.98-.95,1.37-1.33,1.52-.37.15-.76.15-1.11,0-.02,0-.04-.02-.06-.03-.47-.34-.24-.92-.05-1.39.06-.15.12-.3.17-.45,0-.01,0-.02.01-.03.31-.72.58-1.54.84-2.34.64-1.94,1.31-3.94,2.59-5.05.24-.2.36-.52.32-.86l-.25-2.43c-.02-.17.11-.32.28-.34l6.39-.65c.08,0,.16.02.23.07s.1.13.11.21l.26,2.54c.04.38.27.72.63.93.87.5,1.1,1.29,1.24,2.68l.94,9.23c0,.08-.02.16-.07.23Z"/><path class="uuid-ea52f44d-8776-4a47-86ce-91522d81bd7e" d="m8.27,118.93c-.05.06-.12.1-.21.11-.17.02-.32-.11-.34-.28l-.66-6.5c-.01-.14.06-.27.19-.32,2.03-.81,2.97-2.05,2.81-3.69-.02-.17.11-.32.28-.34.17-.02.32.11.34.28.13,1.3-.29,3.07-2.98,4.23l.64,6.27c0,.08-.02.16-.07.23Z"/><path class="uuid-15886858-5f8e-45e6-90b3-8a08dce3ac01" d="m57.76,183.42l-6.63-4.18c-.6-.34-1.15-.22-2.16,0-.65.14-2.97-1.56-2.97-1.56l-3.4,5.41,2.14,1.38c.59.77.36,2.39,1.4,3.79,1.04,1.4,3.38,5.41,3.38,5.41.71.11,1.35-1.03.59-2.39-.7-1.27-1.26-2.88-.94-3.37.55.35,2.82,2.12,2.82,2.12l5.77-6.61Z"/><path class="uuid-15886858-5f8e-45e6-90b3-8a08dce3ac01" d="m70.26,193.33l-3.46,5.37-2.44-1.57c-.59.18-1.49.38-2.37.46-.87.08-7.7-.85-7.7-.85-.38-.29.1-1.49,2.11-1.4,1.41-.04,2.89-.26,3.1-.46-1.13-.73-7.87-5.28-7.87-5.28-.73-.47-.8-2.24.78-1.96-.99-.68-1.59-1.5-.95-2.21.57-.54,1.28-.38,2.27.3-.11-.76.05-1.95,1.42-1.67.73.47,1.81,1.08,1.81,1.08-.54-.57-.29-1.83.79-1.69.93.64,8.6,5.49,8.6,5.49.62.44.94.95,1.04,1.67.1.71.35,1.13,1.02,1.56.67.43,1.83,1.18,1.83,1.18Z"/><path class="uuid-ea52f44d-8776-4a47-86ce-91522d81bd7e" d="m70.64,193.24c.02.08,0,.16-.04.23l-3.47,5.4c-.09.14-.28.18-.43.09l-2.05-1.32c-.28-.18-.62-.22-.91-.1-1.57.64-3.66.33-5.68.02-.83-.13-1.69-.26-2.47-.31-.01,0-.02,0-.03,0-.15-.03-.32-.04-.48-.05-.5-.04-1.12-.09-1.21-.67,0-.02,0-.04,0-.07.02-.38.2-.74.5-1,.31-.27.9-.58,1.97-.5.9.05,2.51-.05,3.22-.44.15-.08.34-.03.42.12.08.15.03.34-.12.42-.86.48-2.64.57-3.56.51-.67-.05-1.21.07-1.52.35-.16.14-.26.32-.28.52.06.08.41.11.65.13.17.01.34.03.52.06.8.06,1.67.19,2.5.31,1.94.29,3.94.6,5.35.02.47-.19,1.03-.14,1.48.15l1.8,1.16,3.14-4.88-1.89-1.22c-.49-.31-.79-.86-.83-1.47-.03-.6-.26-1.01-1.55-1.83l-7.8-5.02c-.3-.19-.7-.11-.89.19-.19.29-.1.68.19.87l3.99,2.57c.14.09.18.28.09.43-.09.14-.28.18-.43.09l-3.99-2.57c-.58-.37-.75-1.14-.37-1.72.18-.28.46-.48.79-.55s.66-.01.95.17l7.8,5.02c1.17.75,1.77,1.32,1.83,2.32.02.41.22.77.54.98l2.15,1.38c.07.05.12.12.13.19Z"/><path class="uuid-ea52f44d-8776-4a47-86ce-91522d81bd7e" d="m60.09,189.53c.02.08,0,.16-.04.23-.09.14-.28.18-.43.09l-5.61-3.61c-.31-.2-.53-.52-.61-.88s-.01-.74.19-1.06c.2-.31.52-.53.88-.61s.74-.01,1.06.19l1.72,1.11c.14.09.18.28.09.43-.09.14-.28.18-.43.09l-1.72-1.11c-.18-.11-.39-.15-.59-.11s-.38.17-.5.34c-.23.35-.12.86.24,1.09l5.61,3.61c.07.05.12.12.13.19Z"/><path class="uuid-ea52f44d-8776-4a47-86ce-91522d81bd7e" d="m58.9,191.38c.02.08,0,.16-.04.23-.09.14-.28.18-.43.09l-6.87-4.42c-.65-.42-.84-1.29-.42-1.94.2-.31.52-.53.88-.61s.74-.01,1.06.19l1.93,1.24c.14.09.18.28.09.43-.09.14-.28.18-.43.09l-1.93-1.24c-.18-.11-.39-.15-.59-.11s-.38.17-.5.34c-.24.37-.13.86.24,1.09l6.87,4.42c.07.05.12.12.13.19Z"/><path class="uuid-ea52f44d-8776-4a47-86ce-91522d81bd7e" d="m59.97,194.69c.02.08,0,.16-.04.23-.09.14-.28.18-.43.09l-8.11-5.22c-.65-.42-.84-1.29-.42-1.94.42-.65,1.29-.84,1.94-.42l1.53.98c.14.09.18.28.09.43s-.28.18-.43.09l-1.53-.98c-.37-.24-.86-.13-1.09.24-.24.37-.13.86.24,1.09l8.11,5.22c.07.05.12.12.13.19Z"/><path class="uuid-ea52f44d-8776-4a47-86ce-91522d81bd7e" d="m60.26,184.79c.02.08,0,.16-.04.23-.09.14-.28.18-.43.09l-7.8-5.02c-1.28-.83-1.75-.87-2.31-.65-.56.22-1.19.17-1.68-.14l-1.89-1.22-3.14,4.88,1.8,1.16c.45.29.73.77.75,1.28.06,1.52,1.16,3.22,2.23,4.86.46.71.94,1.44,1.32,2.15.1.15.18.3.27.45.12.21.29.52.39.53.17-.1.3-.27.36-.47.12-.4,0-.94-.31-1.52-.43-.82-1.08-2.47-1.01-3.45.01-.17.16-.3.33-.28.17.01.3.16.28.33-.06.81.51,2.31.94,3.11.51.93.48,1.6.36,1.99-.11.38-.36.69-.7.87-.02.01-.04.02-.06.02-.56.16-.87-.39-1.11-.83-.08-.14-.16-.29-.25-.41,0,0-.01-.02-.02-.03-.37-.69-.85-1.42-1.3-2.12-1.11-1.71-2.27-3.48-2.33-5.17-.01-.31-.19-.61-.47-.79l-2.05-1.32c-.14-.09-.18-.28-.09-.43l3.47-5.4c.04-.07.11-.12.19-.13s.16,0,.23.04l2.15,1.38c.32.21.73.24,1.12.09.93-.37,1.7-.05,2.87.7l7.8,5.02c.07.05.12.12.13.19Z"/><path class="uuid-ea52f44d-8776-4a47-86ce-91522d81bd7e" d="m54.85,191.39c.02.08,0,.16-.04.23-.09.14-.28.18-.43.09l-5.49-3.53c-.12-.07-.17-.22-.13-.35.63-2.09.25-3.61-1.13-4.49-.14-.09-.18-.28-.09-.43.09-.14.28-.18.43-.09,1.1.71,2.22,2.14,1.45,4.96l5.3,3.41c.07.05.12.12.13.19Z"/><path class="uuid-15886858-5f8e-45e6-90b3-8a08dce3ac01" d="m192.41,137.55l-2.6,7.4c-.2.66.04,1.17.47,2.1.28.6-.86,3.24-.86,3.24l6.03,2.11.87-2.39c.62-.74,2.25-.88,3.39-2.21,1.14-1.33,4.53-4.5,4.53-4.5-.05-.71-1.3-1.09-2.46-.04-1.08.96-2.53,1.86-3.08,1.67.22-.61,1.44-3.23,1.44-3.23l-7.73-4.15Z"/><path class="uuid-15886858-5f8e-45e6-90b3-8a08dce3ac01" d="m199.29,123.17l6.01,2.18-.99,2.73c.31.54.7,1.37.98,2.21.28.83.88,7.7.88,7.7-.19.43-1.48.24-1.84-1.75-.36-1.36-.89-2.76-1.14-2.92-.46,1.26-3.4,8.85-3.4,8.85-.3.82-2.01,1.28-2.08-.33-.44,1.11-1.11,1.88-1.94,1.42-.66-.43-.66-1.17-.22-2.28-.72.28-1.92.39-1.95-1.01.3-.82.65-2.01.65-2.01-.43.66-1.72.69-1.83-.39.42-1.05,3.44-9.61,3.44-9.61.29-.7.72-1.13,1.39-1.39.67-.26,1.03-.59,1.3-1.35.27-.75.74-2.05.74-2.05Z"/><path class="uuid-ea52f44d-8776-4a47-86ce-91522d81bd7e" d="m199.12,122.82c.07-.03.16-.04.24-.01l6.04,2.19c.16.06.24.23.18.39l-.83,2.3c-.11.32-.08.66.1.91.97,1.39,1.13,3.49,1.28,5.53.06.84.13,1.7.25,2.47,0,.01,0,.02,0,.03,0,.15.03.32.05.48.07.5.16,1.12-.38,1.33-.02,0-.04.01-.06.02-.38.06-.76-.03-1.08-.26-.33-.24-.77-.75-.92-1.81-.15-.89-.6-2.43-1.14-3.04-.11-.13-.1-.32.03-.44.13-.11.32-.1.43.02.66.74,1.14,2.45,1.29,3.35.1.66.34,1.16.68,1.41.17.13.37.18.57.16.07-.07.02-.42-.01-.66-.02-.17-.05-.34-.06-.52-.12-.79-.19-1.67-.25-2.51-.15-1.95-.3-3.97-1.17-5.22-.29-.42-.36-.97-.18-1.47l.73-2.01-5.46-1.98-.77,2.11c-.2.54-.66.97-1.25,1.13-.58.16-.92.48-1.44,1.92l-3.16,8.73c-.12.33.05.7.38.82.33.12.69-.05.81-.38l1.62-4.47c.06-.16.23-.24.39-.18.16.06.24.23.18.39l-1.62,4.47c-.23.65-.95.98-1.59.75-.32-.11-.57-.35-.71-.65s-.16-.65-.04-.96l3.16-8.73c.47-1.31.89-2.02,1.85-2.3.4-.11.7-.39.83-.75l.87-2.4c.03-.08.09-.14.16-.17Z"/><path class="uuid-ea52f44d-8776-4a47-86ce-91522d81bd7e" d="m197.85,133.93c.07-.03.16-.04.24-.01.16.06.24.23.18.39l-2.27,6.28c-.13.35-.39.63-.73.79s-.72.18-1.07.05c-.35-.13-.63-.39-.79-.73s-.18-.72-.05-1.07l.7-1.92c.06-.16.23-.24.39-.18.16.06.24.23.18.39l-.7,1.92c-.07.2-.06.41.03.6s.25.34.44.41c.39.14.87-.08,1.01-.47l2.27-6.28c.03-.08.09-.14.16-.17Z"/><path class="uuid-ea52f44d-8776-4a47-86ce-91522d81bd7e" d="m199.92,134.68c.07-.03.16-.04.24-.01.16.06.24.23.18.39l-2.78,7.68c-.26.73-1.07,1.11-1.8.84-.35-.13-.63-.39-.79-.73s-.18-.72-.05-1.07l.78-2.15c.06-.16.23-.24.39-.18.16.06.24.23.18.39l-.78,2.15c-.07.2-.06.41.03.6s.25.34.44.41c.41.15.86-.06,1.01-.47l2.78-7.68c.03-.08.09-.14.16-.17Z"/><path class="uuid-ea52f44d-8776-4a47-86ce-91522d81bd7e" d="m202.91,132.89c.07-.03.16-.04.24-.01.16.06.24.23.18.39l-3.28,9.07c-.26.73-1.07,1.11-1.8.84-.73-.26-1.11-1.07-.84-1.8l.62-1.71c.06-.16.23-.24.39-.18s.24.23.18.39l-.62,1.71c-.15.41.06.86.47,1.01.41.15.86-.06,1.01-.47l3.28-9.07c.03-.08.09-.14.16-.17Z"/><path class="uuid-ea52f44d-8776-4a47-86ce-91522d81bd7e" d="m193.19,134.82c.07-.03.16-.04.24-.01.16.06.24.23.18.39l-3.16,8.73c-.52,1.44-.46,1.9-.12,2.39.34.5.43,1.12.23,1.67l-.77,2.11,5.46,1.98.73-2.01c.18-.5.59-.89,1.08-1.02,1.47-.4,2.88-1.85,4.24-3.26.59-.61,1.2-1.24,1.8-1.77.12-.13.25-.25.38-.36.18-.16.44-.4.43-.5-.14-.14-.33-.23-.54-.24-.42-.03-.92.2-1.42.64-.7.6-2.17,1.61-3.14,1.75-.17.03-.33-.09-.35-.26-.03-.17.09-.33.26-.35.8-.12,2.14-1.01,2.83-1.61.79-.71,1.45-.82,1.86-.79.4.03.75.2,1,.49.01.02.03.03.04.05.28.51-.19.93-.56,1.27-.12.11-.24.22-.35.33,0,0-.02.02-.02.02-.59.52-1.19,1.14-1.77,1.74-1.42,1.47-2.89,2.98-4.52,3.43-.3.08-.55.32-.66.63l-.83,2.3c-.06.16-.23.24-.39.18l-6.04-2.19c-.08-.03-.14-.08-.17-.16s-.04-.16-.01-.24l.87-2.4c.13-.36.07-.77-.16-1.11-.56-.83-.43-1.64.05-2.95l3.16-8.73c.03-.08.09-.14.16-.17Z"/><path class="uuid-ea52f44d-8776-4a47-86ce-91522d81bd7e" d="m200.83,138.62c.07-.03.16-.04.24-.01.16.06.24.23.18.39l-2.22,6.14c-.05.13-.17.21-.31.2-2.18-.15-3.57.56-4.13,2.1-.06.16-.23.24-.39.18-.16-.06-.24-.23-.18-.39.44-1.23,1.59-2.64,4.52-2.52l2.14-5.93c.03-.08.09-.14.16-.17Z"/><path class="uuid-f8a87bd2-965e-49ed-87d3-9811d50eb339" d="m120.5,166.6c.53-.62.85-1.43.85-2.32,0-1.92-1.47-3.47-3.29-3.47-1.23,0-2.31.72-2.87,1.78-.56-1.06-1.64-1.78-2.87-1.78-1.82,0-3.29,1.55-3.29,3.47,0,.89.32,1.71.85,2.32l5.31,5.74,5.31-5.74Z"/><path class="uuid-f8a87bd2-965e-49ed-87d3-9811d50eb339" d="m108.62,157.54c.3-.35.49-.82.49-1.33,0-1.1-.84-1.99-1.89-1.99-.71,0-1.32.41-1.65,1.02-.32-.61-.94-1.02-1.65-1.02-1.04,0-1.89.89-1.89,1.99,0,.51.19.98.49,1.33l3.05,3.29,3.05-3.29Z"/><path class="uuid-15886858-5f8e-45e6-90b3-8a08dce3ac01" d="m111.9,203.16s-7.76.32-9.95,0c-.9-1.89-2.89-6.2-2.89-6.2-1.59-.21-2.09,0-4.78-1.89-2.69-1.89-8.46-6.62-9.06-7.14-.7-.84,1.49-2,4.28-.11,1.89.84,3.98,1.68,4.58,1.58-1.39-3.05-6.77-13.97-6.77-13.97-.5-1.16-.2-3.78,2.59-2.63-.6-1.68-.7-3.05.2-3.68s2.79.32,3.38,2.21c.2-1.37,1.99-2.84,3.58-.74.5.84.9,2.42.9,2.42.4-1.89,2.49-2.31,3.38-.84.9,1.58,1.69,4.2,1.69,4.2l9.04,21.48s-.34,5.46-.19,5.3Z"/><path class="uuid-15886858-5f8e-45e6-90b3-8a08dce3ac01" d="m111.95,203.16s7.76.32,9.95,0c.9-1.89,2.89-6.2,2.89-6.2,1.59-.21,2.09,0,4.78-1.89s8.46-6.62,9.06-7.14c.7-.84-1.49-2-4.28-.11-1.89.84-3.98,1.68-4.58,1.58,1.39-3.05,6.77-13.97,6.77-13.97.5-1.16.2-3.78-2.59-2.63.6-1.68.7-3.05-.2-3.68s-2.79.32-3.38,2.21c-.2-1.37-1.99-2.84-3.58-.74-.5.84-.9,2.42-.9,2.42-.4-1.89-2.49-2.31-3.38-.84-.9,1.58-1.69,4.2-1.69,4.2l-9.04,21.48s.34,5.46.19,5.3Z"/><path class="uuid-f8a87bd2-965e-49ed-87d3-9811d50eb339" d="m122.26,186.86c1.01-1.18,1.63-2.74,1.63-4.45,0-3.67-2.82-6.65-6.3-6.65-2.37,0-4.42,1.38-5.5,3.41-1.08-2.03-3.14-3.41-5.5-3.41-3.48,0-6.3,2.98-6.3,6.65,0,1.72.62,3.27,1.63,4.45l10.17,10.99,10.17-10.99Z"/><path class="uuid-ea52f44d-8776-4a47-86ce-91522d81bd7e" d="m112.03,198.91c-.16,0-.31-.07-.43-.19l-10.45-11.27c-1.2-1.39-1.85-3.17-1.85-5.01,0-4.11,3.16-7.46,7.06-7.46,2.24,0,4.32,1.12,5.65,2.97,1.32-1.86,3.41-2.98,5.64-2.98,3.9,0,7.07,3.34,7.07,7.45,0,1.84-.65,3.62-1.82,4.99-.02.02-10.44,11.31-10.44,11.31-.11.12-.27.19-.43.19h0Zm-5.66-22.67c-3.24,0-5.87,2.79-5.87,6.2,0,1.53.54,3,1.52,4.15l10.01,10.79,9.99-10.82c.97-1.14,1.51-2.61,1.51-4.14,0-3.41-2.64-6.19-5.87-6.19-2.13,0-4.09,1.22-5.13,3.18-.11.2-.3.32-.52.32-.22,0-.42-.12-.52-.32-1.04-1.96-3-3.17-5.12-3.17Z"/><path class="uuid-ea52f44d-8776-4a47-86ce-91522d81bd7e" d="m115.2,173.32c-.16,0-.31-.07-.43-.19l-5.53-5.96c-.69-.8-1.06-1.81-1.06-2.86,0-1.13.42-2.2,1.17-3,.76-.8,1.77-1.24,2.84-1.25,1.15,0,2.23.52,2.99,1.4.75-.88,1.83-1.41,2.98-1.41,2.22,0,4.02,1.9,4.02,4.24,0,1.05-.37,2.06-1.04,2.84-.02.02-5.53,5.99-5.53,5.99-.11.12-.27.19-.43.19h0Zm-2.99-11.99c-.76,0-1.46.31-2,.87-.53.56-.83,1.31-.82,2.11,0,.74.26,1.44.73,1.99l5.08,5.48,5.08-5.5c.47-.55.72-1.25.72-1.99,0-1.64-1.27-2.98-2.82-2.98-1.02,0-1.97.59-2.46,1.53-.11.2-.3.32-.52.32-.22,0-.42-.12-.52-.32-.5-.94-1.44-1.53-2.46-1.53Z"/><path class="uuid-ea52f44d-8776-4a47-86ce-91522d81bd7e" d="m105.5,161.62c-.16,0-.31-.07-.43-.19l-3.1-3.34c-.43-.51-.67-1.14-.67-1.79,0-.71.26-1.37.73-1.88.47-.5,1.1-.78,1.78-.78.63,0,1.22.25,1.67.67.45-.43,1.05-.67,1.67-.68.67,0,1.3.28,1.78.77.48.5.74,1.17.74,1.87,0,.66-.23,1.29-.65,1.78-.02.02-3.1,3.36-3.1,3.36-.11.12-.27.19-.43.19h0Zm-1.68-6.72c-.35,0-.68.15-.93.41-.25.26-.39.61-.39.98,0,.34.12.67.34.93l2.65,2.86,2.65-2.87c.22-.26.33-.58.33-.92,0-.37-.14-.72-.39-.98-.25-.26-.58-.41-.93-.41-.48,0-.92.27-1.15.72-.11.2-.3.32-.52.32-.22,0-.42-.12-.52-.32-.23-.44-.67-.71-1.15-.71Z"/><path class="uuid-ea52f44d-8776-4a47-86ce-91522d81bd7e" d="m100.71,179.09c-.22,0-.43-.12-.53-.34l-2.48-5.1c-.53-1.09-.12-2.42.91-2.98.5-.27,1.08-.32,1.62-.14.54.18.98.58,1.24,1.11l2.1,4.32c.15.31.03.69-.26.85-.29.16-.65.04-.8-.27l-2.1-4.32c-.11-.23-.3-.4-.54-.48-.24-.08-.49-.06-.71.06-.21.12-.37.31-.45.56-.07.24-.05.5.06.73l2.48,5.1c.15.31.03.69-.26.85-.09.05-.18.07-.27.07Z"/><path class="uuid-ea52f44d-8776-4a47-86ce-91522d81bd7e" d="m97.71,181c-.22,0-.43-.12-.53-.34l-4-8.22c-.29-.59-.34-1.26-.14-1.9.19-.63.61-1.15,1.17-1.45,1.16-.62,2.58-.14,3.17,1.08l1.49,3.08c.15.31.03.69-.26.85-.29.16-.65.04-.8-.27l-1.49-3.08c-.29-.6-.99-.84-1.56-.53-.27.15-.48.4-.57.71-.1.31-.07.64.07.93l4,8.22c.15.31.03.69-.26.85-.09.05-.18.07-.27.07Z"/><path class="uuid-ea52f44d-8776-4a47-86ce-91522d81bd7e" d="m94.57,182.7c-.22,0-.43-.12-.53-.34l-5.09-10.46c-.29-.59-.34-1.26-.14-1.9.19-.63.61-1.15,1.17-1.45.56-.3,1.2-.36,1.8-.15.6.2,1.09.64,1.37,1.23l1.67,3.45c.15.31.03.69-.26.85-.29.16-.65.04-.8-.27l-1.67-3.45c-.29-.6-.99-.84-1.56-.53-.27.15-.48.4-.57.71-.1.31-.07.64.07.93l5.09,10.46c.15.31.03.69-.26.85-.09.05-.18.07-.27.07Z"/><path class="uuid-ea52f44d-8776-4a47-86ce-91522d81bd7e" d="m94.28,190.28c-.22,0-.43-.12-.53-.34l-7.04-14.5c-.59-1.22-.13-2.72,1.02-3.35,1.16-.62,2.58-.14,3.17,1.08l1.33,2.73c.15.31.03.69-.26.85-.29.16-.65.04-.8-.27l-1.33-2.73c-.29-.6-.99-.84-1.56-.53-.57.31-.79,1.05-.5,1.65l7.04,14.5c.15.31.03.69-.26.85-.09.05-.18.07-.27.07Z"/><path class="uuid-ea52f44d-8776-4a47-86ce-91522d81bd7e" d="m112.03,203.84h-10.14c-.22,0-.43-.13-.53-.34l-2.61-5.37c-.23-.47-.64-.8-1.1-.86-2.72-.39-5.37-2.64-7.93-4.8-1.09-.93-2.13-1.8-3.16-2.54-.02-.01-.03-.03-.05-.04-.19-.17-.41-.33-.61-.48-.65-.48-1.55-1.14-1.18-2.14.02-.04.04-.08.06-.12.35-.56.91-.95,1.56-1.08.67-.14,1.77-.08,3.2.96,1.39.97,3.61,2.04,4.75,2.07.24.02.53-.02.88-.06,1.69-.22,4.52-.59,7.79,3.59.21.27.17.67-.08.89-.25.22-.63.18-.84-.08-2.85-3.64-5.18-3.34-6.72-3.14-.41.05-.77.1-1.1.07-1.57-.03-4.06-1.38-5.35-2.28-.86-.62-1.68-.89-2.31-.77-.3.06-.55.21-.72.44.08.14.49.44.74.63.23.17.46.34.67.52,1.07.76,2.16,1.69,3.22,2.58,2.44,2.06,4.96,4.19,7.34,4.54.85.12,1.59.7,2,1.54l2.44,5.02h9.18v-4.3c0-.35.27-.63.6-.63s.6.28.6.63v4.93c0,.35-.27.63-.6.63Z"/><path class="uuid-ea52f44d-8776-4a47-86ce-91522d81bd7e" d="m123.32,179.09c-.09,0-.18-.02-.27-.07-.29-.16-.41-.54-.26-.85l2.48-5.1c.11-.23.13-.49.06-.73-.07-.24-.23-.44-.45-.56-.22-.12-.47-.14-.7-.06-.24.08-.43.25-.54.48l-2.1,4.32c-.15.31-.51.43-.8.27-.29-.16-.41-.54-.26-.85l2.1-4.32c.26-.53.7-.93,1.24-1.11.54-.18,1.11-.13,1.62.14.5.27.87.73,1.04,1.29.17.56.13,1.16-.13,1.69l-2.48,5.1c-.11.22-.32.34-.53.34Z"/><path class="uuid-ea52f44d-8776-4a47-86ce-91522d81bd7e" d="m126.33,181c-.09,0-.18-.02-.27-.07-.29-.16-.41-.54-.26-.85l4-8.22c.14-.29.17-.62.07-.93-.1-.31-.3-.57-.57-.71-.27-.15-.59-.17-.88-.07-.3.1-.54.32-.68.61l-1.49,3.08c-.15.31-.51.43-.8.27-.29-.16-.41-.54-.26-.85l1.49-3.08c.29-.59.77-1.03,1.37-1.23.6-.2,1.24-.15,1.8.15.56.3.97.82,1.17,1.45.19.63.14,1.31-.14,1.89l-4,8.22c-.11.22-.31.34-.53.34Z"/><path class="uuid-ea52f44d-8776-4a47-86ce-91522d81bd7e" d="m129.47,182.7c-.09,0-.18-.02-.27-.07-.29-.16-.41-.54-.26-.85l5.09-10.46c.14-.29.17-.62.07-.93-.1-.31-.3-.57-.57-.71-.57-.31-1.27-.07-1.56.53l-1.67,3.45c-.15.31-.51.43-.8.27-.29-.16-.41-.54-.26-.85l1.67-3.45c.59-1.22,2.01-1.7,3.17-1.08.56.3.97.82,1.16,1.45.19.63.14,1.31-.14,1.89l-5.09,10.46c-.11.22-.31.34-.53.34Z"/><path class="uuid-ea52f44d-8776-4a47-86ce-91522d81bd7e" d="m129.76,190.28c-.09,0-.18-.02-.27-.07-.29-.16-.41-.54-.26-.85l7.04-14.5c.29-.6.07-1.34-.5-1.65-.57-.31-1.27-.07-1.56.53l-1.33,2.73c-.15.31-.51.43-.8.27-.29-.16-.41-.54-.26-.85l1.33-2.73c.59-1.22,2.01-1.7,3.17-1.08,1.16.63,1.61,2.13,1.02,3.35l-7.04,14.5c-.11.22-.32.34-.53.34Z"/><path class="uuid-ea52f44d-8776-4a47-86ce-91522d81bd7e" d="m122.14,203.84h-10.11c-.33,0-.6-.28-.6-.63,0-.35.27-.63.6-.63h9.74l2.44-5.02c.41-.84,1.16-1.41,2-1.54,2.39-.35,4.91-2.48,7.35-4.54,1.06-.89,2.15-1.82,3.22-2.58.21-.19.45-.36.67-.52.24-.18.64-.47.73-.63-.18-.23-.42-.38-.72-.44-.63-.13-1.45.14-2.3.76-1.29.9-3.79,2.25-5.4,2.29-.28.03-.64-.02-1.05-.07-1.54-.2-3.87-.5-6.72,3.14-.21.27-.59.31-.84.08-.25-.22-.29-.62-.08-.89,3.27-4.17,6.1-3.81,7.79-3.59.34.04.64.08.83.06,1.19-.03,3.41-1.1,4.8-2.08,1.43-1.03,2.53-1.09,3.2-.95.65.13,1.2.52,1.56,1.08.02.04.04.08.06.12.37,1-.53,1.66-1.18,2.14-.21.15-.42.31-.61.48-.02.01-.03.03-.05.04-1.04.74-2.07,1.61-3.16,2.54-2.56,2.17-5.21,4.41-7.93,4.8-.46.07-.87.39-1.1.86l-2.61,5.37c-.1.21-.31.34-.53.34Z"/></svg>