<?xml version="1.0" encoding="UTF-8"?>
<svg id="b49b8134-b21d-401c-a6a6-1037c3c10958" data-name="#CanWeTalkAboutIt" xmlns="http://www.w3.org/2000/svg" viewBox="0 0 1015.15 1015.15"><defs><style>.fbdbd983-99e9-480e-af38-64d7f6a665a0{fill:#fff;}.a0659a14-591b-4961-b149-0d0999ab01b4{fill:#293795;}.b558ed53-4098-452b-9436-b913f83711b3{fill:#f8c3da;}.af9a2552-4b0e-4d9c-b2cc-86df8b1b9409{fill:#231f20;}</style></defs><g id="a25196d7-d183-471c-8739-2e347c3d7dc9" data-name="cropped arc"><path class="fbdbd983-99e9-480e-af38-64d7f6a665a0" d="M760.39,705v0c-62.33,79.12-159.52,129.61-267,127.73C311,829.5,163.53,676.8,166.71,494.43a332.54,332.54,0,0,1,54.6-176.82,10,10,0,0,0-2.58-13.74l-80.1-56.09a10,10,0,0,0-14,2.61A450.28,450.28,0,0,0,48.91,500.23c0,247,203.25,450.25,450.25,450.25,173.48,0,325.37-100.26,400.43-245.51Z"/></g><circle id="b31e7481-60e2-406c-8b27-3510f52a0051" data-name="circle" class="fbdbd983-99e9-480e-af38-64d7f6a665a0" cx="833.32" cy="704.97" r="132.92"/><g id="b44759bd-0327-4d3e-83ae-88cc31de439a" data-name="#CWTAI heart"><path id="abe6735d-420f-4972-bccb-cff227e21a91" data-name="speech bubble" class="a0659a14-591b-4961-b149-0d0999ab01b4" d="M736.68,706.9v-6.42c.14-.73.29-1.47.42-2.2.58-3.4.91-6.86,1.79-10.18,4.23-16,13.62-28.46,26.51-38.4,18.77-14.48,40.42-21,63.84-22a114.35,114.35,0,0,1,53.33,10.56c16.61,7.71,30.34,18.8,39.35,35,7.41,13.34,9.9,27.56,6.64,42.6-3.46,16-12.17,28.86-24.63,39.16-20.84,17.24-45.29,24.17-71.95,24.11a115.4,115.4,0,0,1-34.52-5.35,5.81,5.81,0,0,0-2.78-.1c-10.65,2.15-21.29,4.36-31.93,6.54-3.21.66-6.42,1.29-9.94,2l8.62-20.71c.74-1.79,2.28-3.81,1.91-5.35s-2.61-2.84-4.05-4.21c-10.57-10-18.09-21.83-21.13-36.23C737.55,712.84,737.17,709.86,736.68,706.9Z"/><path id="a70bfbec-9839-444c-b10f-0bce12d6d412" data-name="heart" class="b558ed53-4098-452b-9436-b913f83711b3" d="M833.25,671.48a28.8,28.8,0,0,1,11.56-7.93,27.12,27.12,0,0,1,35.89,21.34,26.21,26.21,0,0,1-7.54,23.3c-12.95,13.12-26,26.12-39.07,39.17-.17.17-.38.31-.69.57-.43-.37-.86-.7-1.25-1.08q-19.08-19.1-38.15-38.22c-12.3-12.4-10.75-31.77,3.25-41.77,10.68-7.63,25.22-6.29,34.89,3.22C832.49,670.43,832.76,670.86,833.25,671.48Z"/></g><path class="af9a2552-4b0e-4d9c-b2cc-86df8b1b9409" d="M173.92,305.41l-8,16.75,11.74,10.9-4.85,10.17-11.75-10.88-9.06,19,11.76,10.86-4.85,10.16-11.76-10.85-4.29,9L136,367.25l5.3-11.11-9.27-8.55-6.9,14.48-6.81-3.25,7.9-16.58-11.67-10.76,4.87-10.21L131.11,332l9.07-19-11.66-10.79,4.9-10.27,11.64,10.82,4.33-9.07L156.2,297l-5.34,11.21,9.25,8.59,7-14.61ZM155.24,327,146,318.39l-9.07,19,9.27,8.56Z"/><path class="af9a2552-4b0e-4d9c-b2cc-86df8b1b9409" d="M119.8,438l6-24.36,10.91,2.66c3.17.78,5.22,1,6.13.67s1.59-1.38,2-3.16q.74-3-.5-4.17t-6-2.32l-29.15-7.12c-3.06-.74-5.11-1-6.17-.65s-1.83,1.42-2.29,3.31-.27,3.11.53,3.9,2.92,1.6,6.36,2.44l7.9,1.93-6,24.36-2.45-.6q-9.75-2.37-13.32-5.42t-4.93-10.83q-1.35-7.78,1.17-18.09,2.61-10.69,6.9-17t9.44-7.45q5.14-1.12,14.38,1.12l18.34,4.48a55.78,55.78,0,0,1,10,3.18,12.75,12.75,0,0,1,5.53,5.73,24.91,24.91,0,0,1,2.61,10.76,51,51,0,0,1-1.62,14.47q-2.64,10.77-7.13,17.08t-9.2,7.51q-4.69,1.18-13.48-1Z"/><path class="af9a2552-4b0e-4d9c-b2cc-86df8b1b9409" d="M112.81,473.17l1.28-22.54,3.54.2q6.14.35,9.35,2.65t5.4,8.8q2.19,6.51,1.62,16.68-.69,12.19-3.93,18.22t-7.51,7q-4.28,1-17.39.27L78.63,503,80,479.61l4.71.27A13.66,13.66,0,0,1,80.73,474a22.12,22.12,0,0,1-1-8.38,27.91,27.91,0,0,1,3-11.43q2.67-5.13,10.68-4.68l4.34.24c4,.23,6.6,1.31,7.93,3.26s2.74,6.65,4.24,14.14q2.44,12,3.47,12.9c.68.6,2.13,1,4.33,1.08,2.77.16,4.58,0,5.46-.62a3.53,3.53,0,0,0,1.42-3c.1-1.62-.2-2.66-.88-3.09s-2.5-.74-5.45-.91Zm-7.68,7.21q-2.5-5.94-4.36-7a13.07,13.07,0,0,0-5.45-1.24q-4.11-.23-5.34.51c-.83.49-1.29,1.53-1.38,3.11s.17,2.51.77,3,2.23.81,4.88,1Z"/><path class="af9a2552-4b0e-4d9c-b2cc-86df8b1b9409" d="M134.68,541.21l-4.89.16a16.49,16.49,0,0,1,5.11,5.84,24.25,24.25,0,0,1,2.48,8.49,22.7,22.7,0,0,1-.73,10.29c-1,2.76-2.42,4.63-4.29,5.61s-5.12,1.76-9.72,2.31l-36.85,4.42-2.87-23.9,36.42-4.37q5.43-.64,6.56-1.32c.75-.45,1-1.48.83-3.1s-.79-2.71-1.75-3-3.43-.25-7.39.23L82,547.1l-2.86-23.9,52.59-6.3Z"/><path class="af9a2552-4b0e-4d9c-b2cc-86df8b1b9409" d="M182.9,669.33l-64.51,11.79L107.6,651.73a321.43,321.43,0,0,1,29.19-18.81q-8.16,1.41-34.22,5.12L91.84,608.81,148.63,576,157,598.87l-20.25,10.26-19.57,9.92q16.35-4.53,44-8.78l9,24.45q-2.49,1.47-19.06,9.91L129,655.71a379.12,379.12,0,0,1,45.5-9.25Z"/><path class="af9a2552-4b0e-4d9c-b2cc-86df8b1b9409" d="M184.91,739.76l-17.13-26-9.57,6.3c-2,1.31-3.15,2.38-3.44,3.19s0,1.83.77,3.06c1,1.52,2.06,2.29,3.16,2.3s2.76-.71,5-2.16l5.84-3.84L182,741.65l-3.27,2.15a24.12,24.12,0,0,1-6.8,3.38,14.4,14.4,0,0,1-7.08-.52,21.81,21.81,0,0,1-8.48-4.72,47.85,47.85,0,0,1-8.44-10.1,54.78,54.78,0,0,1-6.17-12.06,23.9,23.9,0,0,1-1.61-9.81,14.07,14.07,0,0,1,2.26-6.87,25.09,25.09,0,0,1,6.83-6l12.9-8.49q5.81-3.81,10.69-3.68t10.18,4.28a45.8,45.8,0,0,1,9.84,11.07q5.56,8.46,7,15.37t-.63,11.46c-1.39,3-4.24,6-8.52,8.79Zm-6.07-24.89,3.24-2.13c2.29-1.5,3.65-2.66,4.07-3.46a2.78,2.78,0,0,0-.47-2.9c-.92-1.39-1.77-2.07-2.55-2s-2.43.88-4.92,2.52L175,709Z"/><path class="af9a2552-4b0e-4d9c-b2cc-86df8b1b9409" d="M257.88,762.17,248.42,771l-10.15-10.91L200.44,795.3,183.35,777l37.83-35.22-10.1-10.86,9.46-8.81Z"/><path class="af9a2552-4b0e-4d9c-b2cc-86df8b1b9409" d="M255.12,801l-17.7-14,2.2-2.79q3.81-4.81,7.54-6.12t10.31.65q6.58,1.95,14.57,8.28,9.58,7.57,12.64,13.69t1.43,10.19q-1.64,4.08-9.78,14.38l-16.5,20.84-18.35-14.53,2.92-3.7a13.51,13.51,0,0,1-7.1-.19,22,22,0,0,1-7.4-4,28,28,0,0,1-7.61-9.05q-2.65-5.13,2.32-11.42l2.7-3.42q3.69-4.65,7.23-4.61t14,4.67q11.22,4.92,12.55,4.59c.88-.22,2-1.19,3.38-2.93,1.72-2.17,2.59-3.77,2.63-4.81a3.55,3.55,0,0,0-1.62-2.89c-1.28-1-2.29-1.36-3-1.06s-2,1.62-3.88,3.94Zm1.47,10.43c-4.19-.91-6.93-1.06-8.2-.44a12.93,12.93,0,0,0-4.14,3.75q-2.55,3.22-2.67,4.66c-.07,1,.51,1.93,1.76,2.92s2.15,1.3,2.89,1.09,2-1.35,3.6-3.44Z"/><path class="af9a2552-4b0e-4d9c-b2cc-86df8b1b9409" d="M329,812.17l-33,55.59-21.31-12.64,32.95-55.58Z"/><path class="af9a2552-4b0e-4d9c-b2cc-86df8b1b9409" d="M379.67,848.1l-17.28,15.54-.89,34.3-21.27-9.12,2.19-24.17-9.12,21.21-22.12-9.48L336.62,817l22.12,9.48L348.09,851.4l13-11.26Z"/><path class="af9a2552-4b0e-4d9c-b2cc-86df8b1b9409" d="M433.86,849.75l-1,66.18L408,910l1.37-11.62-8.73-2.06-4.15,10.95-25.23-6,27.36-59.93Zm-22.52,37.36q.68-11.13,2.54-27.29-8,17.17-10.94,25.3Z"/><path class="af9a2552-4b0e-4d9c-b2cc-86df8b1b9409" d="M476,854.58l-.84,15.27a21,21,0,0,1,6.82-3.09,27.06,27.06,0,0,1,8-.7,31.63,31.63,0,0,1,8.51,1.51,12.81,12.81,0,0,1,5.37,3.22,7.57,7.57,0,0,1,2.08,3.79,45.77,45.77,0,0,1,0,7.67l-1.32,23.83a24.56,24.56,0,0,1-1.63,8.61q-1.32,2.77-5.72,4.64A22.88,22.88,0,0,1,487,920.86a24.65,24.65,0,0,1-7.82-1.67,21.21,21.21,0,0,1-6.48-4.09L470.88,919l-22.48-1.24L452,853.25Zm5.85,27.06q.23-4.1-.48-5.4c-.47-.86-1.46-1.34-3-1.42s-2.44.23-2.92.94-.79,2.53-1,5.48L473.26,904q-.24,4.26.44,5.5t2.88,1.35c1.5.09,2.51-.27,3-1.07s.84-2.76,1-5.9Z"/><path class="af9a2552-4b0e-4d9c-b2cc-86df8b1b9409" d="M573.56,879.38l1.57,12.88c.58,4.73.65,8.23.21,10.53a13.73,13.73,0,0,1-3.8,6.73,22.58,22.58,0,0,1-8.45,5.33,51.76,51.76,0,0,1-12.4,2.9,65.9,65.9,0,0,1-13.56.47,21.31,21.31,0,0,1-9-2.48,13.32,13.32,0,0,1-5-5.18q-1.71-3.19-2.52-9.88L519,887.2q-.9-7.32,1-11.73t7.71-7.66q5.85-3.24,15.43-4.41a52.13,52.13,0,0,1,14-.08,24.39,24.39,0,0,1,9.41,3.09,14.44,14.44,0,0,1,4.93,4.79Q572.89,873.79,573.56,879.38Zm-24.37-1q-.5-4-1.27-5c-.52-.65-1.49-.88-2.91-.71s-2.32.64-2.71,1.39-.42,2.49-.09,5.18l2.9,23.73q.45,3.74,1.3,4.77a3,3,0,0,0,2.91.79c1.42-.17,2.32-.63,2.69-1.37s.41-2.25.14-4.52Z"/><path class="af9a2552-4b0e-4d9c-b2cc-86df8b1b9409" d="M634.32,842.36,650,892.94l-23.39,7.26-.9-4.32a15.6,15.6,0,0,1-4.7,5.66,24.42,24.42,0,0,1-7.65,3.78,27.27,27.27,0,0,1-9,1.45,11.59,11.59,0,0,1-6-1.68,9.82,9.82,0,0,1-3.33-3.58,62.9,62.9,0,0,1-3.1-8.59l-10.59-34.11,23-7.14L615,886.09q1.83,5.91,2.72,6.85c.58.62,1.68.69,3.27.19s2.6-1.23,2.69-2.09-.52-3.36-1.8-7.5l-10.57-34Z"/><path class="af9a2552-4b0e-4d9c-b2cc-86df8b1b9409" d="M663.85,820.25l3.59,7.53,5.86-2.8,3.61,7.57-5.86,2.79,12.2,25.58c1.5,3.15,2.58,4.78,3.23,4.91s2.76-.65,6.31-2.34l3.68,7.71-8.77,4.18A103.88,103.88,0,0,1,676.91,880a15.57,15.57,0,0,1-6.5.76,7.1,7.1,0,0,1-4.64-2q-1.51-1.65-4.91-8.78l-11.59-24.28L644.6,848,641,840.4l4.67-2.23-3.59-7.53Z"/><path class="af9a2552-4b0e-4d9c-b2cc-86df8b1b9409" d="M694.55,797l33.66,55.15L706.8,865.25l-33.66-55.16Z"/><path class="af9a2552-4b0e-4d9c-b2cc-86df8b1b9409" d="M725.54,780l5.05,6.64,5.17-3.93,5.07,6.67-5.17,3.94,17.16,22.55c2.11,2.77,3.5,4.16,4.17,4.15s2.56-1.2,5.69-3.58l5.17,6.8-7.73,5.88a105.75,105.75,0,0,1-9.61,6.74,15.44,15.44,0,0,1-6.22,2.06,7.07,7.07,0,0,1-4.95-1q-1.82-1.29-6.59-7.59l-16.29-21.41L712.34,811l-5.08-6.67,4.13-3.14-5-6.64Z"/></svg>