<?xml version="1.0" encoding="UTF-8"?>
<svg data-name="BelieveUs-5" xmlns="http://www.w3.org/2000/svg" xmlns:xlink="http://www.w3.org/1999/xlink" viewBox="0 0 1000 1000"><defs><style>.uuid-a5c9ce8e-7f9a-4c99-9101-7b9e592a6ace,.uuid-ecfb3b3c-a734-4922-bf47-9ab905039ae6,.uuid-efbca6c8-bf16-4efe-b554-7a940c2bb444,.uuid-94cfbc88-4dee-4bc5-908f-80f122569615,.uuid-85965f16-79d8-43d9-adb2-90676a13c1d4,.uuid-b73fe841-d707-45d9-b51d-cf8187ca5fd5{fill:none;}.uuid-ecfb3b3c-a734-4922-bf47-9ab905039ae6{stroke:#ec64c7;}.uuid-ecfb3b3c-a734-4922-bf47-9ab905039ae6,.uuid-efbca6c8-bf16-4efe-b554-7a940c2bb444,.uuid-94cfbc88-4dee-4bc5-908f-80f122569615,.uuid-85965f16-79d8-43d9-adb2-90676a13c1d4,.uuid-b73fe841-d707-45d9-b51d-cf8187ca5fd5{stroke-linecap:round;stroke-linejoin:round;stroke-width:0px;}.uuid-efbca6c8-bf16-4efe-b554-7a940c2bb444{stroke:#fba0fb;}.uuid-bc8bb0ed-0a53-4f33-af44-80a0ca7ac377{fill:#ec64c7;}.uuid-b0d9f07a-ab84-443e-bb36-7932e8774ffd{fill:#ea8cdb;}.uuid-8902c5e7-6e16-4997-a84b-cc2c13327004{fill:#f043f7;}.uuid-4ccdae4a-92d5-4640-ac79-5e1a13295f02{fill:#ebcbf7;}.uuid-60684382-8cf6-4346-a9d7-e16a8190d349{fill:#fff;}.uuid-1b81fbab-f25d-4380-b2b6-a545b359753f{fill:#fba0fb;}.uuid-9a8527d6-f394-4b38-8d28-58b5728cb043{fill:#932a9a;}.uuid-e5c77e15-a540-40f3-ae09-bafd988d26ce{fill:#aa6a98;}.uuid-d1056f1a-a166-4cbc-907a-107449b7b62f{fill:#d237c7;}.uuid-3199674a-9b17-4db9-a51d-766d5146225e{fill:#d08ac1;}.uuid-8653978a-8ec5-48a6-b6a7-920d9a1c2e76{fill:#cc57cb;}.uuid-221cdeb2-3311-4ebc-ac68-985663543b2b{fill:#230a1a;}.uuid-cde86619-eda1-4eab-b140-acbd3901bad4{fill:#49014e;}.uuid-dec0c0c6-169d-4b48-9d31-4f4a87e51650{fill:#5a00e6;}.uuid-94bbbed9-8bc1-444e-bdf3-24932cf66b64{fill:#5e1c90;}.uuid-a2eebeea-9ad4-4f0b-8d8f-1333e00217f8{fill:#794995;}.uuid-94cfbc88-4dee-4bc5-908f-80f122569615{stroke:#932a9a;}.uuid-85965f16-79d8-43d9-adb2-90676a13c1d4{stroke:#d237c7;}.uuid-b73fe841-d707-45d9-b51d-cf8187ca5fd5{stroke:#49014e;}.uuid-c2b64991-fbdc-47c5-9a34-f54a42dc309d{fill:url(#uuid-d9d5d3d3-37a9-474f-be01-3aa8811c4746);}</style><linearGradient id="uuid-d9d5d3d3-37a9-474f-be01-3aa8811c4746" x1="259.08" y1="147.83" x2="510.22" y2="147.83" gradientUnits="userSpaceOnUse"><stop offset="0" stop-color="#a325c1"/><stop offset=".47" stop-color="#9414af"/><stop offset=".48" stop-color="#9414af"/><stop offset=".68" stop-color="#b31bce"/><stop offset=".69" stop-color="#b61cd1"/><stop offset=".85" stop-color="#c23bdc"/><stop offset="1" stop-color="#d05de8"/></linearGradient></defs><path class="uuid-a5c9ce8e-7f9a-4c99-9101-7b9e592a6ace" d="m49.16,429.04c-.11.34-.32.66-.64.99.31-.33.52-.65.64-.99Z"/><path class="uuid-a5c9ce8e-7f9a-4c99-9101-7b9e592a6ace" d="m340.69,94.22l.09.08s-.07-.06-.09-.08Z"/><path class="uuid-a5c9ce8e-7f9a-4c99-9101-7b9e592a6ace" d="m204.64,805.86s-.03-.07-.04-.1c.02.03.03.07.04.1Z"/><path class="uuid-a5c9ce8e-7f9a-4c99-9101-7b9e592a6ace" d="m203.48,804.14c-.04-.42-.16-.78-.69-.9,0,0,0,0,0,0,.53.12.65.48.69.9Z"/><path class="uuid-a5c9ce8e-7f9a-4c99-9101-7b9e592a6ace" d="m342.93,90.56s0,0,0,0c0,.46-.1.87-.37,1.19.27-.32.36-.73.37-1.19Z"/><path class="uuid-a5c9ce8e-7f9a-4c99-9101-7b9e592a6ace" d="m47.09,431.49c.07-.13.13-.29.18-.45.53-.36.94-.69,1.26-1.02-.31.33-.73.66-1.26,1.02-.05.16-.11.32-.18.45Z"/><path class="uuid-a5c9ce8e-7f9a-4c99-9101-7b9e592a6ace" d="m210.55,748.91c.02.05.04.11.06.16-.02-.05-.03-.11-.06-.16Z"/><path class="uuid-a5c9ce8e-7f9a-4c99-9101-7b9e592a6ace" d="m343.68,89.76s0,0,0,0c0-.15.01-.29.03-.43-.02.14-.03.28-.03.43Z"/><path class="uuid-a5c9ce8e-7f9a-4c99-9101-7b9e592a6ace" d="m188.33,803.42c-.02.38.02.77.05,1.16-1.01,1.81-1.38,3.85-1.95,5.82.56-1.97.94-4.01,1.95-5.82-.03-.39-.06-.78-.05-1.16Z"/><path class="uuid-a5c9ce8e-7f9a-4c99-9101-7b9e592a6ace" d="m205.9,765.14c0-.36-.06-.74-.22-1.15h0c.16.41.22.79.22,1.15Z"/><path class="uuid-a5c9ce8e-7f9a-4c99-9101-7b9e592a6ace" d="m341.49,92.78c-.41.22-.61.58-.73.98.12-.41.33-.76.74-.98.24-.24.48-.48.71-.72h0c-.24.24-.48.48-.71.72Z"/><path class="uuid-a5c9ce8e-7f9a-4c99-9101-7b9e592a6ace" d="m46.06,431.88c.16.06.3.09.42.09-.12,0-.26-.02-.42-.09h0Z"/><path class="uuid-a5c9ce8e-7f9a-4c99-9101-7b9e592a6ace" d="m204.36,768.73c.08-.21.11-.45.1-.71l.05-.09s-.05.09-.06.09c.01.26-.03.5-.1.71Z"/><path class="uuid-a5c9ce8e-7f9a-4c99-9101-7b9e592a6ace" d="m337.17,97.73c-1.05,1.28-1.99,2.66-2.89,4.09-.45.04-.82.2-1.15.43.32-.23.69-.4,1.15-.43.89-1.43,1.84-2.8,2.89-4.09Z"/><path class="uuid-a5c9ce8e-7f9a-4c99-9101-7b9e592a6ace" d="m208.68,756.9c.02-.07.05-.14.05-.24l.03-.07s-.03.07-.03.07c0,.09-.03.17-.05.24Z"/><path class="uuid-a5c9ce8e-7f9a-4c99-9101-7b9e592a6ace" d="m210.69,749.35c.05.22.08.44.06.67.02-.23,0-.45-.06-.67Z"/><path class="uuid-a5c9ce8e-7f9a-4c99-9101-7b9e592a6ace" d="m203.24,770.66c.32-.28.47-.68.47-1.18l.02-.03s-.02.03-.02.03c0,.49-.15.89-.47,1.18Z"/><path class="uuid-a5c9ce8e-7f9a-4c99-9101-7b9e592a6ace" d="m310.48,119.67c-.33.21-.6.5-.72.97,0,0,0,0,0,0,.12-.47.39-.75.72-.97Z"/><path class="uuid-a5c9ce8e-7f9a-4c99-9101-7b9e592a6ace" d="m183.2,818.66c.03-.14.05-.29.06-.44,0,0,0,0,0,0-.01.15-.03.3-.06.44Z"/><path class="uuid-a5c9ce8e-7f9a-4c99-9101-7b9e592a6ace" d="m180.92,823.31c.32-.67.61-1.35.89-2.05h0c-.28.7-.57,1.38-.89,2.05Z"/><path class="uuid-a5c9ce8e-7f9a-4c99-9101-7b9e592a6ace" d="m168.96,837.27c.35-.34.72-.66,1.12-.95.56-.18,1.26-.19,1.65-.56-.39.37-1.09.38-1.65.56-.4.29-.77.62-1.12.95Z"/><path class="uuid-a5c9ce8e-7f9a-4c99-9101-7b9e592a6ace" d="m16.45,553.87c.48.49.66,1.12.86,1.75-.19-.63-.38-1.26-.86-1.75-.29-3.28-.14-6.51.35-9.73-.49,3.22-.64,6.45-.35,9.73Z"/><path class="uuid-a5c9ce8e-7f9a-4c99-9101-7b9e592a6ace" d="m156.77,241.13c.47-.38.86-.88,1.19-1.45,0,0,0,0,0,0-.33.57-.72,1.07-1.19,1.45Z"/><path class="uuid-a5c9ce8e-7f9a-4c99-9101-7b9e592a6ace" d="m157.96,239.68h0c.25-.26.5-.52.75-.77h0c-.25.26-.5.52-.75.77Z"/><path class="uuid-a5c9ce8e-7f9a-4c99-9101-7b9e592a6ace" d="m182.61,759.98c.24,1.86.48,3.72.73,5.58h0c-.24-1.86-.49-3.72-.73-5.58Z"/><path class="uuid-a5c9ce8e-7f9a-4c99-9101-7b9e592a6ace" d="m12.57,520.6c-.17.06-.35.09-.53.07h0c.18.01.35-.02.53-.07Z"/><path class="uuid-a5c9ce8e-7f9a-4c99-9101-7b9e592a6ace" d="m154.71,242.54c.14-.17.26-.38.36-.61h0c-.1.23-.22.44-.36.61Z"/><path class="uuid-a5c9ce8e-7f9a-4c99-9101-7b9e592a6ace" d="m344.38,88.29h0c0,.31-.04.59-.15.84.11-.25.15-.53.15-.84Z"/><polygon class="uuid-a5c9ce8e-7f9a-4c99-9101-7b9e592a6ace" points="17.78 556.82 17.83 556.88 17.78 556.82 17.78 556.82"/><path class="uuid-a5c9ce8e-7f9a-4c99-9101-7b9e592a6ace" d="m188.72,815.68c-.13-.23-.22-.47-.28-.72.06.25.15.49.28.72Z"/><path class="uuid-a5c9ce8e-7f9a-4c99-9101-7b9e592a6ace" d="m18.09,557.83c.1.18.23.35.41.5l.04.05s-.04-.05-.04-.05c-.18-.14-.31-.32-.41-.5Z"/><polygon class="uuid-a5c9ce8e-7f9a-4c99-9101-7b9e592a6ace" points="19.95 560.58 19.99 560.65 19.99 560.65 19.95 560.58 19.95 560.58"/><path class="uuid-a5c9ce8e-7f9a-4c99-9101-7b9e592a6ace" d="m18.55,558.38c.22.23.44.46.66.7-.22-.23-.44-.46-.66-.7.22.23.44.46.66.7l.05.08s-.05-.08-.05-.08c-.22-.23-.44-.46-.66-.7Z"/><path class="uuid-a5c9ce8e-7f9a-4c99-9101-7b9e592a6ace" d="m11.88,522.96c.05-.76.1-1.52.15-2.28-.05.76-.1,1.52-.15,2.28-.53.37-1.02.79-1.39,1.32.37-.53.86-.95,1.39-1.32Z"/><path class="uuid-a5c9ce8e-7f9a-4c99-9101-7b9e592a6ace" d="m192.33,164.68c-.33.18-.67.34-1.02.49,2.21,2.71,4.42,5.42,6.53,8.2-2.11-2.78-4.33-5.49-6.53-8.2.35-.15.7-.32,1.02-.49Z"/><path class="uuid-a5c9ce8e-7f9a-4c99-9101-7b9e592a6ace" d="m43.83,429.29c-1.19.41-2.12,1.18-2.98,2.04.86-.85,1.79-1.63,2.98-2.04,0,0,0,0,0,0Z"/><path class="uuid-a5c9ce8e-7f9a-4c99-9101-7b9e592a6ace" d="m208.61,190.78s0,0,0,0c.74-.66,1.53-1.21,2.21-1.94-.69.73-1.48,1.28-2.21,1.94Z"/><path class="uuid-a5c9ce8e-7f9a-4c99-9101-7b9e592a6ace" d="m460.95,178.47c-.2-.52-.33-1.06-.3-1.64-.04.58.09,1.12.3,1.64Z"/><path class="uuid-a5c9ce8e-7f9a-4c99-9101-7b9e592a6ace" d="m433.08,157.56c-.26-.02-.52-.04-.77-.07.25.04.51.05.77.07Z"/><path class="uuid-a5c9ce8e-7f9a-4c99-9101-7b9e592a6ace" d="m182.48,820.17c.03-.14.05-.28.07-.43h0c-.01.15-.03.29-.07.43Z"/><path class="uuid-a5c9ce8e-7f9a-4c99-9101-7b9e592a6ace" d="m172.41,152.32h0c.08-.8.19-1.59.33-2.36-.14.77-.25,1.55-.33,2.36Z"/><path class="uuid-a5c9ce8e-7f9a-4c99-9101-7b9e592a6ace" d="m25.19,453.07c-4.47,3.29-7.38,7.77-7.98,14.02-.33,1.85-.09,3.77-.35,5.63.26-1.86.02-3.78.35-5.63.6-6.24,3.51-10.73,7.98-14.02Z"/><path class="uuid-a5c9ce8e-7f9a-4c99-9101-7b9e592a6ace" d="m173.33,147.55c.11-.36.24-.72.38-1.07-.14.35-.26.71-.38,1.07Z"/><path class="uuid-a5c9ce8e-7f9a-4c99-9101-7b9e592a6ace" d="m44.35,428.76c.9-.83,1.92-1.41,3.04-1.81-1.12.4-2.14.98-3.04,1.81Z"/><path class="uuid-a5c9ce8e-7f9a-4c99-9101-7b9e592a6ace" d="m181.71,162.11c.19,0,.38-.01.57-.01,3.01,1.03,6.02,2.05,9.03,3.08-3.01-1.03-6.02-2.05-9.03-3.08-.19,0-.38,0-.57.01Z"/><path class="uuid-a5c9ce8e-7f9a-4c99-9101-7b9e592a6ace" d="m192.33,164.68c.99-.53,1.86-1.16,2.61-1.87-.75.71-1.62,1.34-2.61,1.87Z"/><path class="uuid-a5c9ce8e-7f9a-4c99-9101-7b9e592a6ace" d="m346.57,84.49h0c.03-.24.08-.47.14-.68-.07.21-.11.44-.14.68Z"/><path class="uuid-a5c9ce8e-7f9a-4c99-9101-7b9e592a6ace" d="m459.29,21.12c-.12,1.53-.17,3.06.35,4.56-.01,2.43.15,4.85.25,7.28-.1-2.43-.26-4.85-.25-7.28-.53-1.5-.47-3.03-.35-4.56Z"/><path class="uuid-a5c9ce8e-7f9a-4c99-9101-7b9e592a6ace" d="m189.47,818.93c-.17-.98-.35-1.95-.52-2.93-.09-.11-.17-.22-.24-.33.07.11.15.22.24.33.17.98.35,1.95.52,2.93.41.68.54,1.39.5,2.14.04-.74-.08-1.46-.5-2.14Z"/><path class="uuid-a5c9ce8e-7f9a-4c99-9101-7b9e592a6ace" d="m536.69,138.12c.25-.2.53-.35.83-.49-.29.14-.58.29-.83.49Z"/><path class="uuid-a5c9ce8e-7f9a-4c99-9101-7b9e592a6ace" d="m537.52,137.63c.29-.14.6-.26.88-.41-.28.14-.58.27-.88.41Z"/><path class="uuid-a5c9ce8e-7f9a-4c99-9101-7b9e592a6ace" d="m536.69,138.12c-.37.3-.67.7-.78,1.31-1.3.04-2.49.45-3.67.93,1.17-.48,2.37-.88,3.67-.93.11-.61.41-1.02.78-1.31Z"/><path class="uuid-a5c9ce8e-7f9a-4c99-9101-7b9e592a6ace" d="m459.97,21.96c0-.75,0-1.5.11-2.24.46-1.23.66-2.46.72-3.71-.06,1.24-.26,2.48-.72,3.71-.12.74-.12,1.49-.11,2.24Z"/><path class="uuid-a5c9ce8e-7f9a-4c99-9101-7b9e592a6ace" d="m195.2,841.95c-1.91-2.88-2.57-6.26-3.56-9.51.99,3.25,1.65,6.63,3.56,9.51.33.31.46.7.4,1.16.05-.46-.07-.85-.4-1.16Z"/><path class="uuid-a5c9ce8e-7f9a-4c99-9101-7b9e592a6ace" d="m496.16,218.15c-.02.14-.04.29-.04.45h0s0,0,0,0c0-.15.01-.3.04-.45Z"/><path class="uuid-a5c9ce8e-7f9a-4c99-9101-7b9e592a6ace" d="m495.06,220.41c-.27.33-.37.75-.38,1.22h0c.01-.46.11-.89.38-1.22Z"/><path class="uuid-a5c9ce8e-7f9a-4c99-9101-7b9e592a6ace" d="m186.88,788.46c.32.43.81.54,1.4.5-.04,2.07.16,4.11.45,6.15-.29-2.03-.49-4.08-.45-6.15-.59.04-1.08-.07-1.4-.5Z"/><path class="uuid-a5c9ce8e-7f9a-4c99-9101-7b9e592a6ace" d="m459.98,22.71c0,.5,0,1-.05,1.49.05-.5.05-.99.05-1.49Z"/><path class="uuid-a5c9ce8e-7f9a-4c99-9101-7b9e592a6ace" d="m191.9,815.9c-.1-.3-.25-.58-.42-.84.17.26.32.53.42.84Z"/><path class="uuid-a5c9ce8e-7f9a-4c99-9101-7b9e592a6ace" d="m573.5,129.68c-.43-2-.9-3.99-.98-6.04.08,2.05.55,4.04.98,6.04Z"/><path class="uuid-a5c9ce8e-7f9a-4c99-9101-7b9e592a6ace" d="m464.42,24.22c.25-.53.54-1.05.86-1.56-.32.51-.6,1.04-.86,1.56Z"/><path class="uuid-a5c9ce8e-7f9a-4c99-9101-7b9e592a6ace" d="m210.12,748.2c0-.36-.03-.72-.07-1.08.03.36.06.72.07,1.08h0Z"/><path class="uuid-a5c9ce8e-7f9a-4c99-9101-7b9e592a6ace" d="m572.03,110.44c.04,1.41,0,2.82.02,4.23,0,0,0,0,0,0-.02-1.41.02-2.82-.02-4.23Z"/><path class="uuid-a5c9ce8e-7f9a-4c99-9101-7b9e592a6ace" d="m190.06,823.19c-.06-.45-.12-.9-.18-1.35.06.45.12.9.17,1.35.57,1.92,1.16,3.84,1.25,5.84-.08-2-.68-3.92-1.25-5.84Z"/><path class="uuid-a5c9ce8e-7f9a-4c99-9101-7b9e592a6ace" d="m666.72,78.41c-1.12-.65-1.87-1.6-2.48-2.66.61,1.06,1.36,2.01,2.48,2.66,1.08.11,1.99.65,2.9,1.16-.92-.51-1.83-1.05-2.9-1.17Z"/><path class="uuid-a5c9ce8e-7f9a-4c99-9101-7b9e592a6ace" d="m189.97,821.09c-.01.25-.05.5-.09.76.04-.25.08-.51.09-.76Z"/><path class="uuid-a5c9ce8e-7f9a-4c99-9101-7b9e592a6ace" d="m202.96,806.03c.01,2.72-.09,5.43-.97,8.01.88-2.58.98-5.29.97-8.01Z"/><path class="uuid-a5c9ce8e-7f9a-4c99-9101-7b9e592a6ace" d="m571.95,118.41c-.04,1.25.05,2.49.6,3.69-.03.48-.04.95-.02,1.43-.01-.47-.01-.95.02-1.43-.55-1.2-.63-2.44-.6-3.69Z"/><path class="uuid-a5c9ce8e-7f9a-4c99-9101-7b9e592a6ace" d="m580.3,40.64c-.08.28-.15.56-.2.83.05-.28.11-.56.2-.83,0,0,0,0,0,0Z"/><path class="uuid-a5c9ce8e-7f9a-4c99-9101-7b9e592a6ace" d="m580.19,40.43c0-.07.02-.15.07-.23-.05.08-.08.16-.07.23Z"/><path class="uuid-a5c9ce8e-7f9a-4c99-9101-7b9e592a6ace" d="m580.2,44.26c.06.17.16.32.24.48-.1,2.01.78,3.46,1.91,4.79-1.13-1.33-2.01-2.78-1.91-4.79-.08-.16-.19-.32-.24-.49Z"/><path class="uuid-a5c9ce8e-7f9a-4c99-9101-7b9e592a6ace" d="m203.29,804.66s-.06.02-.06.02l.06-.02Z"/><path class="uuid-a5c9ce8e-7f9a-4c99-9101-7b9e592a6ace" d="m497.61,215.13c-.03.15-.04.3-.04.46h0c0-.16.01-.31.04-.46Z"/><path class="uuid-a5c9ce8e-7f9a-4c99-9101-7b9e592a6ace" d="m360.27,58.13c-.04.31-.04.63-.06.95.02-.32.03-.64.06-.95h0Z"/><path class="uuid-a5c9ce8e-7f9a-4c99-9101-7b9e592a6ace" d="m349.47,79.26c0,.47-.07.91-.36,1.22.29-.32.36-.75.36-1.22,1.59-.59,2.14-1.99,2.64-3.38-.5,1.39-1.04,2.78-2.64,3.38Z"/><path class="uuid-a5c9ce8e-7f9a-4c99-9101-7b9e592a6ace" d="m14.19,558.1c.02-.42.03-.85.01-1.28h0c.02.43.01.86-.01,1.28Z"/><path class="uuid-a5c9ce8e-7f9a-4c99-9101-7b9e592a6ace" d="m183.49,817.99c.16-.17.32-.33.48-.5,0,0,0,0,0,0-.16.17-.32.33-.47.5Z"/><path class="uuid-a5c9ce8e-7f9a-4c99-9101-7b9e592a6ace" d="m368.13,130.21c.04.07.07.15.11.22h0c-.04-.07-.07-.15-.11-.22Z"/><path class="uuid-a5c9ce8e-7f9a-4c99-9101-7b9e592a6ace" d="m188.33,803.42c0-.19.03-.38.08-.57-.04.19-.07.38-.08.57Z"/><path class="uuid-a5c9ce8e-7f9a-4c99-9101-7b9e592a6ace" d="m16.82,556.59c-.43-.19-.78-.48-1.1-.83.31.35.67.64,1.1.83Z"/><path class="uuid-a5c9ce8e-7f9a-4c99-9101-7b9e592a6ace" d="m166.12,842.41c-.12.17-.25.34-.39.5.14-.16.28-.33.39-.5Z"/><path class="uuid-a5c9ce8e-7f9a-4c99-9101-7b9e592a6ace" d="m12.57,520.6c.17-.06.35-.14.52-.23-.17.1-.34.18-.52.23Z"/><path class="uuid-a5c9ce8e-7f9a-4c99-9101-7b9e592a6ace" d="m14.11,519.74c.17-.09.34-.17.51-.22-.17.05-.34.12-.51.22Z"/><path class="uuid-a5c9ce8e-7f9a-4c99-9101-7b9e592a6ace" d="m433.31,157.58s.06,0,.08,0c.29-.02.57,0,.84.04-.27-.04-.55-.06-.84-.04-.03,0-.05,0-.08,0Z"/><path class="uuid-a5c9ce8e-7f9a-4c99-9101-7b9e592a6ace" d="m19.65,560.28c-.05-.07-.09-.15-.14-.22.04.08.08.15.14.22Z"/><polygon class="uuid-a5c9ce8e-7f9a-4c99-9101-7b9e592a6ace" points="348.01 82.25 348.01 82.25 347.99 82.24 348.01 82.25"/><path class="uuid-a5c9ce8e-7f9a-4c99-9101-7b9e592a6ace" d="m209.82,751.87c.01.31-.01.59-.1.86.09-.27.11-.56.1-.86,0,0,0,0,0,0h0Z"/><path class="uuid-a5c9ce8e-7f9a-4c99-9101-7b9e592a6ace" d="m189.01,802.39h0s-.04-.04-.09-.09c.04.04.09.09.09.09Z"/><path class="uuid-a5c9ce8e-7f9a-4c99-9101-7b9e592a6ace" d="m470.1,243.48c.02.54.13,1.06.23,1.59-.1-.53-.21-1.05-.23-1.59,0,0,0,0,0,0Z"/><path class="uuid-a5c9ce8e-7f9a-4c99-9101-7b9e592a6ace" d="m210.34,751.17c.08-.13.16-.26.21-.39-.06.13-.13.26-.21.39h0Z"/><path class="uuid-a5c9ce8e-7f9a-4c99-9101-7b9e592a6ace" d="m488.41,243.27c-.06-.25-.09-.48-.09-.72,0,.23.03.47.09.72Z"/><path class="uuid-a5c9ce8e-7f9a-4c99-9101-7b9e592a6ace" d="m39.84,432.37c.33-.34.66-.69,1-1.03-.34.34-.67.69-1,1.03Z"/><path class="uuid-a5c9ce8e-7f9a-4c99-9101-7b9e592a6ace" d="m463.2,29.84c-.12-1.86.34-3.77,1.22-5.62-.88,1.85-1.33,3.76-1.22,5.62h0Z"/><path class="uuid-a5c9ce8e-7f9a-4c99-9101-7b9e592a6ace" d="m497.61,215.13c.06-.29.17-.56.34-.8-.17.24-.28.51-.34.8Z"/><path class="uuid-a5c9ce8e-7f9a-4c99-9101-7b9e592a6ace" d="m460.11,175.59c.21.27.41.54.62.81,0,0,0,0,0,0-.21-.27-.41-.54-.62-.81Z"/><path class="uuid-a5c9ce8e-7f9a-4c99-9101-7b9e592a6ace" d="m195.8,843.54c0-.17-.07-.31-.19-.43.12.12.19.26.19.43.39.31.59.71.66,1.16-.08-.45-.27-.85-.66-1.16Z"/><path class="uuid-a5c9ce8e-7f9a-4c99-9101-7b9e592a6ace" d="m559.7,159.85c-.29.19-.58.38-.88.57-.44.07-.9.1-1.34.19.44-.09.9-.12,1.34-.19.29-.19.58-.38.88-.57Z"/><path class="uuid-a5c9ce8e-7f9a-4c99-9101-7b9e592a6ace" d="m473.09,223.1c-1.07-5.88-2.08-11.78-3.22-17.65,1.13,5.87,2.15,11.77,3.22,17.65.43-.02.86-.04,1.28-.06-.43.02-.86.04-1.28.06Z"/><path class="uuid-e5c77e15-a540-40f3-ae09-bafd988d26ce" d="m262.23,86.52c3.06,4.96,5.76,10.05,8.44,15.21.11.22.2.48.37.64,5.12,4.74,8.83,10.91,14.23,15.37.28.23.62.41.86.68,4.34,5.02,9.94,4.85,15.64,4.04,1.19-.17,2.37-.36,3.57-.32.16-.15.31-.39.5-.44.29-.07.41.15.2.32-.16.13-.42.13-.64.19h0c-.95.74-1.99,1.14-3.08,1.34-.66.12-1.33.17-2.02.18-1.2,0-2.41-.03-3.61.04-4,.24-4.55.98-3.79,5.04.07.37.17.74.18,1.11.32,12-2.55,22.53-12.39,30.02-4.69,3.57-9.35,7.12-15.12,8.53-1.53.38-3.33,1.32-4.28-1.08-11.51,1.71-22.8,4.43-33.93,7.89-6.83,2.12-11.87,6.83-15.89,12.77-.2.29-.42.56-.64.8-.69.73-1.48,1.28-2.21,1.94,3.22,4.02,6.45,8.04,9.67,12.07,2.45,3.08,4.97,6.12,6.33,9.96.38,1.09,1.26,1.82,2.03,2.6,2.81,2.84,4.33,6.29,4.34,10.37,0,2.72.73,5.08,2.14,7.4,5.35,8.81,8.3,18.66,10.98,28.6,3.43.45,6.86.94,10.29,1.45-.01-.01-.02-.02-.03-.03-6.4-6.77-6.94-15.15-5.82-23.86,2.05-15.93,10.39-27.67,22.69-36.83,5.88-4.38,12.05-8.25,18.25-12.06,2.46-1.51,5.2-2.6,7.92-3.51,2.41-.8,4.05-2.03,5.43-4.4,5.88-10.06,14.2-16.34,25.95-15.94,19.2.65,37.33,5.38,53.74,16.19,5.97,3.94,10.5,9.47,15.1,14.93,3.31,3.92,6.58,7.89,9.83,11.87,7.08,8.68,14.5,17.16,19.69,27.3,3.69,7.21,5.68,14.85,4.08,23.18-.99,5.2.32,9.43,3.13,13.11,12.45-3.42,24.2-8.31,35.3-14.55.19-3.96.43-7.92.79-11.87.05-.6-.03-1.15-.13-1.68-.1-.53-.21-1.05-.23-1.59-1.21.03-1.89.96-2.66,1.72-4.11,4.13-8.83,7.31-13.93,9.91-2.7,1.37-5.32,2.93-8.06,4.2-3.24,1.51-6.26,3.19-7.92,6.7-.14.29-.53.47-.82.67-.08.05-.23-.02-.75-.07.88-2.56,1.5-5.1,3.89-6.6,3.58-2.24,7.24-4.3,11-6.21,5.52-2.81,10.34-6.67,14.4-11.5.96-1.14,2.01-2.11,3.22-2.96,1.96-1.38,3.33-3.25,3.66-5.78.35-2.72.67-5.44.99-8.16-.01-.77-.02-1.54-.04-2.31-1.07-5.88-2.08-11.78-3.22-17.65-1.74-8.98-3.89-17.83-8.37-25.85-.2-.36-.4-.74-.55-1.12-.2-.52-.33-1.06-.3-1.64,0-.15.03-.29.06-.44,0,0,0,0,0,0-.21-.27-.41-.54-.62-.81-.05-.06-.09-.12-.14-.18-1.19-1.14-2.37-2.29-3.56-3.43-1.19-1.14-2.37-2.28-3.57-3.41-3.98-3.74-8.61-6.43-13.54-8.44-.25-.1-.49-.22-.73-.35-1.43-.77-2.71-1.91-4.34-2.15-.27-.04-.55-.06-.84-.04-.03,0-.06,0-.08,0-.08,0-.15-.02-.23-.02-.26-.02-.52-.04-.77-.07-.16-.02-.32-.05-.47-.11-.28-.1-.53-.27-.75-.55-2.3.18-4.58.02-6.86-.2-2.29-.23-4.58-.52-6.88-.59-.43-.01-.84-.39-1.26-.59-1.35.52-2.68,1.09-4.05,1.56-2.58.89-5.39,1.25-7.76,0-6.74-3.55-13.94-6.19-20.21-10.72-.27-.19-.51-.42-.75-.65-.72-.7-1.41-1.47-2.51-1.58-.34-.26-.67-.52-1.01-.78-5.76-1.06-11.5-7.42-11.57-12.83-.04-.07-.07-.15-.11-.22-.04-.09-.08-.18-.1-.27-.01-.06.13-.17.21-.25-3.82-6.03-6.18-12.72-8.27-19.55-2.42-7.92-4.16-16.03-3.89-24.34.28-8.73.76-17.52,3.96-25.81.11-.28.15-.59.17-.9.02-.32.03-.64.06-.95-.61.36-1.04.83-1.38,1.38-.57.9-.87,1.98-1.29,2.95-1.71,4-3.21,8.1-4.97,12.07-.19.43-.35.9-.52,1.36-.5,1.39-1.04,2.78-2.64,3.38,0,.47-.07.91-.36,1.22-.1.11-.22.2-.37.27h0c.01.48-.07.91-.36,1.23-.1.11-.22.2-.37.28h0c.02,1.1-.15,2.07-1.44,2.23,0,0,0,.02,0,.03,0,0-.02-.02-.02-.02,0,0,.02.02.02.02,0,0-.02.02-.02.02.02.46-.05.89-.33,1.2-.1.11-.22.2-.37.28h0c0,.32-.04.61-.15.86-.11.26-.3.47-.57.64-.11.37-.33.64-.71.73,0,0-.01.01-.02.02,0,0,0,0-.01,0h0s0,0,0,0c0,.31-.04.59-.15.84-.11.25-.29.46-.55.63,0,0,0,.02,0,.02h-.01s.01,0,.01,0c0,0-.01,0-.02,0-.11.37-.33.62-.69.72,0,0,0,.02-.01.03,0,0-.01.01-.02.02h0s0,0,0,0c0,.46-.1.87-.37,1.19-.09.11-.21.21-.34.29,0,0,0,0,0,0,0,0-.01.01-.02.02-.23.25-.46.5-.69.75h0c.01.47-.09.89-.36,1.23-.09.11-.19.22-.32.32h0c-.75,2.18-1.93,3.99-3.4,5.55-.88.94-1.87,1.79-2.94,2.57-.67,2.01-2.3,3.18-3.77,4.42-3.54,2.99-7.09,5.98-10.78,8.75-3.07,2.31-6.15,4.78-10.19,4.99,0,.02-.02.04-.02.06l-.02-.02s.02.02.02.02c-.03,0-.06,0-.09,0-.36.43-.97.89-1.17.31-.15-.44.68-.31,1.17-.31.02-.02.03-.04.05-.05.02,0,.04,0,.06,0,.12-.47.39-.75.72-.97.34-.22.74-.37,1.09-.57,7.34-4.25,14.02-9.43,20.13-15.43.48-.47.9-1.04,1.44-1.42.32-.23.69-.4,1.15-.43.89-1.43,1.84-2.8,2.89-4.09,1.05-1.28,2.2-2.48,3.49-3.54.03-.15.06-.29.1-.42.12-.41.33-.76.73-.98.24-.24.48-.48.71-.72,0,0,.01-.01.02-.02,0,0,0,0,0,0,0-.47.1-.89.39-1.21.09-.1.2-.19.32-.27,0-.01,0-.02,0-.03h0s.02,0,.03-.01c.06-.18.13-.34.25-.46.11-.12.26-.21.45-.26,0,0,0-.01,0-.02,0,0,0,0,.01-.01,0-.15.01-.29.03-.43.03-.14.06-.28.12-.41.11-.25.29-.47.55-.64,0,0,0-.01,0-.02,0,0,0,0,0,0,0,0,0,0,0,0,0,0,.02,0,.03,0,.23-.25.46-.5.69-.74h0c0-.31.05-.6.16-.86.11-.26.29-.48.57-.65.03-.6.24-1.11.71-1.47,0-.01,0-.03,0-.04.01,0,.02,0,.03,0h0s0,0,0,0c.03-.24.08-.47.14-.68.21-.67.62-1.2,1.28-1.57.03-.61.21-1.15.72-1.51.03-.61.22-1.14.72-1.5h0c2.53-6.2,5.06-12.41,7.58-18.61.51-1.26.98-2.56,1.54-3.8.86-1.89,1.02-1.88,3.08-.27,5.27,1.1,8.44-1.31,10.95-6.13,3.02-5.8,5.48-11.69,6.37-18.23.47-3.42-.25-6.7-1.09-10-.57-2.25-1.23-4.47-1.93-6.67-4.43,1.13-8.84,2.32-13.22,3.57-.31.81-.66,1.6-1.08,2.37-.36.65-.65,1.37-1.12,1.92-1.75,2.07-4.47,2.06-6.34.1-.45-.47-.8-.99-1.08-1.54-35.55,10.91-69.41,25.68-101.1,43.82.64,2.06,1.41,4.1,2.33,6.13,2.32,5.11,5.06,10,7.92,14.63Zm105.35-39.54c1.27.08,2.31,1.37,2.25,3.02-.12,1.27-.94,2-2.31,2.05-1.39.05-2.49-1.12-2.47-2.55.03-1.45,1.19-2.61,2.52-2.52Zm-76.6,15.34c.24.13.35.5.48.69-.13.5-.35.84-.72.65-.22-.11-.37-.54-.39-.84-.02-.36.21-.73.63-.51Zm-2.23-.92l.25.12-.25.12v-.23Zm-2.64.24c.7-.12,1.02.49,1.09,1.18.06.55-.09,1.14-.59,1.19-1.82.19-3.58,1.22-5.85.55,1.38-2.33,3.4-2.61,5.35-2.93Zm-3.39,18.08c.8.34,1.77.34,2.39-.33,2.22-2.4,4.93-2.26,7.7-1.67,4.51.95,9.07.71,13.62.75.6,0,1.21-.02,1.8.08,1.26.21,1.68,1.03.99,2.13-.85,1.36-1.75,2.73-2.84,3.86-4.74,4.89-9.97,8.98-16.58,10.82-1.55.43-3.08.45-5.02.48-4.78.88-7.63-3.31-11.2-5.83-1.09-.77-.85-2.28-.23-3.46.64-1.2,1.45-2.31,2.07-3.52,1.61-3.14,3.77-4.79,7.3-3.31Zm-9.12-14.07c1.54-.04,3.47,1.05,3.32,1.86-.16.91-.97,1.02-1.68,1.07-1.26.08-2.49-.12-2.85-1.63-.23-.97.55-1.24,1.2-1.3Z"/><path class="uuid-cde86619-eda1-4eab-b140-acbd3901bad4" d="m75.82,686.4c4.11-.09,7.96-.71,11.8-1.8,2.76-.79,4.79-.12,6.88,1.85,6.43,6.06,12.76,12.24,18.82,18.7,5.88,6.26,12.53,11.46,20.26,14.75,5.52,2.35,11.44,3.75,17.5,4.05,3.12.16,6.23.56,9.35.72,1.74.09,3.17.83,4.73,1.55,2.98,1.38,4.38,3.99,5.71,6.75,1.57,3.26,3.49,6.29,5.52,9.26,3.62,5.32,5.4,11.35,6.22,17.75.24,1.86.48,3.72.73,5.58.39-.01.78-.02,1.17-.03-.2-4.86-.29-9.72-.62-14.56-.33-4.83-1.69-9.41-3.33-13.9-.23-.64-.47-1.28-.72-1.92h0c-.23-.33-.82-.65-.36-1.07.42-.38.79-.02.93.51,1.35-.13,2.57.4,3.81.86,7.11,2.65,14.35,4.65,21.96,4.65,1.84,0,2.87.56,3.19,2.59.07.46.16.92.24,1.37.18,1.02.36,2.03.45,3.06.03.36.06.72.07,1.08.17.23.32.47.42.71.02.05.04.11.06.16.03.09.06.18.09.27.05.22.08.44.06.67-.02.25-.08.5-.2.76-.06.13-.13.26-.21.39-.17.23-.35.47-.52.7.01.31-.01.59-.1.86-.09.27-.23.52-.44.74,0,.24,0,.48-.02.71.26.69.22,1.31-.1,1.87-.11.19-.24.36-.41.54l-.03.07c0,.09-.03.17-.05.24-.04.11-.09.21-.17.28-.13.11-.31.17-.51.2-.04,1.55-.77,2.84-1.41,4.16-.39.79-.74,1.59-.91,2.47.16.41.22.79.22,1.15-.01,1.07-.66,1.94-1.38,2.79l-.05.09c.01.26-.03.5-.1.71-.06.16-.14.31-.26.44-.1.1-.21.18-.35.26l-.02.03-.02.03c0,.49-.15.89-.47,1.18-.11.09-.24.17-.39.24-.29.44-.58.87-.88,1.31.16.3-.03.9.34,1,.12.03.31.01.59-.1,2.25-.86,2.69-.67,3.44,1.43.46,1.29.8,2.63.74,4.04-.08,1.69.21,3,2.32,2.74,1.5-.18,2.13.97,2.56,2.18,1.37,3.82,1.04,7.63-.26,11.39-.29.84-.89,1.45-1.56,2.02-1.59,1.35-2.17,3.05-1.01,4.34,2.26,2.51,1.69,5.38,1.37,8.17-.2,1.77-.29,3.37.14,5.13.6,2.46.43,5-.75,7.32-.52,1.02-1.2,1.96-2.5,1.74-1.1-.18-1.52-1.12-1.82-2.1-.37-1.2-.79-2.46-.5-3.69.83-3.51-.54-6.94-.21-10.41.03-.33.02-.62-.03-.9-.04-.24-.11-.45-.21-.65-.02-.03-.03-.07-.04-.1-.24-.46-.61-.84-1.09-1.17,0,0-.14.05-.22.07l-.06.02s-.29-.01-.29-.01c0,.45.01.91.01,1.36.01,2.72-.09,5.43-.97,8.01-.15.43-.31.86-.51,1.28-.47,1.03-.23,1.9.05,2.87,1,3.43.71,6.93.26,10.4-.15,1.21-.69,2.38-1.14,3.53-.34.86-.98,1.44-1.96,1.3-.79-.11-1.26-.71-1.53-1.42-.22-.57-.34-1.19-.47-1.8-.49-2.22-1.63-4.42-3.14-6.57-1.16-1.65-1.75-3.61-1.51-5.65.03-.26.05-.52.05-.76,0-.48-.07-.92-.2-1.32-.1-.3-.25-.58-.42-.84-.39-.59-.95-1.08-1.7-1.47-.69.31-.71.87-.7,1.44,0,.34,0,.69-.12.98.17.98.35,1.95.52,2.93.41.67.53,1.39.5,2.14,0,0,0,.01,0,.02-.01.25-.05.5-.09.76.06.45.12.9.18,1.35.57,1.92,1.16,3.84,1.25,5.84.03.67,0,1.34-.11,2.03.16.46.31.92.45,1.38.99,3.25,1.65,6.63,3.56,9.51.33.31.46.7.4,1.16.12.12.19.26.19.43.39.31.59.71.66,1.16.03.15.04.31.04.47l.02.03c.31.48.61.97.9,1.46,16.05-15.99,27.14-36.52,31.9-62.72,6.04-33.21,1.88-64.81-16.57-93.57-.15-.24-.3-.48-.45-.72-1.14-.92-2.34-1.74-3.7-2.29-1.7-.69-2.82-1.83-3.51-3.52-.56-1.38-1.25-2.72-1.67-4.15-2.33-7.82-6.62-14.38-11.83-20.38-1.14-1.31-2.24-2.66-3.34-4-2.83.33-6.67,2-12.81,4.48-18.46,7.49-37.39,13.75-56.34,19.88-5.44,1.77-11.58,1.82-17.39,1.67-20.31-.57-31.39-12.33-29.89-33.39.5-7.13.06-13.1-2.5-18.35-.89.61-1.76,1.29-2.59,2.05-2.09,1.9-4.42,3.43-6.81,4.9-10.01,6.19-18.34,14.11-23.57,25.18-1.81,3.82-3.7,7.59-5.54,11.39,4.38,11.86,9.19,23.5,14.42,34.92,1.98-4.86,4.64-9.23,8.53-12.87,6.31-5.89,13.9-8.61,22.07-8.78Z"/><path class="uuid-221cdeb2-3311-4ebc-ac68-985663543b2b" d="m145.14,159.06c.82-1.84-.14-2.75-.6-3.71-2.14-4.5-.65-7.1,4.18-7.59,3.68-.37,6.3.9,7.89,4.45.36.81.64,1.92,1.91,1.89.51-1.15-.37-1.89-.7-2.77-.76-2.06-.56-2.94,1.22-4.06,2.23-1.4,4.58-1.57,6.8-.04,1.3.89,2.41,2.06,3.64,3.07.46.38.85.87,1.3,1.27.45.4.95.72,1.63.75.08-.8.19-1.59.33-2.36.15-.83.35-1.64.59-2.42.11-.36.24-.72.38-1.07.25-.65.54-1.27.88-1.86,1-1.74,2.39-3.25,4.34-4.43,2.03-1.22,3.01-1.02,4.08,1.08.97,1.88,2,3.69,3.22,5.4,1.36,1.91.9,4.12.48,6.15-.44,2.1-1.42,3.69-3.88,4.28-3.07.73-3.07,1.69-.56,5.01,3.01,1.03,6.02,2.06,9.03,3.08.35-.15.7-.32,1.02-.49.99-.53,1.86-1.16,2.61-1.87,3-2.85,4.04-7.03,2.64-11.58-.52-1.69-1-3.3-.71-5.12.74-4.59-.53-8.72-3.13-12.38-1.13-1.59-1.56-2.91-.35-4.7,1.19-1.75,1.39-3.98,2.09-5.98.3-.86.69-1.67,1.69-1.7,1.18-.04,1.26.95,1.35,1.82.38,3.48,1.89,6.38,3.89,9.15,2.41,3.32,3.95,7.16,5.25,11.08.32.96.56,2.06,1.8,1.97,1.24-.08,1.38-1.25,1.59-2.21.65-3.02-.31-5.71-1.83-8.19-1.49-2.43-3.09-4.78-4.7-7.12-1.3-1.9-1.44-3.94-.54-5.98,1.33-3.01.85-5.7-.56-8.59-2.03-4.16-3.33-8.53-2.26-13.39.07-.3.12-.6.16-.9-17.09,12.75-33.34,26.58-48.65,41.36-1.42,1.99-3.05,3.59-4.89,4.79-2.31,2.29-4.59,4.6-6.85,6.93.62.71,1.17,1.52,1.64,2.42.74,1.4,1.55,2.76,2.57,4.57Z"/><path class="uuid-221cdeb2-3311-4ebc-ac68-985663543b2b" d="m208.24,119.58c-.19.32-.37.64-.55.97-.34.64-.91,1.37-.26,2.01.67.66,1.67.51,2.38.06,2.86-1.84,5.2-4.32,5.73-7.84.39-2.59,1.01-5.09,1.64-7.6,1.08-4.35.02-7.88-3.25-10.79-1.28-1.14-2.63-2.25-3.57-4-1.36.97-2.71,1.94-4.05,2.92,1,1,1.82,2.19,2.48,3.6,3.26,7.01,3.46,13.89-.54,20.67Z"/><path class="uuid-8653978a-8ec5-48a6-b6a7-920d9a1c2e76" d="m460.94,6.45c-.17,1.11-.26,2.24-.41,3.36.09,2.07.37,4.14.27,6.2-.06,1.25-.26,2.48-.72,3.71-.12.74-.12,1.49-.11,2.24,0,.25,0,.5,0,.75,0,.5,0,1-.05,1.49-.05.5-.13.99-.29,1.47-.01,2.43.15,4.85.25,7.28.11,2.69.14,5.37-.25,8.06.19.47.23.94.15,1.42-.03.16-.07.32-.12.48.37,1.62.41,3.23-.02,4.85-.05.27-.1.54-.15.81-.95,1.45-1.58-.14-2.36-.27-.39,5.33,1.13,10.43,1.67,15.65.51,4.85,1.29,9.67,1.18,14.57-.06,2.77.38,5.27,2.96,6.79.92.54,1.23,1.42,1.4,2.48.38,2.47.91,4.92,1.3,7.38,1.61,10.01,6.31,18.32,12.93,25.54,5.57,6.08,11.19,12.19,17.89,16.88,5.2,3.65,11,5.93,17.56,5.72,4.94-.16,9.84-.21,14.65-1.59,1.21-.35,2.36-.9,3.53-1.38,1.17-.48,2.37-.88,3.67-.93.11-.61.41-1.02.78-1.31.25-.2.53-.35.83-.49.29-.14.6-.26.88-.41.14-.07.28-.15.4-.23,2.83-1.88,5.86-3.45,8.38-5.82.68-.64,1.56-.46,2.35-.7,1.37,0,2.28-.93,2.92-1.95,1.67-2.66,3.99-4.67,6.04-6.94,4.85-5.38,9.68-10.77,12.83-17.51.15-.33.34-.64.78-1.47,1.02,2.7-.27,4.54-.14,6.44.03.47.05.94.07,1.4.04,1.41,0,2.82.02,4.23.18-.02.36-.03.54-.04.1-.69.2-1.38.3-2.06-.18-.84-.31-1.67-.02-2.45.09-.26.23-.51.43-.76.62-3.58-.08-7.23.71-10.83.75-3.42,1.55-6.77,3.01-9.98,1.17-2.56,1.72-5.38,1.84-8.17.55-.04.87-.16.96-.06,2.43,2.79,3.67,3.07,7.19,1.58,3.18-1.35,5.18-4.09,5.12-6.96-.04-1.62-.11-3.25-.05-4.87.1-2.82-.17-5.49-1.91-7.82-.42-.57-.67-1.34-.84-2.05-.94-3.79-3.24-6.65-5.78-9.35-.4-.43-.81-.86-1.18-1.3-1.13-1.33-2.01-2.78-1.91-4.79-.08-.16-.18-.31-.24-.48-.02-.07.05-.18.08-.27-.09-.28-.16-.56-.2-.84-.08-.56-.07-1.12.02-1.68.05-.28.11-.56.2-.83-.07-.07-.1-.14-.11-.22,0-.07.02-.15.07-.23-.46-5.58-2.27-10.67-4.72-15.64-1.58-3.2-2.55-6.76-3.55-10.23-1.02-3.53-2.39-6.78-4.14-9.75-22.19-3.01-44.84-4.57-67.86-4.57-12.72,0-25.34.48-37.82,1.41-.38,1.3-.72,2.61-1.03,3.94-.08.36-.15.73-.21,1.1Zm65.26,14.23c.38-1.41,1.33-2.33,2.41-3.16,8.24-6.3,22.83-7.09,31.55-1.62,3.58,2.25,6.18,5.52,8.2,9.29.51.95,1.08,1.99.47,3.26-.86-.05-1.08-.52-1.34-.93-5.17-8.3-12.68-11.05-21.77-9.78-5.76.81-11.17,2.88-16.32,5.68-.81.44-1.66,1.36-2.59.42-.83-.84-.93-1.99-.62-3.15Zm-6.3,53.61c.8.22,1.64.71,1.4,1.83-.19.91-1.01.99-1.72.99-1.93,0-3.78-.45-6.35-1.3,2.49-1.72,4.51-2.11,6.67-1.52Zm-11.59,12.85c1.55.44,3.19.74,4.63.25,4.6-1.56,8.28.35,11.64,3.19,3.64,3.07,7.2,6.23,11.3,8.65,1.1.65,1.77,1.5.82,2.69-2.75,3.47-5.34,7.07-8.88,9.79-4.02,3.08-8.69,3.31-13.35,3.66-.96.07-1.92.01-3.46.01-3.31.31-7.07-.44-10.83-1.36-1.84-.45-3.36-1.24-4.67-2.62-2.27-2.41-4.69-4.67-6.39-7.62-.9-1.58-.95-2.85.13-4.45,3.08-4.56,6.45-8.67,11.39-11.21,2.52-1.29,5-1.72,7.66-.97Zm-4.31-11.04c-1.45.55-2.62.04-3.79.04-.5,0-.96-.31-.92-.88.04-.52.47-.87.95-.96,1.59-.27,2.91.06,3.76,1.8Zm-39.58-51.88c.25-.53.54-1.05.86-1.56.64-1.03,1.4-2.02,2.26-2.96,4.1-4.47,10.45-7.69,16.22-7.28.24-.1.45-.09.64.04.06.04.12.1.18.16,4.11.36,8,1.62,11.79,3.24,1.97.84,3.59,2.09,4.05,4.41.4,1.99-.39,2.92-2.28,2.56-1.53-.29-3.01-.84-4.5-1.31-3.45-1.08-6.86-2.2-10.47-2.68-8.97-1.18-14.63,1.76-19,10.05-.11.21-.21.45-.36.63-.14.18-.33.31-.63.33h0s0,0,0,0c-.12-1.86.34-3.77,1.22-5.62Z"/><path class="uuid-1b81fbab-f25d-4380-b2b6-a545b359753f" d="m678.94,35.59c-5.87-3.26-11.02-.28-15.95,2.58-2.91,1.69-3.88,5.03-4.13,8.4-.37,5.01-.55,10.02.94,14.92,1.24,4.06,1.6,8.37,3.43,12.26.32.68.64,1.36,1,2,.61,1.06,1.36,2.01,2.48,2.66,1.08.11,1.98.65,2.9,1.17.55.31,1.11.61,1.7.8,2.82.91,3.47.35,3.3-2.75-.1-1.86-.2-3.71.39-5.54.99-3.11,2.64-3.55,4.98-1.27.97.94,1.71,2.06,2.32,3.29.49.99,1.05,1.94,1.58,2.9,1.08-.77,1.82-.64,2.4-.07.35.34.64.84.92,1.41,2.39,4.9,4.78,9.8,6.48,15.02.92,2.84,1.84,5.68,2.73,8.53,0,.02.02.05.02.07,5.39.01,10.85.27,16.41.79,25.63,2.41,51.33,3.86,77.02,5.74,1.41.1,2.8.18,4.17.23.78-2,1.43-4.06,1.91-6.21.1-.64,0-1.33.16-1.95.09-.37.27-.71.63-1,.09-.61.19-1.22.29-1.83-6.52-4.82-13.16-9.49-19.92-14,1.59,3.51,2.01,7.57.92,10.6-.6,1.67-1.68,2.68-3.16,3.36-2.37,1.08-4.86,1.29-7.43,1.2-8.83-.61-17.26-2.67-24.78-7.81-3.11-2.12-3.02-2.94-.26-5.58,3.58-3.41,7.56-6.11,11.91-8.31,3.25-1.64,6.55-2.35,10.1-1.31.27.08.54.12.82.17-25.91-16.24-53.42-30.18-82.23-41.51-.01.01-.02.03-.03.04-1.16,1.36-2.22,1.99-4.02,1Z"/><path class="uuid-b0d9f07a-ab84-443e-bb36-7932e8774ffd" d="m24.02,378.32c6.46-.72,11.82-3.83,16.76-7.89,2.05-1.69,4.23-3.26,5.98-5.34.8-.95,1.89-1.52,3.09-1.8.89-1.55,1.83-3.06,2.77-4.57,1.32-6.49,3.14-12.87,5.6-19.09-.02-.39-.04-.77-.04-1.17h0c-1.1-2.06-1.66-4.31-2.2-6.55-.18-.75-.36-1.5-.55-2.24-1.13-4.3-2.09-8.66-3.19-12.97-.47-1.84-.58-3.66-.34-5.53,0-4.27-1.21-8.35-2-12.47-.34-1.79-.58-3.59-.73-5.38-.27-3.06-.3-6.13-.29-9.2-8.42,17.56-15.84,35.69-22.2,54.32.29.14.59.3.87.47,2.72,1.64,5.71,2.63,8.6,3.84,1.91.8,1.94,1.4.5,2.89-.77.79-1.63,1.49-2.35,2.33-3.43,4.03-7.8,5.71-12.68,6.13-2.43,7.97-4.66,16.02-6.7,24.15,3,.32,6.02.41,9.09.07Z"/><path class="uuid-9a8527d6-f394-4b38-8d28-58b5728cb043" d="m445.56,101.58c3.3,7.1,6.4,14.34,11.01,20.68,5.65,7.77,12.89,13.03,22.18,14.98.99.21,2.24-.02,2.82,1.84-3.73.88-7.4.99-10.79-.66-4.9-2.38-9.61-5.15-13.64-9.04-6.42-6.19-11.44-13.52-16.06-21.19-.35-.58-.69-1.17-1.04-1.75-1.05-1.75-2.16-3.45-3.8-4.72-.1.1-.2.21-.3.31,2.58,10.49,5.79,20.64,12.53,29.24,3.99,5.1,8.76,8.87,14.69,11.08.67.25,1.33.55,1.97.89.17.09.24.39.46.79-.91.98-1.92.48-2.88.16-6.78-2.22-12.57-6.15-17.79-11.1-3.01-2.86-5.47-6.26-8.55-9.82-.58,3.96.25,7.35.8,10.65,1.21,7.23,3.98,13.89,7.91,20.01,5.98,9.31,12.51,18.1,21.44,24.63.39.29.77.61,1.1.97.46.5,1.37.98.67,1.78-.59.67-1.38.14-1.94-.31-1.9-1.51-3.75-3.07-5.63-4.61,0,0,.01.02.02.03,0,0-.03-.04-.03-.04-.03.15-.05.3-.06.44-.04.58.09,1.12.3,1.64.15.39.35.76.55,1.12,4.48,8.03,6.64,16.87,8.37,25.85,1.13,5.87,2.15,11.77,3.22,17.65.43-.02.86-.04,1.28-.06,3.13-10.94,7.94-20.91,15.92-28.92,1.97-1.98,4.2-3.75,6.49-5.32,8.55-5.81,15.87-13.34,24.55-18.96,5.41-3.5,10.9-6.74,17.25-8.12,3-.65,6.05-.75,8.94-.23,3.34.6,6.41.33,9.53-.76.14-.05.28-.09.43-.12.44-.09.9-.12,1.34-.19.29-.19.58-.38.88-.57,2.89,0,5.77,0,8.66,0,.29.19.58.38.87.57,1.38.39,2.75.8,4.12,1.2,3.92-4.03,7.86-8.03,11.83-12-3.8-4.09-7.13-8.63-9.65-13.81-.76-.25-1.24-.8-1.3-1.6-.11-1.53-.41-3.03-.74-4.53-.43-2-.9-3.99-.98-6.04,0-.04,0-.08,0-.12-.01-.47-.01-.95.02-1.43-.55-1.2-.63-2.44-.6-3.69,0-.31.02-.62.04-.94.04-.63.08-1.25.08-1.87,0-.31,0-.62-.03-.93h0c-.02-1.41.02-2.82-.02-4.23-.01-.47-.03-.94-.07-1.4-.13-1.89,1.16-3.74.14-6.44-.44.83-.63,1.15-.78,1.47-3.15,6.74-7.98,12.13-12.83,17.51-2.05,2.28-4.37,4.28-6.04,6.94-.64,1.02-1.55,1.96-2.92,1.95-3.36,4.27-7.92,6.72-12.57,9.04-.27.14-.69-.04-1.04-.08-1.3.04-2.49.45-3.67.93-1.17.48-2.32,1.04-3.53,1.38-4.81,1.38-9.71,1.43-14.65,1.59-6.56.21-12.36-2.08-17.56-5.72-6.7-4.7-12.32-10.81-17.89-16.88-6.63-7.23-11.32-15.54-12.93-25.54-.4-2.47-.92-4.91-1.3-7.38-.16-1.06-.47-1.94-1.4-2.48-2.57-1.51-3.02-4.02-2.96-6.79.1-4.9-.68-9.72-1.18-14.57-.55-5.22-2.07-10.33-1.67-15.65-.24-2.14-1.87-3.18-3.34-4.17-5.26-3.55-6.54-8.43-4.32-14.68.38-1.06.7-2.13,1.09-3.18.81-2.17.97-4.33.23-6.59-.58-1.77-1-3.61-1.32-5.45-.7-3.99-.83-7.95,1.05-11.72.02-.03.03-.07.05-.1-16.45,1.61-32.67,4.03-48.62,7.2,8.87,12.79,16.12,26.72,22.43,41.33,7.25,16.79,13.44,34.06,21.15,50.64Z"/><path class="uuid-3199674a-9b17-4db9-a51d-766d5146225e" d="m378.95,32.19c-.89,6.54-3.35,12.43-6.37,18.23-2.51,4.81-5.68,7.22-10.95,6.13-.45.53-.91,1.05-1.36,1.58-.04.31-.04.63-.06.95-.02.32-.06.62-.17.9-3.2,8.29-3.68,17.08-3.96,25.81-.27,8.31,1.47,16.41,3.89,24.34,2.09,6.83,4.45,13.52,8.27,19.55,0,.25.02.51.03.76.29.19.68.32.83.59,2.8,4.83,6.66,8.63,10.74,12.23,0,0-.01,0-.02,0,.34.26.67.52,1.01.78,1.09.11,1.78.88,2.51,1.58.24.23.49.46.75.65,6.27,4.53,13.47,7.17,20.21,10.72,2.37,1.25,5.18.88,7.76,0,1.36-.47,2.7-1.03,4.05-1.56,5.15-1.35,10.14-.95,14.98,1.36,0,0,0,0,0,0,.87-.03,1.7.07,2.33.8.29-.02.57,0,.84.04,1.62.24,2.91,1.38,4.34,2.15.24.13.48.24.73.35,4.93,2.01,9.56,4.7,13.54,8.44,1.2,1.13,2.39,2.27,3.57,3.41,1.19,1.14,2.37,2.29,3.56,3.43.05.06.09.12.14.18.21.27.41.54.62.81,1.87,1.54,3.73,3.1,5.63,4.61.56.45,1.35.97,1.94.31.71-.8-.21-1.29-.67-1.78-.33-.36-.71-.68-1.1-.97-8.93-6.53-15.45-15.32-21.44-24.63-3.93-6.12-6.7-12.78-7.91-20.01-.55-3.3-1.38-6.69-.8-10.65,3.08,3.56,5.53,6.96,8.55,9.82,5.22,4.95,11.01,8.88,17.79,11.1.96.32,1.97.82,2.88-.16-.22-.4-.29-.7-.46-.79-.64-.34-1.3-.64-1.97-.89-5.92-2.22-10.69-5.98-14.69-11.08-6.73-8.6-9.95-18.75-12.53-29.24-.06-.19-.12-.38-.19-.57.16.09.32.17.48.26,1.63,1.27,2.75,2.97,3.8,4.72.35.58.69,1.17,1.04,1.75,4.62,7.67,9.63,14.99,16.06,21.19,4.03,3.89,8.75,6.65,13.64,9.04,3.4,1.65,7.06,1.54,10.79.66-.58-1.85-1.83-1.63-2.82-1.84-9.29-1.95-16.53-7.22-22.18-14.98-4.61-6.34-7.71-13.58-11.01-20.68-7.71-16.58-13.9-33.85-21.15-50.64-6.31-14.61-13.56-28.54-22.43-41.33-8.77,1.74-17.45,3.71-26.04,5.9.69,2.21,1.36,4.42,1.93,6.67.84,3.3,1.55,6.58,1.09,10Z"/><path class="uuid-3199674a-9b17-4db9-a51d-766d5146225e" d="m360.51,23.38c.47-.55.76-1.27,1.12-1.92.42-.77.77-1.56,1.08-2.37-3.22.92-6.43,1.87-9.63,2.86.29.55.64,1.07,1.08,1.54,1.88,1.96,4.59,1.97,6.34-.1Z"/><path class="uuid-3199674a-9b17-4db9-a51d-766d5146225e" d="m460.74,176.42s-.01-.02-.02-.03c0,0,0,0,0,0,0,0,0,0,0,0,0,0,.03.04.03.04Z"/><path class="uuid-b0d9f07a-ab84-443e-bb36-7932e8774ffd" d="m611.78,25.92c-.95,2.1-1.47,4.23-1.46,6.52,0,1.39-.21,2.74-.6,4.08-.49,1.69-.44,3.24.17,5.05,1.16,3.41.14,6.77-1.99,9.5-1.29,1.65-2.17,3.19-2.06,5.36.11,2.09-.82,3.88-1.92,5.57-1.16,1.78-2.56,3.32-4.03,4.81-2.7,2.73-4.96,5.77-6.13,9.61-.96,3.17-3.06,5.65-4.97,8.24-1.53,2.08-2.46,3.93-1.78,7.09.62,2.88.7,6.12,1.11,9.19.22,1.64-.15,3.26-.95,4.72-.65,1.2-1.28,2.43-2.1,3.5-3.29,4.3-5.75,8.78-5.64,14.63.09,4.34-2.34,8.1-3.91,12.03,2.52,5.17,5.85,9.72,9.65,13.81.44-.44.87-.89,1.31-1.33,13.2-13.14,27.38-23.46,42.51-30.99.03-.68.05-1.36.1-2.04.49-7.67,2.27-15.08,4.37-22.43,1.55-5.41,2.95-10.86,4.47-16.27.85-3.03,1.4-6.06,1-9.25-.73-5.73.09-11.48-.24-17.25-.5-8.98,2.22-17.35,6.37-25.14.54-1.02,1.07-2.04,1.58-3.06-11.59-3.55-23.35-6.69-35.28-9.41.56,1.64,1.07,3.29,1.38,5.03.53,2.96.23,5.78-.98,8.44Z"/><path class="uuid-a2eebeea-9ad4-4f0b-8d8f-1333e00217f8" d="m638.71,50.07c.32,5.77-.49,11.52.24,17.25.41,3.19-.15,6.22-1,9.25-1.52,5.41-2.92,10.87-4.47,16.27-2.1,7.34-3.88,14.76-4.37,22.43-.04.68-.07,1.36-.1,2.04,10.36-5.16,21.18-9.01,32.42-11.56.52-3.64,1.26-7.25,2.02-10.86,1.15-5.48,2.57-10.9,3.27-16.48-1.12-.65-1.87-1.6-2.48-2.66-.37-.64-.68-1.32-1-2-1.83-3.88-2.19-8.2-3.43-12.26-1.49-4.9-1.3-9.91-.94-14.92.25-3.37,1.21-6.71,4.13-8.4,4.93-2.86,10.08-5.84,15.95-2.58,1.79,1,2.85.36,4.02-1,.01-.01.02-.03.03-.04-11.89-4.68-24.01-8.92-36.33-12.69-.51,1.03-1.04,2.05-1.58,3.06-4.15,7.8-6.87,16.16-6.37,25.14Z"/><path class="uuid-b0d9f07a-ab84-443e-bb36-7932e8774ffd" d="m203.41,113.28c1.41,2.89,1.89,5.58.56,8.59-.9,2.04-.76,4.07.54,5.98,1.6,2.35,3.21,4.7,4.7,7.12,1.52,2.48,2.49,5.17,1.83,8.19-.21.95-.35,2.12-1.59,2.21-1.24.09-1.48-1.01-1.8-1.97-1.3-3.92-2.84-7.76-5.25-11.08-2.01-2.76-3.51-5.67-3.89-9.15-.09-.87-.17-1.86-1.35-1.82-1,.03-1.39.84-1.69,1.7-.7,2-.89,4.23-2.09,5.98-1.21,1.79-.78,3.1.35,4.7,2.6,3.66,3.87,7.79,3.13,12.38-.29,1.82.19,3.43.71,5.12,1.41,4.55.36,8.74-2.64,11.58-.75.71-1.62,1.34-2.61,1.87-.33.18-.67.34-1.02.49,2.21,2.71,4.42,5.42,6.53,8.2,3.52,4.64,6.74,9.5,9.11,14.98.38.89,1.1,1.62,1.66,2.42.74-.66,1.53-1.21,2.21-1.94.23-.24.45-.51.64-.8,4.02-5.95,9.06-10.65,15.89-12.77,11.13-3.46,22.42-6.18,33.93-7.89-.85-5.44-1.47-10.87-1.54-16.41-.05-4.24-1.19-8.41-2.31-12.51-1.91-7.01-3.22-14.11-3.42-21.42-.05-1.74-.28-3.52-.74-5.19-2.04-7.5-2.63-15.24-3.79-22.9-.56-3.69-1.92-7.21-2.26-10.99-.27-2.97-.6-5.94-.96-8.91-12.33,7.27-24.32,15.06-35.93,23.33.94,1.75,2.29,2.86,3.57,4,3.27,2.91,4.34,6.45,3.25,10.79-.62,2.51-1.25,5.01-1.64,7.6-.53,3.51-2.87,6-5.73,7.84-.71.46-1.7.6-2.38-.06-.65-.64-.08-1.37.26-2.01.18-.33.36-.65.55-.97,4-6.78,3.8-13.66.54-20.67-.66-1.41-1.48-2.59-2.48-3.6-1.67,1.21-3.33,2.44-4.99,3.67-.04.3-.1.6-.16.9-1.07,4.87.23,9.23,2.26,13.39Z"/><path class="uuid-a2eebeea-9ad4-4f0b-8d8f-1333e00217f8" d="m796.75,99.61c.22,1.11-.17,2.05-.8,2.92-.49,2.14-1.13,4.21-1.91,6.21,5.85.23,11.33.03,16.55-.59-4.22-3.35-8.5-6.63-12.82-9.84-.2.51-.49.97-1,1.31Z"/><path class="uuid-b0d9f07a-ab84-443e-bb36-7932e8774ffd" d="m196.52,845.2s-.02-.03-.02-.03c-.69-.33-.84-.92-.7-1.63,0-.17-.07-.31-.19-.43-.36-.3-.51-.68-.4-1.16-1.91-2.88-2.57-6.26-3.56-9.51-.14-.46-.29-.92-.45-1.38-.85-2.55-1.6-5.12-1.13-7.87-.06-.45-.12-.9-.17-1.35-.56-.91-.71-1.88-.41-2.91-.17-.97-.35-1.95-.52-2.93-.09-.11-.17-.22-.24-.33-.13-.23-.22-.47-.28-.72-.15-.62-.13-1.29-.27-1.92-1.24.05-1.79.96-2.27,1.96-.47.97-.9,1.98-1.92,2.49-.16.17-.32.33-.48.5-.08.08-.15.16-.23.24-.01.15-.03.3-.06.44-.1.42-.3.79-.66,1.08-.01.15-.03.29-.07.43-.1.43-.3.81-.67,1.09-.28.7-.57,1.38-.89,2.05-2.24,4.77-5.42,8.84-9.19,12.45-.39.37-1.09.38-1.65.56-.4.29-.77.62-1.12.95-.6.57-1.13,1.2-1.58,1.92-.01.59-.14,1.14-.6,1.55,0,0-.22.14-.22.13.06.61-.13,1.09-.43,1.53-.12.17-.25.34-.39.5-.07.08-.14.16-.21.25-3.97,4.52-8.48,8.41-13.12,12.14-.44.36-1.09.43-1.65.64-.3.33-.61.65-.92.96,4.68,4.6,9.46,9.1,14.32,13.52,12.39-6.36,23.38-14.03,32.72-23.21-.14-.65-.26-1.31-.35-1.99Z"/><path class="uuid-221cdeb2-3311-4ebc-ac68-985663543b2b" d="m575.54,24.56c2.45,4.98,4.26,10.06,4.72,15.64l.16.21s-.12.23-.12.23c-.08.28-.15.56-.2.83-.09.56-.1,1.12-.02,1.68.04.28.11.56.2.84.06.25.11.5.17.75-.1,2,.78,3.46,1.91,4.79.38.44.78.87,1.18,1.3,2.54,2.7,4.84,5.56,5.78,9.35.18.72.42,1.48.84,2.05,1.74,2.34,2.01,5.01,1.91,7.82-.06,1.62.01,3.25.05,4.87.07,2.87-1.93,5.61-5.12,6.96-3.52,1.5-4.76,1.22-7.19-1.58-.09-.1-.41.02-.96.06-.12,2.79-.67,5.61-1.84,8.17-1.46,3.2-2.26,6.55-3.01,9.98-.79,3.6-.08,7.25-.71,10.83.18,1.11.24,2.21-.4,3.21-.1.69-.2,1.38-.3,2.06-.01,2.49-.03,4.98-.04,7.48-.03.48-.04.95-.02,1.43,0,.04,0,.08,0,.12.08,2.05.55,4.04.98,6.04.33,1.5.63,3,.74,4.53.06.8.54,1.36,1.3,1.6,1.57-3.92,3.99-7.68,3.91-12.03-.12-5.85,2.35-10.33,5.64-14.63.82-1.07,1.45-2.3,2.1-3.5.79-1.46,1.16-3.08.95-4.72-.41-3.07-.49-6.31-1.11-9.19-.68-3.16.25-5.01,1.78-7.09,1.9-2.59,4.01-5.07,4.97-8.24,1.16-3.84,3.42-6.87,6.13-9.61,1.47-1.49,2.87-3.03,4.03-4.81,1.1-1.69,2.02-3.48,1.92-5.57-.11-2.17.77-3.71,2.06-5.36,2.13-2.72,3.15-6.09,1.99-9.5-.61-1.81-.67-3.36-.17-5.05.39-1.34.61-2.69.6-4.08,0-2.3.51-4.43,1.46-6.52,1.21-2.66,1.51-5.48.98-8.44-.31-1.74-.82-3.39-1.38-5.03-14.28-3.25-28.8-5.88-43.52-7.88,1.75,2.97,3.12,6.22,4.14,9.75,1,3.47,1.97,7.03,3.55,10.23Z"/><path class="uuid-3199674a-9b17-4db9-a51d-766d5146225e" d="m249.51,88.96c1.16,7.65,1.75,15.4,3.79,22.9.45,1.67.69,3.45.74,5.19.19,7.31,1.51,14.41,3.42,21.42,1.12,4.1,2.26,8.27,2.31,12.51.07,5.54.69,10.98,1.54,16.41.95,2.4,2.75,1.46,4.28,1.08,5.77-1.42,10.43-4.96,15.12-8.53,9.84-7.49,12.71-18.02,12.39-30.02-.01-.37-.11-.74-.18-1.11-.76-4.06-.21-4.81,3.79-5.04,1.2-.07,2.41-.03,3.61-.04.69,0,1.36-.05,2.02-.18,1.09-.2,2.13-.6,3.08-1.34h0s-.06-.07-.06-.07c-1.2-.04-2.38.15-3.57.32-5.7.8-11.3.97-15.64-4.04-.24-.27-.58-.45-.86-.68-5.4-4.46-9.11-10.63-14.23-15.37-.17-.16-.26-.42-.37-.64-2.67-5.15-5.38-10.25-8.44-15.21-2.86-4.63-5.6-9.53-7.92-14.63-.92-2.03-1.69-4.07-2.33-6.13-1.9,1.09-3.8,2.19-5.69,3.3.35,2.97.69,5.94.96,8.91.34,3.78,1.7,7.3,2.26,10.99Z"/><path class="uuid-221cdeb2-3311-4ebc-ac68-985663543b2b" d="m449.49,14.24c.32,1.84.75,3.68,1.32,5.45.74,2.26.58,4.42-.23,6.59-.39,1.05-.72,2.12-1.09,3.18-2.22,6.25-.94,11.13,4.32,14.68,1.46.99,3.1,2.03,3.34,4.17.78.13,1.42,1.72,2.36.27.05-.27.1-.54.15-.81.42-1.61.39-3.23.02-4.85-.49-.62-.5-1.26-.04-1.9.39-2.69.36-5.37.25-8.06-.1-2.43-.26-4.85-.25-7.28-.53-1.5-.47-3.03-.35-4.56.04-.51.08-1.02.12-1.53.56-3.23.13-6.59,1.12-9.77.15-1.12.23-2.25.41-3.36.06-.37.13-.74.21-1.1.31-1.33.66-2.64,1.03-3.94-3.87.29-7.73.63-11.58,1.01-.02.03-.03.07-.05.1-1.88,3.77-1.75,7.72-1.05,11.72Z"/><path class="uuid-9a8527d6-f394-4b38-8d28-58b5728cb043" d="m431.24,260.07c1.59-8.34-.39-15.98-4.08-23.18-5.19-10.14-12.61-18.62-19.69-27.3-3.25-3.98-6.52-7.94-9.83-11.87-4.6-5.45-9.13-10.99-15.1-14.93-16.41-10.81-34.54-15.54-53.74-16.19-11.76-.4-20.07,5.88-25.95,15.94-1.39,2.37-3.02,3.59-5.43,4.4-2.73.91-5.47,2-7.92,3.51-6.21,3.81-12.37,7.69-18.25,12.06-12.3,9.16-20.65,20.89-22.69,36.83-1.12,8.71-.58,17.09,5.82,23.86.01.01.02.02.03.03,7.62,1.14,15.22,2.41,22.83,3.72.86-.09,1.82-.03,2.6-.29,2.39-.78,4.29-2.28,5.61-4.49.72-1.21.78-2.29-.87-2.94-4.08-1.6-5.44-4.95-5.3-9.25.16-4.89,2.04-9.21,3.86-13.84,1.25,1.09,1.31,2.51,1.74,3.7,1.56,4.41,3.67,8.44,6.89,11.8,3.26,3.4,8.27,5.78,13.78,2.45,1.09-.66,1.99-.51,3.06-.16,1.26.4,2.56.68,3.86.91,3.57.63,3.82.34,3.36-3.26-.16-1.24-.26-2.5-.18-3.74.13-1.9,1.06-2.32,2.66-1.35.31.19.58.45.88.65.87.57.81,2.39,2.26,2.07,1.63-.36,3.34-.51,4.72-1.71,1.77-1.53,3.19-3.36,4.28-5.73,1.8,1.2,3.35,2.36,5.01,3.3,3.76,2.13,6.78,1.62,9.8-1.57.66-.7,1.07-1.56,2.22-1.7,4.86-.61,8.76-3.24,12.33-6.55,3.53-3.27,3.78-3.12,4.93,1.72,1.18,4.97.99,9.98.51,14.97-.31,3.27-.17,6.47-.07,9.73.17,5.82.53,11.62.89,17.42,14.89.74,29.85.48,44.91-1.33,8.08-.97,15.89-2.51,23.44-4.59-2.8-3.67-4.12-7.9-3.13-13.11Z"/><path class="uuid-8902c5e7-6e16-4997-a84b-cc2c13327004" d="m568.36,159.86c-2.89,0-5.77,0-8.66,0-.29.19-.58.38-.88.57-.44.07-.9.1-1.34.19-.15.03-.29.07-.43.12-3.12,1.09-6.19,1.36-9.53.76-2.89-.52-5.95-.42-8.94.23-6.34,1.38-11.84,4.62-17.25,8.12-8.68,5.62-16,13.15-24.55,18.96-2.3,1.56-4.52,3.33-6.49,5.32-7.99,8.01-12.79,17.98-15.92,28.92.07,1.07-.39,1.84-1.25,2.37-.33,2.72-.64,5.44-.99,8.16-.33,2.53-1.7,4.4-3.66,5.78-1.21.85-2.26,1.82-3.22,2.96-4.06,4.83-8.88,8.69-14.4,11.5-3.76,1.91-7.42,3.97-11,6.21-2.4,1.5-3.02,4.03-3.89,6.6.52.06.67.13.75.07.29-.2.68-.37.82-.67,1.66-3.51,4.68-5.19,7.92-6.7,2.74-1.28,5.36-2.83,8.06-4.2,5.11-2.6,9.83-5.78,13.93-9.91.76-.77,1.45-1.7,2.66-1.72,0,0,0,0,0,0,.02.54.13,1.06.23,1.59.1.54.18,1.09.13,1.68-.35,3.95-.59,7.91-.79,11.87,6.37-3.58,12.51-7.62,18.46-12.07.04-.76.12-1.51.25-2.26.01-.34.02-.68.03-1.02-.06-.25-.09-.48-.09-.72,0-.7.23-1.33.69-1.91.38-4.26,1.3-8.38,2.49-12.44.4-1.35.82-2.7,1.27-4.04.35-1.04.84-2.05,1.91-2.54.01-.46.11-.89.38-1.22.09-.11.2-.21.33-.3.02-.61.17-1.16.72-1.5h0c0-.16.01-.31.04-.45.07-.43.27-.8.68-1.05h0c0-.63.18-1.17.72-1.51,0-.16.01-.31.04-.46.06-.29.17-.56.34-.8.09-.12.19-.23.3-.34,1.77-4.15,4.76-7.2,8.4-9.46,5.79-3.6,12.1-6.1,18.67-7.53,4.32-.94,8.53-.24,12.26,2.06,11.91-12.5,23.74-25.07,35.77-37.44-1.37-.4-2.75-.8-4.12-1.2-.29-.19-.58-.38-.87-.57Zm-97.83,83.13c-.04.17-.26.29-.41.43,0,.02,0,.03,0,.05,0,0-.03-.02-.03-.02,0,0,.02-.02.03-.03.02-.21,0-.45.11-.6.15-.22.37-.11.3.17Z"/><path class="uuid-d1056f1a-a166-4cbc-907a-107449b7b62f" d="m225.42,234.18c-10.33-7.51-21.75-10-34.04-9.56-7.88.28-14.85,3.4-21.59,7.31-1.68.97-3.43,1.79-5.16,2.66-.65.33-1.3.65-1.92,1.03-1.02.63-1.94,1.4-2.57,2.56-.28.36-.64.56-1.05.66-.12.03-.25.05-.37.06-.25.26-.5.52-.75.77-.33.57-.72,1.07-1.19,1.45-.48.39-1.03.66-1.7.79-.1.23-.22.44-.36.61-.43.54-1.05.8-1.78.86-3.73,2.2-6.68,5.45-9.23,8.84-1.74,2.33-2.31,5.66-3.12,8.67-.54,2-1.03,4.01-1.49,6.03,10.93-3.57,22.51-5.94,34.66-7.22,22.81-2.41,45.29-1.11,67.62,1.71-.61-2.93-1.38-5.8-2.72-8.47-3.48-6.94-6.67-14.01-13.23-18.78Z"/><polygon class="uuid-d1056f1a-a166-4cbc-907a-107449b7b62f" points="157.96 239.68 157.96 239.68 157.96 239.68 157.96 239.68 157.96 239.68"/><path class="uuid-dec0c0c6-169d-4b48-9d31-4f4a87e51650" d="m80.48,229.88c2.64,4.64,4.63,9.6,6.47,14.6,2.82,7.68,5.35,15.48,7.91,23.27,2.1,6.38,3.56,12.94,4.94,19.52,11.93-8.98,25.07-15.68,39.3-20.33.46-2.02.95-4.03,1.49-6.03.81-3.01,1.38-6.34,3.12-8.67,2.54-3.39,5.5-6.64,9.23-8.84.48-.86.99-1.67,2.13-1.5.45-1.46,1.58-1.99,2.89-2.26.07-.43.37-.64.75-.74-.01,0-.02,0-.04,0,.33-.58.84-.79,1.46-.73.63-1.16,1.55-1.93,2.57-2.56.61-.38,1.27-.7,1.92-1.03,1.73-.87,3.48-1.69,5.16-2.66,6.75-3.9,13.71-7.03,21.59-7.31,12.29-.44,23.72,2.05,34.04,9.56,6.57,4.78,9.76,11.85,13.23,18.78,1.34,2.67,2.12,5.54,2.72,8.47.91.11,1.82.23,2.73.35-2.68-9.93-5.63-19.78-10.98-28.6-1.41-2.32-2.14-4.68-2.14-7.4-.01-4.08-1.53-7.53-4.34-10.37-.77-.78-1.64-1.51-2.03-2.6-1.36-3.85-3.88-6.88-6.33-9.96-3.21-4.03-6.44-8.05-9.67-12.07,0,0,0,0,0,0-.56-.8-1.28-1.53-1.66-2.42-2.37-5.48-5.6-10.34-9.11-14.98-2.11-2.78-4.33-5.49-6.53-8.2-3.01-1.03-6.02-2.05-9.03-3.08-.19,0-.38,0-.57.01-.57.02-1.13,0-1.65-.31-2.03.45-4.07,0-6.1.07-10.84.32-21.22,2.37-30.59,8.44-.72.47-1.48.81-2.36.82-7.99.14-15.48,2.24-22.61,5.79-13.93,16.43-26.81,33.78-38.55,51.93.11.18.23.36.34.54.1.16.21.33.3.49Z"/><path class="uuid-8653978a-8ec5-48a6-b6a7-920d9a1c2e76" d="m273.35,86.55c-.63,1.18-.87,2.68.23,3.46,3.57,2.52,6.43,6.71,11.2,5.83,1.94-.03,3.47-.05,5.02-.48,6.61-1.83,11.84-5.92,16.58-10.82,1.1-1.13,1.99-2.5,2.84-3.86.69-1.11.27-1.92-.99-2.13-.59-.1-1.2-.08-1.8-.08-4.55-.03-9.11.2-13.62-.75-2.76-.58-5.47-.73-7.7,1.67-.62.67-1.59.67-2.39.33-3.53-1.48-5.69.17-7.3,3.31-.62,1.21-1.43,2.31-2.07,3.52Z"/><path class="uuid-4ccdae4a-92d5-4640-ac79-5e1a13295f02" d="m333.14,102.25c-.54.39-.96.95-1.44,1.42-6.11,6-12.79,11.18-20.13,15.43-.35.2-.75.35-1.09.57-.33.21-.59.5-.72.97,4.05-.21,7.12-2.68,10.19-4.99,3.69-2.78,7.24-5.76,10.78-8.75,1.47-1.24,3.09-2.41,3.77-4.42-.09-.21-.16-.43-.22-.66-.45.04-.82.2-1.15.43Z"/><path class="uuid-4ccdae4a-92d5-4640-ac79-5e1a13295f02" d="m309.7,120.65s.01.02.02.03l.02.02s.01-.04.02-.06c0,0,0,0,0,0-.02,0-.04,0-.06,0Z"/><path class="uuid-9a8527d6-f394-4b38-8d28-58b5728cb043" d="m361.63,56.55c-2.06-1.61-2.22-1.62-3.08.27-.56,1.24-1.02,2.53-1.54,3.8-2.53,6.2-5.05,12.41-7.58,18.61h0s0,0,.02.02c0,0,.02.02.02.02,1.6-.59,2.14-1.99,2.64-3.38.17-.46.33-.93.52-1.36,1.76-3.97,3.26-8.07,4.97-12.07.42-.98.73-2.05,1.29-2.95.34-.54.77-1.02,1.38-1.38h0c.45-.53.91-1.05,1.36-1.58Z"/><path class="uuid-9a8527d6-f394-4b38-8d28-58b5728cb043" d="m379.83,143.26c-4.08-3.6-7.94-7.41-10.74-12.23-.16-.27-.55-.4-.83-.59,0,.01,0,.02,0,.04,0-.01-.01-.03-.02-.04h0c.07,5.41,5.8,11.77,11.57,12.83-.01,0-.02-.02-.04-.03.01,0,.02.02.04.03,0,0,.01,0,.02,0Z"/><path class="uuid-cde86619-eda1-4eab-b140-acbd3901bad4" d="m367.53,52.05c1.37-.05,2.19-.78,2.31-2.05.05-1.65-.98-2.94-2.25-3.02-1.33-.09-2.5,1.07-2.52,2.52-.03,1.43,1.08,2.6,2.47,2.55Z"/><path class="uuid-9a8527d6-f394-4b38-8d28-58b5728cb043" d="m431.07,156.8c-4.84-2.31-9.83-2.71-14.98-1.36.42.21.84.58,1.26.59,2.3.08,4.59.37,6.88.59,2.28.22,4.56.38,6.86.2,0-.01-.02-.02-.03-.03Z"/><path class="uuid-94bbbed9-8bc1-444e-bdf3-24932cf66b64" d="m286.62,64.02c.5-.05.65-.65.59-1.19-.08-.7-.4-1.3-1.09-1.18-1.95.32-3.97.6-5.35,2.93,2.28.67,4.04-.36,5.85-.55Z"/><path class="uuid-9a8527d6-f394-4b38-8d28-58b5728cb043" d="m340.79,94.3l-.09-.08s-.03-.03-.03-.03c-1.29,1.06-2.44,2.25-3.49,3.54-1.05,1.28-1.99,2.66-2.89,4.09.06.22.14.44.22.66,1.07-.78,2.05-1.63,2.94-2.57,1.47-1.56,2.65-3.38,3.4-5.55h0s0,0,0,0c0,0-.02-.02-.05-.05Z"/><path class="uuid-94bbbed9-8bc1-444e-bdf3-24932cf66b64" d="m275.24,68.59c.71-.04,1.52-.16,1.68-1.07.15-.81-1.79-1.9-3.32-1.86-.66.06-1.43.33-1.2,1.3.35,1.51,1.59,1.7,2.85,1.63Z"/><path class="uuid-a2eebeea-9ad4-4f0b-8d8f-1333e00217f8" d="m290.75,63.67c.36.19.59-.16.72-.65-.13-.19-.24-.56-.48-.69-.41-.23-.64.15-.63.51.02.3.17.73.39.84Z"/><path class="uuid-d1056f1a-a166-4cbc-907a-107449b7b62f" d="m474.38,223.04c-.43.02-.86.04-1.28.06.01.77.02,1.54.04,2.31.86-.54,1.32-1.3,1.25-2.37Z"/><path class="uuid-9a8527d6-f394-4b38-8d28-58b5728cb043" d="m346.72,83.8c-.07.21-.11.44-.14.68h0c1.29-.16,1.46-1.13,1.44-2.23h0s-.02-.02-.02-.02c-.66.36-1.06.9-1.28,1.57Z"/><path class="uuid-9a8527d6-f394-4b38-8d28-58b5728cb043" d="m346.54,84.49s.02.02.02.02c0,0,0-.02,0-.03-.01,0-.02,0-.03,0Z"/><path class="uuid-4ccdae4a-92d5-4640-ac79-5e1a13295f02" d="m308.49,121.01c.19.58.81.11,1.17-.31-.49,0-1.32-.13-1.17.31Z"/><path class="uuid-4ccdae4a-92d5-4640-ac79-5e1a13295f02" d="m309.65,120.7s.06,0,.09,0c0,0,0-.01-.02-.02-.01-.01-.02-.03-.02-.03-.01.02-.03.04-.05.05Z"/><path class="uuid-9a8527d6-f394-4b38-8d28-58b5728cb043" d="m431.06,156.79s0,0,0,0c0,.01.02.02.03.03.22.28.48.45.75.55.15.05.31.08.47.11.25.04.51.05.77.07.08,0,.15.02.23.02.03,0,.05,0,.08,0-.63-.72-1.46-.83-2.33-.8Z"/><path class="uuid-9a8527d6-f394-4b38-8d28-58b5728cb043" d="m341.49,92.78c-.41.22-.61.58-.74.98-.04.14-.07.28-.1.42,0,0,.01.01.03.03.03.02.06.06.09.08.03.03.05.05.05.05h0c.12-.1.23-.2.32-.32.26-.34.37-.76.36-1.23h0s0,0,0,0c0,0-.02-.02-.02-.02Z"/><path class="uuid-9a8527d6-f394-4b38-8d28-58b5728cb043" d="m342.22,92.04c.14-.09.25-.19.34-.29.27-.32.36-.73.37-1.19h0c-.13.08-.24.17-.32.27-.28.32-.38.74-.39,1.21Z"/><path class="uuid-9a8527d6-f394-4b38-8d28-58b5728cb043" d="m342.93,90.53h0s0,.02,0,.03c0,0,.01-.01.02-.02,0,0-.02-.02-.02-.02h0Z"/><polygon class="uuid-9a8527d6-f394-4b38-8d28-58b5728cb043" points="342.22 92.04 342.22 92.04 342.22 92.04 342.22 92.04"/><path class="uuid-9a8527d6-f394-4b38-8d28-58b5728cb043" d="m344.38,88.27s0,.01,0,.02c0,0,0,0,.01,0,0,0,0,0,0,0Z"/><path class="uuid-9a8527d6-f394-4b38-8d28-58b5728cb043" d="m343.83,88.93c-.06.13-.1.26-.12.41-.02.14-.03.28-.03.43.26-.17.44-.38.55-.63.11-.25.15-.53.15-.84h0c-.26.17-.44.39-.55.64Z"/><path class="uuid-9a8527d6-f394-4b38-8d28-58b5728cb043" d="m343.66,89.77h.01s0,0,0-.01c0,0,0,0,0,0,0,0,0,0-.01.01Z"/><path class="uuid-9a8527d6-f394-4b38-8d28-58b5728cb043" d="m345.83,86.01c-.27.17-.45.39-.57.65-.11.26-.16.55-.16.86h0s.01.01.01.01c.28-.17.46-.39.57-.64.11-.26.16-.55.15-.86h0s-.02-.01-.02-.01Z"/><path class="uuid-9a8527d6-f394-4b38-8d28-58b5728cb043" d="m345.83,86.01s.02.01.02.01h0c.15-.08.27-.18.37-.28.28-.31.35-.74.33-1.2-.47.36-.69.87-.71,1.47Z"/><path class="uuid-9a8527d6-f394-4b38-8d28-58b5728cb043" d="m346.57,84.51s-.02-.02-.02-.02c0,.01,0,.03,0,.04,0,0,.01-.02.02-.02Z"/><path class="uuid-9a8527d6-f394-4b38-8d28-58b5728cb043" d="m348.71,80.73c-.51.36-.69.9-.72,1.51,0,0,.02.02.02.02.15-.08.27-.17.37-.28.29-.32.37-.75.36-1.23h0s-.03-.02-.03-.02Z"/><path class="uuid-3199674a-9b17-4db9-a51d-766d5146225e" d="m305.85,121.7c-.19.05-.33.28-.5.44,0,0,.06.07.06.07h0c.22-.06.48-.06.64-.19.21-.17.09-.39-.2-.32Z"/><path class="uuid-9a8527d6-f394-4b38-8d28-58b5728cb043" d="m349.45,79.24s-.02-.02-.02-.02h0c-.5.37-.69.89-.72,1.5,0,0,.03.02.03.02h0c.15-.08.27-.17.37-.27.29-.32.36-.75.36-1.22,0,0-.01,0-.02-.02Z"/><polygon class="uuid-a2eebeea-9ad4-4f0b-8d8f-1333e00217f8" points="288.75 61.4 288.75 61.63 289 61.52 288.75 61.4"/><path class="uuid-94cfbc88-4dee-4bc5-908f-80f122569615" d="m460.72,176.4s.01.02.02.03"/><path class="uuid-94cfbc88-4dee-4bc5-908f-80f122569615" d="m460.11,175.59c-.05-.06-.09-.12-.14-.18"/><path class="uuid-94cfbc88-4dee-4bc5-908f-80f122569615" d="m460.72,176.4c-.21-.27-.41-.54-.62-.81"/><path class="uuid-94cfbc88-4dee-4bc5-908f-80f122569615" d="m379.81,143.26c.34.26.67.52,1.01.78"/><path class="uuid-94cfbc88-4dee-4bc5-908f-80f122569615" d="m379.81,143.26s-.02-.02-.04-.03"/><path class="uuid-9a8527d6-f394-4b38-8d28-58b5728cb043" d="m368.26,130.47s0-.02,0-.04c0-.25-.02-.51-.03-.76-.07.09-.22.19-.21.25.02.09.06.19.1.27.04.07.07.15.11.22,0,.01.02.03.02.04Z"/><path class="uuid-9a8527d6-f394-4b38-8d28-58b5728cb043" d="m342.2,92.06h0s.01-.01.02-.02h0s-.01.01-.02.02Z"/><path class="uuid-9a8527d6-f394-4b38-8d28-58b5728cb043" d="m341.51,92.8h0c.23-.25.46-.5.69-.75-.24.24-.48.48-.71.72,0,0,.02.02.02.02Z"/><path class="uuid-9a8527d6-f394-4b38-8d28-58b5728cb043" d="m343.67,89.79s-.01-.01-.01-.01c0,0,0,.01,0,.02,0,0,.01,0,.02,0Z"/><path class="uuid-9a8527d6-f394-4b38-8d28-58b5728cb043" d="m342.96,90.52c.37-.1.58-.36.69-.72-.19.05-.33.14-.45.26-.11.12-.19.28-.25.46Z"/><path class="uuid-9a8527d6-f394-4b38-8d28-58b5728cb043" d="m342.93,90.53s.02.02.02.02c0,0,0-.02.01-.03,0,0-.02,0-.03.01h0Z"/><path class="uuid-9a8527d6-f394-4b38-8d28-58b5728cb043" d="m344.39,88.28s.01-.01.02-.02c0,0-.02,0-.03,0,0,0,0,0,0,0Z"/><path class="uuid-9a8527d6-f394-4b38-8d28-58b5728cb043" d="m345.1,87.51c-.23.25-.46.5-.69.74.37-.1.59-.36.71-.73,0,0-.01-.01-.01-.01h0Z"/><path class="uuid-b0d9f07a-ab84-443e-bb36-7932e8774ffd" d="m686.72,81.07c-.4-.91-.84-1.85-2.06-1.74.59,4.75,2.2,9.22,3.45,13.79.81,2.96,1.71,5.92,2.33,8.93,1.47-.05,2.96-.08,4.44-.09-1.93-5-3.79-10.04-5.72-15.04-.76-1.97-1.6-3.91-2.44-5.85Z"/><path class="uuid-94bbbed9-8bc1-444e-bdf3-24932cf66b64" d="m203.42,679.7c.43,1.43,1.11,2.77,1.67,4.15.69,1.7,1.8,2.83,3.51,3.52,1.36.55,2.56,1.37,3.7,2.29-4.35-6.88-8.12-14.18-11.95-21.39-5.36-10.11-7.2-13.53-12.1-12.95,1.1,1.35,2.2,2.69,3.34,4,5.21,6,9.49,12.56,11.83,20.38Z"/><path class="uuid-1b81fbab-f25d-4380-b2b6-a545b359753f" d="m152.37,853.15c3.8-2.88,6.84-6.61,10.23-9.94,1.13-1.11,2.22-2.31,3.95-2.32,0,0,.22-.13.22-.13-.06-.63.17-1.13.6-1.55.45-.72.98-1.35,1.58-1.92.35-.34.72-.66,1.12-.95,2.51-3.42,4.92-6.93,7.58-10.22,1.33-1.65,1.92-4.03,4.14-4.87.03-.61.22-1.13.72-1.49.05-.61.25-1.15.75-1.53,0,0,0,.01,0,.02,0,0,0,0,0,0,.08-.08.15-.16.23-.24.16-.17.32-.33.47-.5,0,0,0,0,0,0-.03-2.37,1.52-4.14,2.21-6.25.09-.28.17-.56.25-.84.56-1.97.94-4.01,1.95-5.82-.03-.39-.06-.78-.05-1.16,0,0,0,0,0,0,0-.19.03-.38.08-.57.04-.19.11-.38.2-.56.23-1.7-.08-3.46.44-5.14-.11-.68-.22-1.35-.32-2.03-.29-2.03-.49-4.08-.45-6.15-.59.04-1.08-.07-1.4-.5-.11-.14-.19-.32-.26-.55-.41-1.42-1-2.81-1.25-4.27-1.02-5.99-2.31-11.94-2.04-18.09-.24-1.86-.49-3.72-.73-5.58-.82-6.39-2.6-12.43-6.22-17.75-2.02-2.97-3.94-6-5.52-9.26-1.33-2.76-2.73-5.36-5.71-6.75-1.55-.72-2.98-1.46-4.73-1.55-3.12-.16-6.23-.56-9.35-.72-6.06-.31-11.98-1.7-17.5-4.05-7.73-3.29-14.38-8.5-20.26-14.75-6.07-6.45-12.39-12.64-18.82-18.7-2.09-1.97-4.12-2.64-6.88-1.85-3.84,1.09-7.69,1.72-11.8,1.8-8.16.17-15.76,2.89-22.07,8.78-3.9,3.64-6.55,8.01-8.53,12.87,19.11,41.7,43.79,80.32,73.08,114.91.53.09,1.06.17,1.59.26,1.63.28,3.08-.43,4.64-.4.69.01,1.52-.22,1.9.64.3.69-.2,1.21-.63,1.61-1.04.99-2.05,2.02-3.05,3.07,8.65,9.93,17.68,19.53,27.08,28.75.31-.31.62-.63.92-.96.04-1.25.74-2.12,1.62-2.79Zm-19.61-122.23c-4.53.48-9.09.72-13.57,1.71-8.62,1.91-16.16,6.24-23.3,11.41-3.05,2.21-5.92,4.7-8.9,7.02-1.84,1.43-2.52,1.23-3.54-.9-1.11-2.31-.85-4.62,1.02-6.33,4.93-4.49,10.49-7.82,16.7-10.09,7.77-2.84,15.48-5.83,23.9-5.66,2.65-.09,5.27.2,7.86.71.6.12,1.15.52,1.14,1.23-.02.85-.74.83-1.32.89Z"/><path class="uuid-1b81fbab-f25d-4380-b2b6-a545b359753f" d="m59.92,636.57c2.39-1.47,4.72-3,6.81-4.9.84-.76,1.7-1.44,2.59-2.05-1.74-3.57-4.46-6.81-8.56-9.82-8.3-6.1-7.74-9.07,3.11-17.27-.97-.77-1.95-1.53-2.99-2.22-1.39-.93-2.7-2.19-3.65-3.59-.46-.68-.97-1.31-1.5-1.92-5.36-2.36-7.88-4.34-8.13-7.55-.79-.76-1.56-1.54-2.26-2.4-6.21-7.63-15.09-11.95-21.23-19.56-1.3-1.61-2.75-3.1-4.12-4.64,0,0,0,0,0,0h0c.34,1.71.75,3.4,1.01,5.12,1.06,6.98.3,13.65-3.28,19.8-.49.83-.95,1.77-2.12,1.75-.61-.65-.1-1.12.22-1.62,4.69-7.25,5.47-15.04,2.66-23.16-.39-1.13-.86-2.28-1.53-3.29-.67-1.01-1.54-1.87-2.74-2.43.02.43.01.86-.01,1.28-.05.87-.19,1.72-.46,2.56-.13.41-.29.83-.49,1.24-2.33,4.93-4.8,9.77-7.44,14.5.81,5.27,1.7,10.51,2.67,15.72,1.06-.49,2.23-1.06,3.58-1.72.7.91-.03,1.34-.6,1.73-.88.61-1.77,1.16-2.68,1.64,5.18,27.31,12.59,53.83,22.02,79.38,1.85-3.8,3.74-7.57,5.54-11.39,5.23-11.07,13.56-18.99,23.57-25.18Zm2.75-15.24c-.54,2.21-1.37,4.24-3.08,5.71.42-2.31,1.15-4.4,3.08-5.71Z"/><path class="uuid-bc8bb0ed-0a53-4f33-af44-80a0ca7ac377" d="m188.69,811.58c.85.14.95,1.19,1.09,2.01.75.4,1.31.89,1.7,1.47.17.26.32.53.42.84.13.4.2.84.2,1.32,0,.24-.01.49-.05.76-.24,2.04.34,4,1.51,5.65,1.51,2.15,2.64,4.35,3.14,6.57.13.61.25,1.23.47,1.8.28.72.74,1.31,1.53,1.42.97.13,1.62-.45,1.96-1.3.46-1.15.99-2.32,1.14-3.53.44-3.47.73-6.97-.26-10.4-.28-.97-.52-1.84-.05-2.87.19-.42.36-.85.51-1.28.88-2.58.98-5.29.97-8.01,0-.45,0-.91-.01-1.36h0c-.05-.47-.1-.95-.15-1.42-.02,0-.03-.01-.05-.01l.04-.04s-.04.04-.04.04c0-.04,0-.08,0-.12-1.02-1.78-2.23-3.37-4.71-4.42,4.03-2.01,4.57-5.35,4.68-8.91.02-.7-.07-1.6,1.03-1.54.58.03,1.33-.04,1.68.29.55.51.56,1.6.1,2.05-3.57,3.57-2.79,8.13-2.79,12.52.01.03.03.05.04.07,0,.02,0,.04,0,.06h0s0,0,0,0c.53.12.65.48.69.9.01.14.02.29.02.44.48.34.85.72,1.09,1.17.02.03.03.07.04.1.09.2.17.42.21.65.05.27.06.57.03.9-.33,3.47,1.04,6.9.21,10.41-.29,1.22.13,2.48.5,3.69.31.99.72,1.92,1.82,2.1,1.3.22,1.98-.72,2.5-1.74,1.19-2.32,1.35-4.86.75-7.32-.43-1.77-.34-3.37-.14-5.13.32-2.78.89-5.66-1.37-8.17-1.16-1.29-.58-2.99,1.01-4.34.67-.57,1.27-1.18,1.56-2.02,1.31-3.76,1.63-7.57.26-11.39-.43-1.21-1.06-2.36-2.56-2.18-2.11.26-2.4-1.05-2.32-2.74.06-1.41-.28-2.75-.74-4.04-.75-2.1-1.19-2.29-3.44-1.43-.28.11-.47.13-.59.1-.37-.1-.18-.7-.34-1,0,0,0,0,0,0-.86-1.41-.77-3.13-1.29-4.65-.07-.22-.16-.43-.26-.64-.45-.89-.92-1.85-2.07-1.75-1.02.09-1.22,1.05-1.46,1.89-.17.59-.43,1.19-.46,1.8-.13,2.47-.13,4.7-2.88,6.12-.43.22-.75.55-.99.95-.7,1.19-.65,3-.72,4.5-.07.83.49,2.04-.64,2.24-.16.03-.36.04-.6.02-.7,1.53-1.39,3.07-2.09,4.6-.08.56-.16,1.13-.24,1.69-.04,2.07.16,4.11.45,6.15.1.68.21,1.36.32,2.03.94.39,1.87.79,3.13,1.32-.29.36-.57.7-.84,1.04-.82,1.01-1.58,1.95-2.33,2.88h0s0,0,0,0h0c.1.63.11,1.23-.2,1.74-.1.17-.25.32-.43.46-1.01,1.81-1.38,3.85-1.95,5.82-.08.28-.16.56-.25.84-.68,2.11-2.23,3.88-2.21,6.25,0,0,0,0,0,0,.01-.01.02-.02.03-.03-.01.01-.02.02-.03.03,0,0,0,0,0,0,1.02-.51,1.45-1.52,1.92-2.49.49-1.01,1.03-1.92,2.27-1.96.14-.53,0-1.55.53-1.46Zm6.76-21.91c.58.07.7.54.72,1.07-.1.72-.53,1.04-1.2,1.06-.57.02-.88-.29-.86-.87.02-.89.48-1.35,1.35-1.26Z"/><path class="uuid-1b81fbab-f25d-4380-b2b6-a545b359753f" d="m188.52,787.27c.7-1.53,1.39-3.07,2.09-4.6.2-.88.31-1.81,1.23-2.27.07-1.5.02-3.31.72-4.5.23-.4.55-.72.99-.95,2.75-1.41,2.76-3.65,2.88-6.12.03-.61.29-1.2.46-1.8.24-.83.44-1.8,1.46-1.89,1.15-.1,1.62.86,2.07,1.75.1.21.19.42.26.64.52,1.52.42,3.24,1.29,4.65,0,0,0,0,0,0,.29-.44.58-.87.88-1.31-.02-.67.19-1.19.86-1.42,0,0,.01-.01.02-.03l.02-.03c-.14-.68.02-1.19.72-1.4,0,0,.06-.09.06-.09-.38-1.56.38-2.75,1.16-3.93h0c.16-.88.52-1.68.91-2.47.64-1.32,1.36-2.61,1.41-4.16.1-.4.35-.63.73-.71,0,0,.03-.07.03-.07-.25-.9-.05-1.69.51-2.4.01-.24.02-.48.02-.71-.13-.5-.1-.94.17-1.29.09-.12.21-.22.36-.32h0s0,0,0,0c0,0,0,0,0,0,.17-.23.35-.47.52-.7h0s0,0,0,0c-.15-.49-.28-.97-.34-1.46-.06-.49-.04-.99.12-1.5,0-.36-.03-.72-.07-1.08-.09-1.03-.26-2.05-.45-3.06-.08-.46-.17-.91-.24-1.37-.33-2.03-1.35-2.59-3.19-2.59-7.61,0-14.85-2-21.96-4.65-1.23-.46-2.45-.98-3.81-.86-.19.19-.38.37-.57.56h0s0,0,0,0c.24.64.48,1.28.72,1.92,1.64,4.49,2.99,9.07,3.33,13.9.34,4.85.42,9.71.62,14.56.53,4.67.76,9.38,1.54,14.02.46,2.72,1.28,5.28,2.48,7.72Z"/><path class="uuid-94bbbed9-8bc1-444e-bdf3-24932cf66b64" d="m188.28,788.97c.08-.56.16-1.13.24-1.69-1.2-2.44-2.02-5-2.48-7.72-.79-4.65-1.02-9.35-1.54-14.02-.39.01-.78.02-1.17.03h0c-.27,6.14,1.02,12.1,2.04,18.09.25,1.45.84,2.84,1.25,4.27.06.22.15.4.26.55.32.43.81.54,1.4.5Z"/><path class="uuid-8653978a-8ec5-48a6-b6a7-920d9a1c2e76" d="m197.42,846.66c-.3-.49-.59-.98-.9-1.46.09.68.21,1.34.35,1.99.18-.18.37-.35.55-.53Z"/><path class="uuid-8653978a-8ec5-48a6-b6a7-920d9a1c2e76" d="m190.06,823.2c-.46,2.76.28,5.32,1.13,7.87.11-.69.14-1.36.11-2.03-.08-2-.68-3.92-1.25-5.84Z"/><path class="uuid-8653978a-8ec5-48a6-b6a7-920d9a1c2e76" d="m204.52,767.93c.72-.84,1.37-1.71,1.38-2.79,0-.36-.06-.74-.22-1.15-.78,1.18-1.54,2.38-1.16,3.93Z"/><path class="uuid-8653978a-8ec5-48a6-b6a7-920d9a1c2e76" d="m189.08,815.03c0-.57.01-1.13.7-1.44-.14-.82-.24-1.87-1.09-2.01-.54-.09-.39.93-.53,1.46.14.62.13,1.29.27,1.92.06.25.15.49.28.72.07.11.15.22.24.33.13-.29.12-.64.12-.98Z"/><path class="uuid-94bbbed9-8bc1-444e-bdf3-24932cf66b64" d="m210,749.7c.06.49.19.98.34,1.46h0c.08-.13.16-.26.21-.39.12-.26.18-.51.2-.76.02-.23,0-.45-.06-.67-.02-.09-.05-.18-.09-.27-.02-.05-.03-.11-.06-.16-.11-.24-.25-.48-.42-.71h0c-.16.51-.18,1.01-.12,1.5Z"/><path class="uuid-a2eebeea-9ad4-4f0b-8d8f-1333e00217f8" d="m189.97,821.07c.04-.74-.08-1.46-.5-2.14-.3,1.04-.15,2.01.41,2.91.04-.25.08-.51.09-.76,0,0,0-.01,0-.02Z"/><path class="uuid-8653978a-8ec5-48a6-b6a7-920d9a1c2e76" d="m208.76,756.59c.17-.17.3-.35.41-.54.32-.56.36-1.18.1-1.87-.56.71-.76,1.5-.51,2.4Z"/><path class="uuid-94bbbed9-8bc1-444e-bdf3-24932cf66b64" d="m203.48,804.14c-.04-.42-.16-.78-.69-.9h0c.05.47.1.95.15,1.42h0s.29.01.29.01c0,0,.02,0,.06-.02.08-.03.22-.07.22-.07,0-.15,0-.3-.02-.44Z"/><path class="uuid-94bbbed9-8bc1-444e-bdf3-24932cf66b64" d="m202.79,803.18l-.04.04s.03.01.05.01c0-.02,0-.04,0-.06Z"/><path class="uuid-8653978a-8ec5-48a6-b6a7-920d9a1c2e76" d="m195.8,843.54c-.14.72,0,1.3.7,1.63,0-.16-.01-.32-.04-.47-.08-.45-.27-.85-.66-1.16Z"/><path class="uuid-8653978a-8ec5-48a6-b6a7-920d9a1c2e76" d="m202.85,770.9c.15-.07.28-.15.39-.24.32-.28.47-.68.47-1.18-.67.22-.88.74-.86,1.42Z"/><path class="uuid-8653978a-8ec5-48a6-b6a7-920d9a1c2e76" d="m203.75,769.42c.14-.07.26-.16.35-.26.12-.13.2-.28.26-.44.08-.21.11-.45.1-.71-.7.21-.85.73-.72,1.4Z"/><path class="uuid-1b81fbab-f25d-4380-b2b6-a545b359753f" d="m180.41,734.59c-.14-.53-.51-.89-.93-.51-.46.42.13.74.36,1.07h0c.19-.19.38-.37.57-.56Z"/><path class="uuid-8653978a-8ec5-48a6-b6a7-920d9a1c2e76" d="m209.82,751.87c-.15.09-.27.2-.36.32-.28.35-.3.79-.17,1.29.21-.22.35-.47.44-.74.09-.27.11-.56.1-.86h0Z"/><path class="uuid-8653978a-8ec5-48a6-b6a7-920d9a1c2e76" d="m208,757.37c.2-.03.38-.09.51-.2.08-.07.13-.16.17-.28.02-.07.05-.14.05-.24-.38.08-.64.31-.73.71Z"/><path class="uuid-8653978a-8ec5-48a6-b6a7-920d9a1c2e76" d="m195.2,841.95c-.1.48.05.86.4,1.16.05-.46-.07-.85-.4-1.16Z"/><path class="uuid-d1056f1a-a166-4cbc-907a-107449b7b62f" d="m49.32,376.26c-.18,1.61-1.81,2.62-3.17,3.42-4.73,2.77-9.77,4.8-14.89,6.6-1.85.65-3.82.21-5.73.42-2.42.26-2.9,1.27-1.67,3.48,1.35,2.43,3.67,3.66,6.03,4.5,2.56.92,4,2.1,3.93,5.26-.06,2.54,1.83,3.93,4.37,3.9,1.07,0,2.13-.28,3.19-.46,2.31-.39,4.36-.92,6.73.81.46.34.94.57,1.45.71-.38-15.68.04-31.25,3.07-46.2-.94,1.51-1.88,3.03-2.77,4.57,1.44,4.39-.04,8.68-.53,12.97Z"/><path class="uuid-d1056f1a-a166-4cbc-907a-107449b7b62f" d="m49.17,293.31c.16,1.79.39,3.59.73,5.38.79,4.12,1.99,8.2,2,12.47.32.07.6.18.85.31.74.41,1.14,1.1,1.14,2.16,1.41,4.53,3.16,8.93,4.95,13.3.6,1.46,1.21,2.91,1.81,4.37.21.51.39,1.02.55,1.53,2.1-4.34,4.56-8.59,7.43-12.73,9.16-13.25,19.6-24.11,31.17-32.83-1.38-6.58-2.84-13.13-4.94-19.52-2.56-7.78-5.09-15.59-7.91-23.27-1.84-5-3.83-9.96-6.47-14.6-.09-.16-.19-.33-.3-.49-.11-.18-.23-.36-.34-.54-11.44,17.68-21.79,36.13-30.96,55.26-.02,3.07.02,6.13.29,9.2Z"/><path class="uuid-a2eebeea-9ad4-4f0b-8d8f-1333e00217f8" d="m143.36,170.31c9.37-6.07,19.75-8.12,30.59-8.44,2.04-.06,4.08.38,6.1-.07-1.09-2.22-2.67-4.02-4.48-5.62-1.25-1.11-2.59-2.15-3.16-3.86h0c-.68-.03-1.19-.34-1.63-.75-.45-.4-.84-.9-1.3-1.27-1.23-1.01-2.34-2.18-3.64-3.07-2.23-1.53-4.57-1.36-6.8.04-1.78,1.12-1.99,2-1.22,4.06.33.88,1.21,1.62.7,2.77-1.27.03-1.55-1.09-1.91-1.89-1.59-3.56-4.21-4.82-7.89-4.45-4.83.49-6.32,3.09-4.18,7.59.46.96,1.42,1.87.6,3.71-1.02-1.81-1.83-3.17-2.57-4.57-.47-.9-1.02-1.71-1.64-2.42-7.78,8.03-15.3,16.32-22.53,24.85,7.13-3.55,14.62-5.65,22.61-5.79.87-.02,1.63-.36,2.36-.82Z"/><path class="uuid-b0d9f07a-ab84-443e-bb36-7932e8774ffd" d="m182.84,157.09c2.46-.58,3.45-2.17,3.88-4.28.42-2.03.88-4.24-.48-6.15-1.22-1.71-2.26-3.52-3.22-5.4-1.08-2.1-2.06-2.3-4.08-1.08-1.95,1.18-3.35,2.69-4.34,4.43-.34.59-.63,1.22-.88,1.86-.14.35-.26.71-.38,1.07-.24.78-.44,1.58-.59,2.42-.14.77-.25,1.55-.33,2.36.57,1.72,1.91,2.76,3.16,3.86,1.81,1.6,3.39,3.4,4.48,5.62.53.31,1.09.32,1.65.31.19,0,.38-.01.57-.01-2.51-3.32-2.51-4.28.56-5.01Z"/><path class="uuid-3199674a-9b17-4db9-a51d-766d5146225e" d="m152.67,140.35c-1.64,1.58-3.27,3.18-4.89,4.79,1.84-1.2,3.47-2.8,4.89-4.79Z"/><path class="uuid-a2eebeea-9ad4-4f0b-8d8f-1333e00217f8" d="m489.26,99.32c-1.08,1.6-1.03,2.87-.13,4.45,1.69,2.95,4.12,5.21,6.39,7.62,1.31,1.39,2.83,2.18,4.67,2.62,3.76.92,7.51,1.66,10.83,1.36,1.53,0,2.5.06,3.46-.01,4.67-.34,9.34-.58,13.35-3.66,3.54-2.71,6.13-6.32,8.88-9.79.95-1.19.28-2.04-.82-2.69-4.09-2.42-7.65-5.58-11.3-8.65-3.37-2.84-7.04-4.74-11.64-3.19-1.44.49-3.08.18-4.63-.25-2.66-.75-5.14-.32-7.66.97-4.94,2.54-8.31,6.65-11.39,11.21Zm32.9,2c-7.6,1.81-14.54,1.68-22.27.45,5.22-2.79,15.92-2.95,22.27-.45Z"/><path class="uuid-cde86619-eda1-4eab-b140-acbd3901bad4" d="m529.4,23.41c5.15-2.8,10.56-4.87,16.32-5.68,9.08-1.27,16.59,1.48,21.77,9.78.26.41.47.88,1.34.93.62-1.26.04-2.3-.47-3.26-2.02-3.77-4.62-7.04-8.2-9.29-8.72-5.47-23.31-4.68-31.55,1.62-1.09.83-2.04,1.75-2.41,3.16-.31,1.16-.22,2.31.62,3.15.93.94,1.78.02,2.59-.42Z"/><path class="uuid-cde86619-eda1-4eab-b140-acbd3901bad4" d="m463.2,29.84h0c.29-.01.48-.14.63-.33.14-.18.24-.41.36-.63,4.36-8.29,10.03-11.22,19-10.05,3.61.47,7.02,1.6,10.47,2.68,1.49.47,2.98,1.01,4.5,1.31,1.89.36,2.68-.57,2.28-2.56-.47-2.32-2.09-3.58-4.05-4.41-3.79-1.61-7.68-2.88-11.79-3.24-.33.16-.6.07-.83-.2-5.77-.41-12.12,2.81-16.22,7.28-.86.94-1.62,1.94-2.26,2.96-.32.51-.6,1.04-.86,1.56-.88,1.85-1.33,3.76-1.22,5.62Z"/><path class="uuid-4ccdae4a-92d5-4640-ac79-5e1a13295f02" d="m538.79,137c-.13.08-.26.16-.4.23-.28.14-.58.27-.88.41-.29.14-.58.29-.83.49-.37.3-.67.7-.78,1.31.35.03.77.21,1.04.08,4.65-2.31,9.21-4.77,12.57-9.04-.78.23-1.67.06-2.35.7-2.52,2.37-5.55,3.94-8.38,5.82Z"/><path class="uuid-221cdeb2-3311-4ebc-ac68-985663543b2b" d="m521.3,76.13c.23-1.12-.6-1.61-1.4-1.83-2.16-.59-4.17-.2-6.67,1.52,2.57.84,4.42,1.29,6.35,1.3.71,0,1.53-.07,1.72-.99Z"/><path class="uuid-cde86619-eda1-4eab-b140-acbd3901bad4" d="m499.28,75.26c-.04.58.42.89.92.88,1.17,0,2.33.5,3.79-.04-.85-1.74-2.17-2.07-3.76-1.8-.49.08-.92.44-.95.96Z"/><path class="uuid-9a8527d6-f394-4b38-8d28-58b5728cb043" d="m460.8,16.02c.1-2.06-.18-4.13-.27-6.2-.99,3.18-.56,6.54-1.12,9.77.22.08.44.12.67.14.46-1.23.66-2.46.72-3.71Z"/><path class="uuid-e5c77e15-a540-40f3-ae09-bafd988d26ce" d="m572.59,114.62c-.18.01-.36.03-.54.04,0,0,0,0,0,0h0c.02.31.03.62.03.93,0,.62-.05,1.25-.08,1.87-.02.31-.03.62-.04.94-.04,1.25.05,2.49.6,3.69.01-2.49.03-4.98.04-7.48Z"/><path class="uuid-cde86619-eda1-4eab-b140-acbd3901bad4" d="m459.64,25.68c.16-.49.24-.98.29-1.47s.05-.99.05-1.49c0-.25,0-.5,0-.75,0-.75,0-1.5.11-2.24-.23-.01-.45-.06-.67-.14-.03.51-.08,1.02-.12,1.53-.12,1.53-.17,3.06.35,4.56Z"/><path class="uuid-a2eebeea-9ad4-4f0b-8d8f-1333e00217f8" d="m573.29,109.35c-.2.25-.33.5-.43.76-.28.78-.16,1.61.02,2.45.65-1,.58-2.1.4-3.21Z"/><path class="uuid-cde86619-eda1-4eab-b140-acbd3901bad4" d="m459.65,41.01c-.46.64-.45,1.27.04,1.9.05-.16.09-.32.12-.48.08-.48.04-.95-.15-1.42Z"/><path class="uuid-b73fe841-d707-45d9-b51d-cf8187ca5fd5" d="m459.67,47.76c-.05.27-.1.54-.15.81"/><path class="uuid-cde86619-eda1-4eab-b140-acbd3901bad4" d="m580.28,43.99c-.03.09-.1.19-.08.27.06.17.16.32.24.49-.05-.25-.11-.5-.17-.75Z"/><path class="uuid-cde86619-eda1-4eab-b140-acbd3901bad4" d="m580.42,40.41l-.16-.21c-.05.08-.08.16-.07.23,0,.07.04.15.11.22,0,0,0,0,0,0,0,0,.12-.23.12-.23Z"/><path class="uuid-9a8527d6-f394-4b38-8d28-58b5728cb043" d="m484.58,12.61c-.06-.07-.12-.12-.18-.16-.19-.12-.4-.14-.64-.04.23.27.5.36.83.2Z"/><path class="uuid-bc8bb0ed-0a53-4f33-af44-80a0ca7ac377" d="m684.66,79.33c-.76-.59-.71-1.48-.78-2.32-.53-.97-1.09-1.92-1.58-2.9-.61-1.23-1.35-2.34-2.32-3.29-2.33-2.28-3.99-1.84-4.98,1.27-.58,1.83-.49,3.68-.39,5.54.17,3.1-.47,3.66-3.3,2.75-.6-.19-1.15-.49-1.7-.8-.92-.51-1.83-1.05-2.9-1.16-.69,5.58-2.12,11-3.27,16.48-.76,3.61-1.5,7.21-2.02,10.86,9.37-2.13,19.04-3.36,29-3.7-.62-3.01-1.52-5.96-2.33-8.93-1.25-4.57-2.86-9.04-3.45-13.79Z"/><path class="uuid-bc8bb0ed-0a53-4f33-af44-80a0ca7ac377" d="m754.29,77.21c-4.35,2.2-8.33,4.9-11.91,8.31-2.76,2.64-2.85,3.45.26,5.58,7.52,5.14,15.96,7.2,24.78,7.81,2.57.09,5.06-.11,7.43-1.2,1.49-.68,2.56-1.69,3.16-3.36,1.09-3.03.67-7.09-.92-10.6-3.92-2.62-7.88-5.18-11.88-7.69-.28-.05-.55-.09-.82-.17-3.56-1.04-6.85-.33-10.1,1.31Zm18.58,14.05c.08.06.23.14.22.18-.01.06-.03.1-.05.12-.06.07-.15,0-.24-.22h0c-1.22.09-2.35-.31-3.51-.65-5.3-1.55-10.57-3.23-16.21-1.79-1.31.34-2.82.32-4.6-.42,2.29-2.35,4.8-3.61,7.6-3.91,2.61-.27,5.3-.29,7.9.05,4.01.53,7.14,2.68,8.91,6.64Z"/><path class="uuid-4ccdae4a-92d5-4640-ac79-5e1a13295f02" d="m693.68,93.37c-1.7-5.22-4.09-10.12-6.48-15.02-.28-.56-.57-1.07-.92-1.41-.58-.57-1.32-.7-2.4.07.06.85.01,1.73.78,2.32,1.22-.11,1.67.83,2.06,1.74.84,1.93,1.68,3.87,2.44,5.85,1.93,5.01,3.78,10.04,5.72,15.04.52,0,1.04,0,1.56,0,0-.02-.02-.05-.02-.07-.89-2.85-1.8-5.69-2.73-8.53Z"/><path class="uuid-4ccdae4a-92d5-4640-ac79-5e1a13295f02" d="m796.75,99.61c.52-.34.81-.8,1-1.31-.24-.18-.49-.36-.73-.54-.1.61-.19,1.22-.29,1.83,0,0,0,0,.01-.01,0,.01,0,.03,0,.04Z"/><path class="uuid-4ccdae4a-92d5-4640-ac79-5e1a13295f02" d="m796.1,100.58c-.15.62-.06,1.31-.16,1.95.63-.87,1.02-1.8.8-2.92,0-.01,0-.03,0-.04,0,0,0,0-.01.01h0c-.36.29-.54.63-.63,1Z"/><path class="uuid-3199674a-9b17-4db9-a51d-766d5146225e" d="m7.69,526.13c.25-.69.64-1.32,1.02-1.96.63-1.06,1.25-2.12,1.18-3.48-.89-2.85-1.83-5.69-2.67-8.56-1.8-6.15-1.1-12.17,1.3-17.96,1.19-2.88,2.38-5.74,3.11-8.8.7-2.93,1.71-5.75,3.57-8.15.6-.77,1.24-1.56,1.18-2.67.24-.6.38-1.21.47-1.83.26-1.86.02-3.78.35-5.63.6-6.24,3.51-10.73,7.98-14.02,1.03-.76,2.15-1.46,3.33-2.1.86-.6,1.28-1.5,1.45-2.5,1.12-6.5,4.99-11.24,9.36-15.58.17-.17.34-.34.5-.51.33-.34.66-.69,1-1.03,0,0,0,0,0,0,.86-.85,1.79-1.63,2.98-2.04.17-.19.34-.36.52-.53.9-.83,1.92-1.41,3.04-1.81.45-.16.91-.3,1.38-.41.57-.25,1.14-.48,1.72-.69-.38-6.02-.69-12.04-.87-18.07-.03-.96-.05-1.91-.08-2.87-.5-.15-.99-.38-1.45-.71-2.37-1.74-4.42-1.21-6.73-.81-1.06.18-2.13.45-3.19.46-2.54.02-4.43-1.37-4.37-3.9.07-3.16-1.37-4.35-3.93-5.26-2.36-.85-4.68-2.07-6.03-4.5-1.23-2.22-.75-3.23,1.67-3.48,1.91-.2,3.88.23,5.73-.42,5.12-1.8,10.17-3.83,14.89-6.6,1.36-.8,2.99-1.8,3.17-3.42.49-4.29,1.98-8.58.53-12.97-1.2.28-2.29.85-3.09,1.8-1.75,2.08-3.93,3.65-5.98,5.34-4.94,4.06-10.3,7.17-16.76,7.89-3.06.34-6.08.25-9.09-.07C5.19,417.22,0,458.01,0,500c0,15.89.74,31.61,2.19,47.12.21-.32.34-.76.39-1.24.66-6.88,2.76-13.34,5.11-19.75Z"/><path class="uuid-8653978a-8ec5-48a6-b6a7-920d9a1c2e76" d="m34.32,347.97c.72-.84,1.58-1.54,2.35-2.33,1.44-1.49,1.41-2.09-.5-2.89-2.9-1.21-5.89-2.2-8.6-3.84-.29-.17-.58-.33-.87-.47-1.77,5.18-3.45,10.4-5.05,15.66,4.88-.41,9.25-2.1,12.68-6.13Z"/><path class="uuid-8653978a-8ec5-48a6-b6a7-920d9a1c2e76" d="m58.3,338.36c.05-1.12-.08-2.21-.3-3.3-.08-.36-.16-.72-.26-1.09-1.47-5.61-2.83-11.24-4.21-16.87-.29-1.19-.69-2.42.36-3.47,0-1.05-.4-1.75-1.14-2.16-.25-.14-.53-.24-.85-.31-.25,1.87-.14,3.69.34,5.53,1.11,4.31,2.06,8.67,3.19,12.97.2.74.37,1.49.55,2.24.54,2.25,1.1,4.5,2.2,6.56h0s.12-.1.12-.1Z"/><path class="uuid-8653978a-8ec5-48a6-b6a7-920d9a1c2e76" d="m58.3,338.36s-.12.1-.12.1h0c0,.39.01.78.04,1.17.11-.29.23-.57.34-.86-.08-.14-.17-.27-.26-.41Z"/><path class="uuid-85965f16-79d8-43d9-adb2-90676a13c1d4" d="m569.23,160.43c-.29-.19-.58-.38-.87-.57"/><path class="uuid-85965f16-79d8-43d9-adb2-90676a13c1d4" d="m558.83,160.42c.29-.19.58-.38.88-.57"/><path class="uuid-9a8527d6-f394-4b38-8d28-58b5728cb043" d="m435.76,101.46c.06.19.12.38.19.57.1-.1.2-.21.3-.31-.16-.09-.32-.17-.48-.26Z"/><path class="uuid-b0d9f07a-ab84-443e-bb36-7932e8774ffd" d="m5.92,552c3.9-.46,6.18,2,8.28,4.82h0c1.19.56,2.07,1.43,2.74,2.43.67,1.01,1.14,2.16,1.53,3.29,2.82,8.12,2.03,15.91-2.66,23.16-.32.49-.83.96-.22,1.62,1.17.02,1.63-.92,2.12-1.75,3.59-6.15,4.34-12.82,3.28-19.8-.26-1.72-.67-3.41-1.01-5.12h0s-.05-.07-.05-.07c-.11-.09-.21-.19-.29-.29-.05-.07-.09-.15-.14-.22-.09-.15-.16-.32-.2-.49-.03-.13-.05-.27-.06-.41l-.05-.08c-.22-.23-.44-.46-.66-.7l-.04-.05c-.18-.14-.31-.31-.41-.5-.09-.16-.17-.34-.21-.53-.03-.13-.04-.28-.05-.42l-.05-.06c-.36-.02-.67-.11-.96-.23-.43-.19-.78-.48-1.1-.83s-.58-.76-.83-1.19c-.2-.14-.42-.25-.6-.42-1.31-1.25-3.2-2.28-3.74-3.82-.54-1.54,1.5-2.93,2.13-4.55,2.12-5.46,3.6-11.12,5.15-16.77.13-.47.34-.92.52-1.38.15-2.34.44-4.67-.41-6.98-.53-1.44-1.31-2.3-2.86-2.27-1.15.02-2.21.16-2.72,1.08-.17.31-.28.7-.32,1.21.18.01.35-.02.53-.07.17-.06.35-.14.52-.23.34-.19.68-.43,1.02-.62.17-.09.34-.17.51-.22.51-.14,1.04-.03,1.58.73,1.35,1.85,1.32,3.93.15,5.94.29,2.6-.84,4.91-1.48,7.3-1.24,4.57-2.45,9.18-4.62,13.41-1.2,2.34-1.93,2.66-3.97,2-2-.65-2.54-1.42-2.09-4.04,1.19-6.92,3.04-13.64,5.97-20,.09-.2.2-.39.33-.57.37-.53.86-.95,1.39-1.32.05-.76.1-1.52.15-2.28-.71,0-1.42,0-2.13,0,.06,1.36-.55,2.42-1.18,3.48-.38.63-.77,1.27-1.02,1.96-2.35,6.41-4.46,12.87-5.11,19.75-.05.48-.18.92-.39,1.24.09.97.19,1.94.29,2.91.62.31,1.23.7,1.84,1.22.45.38,1.1.81,1.61.75Z"/><path class="uuid-b0d9f07a-ab84-443e-bb36-7932e8774ffd" d="m12.06,590.4c-1.35.66-2.52,1.23-3.58,1.72.1.55.2,1.09.3,1.64.91-.48,1.8-1.02,2.68-1.64.56-.39,1.3-.81.6-1.73Z"/><path class="uuid-4ccdae4a-92d5-4640-ac79-5e1a13295f02" d="m162.6,843.2c-3.39,3.33-6.43,7.06-10.23,9.94-.88.66-1.58,1.54-1.62,2.79.55-.21,1.2-.28,1.65-.64,4.64-3.73,9.15-7.62,13.12-12.14.07-.08.14-.16.21-.25.14-.16.28-.33.39-.5.3-.43.49-.91.43-1.53-1.73.01-2.82,1.21-3.95,2.32Z"/><path class="uuid-bc8bb0ed-0a53-4f33-af44-80a0ca7ac377" d="m181.8,821.27s0-.02,0-.03c-2.22.83-2.81,3.21-4.14,4.87-2.66,3.29-5.07,6.8-7.58,10.22.56-.18,1.26-.19,1.65-.56,3.78-3.6,6.95-7.68,9.19-12.45.32-.67.61-1.35.89-2.05,0,0,0,0,0,0Z"/><path class="uuid-bc8bb0ed-0a53-4f33-af44-80a0ca7ac377" d="m183.24,818.25s.02-.02.03-.03c0,0,0-.01,0-.02-.5.38-.69.92-.75,1.53,0,0,.01-.02.02-.02,0,0,0,.02,0,.02h0c.36-.29.56-.65.66-1.08.03-.14.05-.29.06-.44,0,0-.02.02-.03.03Z"/><path class="uuid-bc8bb0ed-0a53-4f33-af44-80a0ca7ac377" d="m182.55,819.72s-.01.01-.02.02c-.5.36-.7.88-.72,1.49,0,.01,0,.02,0,.03,0,0,0,0,0,0h0c.37-.29.57-.66.67-1.09.03-.14.05-.28.07-.43,0,0,0-.02,0-.02Z"/><path class="uuid-bc8bb0ed-0a53-4f33-af44-80a0ca7ac377" d="m166.77,840.75c.47-.41.59-.95.6-1.55-.44.42-.67.92-.6,1.55Z"/><path class="uuid-ecfb3b3c-a734-4922-bf47-9ab905039ae6" d="m183.97,817.49s.02-.02.03-.03"/><path class="uuid-ecfb3b3c-a734-4922-bf47-9ab905039ae6" d="m183.24,818.25s.02-.02.03-.03"/><path class="uuid-ecfb3b3c-a734-4922-bf47-9ab905039ae6" d="m183.97,817.49c-.16.17-.32.33-.47.5"/><path class="uuid-ecfb3b3c-a734-4922-bf47-9ab905039ae6" d="m183.27,818.23s0,0,0,0"/><path class="uuid-ecfb3b3c-a734-4922-bf47-9ab905039ae6" d="m183.27,818.23c.08-.08.15-.16.23-.24"/><path class="uuid-b0d9f07a-ab84-443e-bb36-7932e8774ffd" d="m365.21,251.95c.48-4.99.66-10-.51-14.97-1.15-4.85-1.4-5-4.93-1.72-3.57,3.31-7.47,5.94-12.33,6.55-1.15.14-1.56,1-2.22,1.7-3.01,3.19-6.03,3.7-9.8,1.57-1.66-.94-3.2-2.1-5.01-3.3-1.08,2.37-2.5,4.2-4.28,5.73-1.38,1.19-3.09,1.35-4.72,1.71-1.45.32-1.39-1.5-2.26-2.07-.3-.2-.57-.46-.88-.65-1.61-.97-2.54-.55-2.66,1.35-.08,1.24.02,2.51.18,3.74.47,3.6.21,3.89-3.36,3.26-1.3-.23-2.6-.51-3.86-.91-1.07-.34-1.98-.49-3.06.16-5.51,3.32-10.52.95-13.78-2.45-3.22-3.36-5.33-7.39-6.89-11.8-.42-1.19-.48-2.61-1.74-3.7-1.82,4.64-3.7,8.96-3.86,13.84-.14,4.3,1.23,7.65,5.3,9.25,1.65.65,1.6,1.73.87,2.94-1.32,2.2-3.22,3.7-5.61,4.49-.78.26-1.74.19-2.6.29,12.33,2.13,24.66,4.36,37.01,6.34,17.23,2.74,34.47,4.95,51.79,5.8-.35-5.8-.72-11.6-.89-17.42-.1-3.26-.24-6.46.07-9.73Zm-17.49,2.8c-5.7.57-10.78,2.59-14.69,7.07-3.87,4.44-9.06,6.98-13.53,10.55-1.18.94-2.01.3-2.62-.84-.76-1.44-.81-2.93.15-4.25.72-.99,1.57-1.91,2.5-2.68,5.51-4.54,11.53-8.14,18.24-10.41,3.61-1.22,7.31-1.37,11.05-1.07.55.04,1.24-.04,1.42.89-.6,1.05-1.65.65-2.51.74Z"/><path class="uuid-b0d9f07a-ab84-443e-bb36-7932e8774ffd" d="m525.33,197c-6.57,1.43-12.87,3.93-18.67,7.53-3.64,2.26-6.64,5.31-8.4,9.46.03.65-.11,1.23-.68,1.6-.02.62-.2,1.15-.72,1.5h0c-.02.62-.21,1.15-.72,1.51,0,0,0,0,0,0-.03.61-.21,1.14-.72,1.5-.03.61-.16,1.17-.71,1.51-.59,2.25-1.21,4.5-1.8,6.75-1,3.76-1.94,7.53-2.61,11.37,2.28-.51,4.52-.63,6.7-.25,3.86-3.28,7.64-6.74,11.32-10.39,9.92-9.84,19.64-19.91,29.29-30.04-3.73-2.3-7.94-3-12.26-2.06Z"/><path class="uuid-b0d9f07a-ab84-443e-bb36-7932e8774ffd" d="m488.38,244.29c-.14.75-.21,1.51-.25,2.26,1.59-1.19,3.17-2.41,4.74-3.67-1.28-.1-2.6.04-4.01.57-.16.28-.32.56-.47.83Z"/><path class="uuid-94bbbed9-8bc1-444e-bdf3-24932cf66b64" d="m490.27,239.74c-.26.55-.77.71-1.26.9-.47.58-.7,1.22-.69,1.91,0,.23.03.47.09.72.16.02.31.09.44.19,1.41-.53,2.73-.67,4.01-.57,1.38-1.11,2.75-2.24,4.11-3.4-2.18-.38-4.43-.25-6.7.25Z"/><path class="uuid-d1056f1a-a166-4cbc-907a-107449b7b62f" d="m490.27,239.74c.67-3.84,1.62-7.61,2.61-11.37.6-2.25,1.21-4.5,1.8-6.75,0,0,0,0,0,0,0,0,0,0,0,0h0c-1.07.49-1.56,1.5-1.91,2.54-.45,1.34-.87,2.68-1.27,4.04-1.19,4.06-2.11,8.18-2.49,12.44.5-.18,1.01-.35,1.26-.9Z"/><path class="uuid-e5c77e15-a540-40f3-ae09-bafd988d26ce" d="m470.23,242.82c-.1.15-.09.39-.11.6.15-.14.37-.26.41-.43.06-.28-.15-.39-.3-.17Z"/><path class="uuid-e5c77e15-a540-40f3-ae09-bafd988d26ce" d="m470.12,243.47s0-.03,0-.05c0,0-.02.02-.03.03,0,0,.03.02.03.02Z"/><path class="uuid-d1056f1a-a166-4cbc-907a-107449b7b62f" d="m494.68,221.63s0,0,0,0c.55-.34.68-.9.71-1.51,0,0,0,0,0,0,0,0,0,0,0,0-.13.09-.24.19-.33.3-.27.33-.37.75-.38,1.22,0,0,0,0,0,0Z"/><path class="uuid-d1056f1a-a166-4cbc-907a-107449b7b62f" d="m495.4,220.11c.51-.36.69-.89.72-1.5-.55.34-.7.89-.72,1.5,0,0,0,0,0,0,0,0,0,0,0,0Z"/><path class="uuid-d1056f1a-a166-4cbc-907a-107449b7b62f" d="m496.84,217.1c-.41.25-.61.62-.68,1.05-.02.14-.04.29-.04.45.51-.36.7-.89.72-1.5Z"/><path class="uuid-d1056f1a-a166-4cbc-907a-107449b7b62f" d="m497.57,215.59s0,0,0,0c0,0,0,0,0,0h0c-.55.34-.71.88-.72,1.5.52-.35.71-.88.72-1.5Z"/><path class="uuid-d1056f1a-a166-4cbc-907a-107449b7b62f" d="m497.57,215.59s0,0,0,0c.58-.37.71-.95.68-1.6-.12.11-.22.22-.3.34-.17.24-.28.51-.34.8-.03.15-.04.3-.04.46,0,0,0,0,0,0Z"/><path class="uuid-e5c77e15-a540-40f3-ae09-bafd988d26ce" d="m488.38,244.29c.16-.28.31-.56.47-.83h0c-.13-.1-.28-.17-.44-.19-.01.34-.02.68-.03,1.02Z"/><path class="uuid-bc8bb0ed-0a53-4f33-af44-80a0ca7ac377" d="m155.07,241.92h0c.66-.13,1.22-.4,1.7-.79.47-.38.86-.88,1.19-1.45h0l-.02.02s.01-.04.02-.06c-1.31.27-2.44.79-2.89,2.26,0,0,.02,0,.02,0,0,0,0,.01-.01.02Z"/><path class="uuid-bc8bb0ed-0a53-4f33-af44-80a0ca7ac377" d="m155.07,241.92s0-.01.01-.02c0,0-.02,0-.02,0-1.14-.17-1.65.64-2.13,1.5.74-.06,1.35-.32,1.78-.86.14-.17.26-.38.36-.61Z"/><path class="uuid-8653978a-8ec5-48a6-b6a7-920d9a1c2e76" d="m158.71,238.91h0c.13-.01.25-.03.37-.06.4-.1.76-.3,1.05-.66-.63-.07-1.13.14-1.46.73.01,0,.02,0,.04,0,0,0,0,0,.01,0,0,0,0,0,0,0Z"/><path class="uuid-bc8bb0ed-0a53-4f33-af44-80a0ca7ac377" d="m157.96,239.68s0,0,0,0c.25-.26.5-.52.75-.77,0,0,0,0,0,0,0,0,0,0-.01,0-.39.1-.68.3-.75.74,0,.02-.01.04-.02.06l.02-.02Z"/><path class="uuid-221cdeb2-3311-4ebc-ac68-985663543b2b" d="m49.16,429.04c-.11.34-.32.66-.64.99-.31.33-.73.66-1.26,1.02-.05.16-.11.32-.18.45-.14.27-.32.46-.61.48-.12,0-.26-.02-.42-.09.18.89-.56,1.25-1.01,1.73-2.35,2.48-4.71,4.95-7.11,7.37-2.31,2.33-4.04,5.13-5.76,8.09-.97-.78-.48-1.44-.29-2.05,1.09-3.38,2.95-6.27,5.32-8.8,2.4-2.56,5.08-4.78,8.1-6.54-1.08-.41-1.1-1.52-1.47-2.41-1.19.41-2.12,1.18-2.98,2.04,0,0,0,0,0,0-.34.34-.67.69-1,1.03-.17.17-.33.35-.5.51-4.37,4.35-8.24,9.08-9.36,15.58-.17,1.01-.59,1.91-1.45,2.5.06,1.02.3,2.11-.92,2.64-3.54,4.36-6.31,9.21-8.42,14.48-.25.99-.64,1.35-1.3.29-.25-.41-.45-.86-.67-1.29-.33,1.85-.09,3.77-.35,5.63-.09.62-.23,1.23-.47,1.83,1.37.35,2.18-.78,3.18-1.34,2.09-1.17,4.22-1.67,6.57-1.07,4.71,1.19,6.6,4.41,5.06,9.21-.52,1.61-.33,2.01,1.19,2.61,1.83.73,3.75.56,5.58,1.14,1.1.35,2.01-.67,2.8-1.43,1.23-1.19,2.38-2.47,3.57-3.7.36-.37.72-.74,1.1-1.09-4.37-2.52-8.21-5.11-8.17-5.68,5.39-1.22,10.77-2.46,16.49-3.79-1.01-14.54-2.34-29.05-3.25-43.56-.58.21-1.16.44-1.72.69.47,1.05.62,1.81.39,2.5Z"/><path class="uuid-bc8bb0ed-0a53-4f33-af44-80a0ca7ac377" d="m125.8,825.08c.43-.41.93-.93.63-1.61-.38-.86-1.21-.63-1.9-.64-1.55-.02-3,.69-4.64.4-.53-.09-1.06-.18-1.59-.26,1.47,1.74,2.96,3.47,4.45,5.18,1-1.04,2.01-2.07,3.05-3.07Z"/><path class="uuid-cde86619-eda1-4eab-b140-acbd3901bad4" d="m132.94,728.79c-2.6-.51-5.22-.8-7.86-.71-8.42-.17-16.12,2.81-23.9,5.66-6.21,2.27-11.78,5.6-16.7,10.09-1.87,1.71-2.13,4.02-1.02,6.33,1.03,2.13,1.7,2.34,3.54.9,2.98-2.32,5.85-4.81,8.9-7.02,7.14-5.17,14.68-9.5,23.3-11.41,4.47-.99,9.03-1.24,13.57-1.71.58-.06,1.3-.04,1.32-.89.02-.72-.53-1.12-1.14-1.23Z"/><path class="uuid-cde86619-eda1-4eab-b140-acbd3901bad4" d="m188.92,802.3s.09.09.09.09h0c.76-.93,1.51-1.87,2.33-2.88.27-.34.55-.68.84-1.04-1.26-.53-2.2-.93-3.13-1.32-.53,1.68-.21,3.43-.44,5.14l.23-.07s.04.04.09.09Z"/><path class="uuid-a2eebeea-9ad4-4f0b-8d8f-1333e00217f8" d="m188.8,804.13c.31-.5.3-1.1.2-1.74h0s-.04-.04-.09-.09c-.04-.04-.09-.09-.09-.09l-.23.07c-.09.18-.16.37-.2.56-.04.19-.07.38-.08.57,0,0,0,0,0,0-.02.38.02.77.05,1.16.19-.14.33-.3.43-.46Z"/><path class="uuid-4ccdae4a-92d5-4640-ac79-5e1a13295f02" d="m60.88,600.31c1.03.69,2.02,1.45,2.99,2.22.81-.62,1.68-1.26,2.61-1.94-.21-.63-.29-1.68-.66-1.83-4.1-1.54-7.44-2.8-10.09-3.97.53.61,1.04,1.24,1.5,1.92.95,1.4,2.26,2.66,3.65,3.59Z"/><path class="uuid-4ccdae4a-92d5-4640-ac79-5e1a13295f02" d="m44.33,479.97c-1.19,1.23-2.34,2.51-3.57,3.7-.78.76-1.7,1.78-2.8,1.43-1.83-.58-3.74-.41-5.58-1.14-1.52-.6-1.71-1-1.19-2.61,1.55-4.8-.35-8.02-5.06-9.21-2.36-.6-4.49-.1-6.57,1.07-1,.56-1.81,1.7-3.18,1.34.06,1.11-.58,1.9-1.18,2.67-1.86,2.41-2.87,5.22-3.57,8.15-.74,3.06-1.92,5.91-3.11,8.8-2.39,5.79-3.1,11.81-1.3,17.96.84,2.87,1.78,5.71,2.67,8.56.71,0,1.42,0,2.13,0l.02-.02h0c.04-.51.15-.9.32-1.21.52-.92,1.57-1.05,2.72-1.08,1.55-.03,2.33.82,2.86,2.27.85,2.31.56,4.64.41,6.98,1.31.05,1.55.76,1.29,2-.78,3.76-1.4,7.56-2.23,11.3-.24,1.07-.44,2.14-.61,3.21-.49,3.22-.64,6.45-.35,9.73.48.49.66,1.12.86,1.75.05.15.09.31.15.46.09.26.19.51.33.74,0,0,.05.06.05.06.5.34.65.87.67,1.45,0,0,.04.05.04.05.22.23.44.46.66.7,0,0,.05.08.05.08.5.33.66.84.68,1.42,0,0,.05.07.05.07,1.38,1.54,2.82,3.03,4.12,4.64,6.13,7.61,15.01,11.93,21.23,19.56.69.85,1.46,1.64,2.26,2.4-.29-3.7,2.44-9.03,7.32-18.45,3.86-7.51-.03-10.59-5.79-12.64-5.88-2.08-12.21-2.96-17.88-5.49-10.71-4.76-12.38-17-4.45-25.74,11.07-12.22,21.53-24.78,26.53-41.97-2.3-1-5.2-2.53-7.9-4.09-.37.36-.74.72-1.1,1.09Z"/><path class="uuid-3199674a-9b17-4db9-a51d-766d5146225e" d="m13.74,560.66c.26-.84.41-1.69.46-2.56.02-.42.03-.85.01-1.28-2.11-2.82-4.38-5.28-8.28-4.82-.51.06-1.16-.37-1.61-.75-.6-.52-1.22-.91-1.84-1.22.88,8.86,1.99,17.65,3.33,26.37,2.64-4.74,5.11-9.57,7.44-14.5.19-.41.35-.82.49-1.24Z"/><path class="uuid-3199674a-9b17-4db9-a51d-766d5146225e" d="m62.66,621.33c-1.94,1.31-2.66,3.4-3.08,5.71,1.72-1.47,2.54-3.5,3.08-5.71Z"/><path class="uuid-cde86619-eda1-4eab-b140-acbd3901bad4" d="m205.54,790.59c.45-.45.44-1.54-.1-2.05-.36-.34-1.11-.26-1.68-.29-1.09-.06-1,.84-1.03,1.54-.12,3.56-.65,6.9-4.68,8.91,2.48,1.04,3.69,2.64,4.71,4.42,0-4.39-.77-8.95,2.79-12.52Z"/><path class="uuid-cde86619-eda1-4eab-b140-acbd3901bad4" d="m202.74,803.23s.04-.04.04-.04c-.01-.03-.03-.05-.04-.07,0,.04,0,.08,0,.12Z"/><path class="uuid-94bbbed9-8bc1-444e-bdf3-24932cf66b64" d="m194.97,791.8c.67-.02,1.1-.34,1.2-1.06-.02-.52-.14-1-.72-1.07-.87-.1-1.32.37-1.35,1.26-.01.58.3.89.86.87Z"/><path class="uuid-9a8527d6-f394-4b38-8d28-58b5728cb043" d="m190.62,782.68c.24.02.43,0,.6-.02,1.13-.21.57-1.41.64-2.24-.92.45-1.04,1.38-1.23,2.27Z"/><path class="uuid-3199674a-9b17-4db9-a51d-766d5146225e" d="m58.84,326.94c-1.8-4.37-3.54-8.77-4.95-13.3-1.05,1.05-.65,2.28-.36,3.47,1.38,5.63,2.75,11.26,4.21,16.87.1.36.18.73.26,1.09.23,1.09.36,2.17.3,3.3.1.13.18.27.26.41.81-1.99,1.68-3.97,2.63-5.93-.16-.51-.34-1.02-.55-1.53-.6-1.46-1.21-2.91-1.81-4.37Z"/><path class="uuid-8653978a-8ec5-48a6-b6a7-920d9a1c2e76" d="m522.16,101.32c-6.35-2.5-17.05-2.34-22.27.45,7.73,1.23,14.67,1.36,22.27-.45Z"/><path class="uuid-1b81fbab-f25d-4380-b2b6-a545b359753f" d="m756.07,84.57c-2.8.29-5.3,1.56-7.6,3.91,1.78.74,3.29.76,4.6.42,5.64-1.44,10.91.24,16.21,1.79,1.16.34,2.29.73,3.51.65h0s0,0,0,0c0,0,.08-.08.08-.08-1.77-3.96-4.9-6.1-8.91-6.64-2.6-.34-5.29-.32-7.9-.05Z"/><path class="uuid-1b81fbab-f25d-4380-b2b6-a545b359753f" d="m772.8,91.34s0,0,0,0c.09.22.18.29.24.22.02-.02.04-.06.05-.12,0-.04-.14-.12-.22-.18,0,0-.08.08-.08.08Z"/><path class="uuid-cde86619-eda1-4eab-b140-acbd3901bad4" d="m17.21,467.09c.22.43.42.88.67,1.29.66,1.07,1.05.7,1.3-.29-1.1-.69-.77-1.78-.56-2.69,1.13-4.83,3.97-8.47,7.6-11.51.32-.27.91-.2,1.37-.28,1.23-.53.99-1.62.92-2.64-1.19.64-2.3,1.34-3.33,2.1-4.47,3.29-7.38,7.77-7.98,14.02Z"/><path class="uuid-a2eebeea-9ad4-4f0b-8d8f-1333e00217f8" d="m45.3,431.7c.24.04.49.08.73.12.41-.26.82-.52,1.23-.77.53-.36.94-.69,1.26-1.02.31-.33.52-.65.64-.99.23-.68.08-1.45-.39-2.5-.47.11-.93.25-1.38.41-1.12.4-2.14.98-3.04,1.81-.18.17-.35.34-.52.53,0,0,0,0,0,0,.37.88.39,2,1.47,2.41Z"/><path class="uuid-3199674a-9b17-4db9-a51d-766d5146225e" d="m10.49,524.29c-.12.18-.23.36-.33.57-2.93,6.36-4.78,13.09-5.97,20-.45,2.62.09,3.39,2.09,4.04,2.04.67,2.77.34,3.97-2,2.17-4.23,3.37-8.83,4.62-13.41.65-2.39,1.77-4.69,1.48-7.3-1.84-.55-2.84-2.36-4.47-3.23-.53.37-1.02.79-1.39,1.32Z"/><path class="uuid-3199674a-9b17-4db9-a51d-766d5146225e" d="m16.8,544.14c.16-1.07.37-2.14.61-3.21.84-3.74,1.46-7.54,2.23-11.3.26-1.23.02-1.95-1.29-2-.18.46-.39.91-.52,1.38-1.55,5.65-3.03,11.31-5.15,16.77-.63,1.62-2.67,3.01-2.13,4.55.54,1.54,2.43,2.58,3.74,3.82.17.17.4.28.6.42.6-.05,1.13-.25,1.56-.7-.29-3.28-.14-6.51.35-9.73Z"/><path class="uuid-4ccdae4a-92d5-4640-ac79-5e1a13295f02" d="m12.03,520.69c-.05.76-.1,1.52-.15,2.28,1.63.87,2.63,2.69,4.47,3.23,1.17-2.02,1.2-4.09-.15-5.94-.55-.75-1.07-.87-1.58-.73-.17.05-.34.12-.51.22-.34.18-.68.43-1.02.62-.17.1-.34.18-.52.23-.17.06-.35.09-.53.07l-.02.02Z"/><path class="uuid-1b81fbab-f25d-4380-b2b6-a545b359753f" d="m17.45,556.08c-.05-.15-.1-.31-.15-.46-.19-.63-.38-1.26-.86-1.75-.43.45-.96.65-1.56.7.25.43.52.84.83,1.19.31.35.67.64,1.1.83.29.13.6.21.96.23,0,0,0,0,0,0-.14-.23-.24-.48-.33-.74Z"/><path class="uuid-1b81fbab-f25d-4380-b2b6-a545b359753f" d="m19.27,559.15c0,.14.03.28.06.41.04.18.11.34.2.49.04.08.08.15.14.22.08.11.18.2.29.29,0,0,0,0,0,0-.02-.58-.18-1.09-.68-1.42Z"/><path class="uuid-1b81fbab-f25d-4380-b2b6-a545b359753f" d="m17.83,556.88c0,.15.02.29.05.42.04.19.11.37.21.53.1.18.23.35.41.5-.03-.58-.17-1.11-.67-1.45Z"/><path class="uuid-efbca6c8-bf16-4efe-b554-7a940c2bb444" d="m18.55,558.38c.22.23.44.46.66.7"/><path class="uuid-9a8527d6-f394-4b38-8d28-58b5728cb043" d="m348.81,253.12c-3.74-.3-7.44-.15-11.05,1.07-6.71,2.27-12.73,5.87-18.24,10.41-.93.77-1.78,1.69-2.5,2.68-.96,1.32-.91,2.81-.15,4.25.6,1.14,1.44,1.77,2.62.84,4.48-3.56,9.66-6.11,13.53-10.55,3.91-4.49,9-6.5,14.69-7.07.86-.09,1.92.31,2.51-.74-.18-.92-.87-.85-1.42-.89Z"/><path class="uuid-3199674a-9b17-4db9-a51d-766d5146225e" d="m45.98,431.85s.04-.02.06-.04c-.24-.04-.49-.08-.73-.12-3.01,1.75-5.69,3.97-8.1,6.54-2.37,2.52-4.23,5.42-5.32,8.8-.2.61-.69,1.27.29,2.05,1.72-2.96,3.45-5.76,5.76-8.09,2.4-2.42,4.76-4.89,7.11-7.37.46-.48,1.19-.84,1.01-1.73h0s-.05-.02-.09-.03Z"/><path class="uuid-3199674a-9b17-4db9-a51d-766d5146225e" d="m18.62,465.41c-.21.91-.54,2,.56,2.69,2.11-5.26,4.88-10.12,8.42-14.48-.46.09-1.05.01-1.37.28-3.64,3.03-6.48,6.68-7.6,11.51Z"/><path class="uuid-3199674a-9b17-4db9-a51d-766d5146225e" d="m46.04,431.82s-.04.02-.06.04c.03.01.06.02.09.03.16.06.3.09.42.09.28-.02.47-.21.61-.48.07-.13.13-.29.18-.45-.41.26-.82.52-1.23.77Z"/><rect class="uuid-c2b64991-fbdc-47c5-9a34-f54a42dc309d" x="259.08" y="115.69" width="251.13" height="64.29" rx="27.1" ry="27.1"/><path class="uuid-60684382-8cf6-4346-a9d7-e16a8190d349" d="m272.69,160.63l2.15-7.73h-5.38l1.21-4.21h5.24l1.97-6.67h-5.38l1.21-4.25h5.24l1.7-6.4h1.17l-1.75,6.4h7.71l1.7-6.4h1.17l-1.75,6.4h5.74l-1.17,4.25h-5.65l-1.88,6.67h5.65l-1.12,4.21h-5.56l-2.2,7.73h-1.12l2.2-7.73h-7.8l-2.2,7.73h-1.12Zm6.32-18.61l-1.97,6.67h7.8l1.88-6.67h-7.71Z"/><path class="uuid-60684382-8cf6-4346-a9d7-e16a8190d349" d="m312.84,128.63c7.48,0,11.97,1.69,11.97,6.99,0,3.75-2.91,7.36-9.99,8.18l-.04.09c5.96.37,9.01,2.51,9.01,6.31,0,8.23-8.29,10.42-16.13,10.42h-12.01l.22-.87h2.38l4.93-30.26h-2.69l.13-.87h12.23Zm-6.41,31.13h.94c4.17,0,7.31-3.84,7.31-9.65,0-3.98-1.39-5.67-4.8-5.67h-.9l-2.55,15.31Zm2.73-16.18h.13c3.67,0,6.86-2.33,6.86-8.96,0-3.34-1.48-5.12-4.44-5.12h-.36l-2.2,14.08Z"/><path class="uuid-60684382-8cf6-4346-a9d7-e16a8190d349" d="m346.94,143.58c0,4.48-4.79,5.81-8.96,6.4-1.43.18-2.55.23-3.5.23-.63,6.45.63,9.23,3.76,9.23,2.2,0,4.62-1.6,6.18-6.58l.9.27c-1.66,5.62-4.93,7.95-10.31,7.95-5.69,0-9.05-3.11-9.05-8.5,0-9.37,5.56-14.17,13.49-14.17,5.06,0,7.48,1.78,7.48,5.17Zm-7.89-4.3c-2.42,0-3.81,4.53-4.48,10.06,3.05-.14,5.83-1.65,5.83-7.27,0-1.69-.27-2.79-1.34-2.79Z"/><path class="uuid-60684382-8cf6-4346-a9d7-e16a8190d349" d="m361.82,157.11c-2.06,2.97-3.59,3.98-6.54,3.98-4.12,0-6.18-1.83-6.18-5.76,0-1.69.18-3.15,1.48-9.74l3.58-18.42h-3.18l.13-.82h11.47l-5.2,28.44c-.22,1.19-.49,2.38-.49,3.15,0,.82.27,1.28,1.12,1.28.72,0,1.7-.59,3.09-2.65l.72.55Z"/><path class="uuid-60684382-8cf6-4346-a9d7-e16a8190d349" d="m377.15,157.06c-1.61,2.56-3.27,4.02-6.59,4.02s-5.74-1.46-5.74-5.3c0-1.05.31-2.97.58-4.43l2.29-11.66h-3.54l.13-.82h11.88c-1.79,8.87-2.55,12.85-3.14,16.05-.18,1.14-.45,2.33-.45,3.2,0,.82.45,1.1.94,1.1.81,0,1.75-.82,2.96-2.65l.67.5Zm-9.55-24.91c0-3.11,2.69-4.94,5.83-4.94,2.55,0,4.12,1.19,4.12,3.47,0,3.11-2.73,4.89-5.78,4.89-3.27,0-4.17-1.87-4.17-3.43Z"/><path class="uuid-60684382-8cf6-4346-a9d7-e16a8190d349" d="m399.91,143.58c0,4.48-4.79,5.81-8.96,6.4-1.43.18-2.55.23-3.5.23-.63,6.45.63,9.23,3.76,9.23,2.2,0,4.62-1.6,6.18-6.58l.9.27c-1.66,5.62-4.93,7.95-10.31,7.95-5.69,0-9.05-3.11-9.05-8.5,0-9.37,5.56-14.17,13.49-14.17,5.06,0,7.48,1.78,7.48,5.17Zm-7.89-4.3c-2.42,0-3.81,4.53-4.48,10.06,3.05-.14,5.83-1.65,5.83-7.27,0-1.69-.27-2.79-1.34-2.79Z"/><path class="uuid-60684382-8cf6-4346-a9d7-e16a8190d349" d="m418.64,145.08c-1.57-.46-2.69-1.65-2.69-3.34,0-2.38,1.7-3.34,3.63-3.34,3.36,0,4.17,3.34,4.17,5.85,0,6.45-3.18,16.82-13.98,16.82-3.85,0-7.53-2.1-6.63-7.77.63-3.89,1.43-7.27,2.2-10.97.27-1.37.27-1.97-.36-1.97-.76,0-1.79.73-3.41,2.83l-.63-.5c2.6-3.75,5.06-4.3,7.44-4.3,3.54,0,5.51,1.6,5.51,4.8,0,.59-.09,1.28-.22,2.01-.63,3.06-1.25,5.85-2.02,10.1-.13.87-.27,1.6-.27,2.24,0,1.19.45,1.92,1.88,1.92,4.12,0,8.92-6.72,8.92-11.93,0-2.83-.99-4.39-2.29-4.3l-1.25,1.83Z"/><path class="uuid-60684382-8cf6-4346-a9d7-e16a8190d349" d="m446.73,143.58c0,4.48-4.79,5.81-8.96,6.4-1.43.18-2.55.23-3.5.23-.63,6.45.63,9.23,3.76,9.23,2.2,0,4.62-1.6,6.18-6.58l.9.27c-1.66,5.62-4.93,7.95-10.31,7.95-5.69,0-9.05-3.11-9.05-8.5,0-9.37,5.56-14.17,13.49-14.17,5.06,0,7.48,1.78,7.48,5.17Zm-7.89-4.3c-2.42,0-3.81,4.53-4.48,10.06,3.05-.14,5.83-1.65,5.83-7.27,0-1.69-.27-2.79-1.34-2.79Z"/><path class="uuid-60684382-8cf6-4346-a9d7-e16a8190d349" d="m471.74,150.89l3.45-21.4h-3l.09-.87h6.68l-.13.87h-2.42l-3.41,20.8c-1.17,7.09-4.17,10.79-11.88,10.79-6.32,0-10.94-2.24-10.94-8.5,0-.96.13-2.56.4-4.07l3.23-19.02h-2.73l.13-.87h13.76l-.09.87h-2.91l-3.5,21.58c-.13.82-.31,2.06-.31,3.06,0,3.34,1.39,5.49,5.33,5.49,3.27,0,7.13-1.87,8.25-8.73Z"/><path class="uuid-60684382-8cf6-4346-a9d7-e16a8190d349" d="m488.72,156.47c0-2.51-2.02-3.11-5.02-4.25-2.55-.96-5.33-2.47-5.33-6.26,0-5.03,4.75-7.54,10.94-7.54,3.63,0,8.02.59,8.02,4.57,0,2.06-1.39,3.43-3.72,3.43-1.57,0-3.05-.82-3.05-2.19,0-.78.18-1.51.67-2.15h1.43c.18-.41.27-.78.27-1.1,0-1.05-.99-1.6-3-1.6-3.36,0-4.75,1.46-4.75,3.06,0,2.24,1.57,2.88,4.53,4.07,3,1.19,6.32,2.38,6.32,6.22,0,5.58-5.06,8.37-11.74,8.37-5.02,0-8.38-1.6-8.38-4.98,0-2.51,1.61-3.79,3.85-3.79,1.93,0,2.96,1.23,2.96,2.83,0,.59-.13,1.23-.4,1.87h-1.79c-.13.32-.18.59-.18.87,0,1.19,1.08,2.19,3.58,2.19,3.9,0,4.8-2.1,4.8-3.61Z"/></svg>