<?xml version="1.0" encoding="UTF-8"?>
<svg data-name="BelieveUs-9" xmlns="http://www.w3.org/2000/svg" xmlns:xlink="http://www.w3.org/1999/xlink" viewBox="0 0 1000 1000"><defs><style>.uuid-c320c9fd-bae3-4db4-b3e8-53d1fdc7f6eb{fill:url(#uuid-d465bc4c-c9cf-496d-8659-1e1631b0d7d9);}.uuid-4a302e8c-1424-4c5e-810c-65037da5697b{fill:#fff;}.uuid-3cc6f4e8-99c0-425f-818b-334ee90e50b2{fill:url(#uuid-a21647fc-9c2b-45e2-b1c6-79fd7ea46b12);}</style><linearGradient id="uuid-a21647fc-9c2b-45e2-b1c6-79fd7ea46b12" x1="0" y1="435.2" x2="810.58" y2="435.2" gradientUnits="userSpaceOnUse"><stop offset="0" stop-color="#a325c1"/><stop offset=".47" stop-color="#9414af"/><stop offset=".48" stop-color="#9414af"/><stop offset=".68" stop-color="#b31bce"/><stop offset=".69" stop-color="#b61cd1"/><stop offset=".85" stop-color="#c23bdc"/><stop offset="1" stop-color="#d05de8"/></linearGradient><linearGradient id="uuid-d465bc4c-c9cf-496d-8659-1e1631b0d7d9" x1="232.59" y1="164.54" x2="523.39" y2="164.54" xlink:href="#uuid-a21647fc-9c2b-45e2-b1c6-79fd7ea46b12"/></defs><path class="uuid-3cc6f4e8-99c0-425f-818b-334ee90e50b2" d="m229.31,783.94c6.04-33.21,1.88-64.81-16.57-93.57-4.54-7.09-8.44-14.64-12.39-22.1-8.46-15.95-8.13-15.26-24.91-8.47-18.46,7.49-37.39,13.75-56.34,19.88-5.44,1.77-11.58,1.82-17.39,1.67-20.31-.57-31.39-12.33-29.89-33.39.84-11.98-.94-20.74-11.06-28.17-8.93-6.56-7.61-9.49,5.72-19.21-.21-.63-.29-1.68-.66-1.83-21.98-8.27-22.09-8.34-10.89-29.96,3.86-7.51-.03-10.59-5.79-12.64-5.88-2.08-12.21-2.96-17.88-5.49-10.71-4.76-12.38-17-4.45-25.74,11.07-12.22,21.53-24.78,26.53-41.97-6.01-2.62-16.14-8.85-16.07-9.77,5.39-1.22,10.77-2.46,16.49-3.79-1.43-20.57-3.51-41.08-4.12-61.63-.92-30.82.77-61.34,19-87.68,25.87-37.41,61.81-55.83,105.13-60.38,47.7-5.04,93.91,6.13,140.47,13.57,32.05,5.1,64.13,8.38,96.7,4.48,38.02-4.57,70.12-21.67,97.37-48.67,26.6-26.37,51.67-54.39,78.21-80.8,35.29-35.13,77.58-50.11,126.34-45.54,25.63,2.41,51.33,3.86,77.02,5.74,7.44.55,14.27.4,20.72-.36C725.27,40.44,617.36,0,500,0,223.86,0,0,223.86,0,500c0,146.86,63.32,278.94,164.15,370.41,34.08-17.5,57.6-44.83,65.16-86.47Z"/><rect class="uuid-c320c9fd-bae3-4db4-b3e8-53d1fdc7f6eb" x="232.59" y="127.32" width="290.79" height="74.44" rx="29.11" ry="29.11"/><path class="uuid-4a302e8c-1424-4c5e-810c-65037da5697b" d="m248.35,179.36l2.49-8.95h-6.23l1.4-4.87h6.07l2.28-7.73h-6.23l1.4-4.92h6.07l1.97-7.41h1.35l-2.02,7.41h8.92l1.97-7.41h1.35l-2.02,7.41h6.64l-1.35,4.92h-6.54l-2.18,7.73h6.54l-1.3,4.87h-6.43l-2.54,8.95h-1.3l2.54-8.95h-9.03l-2.54,8.95h-1.3Zm7.31-21.54l-2.28,7.73h9.03l2.18-7.73h-8.92Z"/><path class="uuid-4a302e8c-1424-4c5e-810c-65037da5697b" d="m294.84,142.3c8.66,0,13.85,1.96,13.85,8.1,0,4.34-3.37,8.52-11.57,9.47l-.05.11c6.9.42,10.43,2.91,10.43,7.3,0,9.53-9.6,12.07-18.68,12.07h-13.9l.26-1.01h2.75l5.71-35.04h-3.11l.16-1.01h14.16Zm-7.42,36.05h1.09c4.83,0,8.46-4.45,8.46-11.17,0-4.61-1.61-6.56-5.55-6.56h-1.04l-2.96,17.73Zm3.16-18.74h.16c4.25,0,7.94-2.7,7.94-10.37,0-3.86-1.71-5.93-5.14-5.93h-.42l-2.54,16.3Z"/><path class="uuid-4a302e8c-1424-4c5e-810c-65037da5697b" d="m334.32,159.61c0,5.19-5.55,6.72-10.38,7.41-1.66.21-2.96.26-4.05.26-.73,7.46.73,10.69,4.36,10.69,2.54,0,5.34-1.85,7.16-7.62l1.04.32c-1.92,6.51-5.71,9.21-11.93,9.21-6.59,0-10.48-3.6-10.48-9.85,0-10.85,6.43-16.41,15.62-16.41,5.86,0,8.66,2.06,8.66,5.98Zm-9.13-4.98c-2.8,0-4.41,5.24-5.19,11.65,3.53-.16,6.74-1.91,6.74-8.42,0-1.96-.31-3.23-1.56-3.23Z"/><path class="uuid-4a302e8c-1424-4c5e-810c-65037da5697b" d="m351.55,175.28c-2.39,3.44-4.15,4.6-7.57,4.6-4.77,0-7.16-2.12-7.16-6.67,0-1.96.21-3.65,1.71-11.27l4.15-21.33h-3.68l.16-.95h13.28l-6.02,32.92c-.26,1.38-.57,2.75-.57,3.65,0,.95.31,1.48,1.3,1.48.83,0,1.97-.69,3.58-3.07l.83.64Z"/><path class="uuid-4a302e8c-1424-4c5e-810c-65037da5697b" d="m369.3,175.23c-1.87,2.96-3.79,4.66-7.63,4.66s-6.64-1.69-6.64-6.14c0-1.22.36-3.44.67-5.13l2.65-13.5h-4.1l.16-.95h13.75c-2.08,10.27-2.96,14.87-3.63,18.58-.21,1.32-.52,2.7-.52,3.71,0,.95.52,1.27,1.09,1.27.93,0,2.02-.95,3.42-3.07l.78.58Zm-11.05-28.85c0-3.6,3.11-5.72,6.74-5.72,2.96,0,4.77,1.38,4.77,4.02,0,3.6-3.17,5.66-6.69,5.66-3.79,0-4.83-2.17-4.83-3.97Z"/><path class="uuid-4a302e8c-1424-4c5e-810c-65037da5697b" d="m395.65,159.61c0,5.19-5.55,6.72-10.38,7.41-1.66.21-2.96.26-4.05.26-.73,7.46.73,10.69,4.36,10.69,2.54,0,5.34-1.85,7.16-7.62l1.04.32c-1.92,6.51-5.71,9.21-11.93,9.21-6.59,0-10.48-3.6-10.48-9.85,0-10.85,6.43-16.41,15.62-16.41,5.86,0,8.66,2.06,8.66,5.98Zm-9.13-4.98c-2.8,0-4.41,5.24-5.19,11.65,3.53-.16,6.74-1.91,6.74-8.42,0-1.96-.31-3.23-1.56-3.23Z"/><path class="uuid-4a302e8c-1424-4c5e-810c-65037da5697b" d="m417.34,161.36c-1.82-.53-3.11-1.91-3.11-3.86,0-2.75,1.97-3.86,4.2-3.86,3.89,0,4.82,3.86,4.82,6.78,0,7.46-3.68,19.48-16.19,19.48-4.46,0-8.72-2.44-7.68-9,.73-4.5,1.66-8.42,2.54-12.7.31-1.59.31-2.28-.42-2.28-.88,0-2.08.85-3.94,3.28l-.73-.58c3.01-4.34,5.86-4.98,8.61-4.98,4.1,0,6.38,1.85,6.38,5.56,0,.69-.1,1.48-.26,2.33-.73,3.55-1.45,6.78-2.33,11.7-.16,1.01-.31,1.85-.31,2.59,0,1.38.52,2.22,2.18,2.22,4.77,0,10.32-7.78,10.32-13.82,0-3.28-1.14-5.08-2.65-4.98l-1.45,2.12Z"/><path class="uuid-4a302e8c-1424-4c5e-810c-65037da5697b" d="m449.87,159.61c0,5.19-5.55,6.72-10.38,7.41-1.66.21-2.96.26-4.05.26-.73,7.46.73,10.69,4.36,10.69,2.54,0,5.34-1.85,7.16-7.62l1.04.32c-1.92,6.51-5.71,9.21-11.93,9.21-6.59,0-10.48-3.6-10.48-9.85,0-10.85,6.43-16.41,15.62-16.41,5.86,0,8.66,2.06,8.66,5.98Zm-9.13-4.98c-2.8,0-4.41,5.24-5.19,11.65,3.53-.16,6.74-1.91,6.74-8.42,0-1.96-.31-3.23-1.56-3.23Z"/><path class="uuid-4a302e8c-1424-4c5e-810c-65037da5697b" d="m478.83,168.08l3.99-24.77h-3.48l.1-1.01h7.73l-.16,1.01h-2.8l-3.94,24.08c-1.35,8.2-4.82,12.49-13.75,12.49-7.31,0-12.66-2.59-12.66-9.85,0-1.11.16-2.96.47-4.71l3.74-22.02h-3.16l.16-1.01h15.93l-.1,1.01h-3.37l-4.05,24.98c-.16.95-.36,2.38-.36,3.55,0,3.86,1.61,6.35,6.17,6.35,3.79,0,8.25-2.17,9.55-10.11Z"/><path class="uuid-4a302e8c-1424-4c5e-810c-65037da5697b" d="m498.49,174.54c0-2.91-2.33-3.6-5.81-4.92-2.96-1.11-6.17-2.86-6.17-7.25,0-5.82,5.5-8.73,12.66-8.73,4.2,0,9.29.69,9.29,5.29,0,2.38-1.61,3.97-4.31,3.97-1.82,0-3.53-.95-3.53-2.54,0-.9.21-1.75.78-2.49h1.66c.21-.48.31-.9.31-1.27,0-1.22-1.14-1.85-3.48-1.85-3.89,0-5.5,1.69-5.5,3.55,0,2.59,1.82,3.33,5.24,4.71,3.48,1.38,7.31,2.75,7.31,7.2,0,6.46-5.86,9.69-13.59,9.69-5.81,0-9.7-1.85-9.7-5.77,0-2.91,1.87-4.39,4.46-4.39,2.23,0,3.42,1.43,3.42,3.28,0,.69-.16,1.43-.47,2.17h-2.08c-.16.37-.21.69-.21,1.01,0,1.38,1.25,2.54,4.15,2.54,4.51,0,5.55-2.44,5.55-4.18Z"/></svg>