<?xml version="1.0" encoding="UTF-8"?><svg id="uuid-90f3d115-772e-4344-b2a6-956444561853" xmlns="http://www.w3.org/2000/svg" xmlns:xlink="http://www.w3.org/1999/xlink" viewBox="0 0 1000 1000"><defs><style>.uuid-a11dee06-847b-4010-902e-a291bd3acc6d{fill:#fff;}.uuid-1f3d07ab-9b14-46f8-ac5a-9d1ef5f3713a{fill:url(#uuid-84f41369-34fe-4bb3-b3c8-91e58d8a5ead);}.uuid-0e5e0085-d2e4-44f8-bfdb-bb351c2d43a1{fill:url(#uuid-be1275b1-ec87-4a84-82e4-adde86450baf);}</style><linearGradient id="uuid-84f41369-34fe-4bb3-b3c8-91e58d8a5ead" x1="0" y1="500" x2="1000" y2="500" gradientUnits="userSpaceOnUse"><stop offset="0" stop-color="#a325c1"/><stop offset=".47" stop-color="#9414af"/><stop offset=".48" stop-color="#9414af"/><stop offset=".68" stop-color="#b31bce"/><stop offset=".69" stop-color="#b61cd1"/><stop offset=".85" stop-color="#c23bdc"/><stop offset="1" stop-color="#d05de8"/></linearGradient><linearGradient id="uuid-be1275b1-ec87-4a84-82e4-adde86450baf" x1="5.83" y1="531.9" x2="434.26" y2="531.9" gradientUnits="userSpaceOnUse"><stop offset="0" stop-color="#a325c1"/><stop offset=".47" stop-color="#9414af"/><stop offset=".48" stop-color="#9414af"/><stop offset=".51" stop-color="#ae34c8"/><stop offset=".54" stop-color="#d05de8"/><stop offset=".69" stop-color="#b61cd1"/></linearGradient></defs><path class="uuid-1f3d07ab-9b14-46f8-ac5a-9d1ef5f3713a" d="m1000,500c0,276.14-223.86,500-500,500S0,776.14,0,500,223.86,0,500,0s500,223.86,500,500ZM743.16,81.59c-179.3-108.53-611.19,63.57-455.84,205.7,417.09,381.59-46.41,420.69,132.9,529.22,179.3,108.53,410.51,47.56,516.42-136.19,105.91-183.75-14.17-490.19-193.47-598.72Z"/><rect class="uuid-0e5e0085-d2e4-44f8-bfdb-bb351c2d43a1" x="5.83" y="477.07" width="428.43" height="109.67" rx="32.75" ry="32.75"/><path class="uuid-a11dee06-847b-4010-902e-a291bd3acc6d" d="m29.05,553.74l3.67-13.18h-9.17l2.06-7.18h8.94l3.36-11.39h-9.17l2.06-7.25h8.94l2.9-10.92h1.99l-2.98,10.92h13.15l2.9-10.92h1.99l-2.98,10.92h9.79l-1.99,7.25h-9.63l-3.21,11.39h9.63l-1.91,7.18h-9.48l-3.75,13.18h-1.91l3.75-13.18h-13.3l-3.75,13.18h-1.91Zm10.78-31.74l-3.36,11.39h13.3l3.21-11.39h-13.15Z"/><path class="uuid-a11dee06-847b-4010-902e-a291bd3acc6d" d="m97.54,499.15c12.77,0,20.41,2.89,20.41,11.93,0,6.4-4.97,12.56-17.05,13.96l-.08.16c10.17.62,15.37,4.29,15.37,10.76,0,14.04-14.14,17.78-27.52,17.78h-20.49l.38-1.48h4.05l8.41-51.63h-4.59l.23-1.48h20.87Zm-10.93,53.11h1.61c7.11,0,12.46-6.55,12.46-16.46,0-6.79-2.37-9.67-8.18-9.67h-1.53l-4.36,26.13Zm4.66-27.61h.23c6.27,0,11.7-3.98,11.7-15.29,0-5.69-2.52-8.73-7.57-8.73h-.61l-3.75,24.02Z"/><path class="uuid-a11dee06-847b-4010-902e-a291bd3acc6d" d="m155.72,524.65c0,7.64-8.18,9.9-15.29,10.92-2.45.31-4.36.39-5.96.39-1.07,11,1.07,15.75,6.42,15.75,3.75,0,7.87-2.73,10.55-11.23l1.53.47c-2.83,9.59-8.41,13.57-17.58,13.57-9.71,0-15.44-5.3-15.44-14.51,0-15.99,9.48-24.18,23.01-24.18,8.64,0,12.77,3.04,12.77,8.81Zm-13.45-7.33c-4.13,0-6.5,7.72-7.64,17.16,5.2-.23,9.94-2.81,9.94-12.4,0-2.89-.46-4.76-2.29-4.76Z"/><path class="uuid-a11dee06-847b-4010-902e-a291bd3acc6d" d="m181.1,547.73c-3.52,5.07-6.12,6.79-11.16,6.79-7.03,0-10.55-3.12-10.55-9.83,0-2.88.31-5.38,2.52-16.61l6.12-31.43h-5.43l.23-1.4h19.57l-8.87,48.51c-.38,2.03-.84,4.06-.84,5.38,0,1.4.46,2.18,1.91,2.18,1.22,0,2.9-1.01,5.27-4.52l1.22.94Z"/><path class="uuid-a11dee06-847b-4010-902e-a291bd3acc6d" d="m207.24,547.65c-2.75,4.37-5.58,6.86-11.24,6.86s-9.79-2.5-9.79-9.05c0-1.79.54-5.07.99-7.56l3.9-19.89h-6.04l.23-1.4h20.26c-3.06,15.13-4.36,21.91-5.35,27.37-.31,1.95-.76,3.98-.76,5.46,0,1.4.76,1.87,1.61,1.87,1.38,0,2.98-1.4,5.05-4.52l1.15.86Zm-16.28-42.5c0-5.3,4.59-8.42,9.94-8.42,4.36,0,7.03,2.03,7.03,5.93,0,5.3-4.66,8.34-9.86,8.34-5.58,0-7.11-3.2-7.11-5.85Z"/><path class="uuid-a11dee06-847b-4010-902e-a291bd3acc6d" d="m246.08,524.65c0,7.64-8.18,9.9-15.29,10.92-2.45.31-4.36.39-5.96.39-1.07,11,1.07,15.75,6.42,15.75,3.75,0,7.87-2.73,10.55-11.23l1.53.47c-2.83,9.59-8.41,13.57-17.58,13.57-9.71,0-15.44-5.3-15.44-14.51,0-15.99,9.48-24.18,23.01-24.18,8.64,0,12.77,3.04,12.77,8.81Zm-13.45-7.33c-4.13,0-6.5,7.72-7.64,17.16,5.2-.23,9.94-2.81,9.94-12.4,0-2.89-.46-4.76-2.29-4.76Z"/><path class="uuid-a11dee06-847b-4010-902e-a291bd3acc6d" d="m278.03,527.22c-2.68-.78-4.59-2.81-4.59-5.69,0-4.06,2.91-5.69,6.19-5.69,5.73,0,7.11,5.69,7.11,9.98,0,11-5.43,28.7-23.85,28.7-6.57,0-12.84-3.59-11.31-13.26,1.07-6.63,2.45-12.4,3.75-18.72.46-2.34.46-3.35-.61-3.35-1.3,0-3.06,1.25-5.81,4.83l-1.07-.86c4.43-6.4,8.64-7.33,12.69-7.33,6.04,0,9.4,2.73,9.4,8.19,0,1.01-.15,2.18-.38,3.43-1.07,5.23-2.14,9.98-3.44,17.23-.23,1.48-.46,2.73-.46,3.82,0,2.03.76,3.28,3.21,3.28,7.03,0,15.21-11.46,15.21-20.36,0-4.83-1.68-7.49-3.9-7.33l-2.14,3.12Z"/><path class="uuid-a11dee06-847b-4010-902e-a291bd3acc6d" d="m325.96,524.65c0,7.64-8.18,9.9-15.29,10.92-2.45.31-4.36.39-5.96.39-1.07,11,1.07,15.75,6.42,15.75,3.75,0,7.87-2.73,10.55-11.23l1.53.47c-2.83,9.59-8.41,13.57-17.58,13.57-9.71,0-15.44-5.3-15.44-14.51,0-15.99,9.48-24.18,23.01-24.18,8.64,0,12.77,3.04,12.77,8.81Zm-13.45-7.33c-4.13,0-6.5,7.72-7.64,17.16,5.2-.23,9.94-2.81,9.94-12.4,0-2.89-.46-4.76-2.29-4.76Z"/><path class="uuid-a11dee06-847b-4010-902e-a291bd3acc6d" d="m368.62,537.13l5.89-36.5h-5.12l.15-1.48h11.39l-.23,1.48h-4.13l-5.81,35.48c-1.99,12.09-7.11,18.41-20.26,18.41-10.78,0-18.65-3.82-18.65-14.51,0-1.64.23-4.37.69-6.94l5.5-32.44h-4.66l.23-1.48h23.47l-.15,1.48h-4.97l-5.96,36.81c-.23,1.4-.54,3.51-.54,5.23,0,5.69,2.37,9.36,9.1,9.36,5.58,0,12.15-3.2,14.07-14.9Z"/><path class="uuid-a11dee06-847b-4010-902e-a291bd3acc6d" d="m397.59,546.64c0-4.29-3.44-5.3-8.56-7.25-4.36-1.64-9.1-4.21-9.1-10.68,0-8.58,8.1-12.87,18.65-12.87,6.19,0,13.68,1.01,13.68,7.8,0,3.51-2.37,5.85-6.34,5.85-2.68,0-5.2-1.4-5.2-3.74,0-1.33.31-2.57,1.15-3.67h2.45c.31-.7.46-1.33.46-1.87,0-1.79-1.68-2.73-5.12-2.73-5.73,0-8.1,2.5-8.1,5.23,0,3.82,2.68,4.91,7.72,6.94,5.12,2.03,10.78,4.06,10.78,10.61,0,9.51-8.64,14.27-20.03,14.27-8.56,0-14.3-2.73-14.3-8.5,0-4.29,2.75-6.47,6.57-6.47,3.29,0,5.05,2.11,5.05,4.84,0,1.01-.23,2.11-.69,3.2h-3.06c-.23.55-.31,1.01-.31,1.48,0,2.03,1.83,3.74,6.12,3.74,6.65,0,8.18-3.59,8.18-6.16Z"/></svg>