<?xml version="1.0" encoding="UTF-8"?>
<svg data-name="CanWeTalkAboutIt-4" xmlns="http://www.w3.org/2000/svg" viewBox="0 0 212.6 212.6"><defs><style>.uuid-b738b526-7923-47cf-8e7f-5cd923264af1{opacity:.04;}.uuid-7d8793a7-48cf-4982-aea5-a9a432d7d6d1{fill:#f4b27f;}.uuid-a9541ae5-0c99-4301-aafc-b9e42f20a71e{fill:#010101;}.uuid-5522d766-ec14-4aee-b53f-7d6a8c889fa6{fill:#fdcda4;}.uuid-98af5bb8-504d-4f01-a705-067b3cb5b574{fill:#fee8db;}.uuid-669085f4-bfa3-4058-bf25-2bc91f50d14b{fill:#fff;}.uuid-50fb3a1e-85de-4ddc-b1b0-8fb4690f2216{fill:#8e4d9e;}</style></defs><path class="uuid-5522d766-ec14-4aee-b53f-7d6a8c889fa6" d="m194.62,132.66l-17.71,22.63-15.24,19.46-19.07-15.49,15.24-19.46,17.82-22.77c3.39-4.32,8.1-6.68,12.43-6.68,2.42,0,4.73.74,6.61,2.29,5.23,4.31,5.2,13.28-.08,20.02Z"/><path class="uuid-98af5bb8-504d-4f01-a705-067b3cb5b574" d="m163.98,155.68l-3.64-2.95c-3.05-2.47-3.56-7.05-1.15-10.18l6.82-8.85c2.41-3.12,6.87-3.66,9.92-1.18l3.64,2.95c3.05,2.47,3.56,7.05,1.15,10.18l-6.82,8.85c-2.41,3.12-6.87,3.66-9.92,1.18Z"/><path class="uuid-7d8793a7-48cf-4982-aea5-a9a432d7d6d1" d="m176.93,155.31l-15.1,19.57-.16-.13-19.07-15.49-14.68-11.93c-5.27-4.28-6.15-12.13-1.99-17.53,2.4-3.11,5.96-4.73,9.55-4.73,2.64,0,5.3.88,7.54,2.69l14.82,12.04,19.07,15.49.03.02Z"/><ellipse class="uuid-7d8793a7-48cf-4982-aea5-a9a432d7d6d1" cx="179.53" cy="118.13" rx="1.71" ry="1.75"/><ellipse class="uuid-7d8793a7-48cf-4982-aea5-a9a432d7d6d1" cx="186.44" cy="113.82" rx="1.71" ry="1.75"/><ellipse class="uuid-7d8793a7-48cf-4982-aea5-a9a432d7d6d1" cx="192.3" cy="115.73" rx="1.71" ry="1.75"/><ellipse class="uuid-7d8793a7-48cf-4982-aea5-a9a432d7d6d1" cx="194.98" cy="122.16" rx="1.71" ry="1.75"/><ellipse class="uuid-7d8793a7-48cf-4982-aea5-a9a432d7d6d1" cx="191.93" cy="128.63" rx="1.71" ry="1.75"/><ellipse class="uuid-7d8793a7-48cf-4982-aea5-a9a432d7d6d1" cx="187.13" cy="122.73" rx="1.71" ry="1.75"/><path class="uuid-50fb3a1e-85de-4ddc-b1b0-8fb4690f2216" d="m0,0v212.6h212.6V0H0Zm35.06,25.45L201.68,8.68v152.02H10.92L35.06,25.45Z"/><path class="uuid-a9541ae5-0c99-4301-aafc-b9e42f20a71e" d="m12.85,193.94l.59-3.8h-2.63l.35-2.07h2.57l.57-3.29h-2.63l.33-2.09h2.57l.46-3.15h.57l-.48,3.15h3.77l.46-3.15h.57l-.48,3.15h2.81l-.31,2.09h-2.76l-.53,3.29h2.76l-.31,2.07h-2.72l-.61,3.8h-.55l.61-3.8h-3.82l-.61,3.8h-.55Zm2-9.16l-.57,3.29h3.82l.53-3.29h-3.77Z"/><path class="uuid-a9541ae5-0c99-4301-aafc-b9e42f20a71e" d="m27.73,188.06v1.17c0,2.88.5,4.16,2.22,4.16,2,0,2.85-1.73,3.09-2.95l.4.05c-.29,1.4-1.01,3.67-4.67,3.67-3.38,0-5.27-1.94-5.27-5.45,0-3.78,2.24-5.72,5.86-5.72,2.68,0,4.02,1.17,4.02,2.86,0,1.4-.72,2.12-1.82,2.12s-1.95-.61-1.95-1.87c0-.2.02-.5.11-.81h.72c.11-.31.15-.58.15-.81,0-.77-.44-1.08-1.05-1.08-1.27,0-1.8,1.31-1.8,4.66Z"/><path class="uuid-a9541ae5-0c99-4301-aafc-b9e42f20a71e" d="m39.88,188.65v-1.73c0-2.86-.24-3.6-1.12-3.6-.4,0-1.03.18-1.03.9,0,.18.04.4.13.65h.55c.11.29.18.59.18,1.01,0,1.06-.83,1.76-1.93,1.76-1.36,0-1.89-.77-1.89-1.87,0-1.89,1.6-2.77,4.59-2.77,3.44,0,4.61.99,4.61,4.25v4.57c0,.92.26,1.17.64,1.17.4,0,.77-.43.88-2.32l.33.02c-.11,2.7-.92,3.47-2.81,3.47-1.78,0-2.76-.56-3.03-1.67-.35,1.08-.99,1.67-2.52,1.67s-3.25-.47-3.25-2.72,1.91-2.79,5.05-2.79h.64Zm0,2.45v-2.09h-.15c-.92,0-1.36.68-1.36,2.05v.36c0,1.62.15,1.85.57,1.85s.94-.72.94-2.16Z"/><path class="uuid-a9541ae5-0c99-4301-aafc-b9e42f20a71e" d="m51.35,183.22v2.07c.37-1.13,1.1-2.3,3.27-2.3,2.04,0,3.4,1.04,3.4,3.76v6.77h1.23v.41h-6.21v-.41h.9v-7.31c0-1.91-.26-2.14-.81-2.14-.92,0-1.78,1.42-1.78,3.24v6.21h.94v.41h-6.23v-.41h1.21v-9.9h-1.21v-.41h5.29Z"/><path class="uuid-a9541ae5-0c99-4301-aafc-b9e42f20a71e" d="m65.83,183.22h5.66v.41h-.9l1.98,7.58,1.95-7.58h-1.51v-.41h2.96v.41h-.92l-2.63,10.31h-3.01l-1.91-6.91-2.06,6.91h-2.94l-3.25-10.31h-.99v-.41h6.65v.41h-1.32l2.02,7.65,1.58-5.27-.55-2.39h-.81v-.41Z"/><path class="uuid-a9541ae5-0c99-4301-aafc-b9e42f20a71e" d="m81.61,183c3.44,0,4.92,1.78,4.78,5.13h-6.19v.88c0,2.66.46,4.46,2.59,4.46,1.62,0,2.72-1.06,3.2-2.79l.39.07c-.5,1.94-1.65,3.42-4.76,3.42-3.91,0-5.66-2.3-5.66-5.56,0-3.89,2.59-5.6,5.64-5.6Zm.88,4.68v-1.1c0-2.36-.18-3.15-1.08-3.15-.77,0-1.19.77-1.19,3.15v1.1h2.26Z"/><path class="uuid-a9541ae5-0c99-4301-aafc-b9e42f20a71e" d="m88.28,183.63h-1.21v-.41h1.21v-2.9l4.08-1.04v3.94h2.85v.41h-2.85v7.58c0,1.33.2,2.05.97,2.05,1.05,0,1.71-.99,1.91-2.52l.37.04c-.2,1.76-.92,3.38-3.6,3.38-2.17,0-3.73-.65-3.73-3.44v-7.09Z"/><path class="uuid-a9541ae5-0c99-4301-aafc-b9e42f20a71e" d="m101.73,188.65v-1.73c0-2.86-.24-3.6-1.12-3.6-.4,0-1.03.18-1.03.9,0,.18.04.4.13.65h.55c.11.29.18.59.18,1.01,0,1.06-.83,1.76-1.93,1.76-1.36,0-1.89-.77-1.89-1.87,0-1.89,1.6-2.77,4.59-2.77,3.44,0,4.61.99,4.61,4.25v4.57c0,.92.26,1.17.64,1.17.4,0,.77-.43.88-2.32l.33.02c-.11,2.7-.92,3.47-2.81,3.47-1.78,0-2.76-.56-3.03-1.67-.35,1.08-.99,1.67-2.52,1.67s-3.25-.47-3.25-2.72,1.91-2.79,5.05-2.79h.64Zm0,2.45v-2.09h-.15c-.92,0-1.36.68-1.36,2.05v.36c0,1.62.15,1.85.57,1.85s.94-.72.94-2.16Z"/><path class="uuid-a9541ae5-0c99-4301-aafc-b9e42f20a71e" d="m113.16,177.06v16.47h1.23v.41h-6.52v-.41h1.21v-16.07h-1.29v-.4h5.38Z"/><path class="uuid-a9541ae5-0c99-4301-aafc-b9e42f20a71e" d="m121.98,193.53h1.01l-2.48-5.22-.42.11v5.11h1.01v.41h-6.3v-.41h1.21v-16.07h-1.29v-.4h5.38v10.92l.35-.13,4.94-4.21h-2.06v-.41h4.32v.41h-1.54l-2.61,2.27,3.8,7.63h.79v.41h-6.1v-.41Z"/><path class="uuid-a9541ae5-0c99-4301-aafc-b9e42f20a71e" d="m133.87,188.65v-1.73c0-2.86-.24-3.6-1.12-3.6-.4,0-1.03.18-1.03.9,0,.18.04.4.13.65h.55c.11.29.18.59.18,1.01,0,1.06-.83,1.76-1.93,1.76-1.36,0-1.89-.77-1.89-1.87,0-1.89,1.6-2.77,4.59-2.77,3.44,0,4.61.99,4.61,4.25v4.57c0,.92.26,1.17.64,1.17.4,0,.77-.43.88-2.32l.33.02c-.11,2.7-.92,3.47-2.81,3.47-1.78,0-2.76-.56-3.03-1.67-.35,1.08-.99,1.67-2.52,1.67s-3.25-.47-3.25-2.72,1.91-2.79,5.05-2.79h.64Zm0,2.45v-2.09h-.15c-.92,0-1.36.68-1.36,2.05v.36c0,1.62.15,1.85.57,1.85s.94-.72.94-2.16Z"/><path class="uuid-a9541ae5-0c99-4301-aafc-b9e42f20a71e" d="m145.3,184.93c.48-1.12,1.27-1.94,2.94-1.94,2.5,0,4.02,1.76,4.02,5.6s-1.54,5.56-4.52,5.56c-1.51,0-2.26-.43-2.57-1.55l-.15,1.33h-5v-.41h1.21v-16.07h-1.21v-.4h5.29v7.88Zm0,2.07v4.19c0,1.22.5,2.32,1.43,2.32,1.08,0,1.29-1.33,1.29-4.46v-1.17c0-3.17-.26-3.92-1.01-3.92-.9,0-1.71,1.08-1.71,3.04Z"/><path class="uuid-a9541ae5-0c99-4301-aafc-b9e42f20a71e" d="m158.77,183c3.69,0,5.44,1.78,5.44,5.42s-1.67,5.74-5.57,5.74c-3.69,0-5.55-2.03-5.55-5.54,0-3.69,2.15-5.63,5.68-5.63Zm1.23,4.59c0-2.43-.07-4.19-1.29-4.19-1.34,0-1.4,1.76-1.4,4.3v1.76c0,2.61.04,4.3,1.38,4.3,1.25,0,1.32-1.33,1.32-4.25v-1.91Z"/><path class="uuid-a9541ae5-0c99-4301-aafc-b9e42f20a71e" d="m172.66,193.94l-.24-1.64c-.42,1.06-1.12,1.87-3.09,1.87s-3.4-1.04-3.4-3.76v-6.77h-1.23v-.41h5.31v7.72c0,1.91.26,2.21.81,2.21.88,0,1.56-.92,1.56-2.63v-6.89h-1.01v-.41h5.09v10.31h1.21v.41h-5Z"/><path class="uuid-a9541ae5-0c99-4301-aafc-b9e42f20a71e" d="m179.19,183.63h-1.21v-.41h1.21v-2.9l4.08-1.04v3.94h2.85v.41h-2.85v7.58c0,1.33.2,2.05.97,2.05,1.05,0,1.71-.99,1.91-2.52l.37.04c-.2,1.76-.92,3.38-3.6,3.38-2.17,0-3.73-.65-3.73-3.44v-7.09Z"/><path class="uuid-a9541ae5-0c99-4301-aafc-b9e42f20a71e" d="m192.03,183.22v10.31h1.23v.41h-6.52v-.41h1.21v-9.9h-1.29v-.41h5.38Zm-1.97-5.74c1.36,0,2.17.7,2.17,2.07,0,1.19-.64,2.12-2.22,2.12-1.78,0-2.19-1.15-2.19-2.09,0-1.1.59-2.09,2.24-2.09Z"/><path class="uuid-a9541ae5-0c99-4301-aafc-b9e42f20a71e" d="m194.79,183.63h-1.21v-.41h1.21v-2.9l4.08-1.04v3.94h2.85v.41h-2.85v7.58c0,1.33.2,2.05.97,2.05,1.05,0,1.71-.99,1.91-2.52l.37.04c-.2,1.76-.92,3.38-3.6,3.38-2.17,0-3.73-.65-3.73-3.44v-7.09Z"/><g class="uuid-b738b526-7923-47cf-8e7f-5cd923264af1"><path class="uuid-a9541ae5-0c99-4301-aafc-b9e42f20a71e" d="m5.76,199.64l.64-4.09h-2.83l.38-2.23h2.76l.61-3.53h-2.83l.35-2.25h2.76l.5-3.39h.61l-.52,3.39h4.05l.5-3.39h.61l-.52,3.39h3.02l-.33,2.25h-2.97l-.57,3.53h2.97l-.33,2.23h-2.92l-.66,4.09h-.59l.66-4.09h-4.1l-.66,4.09h-.59Zm2.15-9.84l-.61,3.53h4.1l.57-3.53h-4.06Z"/><path class="uuid-a9541ae5-0c99-4301-aafc-b9e42f20a71e" d="m21.75,193.32v1.26c0,3.1.54,4.47,2.38,4.47,2.15,0,3.06-1.86,3.32-3.17l.42.05c-.31,1.5-1.08,3.94-5.02,3.94-3.63,0-5.66-2.08-5.66-5.85,0-4.06,2.4-6.14,6.29-6.14,2.88,0,4.31,1.26,4.31,3.07,0,1.5-.78,2.27-1.96,2.27s-2.1-.65-2.1-2.01c0-.22.02-.53.12-.87h.78c.12-.34.17-.63.17-.87,0-.82-.47-1.16-1.13-1.16-1.37,0-1.93,1.4-1.93,5.01Z"/><path class="uuid-a9541ae5-0c99-4301-aafc-b9e42f20a71e" d="m34.81,193.95v-1.86c0-3.07-.26-3.87-1.2-3.87-.42,0-1.11.19-1.11.97,0,.19.05.44.14.7h.59c.12.31.19.63.19,1.09,0,1.14-.9,1.89-2.07,1.89-1.46,0-2.03-.82-2.03-2.01,0-2.03,1.72-2.97,4.93-2.97,3.7,0,4.95,1.06,4.95,4.57v4.91c0,.99.28,1.26.68,1.26.42,0,.83-.46.94-2.49l.35.02c-.12,2.9-.99,3.72-3.02,3.72-1.91,0-2.97-.6-3.25-1.79-.38,1.16-1.06,1.79-2.71,1.79s-3.49-.51-3.49-2.93,2.05-3,5.42-3h.68Zm0,2.64v-2.25h-.17c-.99,0-1.46.73-1.46,2.2v.39c0,1.74.17,1.98.61,1.98s1.01-.77,1.01-2.32Z"/><path class="uuid-a9541ae5-0c99-4301-aafc-b9e42f20a71e" d="m47.14,188.12v2.23c.4-1.21,1.18-2.47,3.51-2.47,2.19,0,3.65,1.11,3.65,4.04v7.28h1.32v.44h-6.67v-.44h.97v-7.86c0-2.06-.28-2.3-.87-2.3-.99,0-1.91,1.52-1.91,3.48v6.67h1.01v.44h-6.7v-.44h1.3v-10.64h-1.3v-.44h5.68Z"/><path class="uuid-a9541ae5-0c99-4301-aafc-b9e42f20a71e" d="m62.7,188.12h6.08v.44h-.97l2.12,8.15,2.1-8.15h-1.63v-.44h3.18v.44h-.99l-2.83,11.08h-3.23l-2.05-7.42-2.22,7.42h-3.16l-3.49-11.08h-1.06v-.44h7.14v.44h-1.41l2.17,8.22,1.7-5.66-.59-2.56h-.87v-.44Z"/><path class="uuid-a9541ae5-0c99-4301-aafc-b9e42f20a71e" d="m79.65,187.88c3.7,0,5.28,1.91,5.14,5.51h-6.65v.94c0,2.85.5,4.79,2.78,4.79,1.74,0,2.92-1.14,3.44-3l.42.07c-.54,2.08-1.77,3.68-5.12,3.68-4.2,0-6.08-2.47-6.08-5.97,0-4.18,2.78-6.02,6.06-6.02Zm.94,5.03v-1.19c0-2.54-.19-3.39-1.16-3.39-.83,0-1.27.82-1.27,3.39v1.19h2.43Z"/><path class="uuid-a9541ae5-0c99-4301-aafc-b9e42f20a71e" d="m86.82,188.56h-1.3v-.44h1.3v-3.12l4.38-1.11v4.23h3.06v.44h-3.06v8.15c0,1.43.21,2.2,1.04,2.2,1.13,0,1.84-1.06,2.05-2.71l.4.05c-.21,1.89-.99,3.63-3.87,3.63-2.33,0-4.01-.7-4.01-3.7v-7.62Z"/><path class="uuid-a9541ae5-0c99-4301-aafc-b9e42f20a71e" d="m101.27,193.95v-1.86c0-3.07-.26-3.87-1.2-3.87-.42,0-1.11.19-1.11.97,0,.19.05.44.14.7h.59c.12.31.19.63.19,1.09,0,1.14-.9,1.89-2.07,1.89-1.46,0-2.03-.82-2.03-2.01,0-2.03,1.72-2.97,4.93-2.97,3.7,0,4.95,1.06,4.95,4.57v4.91c0,.99.28,1.26.68,1.26.42,0,.83-.46.94-2.49l.35.02c-.12,2.9-.99,3.72-3.02,3.72-1.91,0-2.97-.6-3.25-1.79-.38,1.16-1.06,1.79-2.71,1.79s-3.49-.51-3.49-2.93,2.05-3,5.42-3h.68Zm0,2.64v-2.25h-.16c-.99,0-1.46.73-1.46,2.2v.39c0,1.74.17,1.98.61,1.98s1.01-.77,1.01-2.32Z"/><path class="uuid-a9541ae5-0c99-4301-aafc-b9e42f20a71e" d="m113.55,181.5v17.7h1.32v.44h-7v-.44h1.3v-17.27h-1.39v-.44h5.78Z"/><path class="uuid-a9541ae5-0c99-4301-aafc-b9e42f20a71e" d="m123.03,199.2h1.08l-2.66-5.61-.45.12v5.49h1.08v.44h-6.77v-.44h1.3v-17.27h-1.39v-.44h5.78v11.73l.38-.15,5.3-4.52h-2.22v-.44h4.64v.44h-1.65l-2.81,2.44,4.08,8.2h.85v.44h-6.55v-.44Z"/><path class="uuid-a9541ae5-0c99-4301-aafc-b9e42f20a71e" d="m135.81,193.95v-1.86c0-3.07-.26-3.87-1.2-3.87-.42,0-1.11.19-1.11.97,0,.19.05.44.14.7h.59c.12.31.19.63.19,1.09,0,1.14-.9,1.89-2.07,1.89-1.46,0-2.03-.82-2.03-2.01,0-2.03,1.72-2.97,4.93-2.97,3.7,0,4.95,1.06,4.95,4.57v4.91c0,.99.28,1.26.68,1.26.42,0,.83-.46.94-2.49l.35.02c-.12,2.9-.99,3.72-3.02,3.72-1.91,0-2.97-.6-3.25-1.79-.38,1.16-1.06,1.79-2.71,1.79s-3.49-.51-3.49-2.93,2.05-3,5.42-3h.68Zm0,2.64v-2.25h-.17c-.99,0-1.46.73-1.46,2.2v.39c0,1.74.17,1.98.61,1.98s1.01-.77,1.01-2.32Z"/><path class="uuid-a9541ae5-0c99-4301-aafc-b9e42f20a71e" d="m148.09,189.96c.52-1.21,1.37-2.08,3.16-2.08,2.69,0,4.31,1.89,4.31,6.02s-1.65,5.97-4.86,5.97c-1.63,0-2.43-.46-2.76-1.67l-.17,1.43h-5.38v-.44h1.3v-17.27h-1.3v-.44h5.68v8.46Zm0,2.22v4.5c0,1.31.54,2.49,1.53,2.49,1.16,0,1.39-1.43,1.39-4.79v-1.26c0-3.41-.28-4.21-1.08-4.21-.97,0-1.84,1.16-1.84,3.26Z"/><path class="uuid-a9541ae5-0c99-4301-aafc-b9e42f20a71e" d="m162.57,187.88c3.96,0,5.85,1.91,5.85,5.83s-1.79,6.17-5.99,6.17c-3.96,0-5.96-2.18-5.96-5.95,0-3.97,2.31-6.05,6.11-6.05Zm1.32,4.93c0-2.61-.07-4.5-1.39-4.5-1.44,0-1.51,1.89-1.51,4.62v1.89c0,2.81.05,4.62,1.49,4.62,1.34,0,1.41-1.43,1.41-4.57v-2.06Z"/><path class="uuid-a9541ae5-0c99-4301-aafc-b9e42f20a71e" d="m177.49,199.64l-.26-1.77c-.45,1.14-1.2,2.01-3.32,2.01s-3.65-1.11-3.65-4.04v-7.28h-1.32v-.44h5.71v8.3c0,2.06.28,2.37.87,2.37.94,0,1.67-.99,1.67-2.83v-7.4h-1.08v-.44h5.47v11.08h1.3v.44h-5.38Z"/><path class="uuid-a9541ae5-0c99-4301-aafc-b9e42f20a71e" d="m184.52,188.56h-1.3v-.44h1.3v-3.12l4.38-1.11v4.23h3.06v.44h-3.06v8.15c0,1.43.21,2.2,1.04,2.2,1.13,0,1.84-1.06,2.05-2.71l.4.05c-.21,1.89-.99,3.63-3.87,3.63-2.33,0-4.01-.7-4.01-3.7v-7.62Z"/><path class="uuid-a9541ae5-0c99-4301-aafc-b9e42f20a71e" d="m198.31,188.12v11.08h1.32v.44h-7v-.44h1.3v-10.64h-1.39v-.44h5.78Zm-2.12-6.17c1.46,0,2.33.75,2.33,2.23,0,1.28-.68,2.27-2.38,2.27-1.91,0-2.36-1.23-2.36-2.25,0-1.19.64-2.25,2.4-2.25Z"/><path class="uuid-a9541ae5-0c99-4301-aafc-b9e42f20a71e" d="m201.28,188.56h-1.3v-.44h1.3v-3.12l4.38-1.11v4.23h3.06v.44h-3.06v8.15c0,1.43.21,2.2,1.04,2.2,1.13,0,1.84-1.06,2.05-2.71l.4.05c-.21,1.89-.99,3.63-3.87,3.63-2.33,0-4.01-.7-4.01-3.7v-7.62Z"/></g><ellipse class="uuid-669085f4-bfa3-4058-bf25-2bc91f50d14b" cx="207.32" cy="113.29" rx="2.89" ry="3.07"/><ellipse class="uuid-669085f4-bfa3-4058-bf25-2bc91f50d14b" cx="207.32" cy="92.29" rx="2.89" ry="3.07"/><ellipse class="uuid-669085f4-bfa3-4058-bf25-2bc91f50d14b" cx="207.32" cy="71.29" rx="2.89" ry="3.07"/><ellipse class="uuid-669085f4-bfa3-4058-bf25-2bc91f50d14b" cx="207.32" cy="50.29" rx="2.89" ry="3.07"/><ellipse class="uuid-669085f4-bfa3-4058-bf25-2bc91f50d14b" cx="207.32" cy="29.29" rx="2.89" ry="3.07"/><ellipse class="uuid-669085f4-bfa3-4058-bf25-2bc91f50d14b" cx="207.32" cy="8.29" rx="2.89" ry="3.07"/><path class="uuid-5522d766-ec14-4aee-b53f-7d6a8c889fa6" d="m27.39,14.37l-5.74,7.33-4.94,6.3-6.18-5.02,4.94-6.3,5.77-7.37c1.1-1.4,2.62-2.16,4.03-2.16.79,0,1.53.24,2.14.74,1.7,1.4,1.69,4.3-.02,6.49Z"/><path class="uuid-98af5bb8-504d-4f01-a705-067b3cb5b574" d="m17.46,21.82l-1.18-.96c-.99-.8-1.15-2.28-.37-3.3l2.21-2.87c.78-1.01,2.23-1.18,3.21-.38l1.18.96c.99.8,1.15,2.28.37,3.3l-2.21,2.87c-.78,1.01-2.23,1.18-3.21.38Z"/><path class="uuid-7d8793a7-48cf-4982-aea5-a9a432d7d6d1" d="m21.66,21.7l-4.89,6.34-.05-.04-6.18-5.02-4.76-3.86c-1.71-1.39-1.99-3.93-.64-5.68.78-1.01,1.93-1.53,3.09-1.53.86,0,1.72.29,2.44.87l4.8,3.9,6.18,5.02h0Z"/><ellipse class="uuid-7d8793a7-48cf-4982-aea5-a9a432d7d6d1" cx="22.5" cy="9.66" rx=".55" ry=".57"/><ellipse class="uuid-7d8793a7-48cf-4982-aea5-a9a432d7d6d1" cx="24.74" cy="8.27" rx=".55" ry=".57"/><ellipse class="uuid-7d8793a7-48cf-4982-aea5-a9a432d7d6d1" cx="26.64" cy="8.89" rx=".55" ry=".57"/><ellipse class="uuid-7d8793a7-48cf-4982-aea5-a9a432d7d6d1" cx="27.5" cy="10.97" rx=".55" ry=".57"/><ellipse class="uuid-7d8793a7-48cf-4982-aea5-a9a432d7d6d1" cx="26.52" cy="13.06" rx=".55" ry=".57"/><ellipse class="uuid-7d8793a7-48cf-4982-aea5-a9a432d7d6d1" cx="24.96" cy="11.15" rx=".55" ry=".57"/></svg>