<?xml version="1.0" encoding="UTF-8"?>
<svg data-name="CanWeTalkAboutIt-2" xmlns="http://www.w3.org/2000/svg" viewBox="0 0 212.6 212.6"><defs><style>.uuid-ad6b945f-5470-4932-a748-169102b8d315{fill:#e57354;}.uuid-00b4842a-fc29-4a6b-bbd6-23617d7920a9{fill:#fff;}.uuid-0af226ac-16b1-4c64-9a78-3f8c0891e93a{fill:#f2d5a1;}.uuid-30031757-ebfd-4a1a-83eb-67b181db281e{fill:#12c0e0;}.uuid-ee1792fe-16ad-4649-bd0f-9e6caf3285c4{fill:#88499c;}.uuid-176477a8-b81b-440b-88ef-893bd727f6d6{fill:#383938;}.uuid-4b51c261-cfd8-4eb3-8322-8350145909bc{fill:#7d3393;}.uuid-a2ba3a4c-9e05-49cd-bffb-5d6670431c64{fill:#8e4d9e;stroke:#fff;stroke-miterlimit:10;}</style></defs><path class="uuid-4b51c261-cfd8-4eb3-8322-8350145909bc" d="m97.28.05C43.56.05,0,43.6,0,97.33v115.27s92.84,0,92.84,0c66.24,0,119.76-54.01,119.76-120.25V.05s-115.31,0-115.31,0Zm14.16,178.86c-43.96,2.81-80.35-33.58-77.54-77.54,2.32-36.34,31.67-65.69,68.01-68.01,43.96-2.81,80.35,33.58,77.54,77.54-2.32,36.34-31.67,65.69-68.01,68.01Z"/><path class="uuid-a2ba3a4c-9e05-49cd-bffb-5d6670431c64" d="m106.68,14.65C56.23,14.65,15.19,55.69,15.19,106.13s41.04,91.48,91.48,91.48,91.48-41.04,91.48-91.48S157.12,14.65,106.68,14.65Zm0,164.42c-40.22,0-72.93-32.71-72.93-72.93S66.46,33.2,106.68,33.2s72.93,32.71,72.93,72.93-32.71,72.93-72.93,72.93Z"/><path class="uuid-00b4842a-fc29-4a6b-bbd6-23617d7920a9" d="m28.52,97.19l.05-.34-2.18-.7.23-1.69-1.18-.36-.23,1.73-1.89-.59.24-1.73-1.21-.36-.23,1.75-1.81-.56-.05.36,1.81.55-.32,2.35-1.81-.56-.05.35,1.81.55-.22,1.6,1.19.37.23-1.64,1.87.61-.22,1.6,1.18.38.23-1.64,2.18.67.05-.35-2.18-.68.32-2.38,2.18.68Zm-3.7,1.37l-1.87-.63.31-2.35,1.88.59-.32,2.39Z"/><path class="uuid-00b4842a-fc29-4a6b-bbd6-23617d7920a9" d="m28.47,86.95l-.08.23c.67.31,1.54,1.07,1.26,2.28-.23,1.06-1.04,1.19-2.7.82l-.67-.16c-1.94-.44-2.62-.93-2.44-1.72.08-.37.32-.6.77-.5.13.02.28.09.45.2l-.1.45c.16.09.34.14.45.17.72.16,1.18-.26,1.35-.96.15-.67-.16-1.21-.96-1.39-.97-.22-1.83.44-2.2,2.09-.51,2.23.29,3.85,2.47,4.35,2.03.46,3.41-.44,3.87-2.52.51-2.25-.7-2.99-1.46-3.35Z"/><path class="uuid-00b4842a-fc29-4a6b-bbd6-23617d7920a9" d="m30.9,79.58l-.08.2c1.04.39,1.22.7,1.14.94-.07.22-.26.34-.78.17l-2.57-.82c-1.84-.58-2.62-.06-3.28,2.01-.56,1.8-.37,2.91.7,3.25.61.2,1.15.02,1.41-.8.21-.66-.03-1.28-.63-1.47-.24-.07-.42-.08-.6-.07l-.1.32c-.16.01-.29,0-.39-.03-.41-.13-.38-.55-.31-.78.17-.53.64-.55,2.25-.03l.97.31-.13.38c-.59,1.88-.66,3.12.61,3.53,1.28.41,1.87-.55,2.16-1.46.29-.93.08-1.41-.46-1.81.67.03,1.18-.45,1.52-1.52.36-1.14.08-1.76-1.41-2.31Zm.14,4.58c-.08.24-.24.3-1.16.01l-.2-.07c-.78-.24-1.07-.63-.89-1.18l.02-.08,1.18.37c.81.26,1.11.7,1.04.95Z"/><path class="uuid-00b4842a-fc29-4a6b-bbd6-23617d7920a9" d="m34.42,76.15l1.53-3.59-.22-.09-.3.71-3.69-1.57c-1.48-.63-2.39-.08-2.89,1.1-.53,1.25-.07,1.95.45,2.42l-1.14-.48-1.3,3.06.22.09.3-.71,5.38,2.3-.29.7.22.09,1.53-3.61-.22-.09-.23.55-3.37-1.44c-1-.42-1.55-1.24-1.33-1.77.14-.32.32-.42,1.37.02l3.98,1.69-.22.52.22.09Z"/><path class="uuid-00b4842a-fc29-4a6b-bbd6-23617d7920a9" d="m39.83,65.53l-4.51-4.43.29-.5-.21-.12-.92,1.62.21.12.46-.83,3.32,3.27-4.52-1.11.28-.49-.21-.12-1.74,3.11.21.12.26-.45,1.39.39,2.24,2.39-4.57-1.1.41-.73-.21-.12-2.05,3.65.21.12.31-.53,6.31,1.18.9-1.61-2.93-3.13,4.15.95.93-1.65Z"/><path class="uuid-00b4842a-fc29-4a6b-bbd6-23617d7920a9" d="m43.14,57.39l-.17.17c.66.85.77,1.77.19,2.6-.78,1.1-1.81.72-3.1-.19l-.42-.3,2.24-3.18c-1.57-1.21-2.96-1.07-4.21.71-1.11,1.57-1.22,3.48.66,4.81,1.58,1.11,3.32,1,4.73-1.02,1.14-1.59.83-2.69.08-3.61Zm-4.24,1.75c-1.16-.82-1.38-1.3-1.1-1.69.34-.46.78-.28,1.91.52l.53.38-.82,1.16-.52-.37Z"/><path class="uuid-00b4842a-fc29-4a6b-bbd6-23617d7920a9" d="m46.85,52.95l-.17.16c.63.67.81,1.37.39,1.88-.31.37-.72.2-1.32-.3l-3.47-2.86,1.15-1.38-.19-.15-1.15,1.38-1.79-1.48-1.17,2.37,1.32,1.1-.48.58.19.15.48-.58,3.24,2.67c1.28,1.06,2.19.55,3.06-.51,1.08-1.3.63-2.26-.09-3.02Z"/><path class="uuid-00b4842a-fc29-4a6b-bbd6-23617d7920a9" d="m52.01,47.47l-.15.14c.75.82.78,1.17.6,1.35-.16.17-.38.19-.78-.19l-1.94-1.88c-1.39-1.35-2.32-1.23-3.83.34-1.31,1.35-1.64,2.44-.82,3.21.46.45,1.02.52,1.61-.09.49-.49.55-1.16.1-1.59-.19-.17-.34-.27-.51-.34l-.24.24c-.14-.06-.26-.13-.34-.21-.3-.29-.1-.66.07-.83.38-.39.81-.2,2.02.97l.74.71-.28.29c-1.37,1.43-1.98,2.5-1.02,3.43.96.93,1.91.35,2.57-.35.67-.7.71-1.22.39-1.82.59.32,1.26.12,2.04-.7.82-.85.85-1.53-.26-2.69Zm-1.9,4.16c-.19.19-.35.16-1.04-.5l-.15-.15c-.58-.57-.67-1.04-.28-1.46l.07-.07.89.86c.61.6.68,1.14.51,1.32Z"/><path class="uuid-00b4842a-fc29-4a6b-bbd6-23617d7920a9" d="m56.32,45.95l-.58.51-6.48-7.25-2.53,2.25.16.17.61-.53,6.32,7.07-.56.5.15.19,3.06-2.74-.16-.17Z"/><path class="uuid-00b4842a-fc29-4a6b-bbd6-23617d7920a9" d="m62.97,40.76l-.39.3-4.63-2.15.49-2.06.77-.58-.14-.19-2.17,1.65.15.19,1.03-.79-.96,3.86-.13.2-3.91-5.13-2.69,2.05.14.19.65-.5,5.76,7.56-.6.46.14.19,3.15-2.4-.15-.19-.5.38-1.83-2.4.16-.22,3.12,1.51-.51.39.15.19,3.05-2.33-.15-.19Z"/><path class="uuid-00b4842a-fc29-4a6b-bbd6-23617d7920a9" d="m68.22,35.59l-.19.09c.52.99.46,1.33.26,1.46-.21.12-.42.08-.71-.38l-1.43-2.3c-1.02-1.64-1.95-1.75-3.79-.6-1.59.99-2.17,1.96-1.59,2.91.35.56.87.77,1.59.31.59-.37.82-1,.49-1.52-.13-.22-.26-.35-.41-.45l-.29.17c-.13-.09-.22-.19-.28-.28-.22-.36.06-.66.28-.8.46-.29.82.01,1.72,1.44l.53.87-.34.22c-1.68,1.03-2.54,1.93-1.83,3.07.71,1.12,1.76.8,2.59.29.82-.51.99-1.01.83-1.67.48.46,1.18.42,2.13-.17,1.01-.63,1.21-1.28.43-2.67Zm-2.88,3.56c-.22.14-.38.08-.88-.73l-.12-.19c-.43-.68-.41-1.17.09-1.48l.08-.05.65,1.06c.45.72.39,1.25.17,1.39Z"/><path class="uuid-00b4842a-fc29-4a6b-bbd6-23617d7920a9" d="m74.67,31.04c-1.01-2.05-2.32-2.56-3.72-1.87-.95.46-1.18,1.11-1.16,1.84l-2.05-4.17-2.98,1.46.1.22.67-.34,4.19,8.52-.68.34.1.22,2.83-1.39-.26-.75c.46.52,1,.53,1.84.12,1.69-.82,2.11-2.16,1.11-4.2Zm-1.84,4.13c-.52.26-1.1-.19-1.41-.83l-1.09-2.21c-.51-1.04-.32-1.84.17-2.09.43-.21.77.12,1.59,1.8l.31.61c.81,1.67,1.03,2.44.43,2.73Z"/><path class="uuid-00b4842a-fc29-4a6b-bbd6-23617d7920a9" d="m81.77,28.25c-.75-2.02-2.16-2.62-4.34-1.81-2.08.78-2.95,2.32-2.18,4.37.72,1.94,2.24,2.64,4.42,1.84,2.3-.87,2.85-2.37,2.1-4.41Zm-2.16,4.16c-.79.3-1.17-.63-1.7-2.08l-.36-.96c-.53-1.41-.86-2.4-.07-2.69.73-.28,1.12.68,1.64,2.03l.39,1.06c.6,1.62.83,2.38.1,2.64Z"/><path class="uuid-00b4842a-fc29-4a6b-bbd6-23617d7920a9" d="m90.81,28.94l-.73.2-1.54-5.89-3.1.81.06.23.61-.16,1.02,3.94c.27.97-.01,1.61-.55,1.75-.34.08-.55-.03-.82-1.14l-1.16-4.41-3.24.85.07.23.74-.2,1.01,3.87c.41,1.55,1.39,1.92,2.63,1.6,1.21-.31,1.51-.88,1.61-1.55l.39.89,3.04-.8-.06-.23Z"/><path class="uuid-00b4842a-fc29-4a6b-bbd6-23617d7920a9" d="m95.86,26.51h-.23c.02.92-.28,1.57-.94,1.68-.48.08-.67-.32-.8-1.09l-.75-4.43,1.77-.29-.05-.24-1.76.3-.39-2.3-2.42,1.03.29,1.69-.75.13.05.23.74-.13.71,4.14c.27,1.62,1.3,1.83,2.66,1.61,1.66-.28,1.95-1.3,1.89-2.34Z"/><path class="uuid-00b4842a-fc29-4a6b-bbd6-23617d7920a9" d="m97.22,18.46c-1.03.12-1.33.73-1.26,1.38.06.56.38,1.21,1.5,1.09.99-.1,1.33-.7,1.25-1.39-.08-.81-.63-1.16-1.48-1.08Zm3,9.23l-.77.08-.65-6.06-3.36.36.03.23.8-.08.61,5.82-.75.08.02.24,4.08-.44-.02-.23Z"/><path class="uuid-00b4842a-fc29-4a6b-bbd6-23617d7920a9" d="m105.35,25.81c-.08.9-.46,1.51-1.14,1.54-.48.02-.61-.41-.65-1.18l-.2-4.48,1.8-.08v-.24s-1.81.08-1.81.08l-.09-2.33-2.54.72.07,1.72-.75.03v.24s.77-.03.77-.03l.19,4.19c.07,1.65,1.06,1.99,2.42,1.94,1.68-.07,2.1-1.06,2.18-2.09l-.24-.02Z"/><path class="uuid-ad6b945f-5470-4932-a748-169102b8d315" d="m191.47,18.03c-.27.3-.43.69-.43,1.13,0,.93.75,1.68,1.68,1.68.63,0,1.18-.35,1.47-.86.29.51.84.86,1.47.86.93,0,1.68-.75,1.68-1.68,0-.43-.17-.83-.43-1.13l-2.71-2.78-2.71,2.78Z"/><path class="uuid-ad6b945f-5470-4932-a748-169102b8d315" d="m197.54,22.42c-.15.17-.25.4-.25.65,0,.53.43.96.96.96.36,0,.68-.2.84-.49.16.29.48.49.84.49.53,0,.96-.43.96-.96,0-.25-.09-.47-.25-.65l-1.56-1.59-1.56,1.59Z"/><path class="uuid-0af226ac-16b1-4c64-9a78-3f8c0891e93a" d="m195.87.33s3.97-.15,5.09,0c.46.92,1.47,3,1.47,3,.81.1,1.07,0,2.44.92s4.32,3.2,4.63,3.46c.36.41-.76.97-2.19.05-.97-.41-2.03-.81-2.34-.76.71,1.47,3.46,6.76,3.46,6.76.25.56.1,1.83-1.32,1.27.31.81.36,1.47-.1,1.78s-1.42-.15-1.73-1.07c-.1.66-1.02,1.37-1.83.36-.25-.41-.46-1.17-.46-1.17-.2.92-1.27,1.12-1.73.41-.46-.76-.86-2.03-.86-2.03l-4.62-10.4s.17-2.64.1-2.57Z"/><path class="uuid-0af226ac-16b1-4c64-9a78-3f8c0891e93a" d="m195.84.33s-3.97-.15-5.09,0c-.46.92-1.47,3-1.47,3-.81.1-1.07,0-2.44.92s-4.32,3.2-4.63,3.46c-.36.41.76.97,2.19.05.97-.41,2.03-.81,2.34-.76-.71,1.47-3.46,6.76-3.46,6.76-.25.56-.1,1.83,1.32,1.27-.31.81-.36,1.47.1,1.78s1.42-.15,1.73-1.07c.1.66,1.02,1.37,1.83.36.25-.41.46-1.17.46-1.17.2.92,1.27,1.12,1.73.41.46-.76.86-2.03.86-2.03l4.62-10.4s-.17-2.64-.1-2.57Z"/><path class="uuid-ad6b945f-5470-4932-a748-169102b8d315" d="m190.57,8.22c-.52.57-.83,1.33-.83,2.16,0,1.78,1.44,3.22,3.22,3.22,1.21,0,2.26-.67,2.81-1.65.55.99,1.6,1.65,2.81,1.65,1.78,0,3.22-1.44,3.22-3.22,0-.83-.32-1.59-.83-2.16l-5.2-5.32-5.2,5.32Z"/><path class="uuid-176477a8-b81b-440b-88ef-893bd727f6d6" d="m195.8,2.39c.08,0,.16.03.22.09l5.34,5.46c.61.67.94,1.53.94,2.43,0,1.99-1.62,3.61-3.61,3.61-1.14,0-2.21-.54-2.89-1.44-.68.9-1.74,1.44-2.88,1.45-1.99,0-3.61-1.62-3.61-3.61,0-.89.33-1.75.93-2.42,0,0,5.34-5.48,5.34-5.48.06-.06.14-.09.22-.09h0Zm2.89,10.98c1.66,0,3-1.35,3-3,0-.74-.28-1.45-.78-2.01l-5.11-5.23-5.11,5.24c-.5.55-.77,1.27-.77,2.01,0,1.65,1.35,3,3,3,1.09,0,2.09-.59,2.62-1.54.05-.1.16-.16.27-.16.11,0,.21.06.27.16.53.95,1.53,1.54,2.62,1.54Z"/><path class="uuid-176477a8-b81b-440b-88ef-893bd727f6d6" d="m194.18,14.78c.08,0,.16.03.22.09l2.82,2.89c.35.39.54.88.54,1.38,0,.55-.21,1.06-.6,1.45-.39.39-.9.6-1.45.6-.59,0-1.14-.25-1.53-.68-.38.43-.94.68-1.52.68-1.13,0-2.05-.92-2.05-2.05,0-.51.19-1,.53-1.38,0,0,2.83-2.9,2.83-2.9.06-.06.14-.09.22-.09h0Zm1.53,5.8c.39,0,.75-.15,1.02-.42.27-.27.42-.64.42-1.02,0-.36-.13-.7-.37-.97l-2.6-2.65-2.6,2.66c-.24.27-.37.61-.37.96,0,.79.65,1.44,1.44,1.44.52,0,1.01-.28,1.26-.74.05-.1.16-.16.27-.16.11,0,.21.06.27.16.26.46.74.74,1.26.74Z"/><path class="uuid-176477a8-b81b-440b-88ef-893bd727f6d6" d="m199.14,20.44c.08,0,.16.03.22.09l1.58,1.62c.22.25.34.55.34.87,0,.34-.13.67-.38.91-.24.24-.56.38-.91.38-.32,0-.62-.12-.85-.33-.23.21-.53.33-.85.33-.34,0-.67-.13-.91-.38-.24-.24-.38-.56-.38-.91,0-.32.12-.62.33-.86,0,0,1.59-1.63,1.59-1.63.06-.06.14-.09.22-.09h0Zm.86,3.25c.18,0,.35-.07.48-.2.13-.13.2-.3.2-.48,0-.17-.06-.33-.17-.45l-1.36-1.38-1.36,1.39c-.11.12-.17.28-.17.45,0,.18.07.35.2.48.13.13.3.2.48.2.24,0,.47-.13.59-.35.05-.1.16-.16.27-.16.11,0,.21.06.27.16.12.21.34.35.59.35Z"/><path class="uuid-176477a8-b81b-440b-88ef-893bd727f6d6" d="m201.58,11.98c.11,0,.22.06.27.17l1.27,2.47c.27.53.06,1.17-.47,1.44-.26.13-.55.16-.83.07-.28-.09-.5-.28-.63-.54l-1.07-2.09c-.08-.15-.02-.33.13-.41.15-.08.33-.02.41.13l1.07,2.09c.06.11.16.2.28.23.12.04.25.03.36-.03.11-.06.19-.15.23-.27.04-.12.03-.24-.03-.35l-1.27-2.47c-.08-.15-.02-.33.13-.41.04-.02.09-.03.14-.03Z"/><path class="uuid-176477a8-b81b-440b-88ef-893bd727f6d6" d="m203.12,11.06c.11,0,.22.06.27.17l2.04,3.98c.15.29.17.61.07.92-.1.31-.31.56-.6.7-.59.3-1.32.07-1.62-.52l-.76-1.49c-.08-.15-.02-.33.13-.41.15-.08.33-.02.41.13l.76,1.49c.15.29.51.41.8.26.14-.07.24-.19.29-.35.05-.15.04-.31-.04-.45l-2.04-3.98c-.08-.15-.02-.33.13-.41.04-.02.09-.03.14-.03Z"/><path class="uuid-176477a8-b81b-440b-88ef-893bd727f6d6" d="m204.73,10.24c.11,0,.22.06.27.17l2.6,5.06c.15.29.17.61.07.92-.1.31-.31.56-.6.7-.29.15-.61.17-.92.07-.31-.1-.56-.31-.7-.6l-.86-1.67c-.08-.15-.02-.33.13-.41.15-.08.33-.02.41.13l.86,1.67c.15.29.51.41.8.26.14-.07.24-.19.29-.35.05-.15.04-.31-.04-.45l-2.6-5.06c-.08-.15-.02-.33.13-.41.04-.02.09-.03.14-.03Z"/><path class="uuid-176477a8-b81b-440b-88ef-893bd727f6d6" d="m204.87,6.56c.11,0,.22.06.27.17l3.6,7.02c.3.59.07,1.32-.52,1.62-.59.3-1.32.07-1.62-.52l-.68-1.32c-.08-.15-.02-.33.13-.41.15-.08.33-.02.41.13l.68,1.32c.15.29.51.41.8.26.29-.15.41-.51.26-.8l-3.6-7.02c-.08-.15-.02-.33.13-.41.04-.02.09-.03.14-.03Z"/><path class="uuid-176477a8-b81b-440b-88ef-893bd727f6d6" d="m195.8,0h5.18c.11,0,.22.06.27.17l1.33,2.6c.12.23.33.39.56.42,1.39.19,2.74,1.28,4.05,2.33.56.45,1.09.87,1.62,1.23,0,0,.02.01.03.02.1.08.21.16.31.23.33.23.79.55.6,1.04,0,.02-.02.04-.03.06-.18.27-.46.46-.8.52-.34.07-.9.04-1.64-.46-.71-.47-1.84-.99-2.43-1-.12-.01-.27,0-.45.03-.86.11-2.31.28-3.98-1.74-.11-.13-.09-.32.04-.43.13-.11.32-.09.43.04,1.46,1.76,2.65,1.62,3.44,1.52.21-.03.39-.05.56-.03.8.02,2.08.67,2.73,1.1.44.3.86.43,1.18.37.15-.03.28-.1.37-.21-.04-.07-.25-.21-.38-.3-.12-.08-.23-.16-.34-.25-.55-.37-1.1-.82-1.64-1.25-1.25-1-2.53-2.03-3.75-2.2-.43-.06-.81-.34-1.02-.74l-1.25-2.43h-4.69v2.08c0,.17-.14.31-.31.31s-.31-.14-.31-.31V.31c0-.17.14-.31.31-.31Z"/><path class="uuid-176477a8-b81b-440b-88ef-893bd727f6d6" d="m190.03,11.98s.09.01.14.03c.15.08.21.26.13.41l-1.27,2.47c-.06.11-.07.23-.03.35.04.12.12.21.23.27.11.06.24.07.36.03.12-.04.22-.12.28-.23l1.07-2.09c.08-.15.26-.21.41-.13.15.08.21.26.13.41l-1.07,2.09c-.13.26-.36.45-.63.54-.28.09-.57.06-.83-.07-.25-.13-.44-.35-.53-.63-.09-.27-.06-.56.07-.82l1.27-2.47c.05-.11.16-.17.27-.17Z"/><path class="uuid-176477a8-b81b-440b-88ef-893bd727f6d6" d="m188.49,11.06s.09.01.14.03c.15.08.21.26.13.41l-2.04,3.98c-.07.14-.08.3-.04.45.05.15.15.27.29.35.14.07.3.08.45.04.15-.05.27-.15.35-.29l.76-1.49c.08-.15.26-.21.41-.13.15.08.21.26.13.41l-.76,1.49c-.15.29-.4.5-.7.6-.31.1-.63.07-.92-.07-.29-.15-.5-.4-.6-.7-.1-.31-.07-.63.07-.92l2.04-3.98c.05-.11.16-.17.27-.17Z"/><path class="uuid-176477a8-b81b-440b-88ef-893bd727f6d6" d="m186.89,10.24s.09.01.14.03c.15.08.21.26.13.41l-2.6,5.06c-.07.14-.08.3-.04.45.05.15.15.27.29.35.29.15.65.03.8-.26l.86-1.67c.08-.15.26-.21.41-.13.15.08.21.26.13.41l-.86,1.67c-.3.59-1.03.82-1.62.52-.29-.15-.5-.4-.6-.7-.1-.31-.07-.63.07-.92l2.6-5.06c.05-.11.16-.17.27-.17Z"/><path class="uuid-176477a8-b81b-440b-88ef-893bd727f6d6" d="m186.74,6.56s.09.01.14.03c.15.08.21.26.13.41l-3.6,7.02c-.15.29-.03.65.26.8.29.15.65.03.8-.26l.68-1.32c.08-.15.26-.21.41-.13.15.08.21.26.13.41l-.68,1.32c-.3.59-1.03.83-1.62.52-.59-.3-.82-1.03-.52-1.62l3.6-7.02c.05-.11.16-.17.27-.17Z"/><path class="uuid-176477a8-b81b-440b-88ef-893bd727f6d6" d="m190.63,0h5.17c.17,0,.31.14.31.31,0,.17-.14.31-.31.31h-4.98l-1.25,2.43c-.21.41-.59.68-1.02.74-1.22.17-2.51,1.2-3.75,2.2-.54.43-1.1.88-1.64,1.25-.11.09-.23.17-.34.25-.12.09-.33.23-.38.31.09.11.22.18.37.21.32.06.74-.07,1.18-.37.66-.44,1.94-1.09,2.76-1.11.14-.01.33,0,.54.03.79.1,1.98.24,3.44-1.52.11-.13.3-.15.43-.04.13.11.15.3.04.43-1.67,2.02-3.12,1.84-3.98,1.74-.18-.02-.33-.04-.43-.03-.61.01-1.74.53-2.45,1.01-.73.5-1.29.53-1.63.46-.33-.06-.61-.25-.8-.52-.01-.02-.02-.04-.03-.06-.19-.48.27-.8.6-1.04.1-.07.21-.15.31-.23,0,0,.02-.01.03-.02.53-.36,1.06-.78,1.62-1.23,1.31-1.05,2.66-2.14,4.05-2.33.24-.03.45-.19.56-.42l1.33-2.6c.05-.1.16-.17.27-.17Z"/><path class="uuid-ee1792fe-16ad-4649-bd0f-9e6caf3285c4" d="m127.7,181.78c1.89-2.09,3.05-4.85,3.05-7.88,0-6.5-5.27-11.77-11.77-11.77-4.42,0-8.26,2.44-10.28,6.04-2.01-3.6-5.86-6.04-10.28-6.04-6.5,0-11.77,5.27-11.77,11.77,0,3.04,1.16,5.79,3.05,7.88l19.01,19.46,19.01-19.46Z"/><path class="uuid-4b51c261-cfd8-4eb3-8322-8350145909bc" d="m119.63,181.73c1.09-1.2,1.75-2.79,1.75-4.54,0-3.74-3.03-6.77-6.77-6.77-2.54,0-4.75,1.4-5.91,3.47-1.16-2.07-3.37-3.47-5.91-3.47-3.74,0-6.77,3.03-6.77,6.77,0,1.75.67,3.33,1.75,4.54l10.93,11.19,10.93-11.19Z"/><path class="uuid-0af226ac-16b1-4c64-9a78-3f8c0891e93a" d="m96.46,153.94c0,1.4-1.13,2.53-2.53,2.53s-2.53-1.13-2.53-2.53,1.13-2.53,2.53-2.53,2.53,1.13,2.53,2.53Z"/><circle class="uuid-0af226ac-16b1-4c64-9a78-3f8c0891e93a" cx="108.11" cy="147" r="3.54"/><circle class="uuid-0af226ac-16b1-4c64-9a78-3f8c0891e93a" cx="123.31" cy="150.01" r="3.01"/><path class="uuid-00b4842a-fc29-4a6b-bbd6-23617d7920a9" d="m99.51,161.97v-6.13c0-1.77,1.53-3.54,7.9-3.54s8.72.59,8.96,3.77c0,3.42.24,5.89.24,5.89,0,0-6.85,2.94-7.9,6.19-1.05-2.41-4.83-6.3-9.19-6.19Z"/><path class="uuid-30031757-ebfd-4a1a-83eb-67b181db281e" d="m116.6,161.97s.59-4.6.83-5.54c.24-.94,1.89-1.77,4.95-1.77,2.59,0,5.3.12,6.01,1.53s2.36,12.02,2.36,12.02l-.71.71s-3.54-8.13-13.44-6.95Z"/><path class="uuid-30031757-ebfd-4a1a-83eb-67b181db281e" d="m88.66,167.04c1.18-1.65,7.07-6.13,10.84-5.07,0-2.48-1.3-3.42-2.95-3.42-1.77.12-4.13,0-5.66,0s-2.59.71-2.59,3.65c0,2.12.35,4.83.35,4.83Z"/><path class="uuid-176477a8-b81b-440b-88ef-893bd727f6d6" d="m88.54,167.93c-.16,0-.33-.06-.46-.17-.39-.33-.58-.79-.58-1.36v-5.23c0-1.81,1.47-3.29,3.29-3.29h6.09c1.81-.01,3.29,1.46,3.29,3.27v.59c0,.39-.32.71-.71.71s-.71-.32-.71-.71v-.59c0-1.03-.84-1.87-1.87-1.87h-6.09c-1.03.01-1.87.85-1.87,1.89v5.23c0,.21.06.26.09.29.3.25.33.7.08,1-.14.16-.34.25-.54.25Z"/><path class="uuid-176477a8-b81b-440b-88ef-893bd727f6d6" d="m90.63,165.6c-.39,0-.71-.32-.71-.71v-2.82c0-.39.32-.71.71-.71s.71.32.71.71v2.82c0,.39-.32.71-.71.71Z"/><path class="uuid-176477a8-b81b-440b-88ef-893bd727f6d6" d="m93.83,157.3c-1.83,0-3.31-1.49-3.31-3.31s1.49-3.31,3.31-3.31,3.31,1.49,3.31,3.31-1.49,3.31-3.31,3.31Zm0-5.21c-1.05,0-1.9.85-1.9,1.9s.85,1.9,1.9,1.9,1.9-.85,1.9-1.9-.85-1.9-1.9-1.9Z"/><path class="uuid-176477a8-b81b-440b-88ef-893bd727f6d6" d="m112.72,164.45c-.39,0-.71-.32-.71-.71v-5.24c0-.39.32-.71.71-.71s.71.32.71.71v5.24c0,.39-.32.71-.71.71Z"/><path class="uuid-176477a8-b81b-440b-88ef-893bd727f6d6" d="m116.34,162.81c-.39,0-.71-.32-.71-.71v-5.87c0-1.73-1.41-3.14-3.14-3.14l-9.09.02c-1.73,0-3.14,1.41-3.14,3.14v5.77c0,.39-.32.71-.71.71s-.71-.32-.71-.71v-5.77c0-2.51,2.04-4.56,4.56-4.56l9.09-.02c2.51,0,4.56,2.04,4.56,4.56v5.87c0,.39-.32.71-.71.71Z"/><path class="uuid-176477a8-b81b-440b-88ef-893bd727f6d6" d="m103.17,163.57c-.39,0-.71-.32-.71-.71v-4.33c0-.39.32-.71.71-.71s.71.32.71.71v4.33c0,.39-.32.71-.71.71Z"/><path class="uuid-176477a8-b81b-440b-88ef-893bd727f6d6" d="m108.02,151.07c-2.26,0-4.1-1.84-4.1-4.1s1.84-4.1,4.1-4.1,4.1,1.84,4.1,4.1-1.84,4.1-4.1,4.1Zm0-6.79c-1.48,0-2.69,1.21-2.69,2.69s1.21,2.69,2.69,2.69,2.69-1.21,2.69-2.69-1.21-2.69-2.69-2.69Z"/><path class="uuid-176477a8-b81b-440b-88ef-893bd727f6d6" d="m123.01,153.56c-1.95,0-3.54-1.59-3.54-3.54s1.59-3.54,3.54-3.54,3.54,1.59,3.54,3.54-1.59,3.54-3.54,3.54Zm0-5.67c-1.17,0-2.13.96-2.13,2.13s.96,2.13,2.13,2.13,2.13-.96,2.13-2.13-.96-2.13-2.13-2.13Z"/><path class="uuid-176477a8-b81b-440b-88ef-893bd727f6d6" d="m130.14,169.58c-.15,0-.3-.05-.43-.15-.31-.24-.36-.68-.12-.99.14-.18.22-.42.23-.67l-1.36-9.23s0-.07,0-.1c0-1.61-1.07-2.92-2.39-2.92l-6.08.02c-1.32,0-2.4,1.31-2.4,2.92,0,.03,0,.07,0,.1l-.4,2.76c-.06.39-.41.65-.8.6-.39-.06-.65-.42-.6-.8l.39-2.71c.03-2.37,1.72-4.28,3.81-4.28l6.08-.02c2.09,0,3.78,1.92,3.81,4.28l1.36,9.24s0,.07,0,.1c0,.58-.19,1.14-.53,1.58-.14.18-.35.27-.56.27Z"/><path class="uuid-176477a8-b81b-440b-88ef-893bd727f6d6" d="m128.17,167.16c-.31,0-.6-.21-.68-.52l-1.95-7.11c-.1-.38.12-.77.49-.87.38-.11.77.12.87.49l1.95,7.11c.1.38-.12.77-.49.87-.06.02-.13.03-.19.03Z"/><path class="uuid-176477a8-b81b-440b-88ef-893bd727f6d6" d="m119.19,162.22c-.06,0-.13,0-.19-.03-.38-.1-.6-.49-.49-.87l.6-2.17c.1-.38.49-.6.87-.49.38.1.6.49.49.87l-.6,2.17c-.09.31-.37.52-.68.52Z"/><path class="uuid-176477a8-b81b-440b-88ef-893bd727f6d6" d="m108.69,201.94c-.19,0-.37-.08-.51-.21l-19.01-19.46c-2.1-2.32-3.25-5.29-3.25-8.38,0-6.88,5.6-12.48,12.48-12.48,4.12,0,7.96,2.05,10.28,5.41,2.32-3.36,6.16-5.41,10.28-5.41,6.88,0,12.48,5.6,12.48,12.48,0,3.09-1.15,6.05-3.23,8.36-.02.02-19.02,19.48-19.02,19.48-.13.14-.32.21-.51.21Zm-10.28-39.12c-6.1,0-11.07,4.96-11.07,11.07,0,2.73,1.02,5.37,2.86,7.41l18.48,18.92,18.49-18.93c1.84-2.04,2.85-4.67,2.85-7.4,0-6.1-4.96-11.07-11.07-11.07-4,0-7.7,2.18-9.66,5.68-.25.45-.98.45-1.23,0-1.96-3.5-5.66-5.68-9.66-5.68Z"/><path class="uuid-0af226ac-16b1-4c64-9a78-3f8c0891e93a" d="m26.06,198.33l5.97-6.08c.5-.56.5-1.17.5-2.29,0-.73,2.34-2.79,2.34-2.79l-4.97-4.86-1.95,1.95c-.95.45-2.62-.17-4.35.61-1.73.78-6.53,2.34-6.53,2.34-.28.73.78,1.67,2.4,1.17,1.51-.45,3.35-.67,3.8-.22-.5.5-2.9,2.51-2.9,2.51l5.69,7.65Z"/><path class="uuid-0af226ac-16b1-4c64-9a78-3f8c0891e93a" d="m12.66,209.33l-4.91-4.91,2.23-2.23c-.06-.67-.06-1.67.06-2.62.11-.95,2.68-7.98,2.68-7.98.39-.33,1.56.45,1,2.57-.28,1.51-.39,3.13-.22,3.4,1.03-1.03,7.42-7.14,7.42-7.14.67-.67,2.57-.33,1.9,1.28.95-.89,1.95-1.34,2.57-.5.45.73.11,1.45-.84,2.34.84.06,2.07.5,1.45,1.9-.67.67-1.56,1.67-1.56,1.67.73-.45,2.01.11,1.62,1.23-.89.84-7.81,7.87-7.81,7.87-.61.56-1.23.78-2.01.73-.78-.06-1.28.11-1.9.73-.61.61-1.67,1.67-1.67,1.67Z"/><path class="uuid-176477a8-b81b-440b-88ef-893bd727f6d6" d="m12.67,209.75c-.09,0-.17-.03-.24-.1l-4.93-4.93c-.13-.13-.13-.34,0-.47l1.88-1.88c.26-.26.38-.61.32-.94-.32-1.81.5-3.96,1.29-6.03.32-.85.66-1.73.9-2.55,0-.01,0-.02.01-.03.06-.15.12-.33.17-.49.16-.52.36-1.17.99-1.13.02,0,.05,0,.07.01.4.11.74.38.94.76.22.39.41,1.09.08,2.21-.27.95-.53,2.67-.28,3.52.05.18-.05.36-.23.42-.18.05-.36-.05-.42-.22-.31-1.03,0-2.93.27-3.89.21-.7.2-1.3-.02-1.7-.11-.21-.28-.35-.49-.42-.1.04-.21.41-.29.66-.05.18-.11.36-.18.53-.24.84-.58,1.73-.91,2.59-.76,1.99-1.54,4.05-1.25,5.68.1.55-.09,1.12-.5,1.53l-1.64,1.64,4.46,4.46,1.73-1.73c.44-.44,1.1-.65,1.75-.54.64.11,1.13-.05,2.3-1.22l7.13-7.13c.27-.27.27-.71,0-.99-.27-.27-.7-.27-.97,0l-3.65,3.65c-.13.13-.34.13-.47,0-.13-.13-.13-.34,0-.47l3.65-3.65c.53-.53,1.38-.53,1.91,0,.26.26.4.6.4.97s-.14.71-.4.97l-7.13,7.13c-1.07,1.07-1.81,1.58-2.88,1.41-.44-.07-.87.06-1.17.35l-1.96,1.96c-.07.07-.15.1-.24.1Z"/><path class="uuid-176477a8-b81b-440b-88ef-893bd727f6d6" d="m19.04,199.4c-.09,0-.17-.03-.24-.1-.13-.13-.13-.34,0-.47l5.13-5.13c.29-.29.67-.45,1.08-.45s.79.16,1.08.45c.29.29.45.67.45,1.08s-.16.79-.45,1.08l-1.57,1.57c-.13.13-.34.13-.47,0-.13-.13-.13-.34,0-.47l1.57-1.57c.16-.16.25-.38.25-.61s-.09-.45-.25-.61c-.32-.32-.89-.32-1.21,0l-5.13,5.13c-.07.07-.15.1-.24.1Z"/><path class="uuid-176477a8-b81b-440b-88ef-893bd727f6d6" d="m17.35,197.7c-.09,0-.17-.03-.24-.1-.13-.13-.13-.34,0-.47l6.28-6.28c.6-.6,1.57-.6,2.16,0,.29.29.45.67.45,1.08s-.16.79-.45,1.08l-1.76,1.76c-.13.13-.34.13-.47,0-.13-.13-.13-.34,0-.47l1.76-1.76c.16-.16.25-.38.25-.61s-.09-.45-.25-.61c-.33-.33-.88-.33-1.21,0l-6.28,6.28c-.07.07-.15.1-.24.1Z"/><path class="uuid-176477a8-b81b-440b-88ef-893bd727f6d6" d="m13.58,198.09c-.09,0-.17-.03-.24-.1-.13-.13-.13-.34,0-.47l7.41-7.41c.6-.59,1.56-.6,2.16,0,.6.6.6,1.56,0,2.16l-1.4,1.4c-.13.13-.34.13-.47,0s-.13-.34,0-.47l1.4-1.4c.33-.33.33-.88,0-1.21-.34-.33-.88-.33-1.21,0l-7.41,7.41c-.07.07-.15.1-.24.1Z"/><path class="uuid-176477a8-b81b-440b-88ef-893bd727f6d6" d="m24.03,200.67c-.09,0-.17-.03-.24-.1-.13-.13-.13-.34,0-.47l7.13-7.13c1.17-1.17,1.33-1.66,1.22-2.3-.11-.65.1-1.3.54-1.75l1.73-1.73-4.46-4.46-1.64,1.64c-.41.41-.99.6-1.53.5-1.63-.29-3.69.49-5.68,1.25-.86.33-1.75.67-2.59.91-.18.07-.36.13-.54.18-.25.08-.62.19-.66.29.07.21.22.38.42.49.4.22,1,.23,1.69.02.97-.27,2.87-.58,3.9-.28.18.05.28.24.23.42-.05.18-.24.28-.42.23-.85-.25-2.57.01-3.52.28-1.11.33-1.81.14-2.2-.08-.38-.21-.65-.54-.76-.94,0-.02-.01-.05-.01-.07-.04-.63.61-.83,1.13-.99.17-.05.34-.1.49-.17.01,0,.02,0,.03-.01.82-.24,1.7-.57,2.55-.9,2.07-.79,4.22-1.61,6.03-1.29.33.06.69-.06.94-.32l1.88-1.88c.13-.13.34-.13.47,0l4.93,4.93c.06.06.1.15.1.24s-.04.17-.1.24l-1.96,1.96c-.3.3-.42.72-.35,1.17.17,1.07-.34,1.81-1.41,2.88l-7.13,7.13c-.07.07-.15.1-.24.1Z"/><path class="uuid-176477a8-b81b-440b-88ef-893bd727f6d6" d="m18.26,193.4c-.09,0-.17-.03-.24-.1-.13-.13-.13-.34,0-.47l5.02-5.02c.11-.11.27-.13.4-.06,2.08,1.15,3.77,1.09,5.03-.17.13-.13.34-.13.47,0,.13.13.13.34,0,.47-1,1-2.78,1.87-5.61.4l-4.84,4.84c-.07.07-.15.1-.24.1Z"/></svg>