<?xml version="1.0" encoding="UTF-8"?>
<svg data-name="IStandWithYou" xmlns="http://www.w3.org/2000/svg" viewBox="0 0 1015.15 1015.15"><defs><style>.a5e954449cdf49308a491e5583a5892c{fill:#fff;}.ee93ff7c0c774fa29d2506d9d617aef7{fill:#293795;}.af76136b6af84446abb80dc6d1504945{fill:#f8c3da;}.f8a53e58be194f2e836c80697c78f3ac{fill:#231f20;}</style></defs><g id="bfc00e62-8715-4012-9422-5d20b563164c"><path class="a5e954449cdf49308a491e5583a5892c" d="M760.39,705v0c-62.33,79.12-159.52,129.61-267,127.73C311,829.5,163.53,676.8,166.71,494.43a332.54,332.54,0,0,1,54.6-176.82,10,10,0,0,0-2.58-13.74l-80.1-56.09a10,10,0,0,0-14,2.61A450.28,450.28,0,0,0,48.91,500.23c0,247,203.25,450.25,450.25,450.25,173.48,0,325.37-100.26,400.43-245.51Z"/></g><circle id="f0c44cf1-17cb-4e49-a5bf-47ca1a4864e6" class="a5e954449cdf49308a491e5583a5892c" cx="833.32" cy="704.97" r="132.92"/><g id="a1c16058-573d-4d93-98fd-236c1d6cf806"><path id="b021edb2-7bb9-4e3a-b8b8-60360cd5c120" class="ee93ff7c0c774fa29d2506d9d617aef7" d="M736.68,706.9v-6.42c.14-.73.29-1.47.42-2.2.58-3.4.91-6.86,1.79-10.18,4.23-16,13.62-28.46,26.51-38.4,18.77-14.48,40.42-21,63.84-22a114.35,114.35,0,0,1,53.33,10.56c16.61,7.71,30.34,18.8,39.35,35,7.41,13.34,9.9,27.56,6.64,42.6-3.46,16-12.17,28.86-24.63,39.16-20.84,17.24-45.29,24.17-71.95,24.11a115.4,115.4,0,0,1-34.52-5.35,5.81,5.81,0,0,0-2.78-.1c-10.65,2.15-21.29,4.36-31.93,6.54-3.21.66-6.42,1.29-9.94,2l8.62-20.71c.74-1.79,2.28-3.81,1.91-5.35s-2.61-2.84-4.05-4.21c-10.57-10-18.09-21.83-21.13-36.23C737.55,712.84,737.17,709.86,736.68,706.9Z"/><path id="e46b2b39-050e-4bcd-84a4-732a8733df27" class="af76136b6af84446abb80dc6d1504945" d="M833.25,671.48a28.8,28.8,0,0,1,11.56-7.93,27.12,27.12,0,0,1,35.89,21.34,26.21,26.21,0,0,1-7.54,23.3c-12.95,13.12-26,26.12-39.07,39.17-.17.17-.38.31-.69.57-.43-.37-.86-.7-1.25-1.08q-19.08-19.1-38.15-38.22c-12.3-12.4-10.75-31.77,3.25-41.77,10.68-7.63,25.22-6.29,34.89,3.22C832.49,670.43,832.76,670.86,833.25,671.48Z"/></g><g id="ac51a5cd-59b8-40ed-813a-cd983ec82ce5"><path class="f8a53e58be194f2e836c80697c78f3ac" d="M173.25,306.32,164,327.07l11.22,11.44-5.63,12.58-11.23-11.41L147.81,363.2l11.25,11.39-5.63,12.58L142.18,375.8l-5,11.14-6.75-3,6.15-13.76-8.87-9-8,17.92-6.71-3,9.17-20.52L111,344.31l5.66-12.65L127.81,343l10.53-23.55-11.15-11.32,5.69-12.71L144,306.73l5-11.24,6.72,3-6.21,13.87,8.85,9,8.09-18.09ZM152.75,334l-8.86-9-10.53,23.54,8.87,9Z"/><path class="f8a53e58be194f2e836c80697c78f3ac" d="M149.83,435.6,88.38,421.53l6.85-29.93,61.45,14.08Z"/><path class="f8a53e58be194f2e836c80697c78f3ac" d="M124,512.12l1.55-28.48,4.67.26c2.17.12,3.58-.17,4.22-.87a5.8,5.8,0,0,0,1.09-3.59,6.34,6.34,0,0,0-1-4.25,4.53,4.53,0,0,0-3.58-1.62,6.4,6.4,0,0,0-4.83,1.34q-1.68,1.43-4.32,8.45-7.6,20.11-12.06,25.21t-13.7,4.58c-4.48-.24-7.74-1.41-9.75-3.49s-3.6-6-4.73-11.69a80.42,80.42,0,0,1-1.09-19.77,77.22,77.22,0,0,1,3.64-20.88q3-8.56,7-11.05t11.08-2.1l4.12.23-1.55,28.47-7.66-.42q-3.54-.19-4.62,1c-.71.76-1.13,2.16-1.24,4.2a6.81,6.81,0,0,0,1,4.62,4.74,4.74,0,0,0,3.72,1.7q5.57.3,7.43-2.44t6.5-14q4.66-11.22,6.69-14.83a17.11,17.11,0,0,1,5.39-5.88,13.34,13.34,0,0,1,8.38-2q7.23.39,10.39,4t4.62,11.46a79.33,79.33,0,0,1,.87,18.74,86.58,86.58,0,0,1-3.17,20.24q-2.52,8.29-5.8,10.86t-10.78,2.15Z"/><path class="f8a53e58be194f2e836c80697c78f3ac" d="M143.92,556.37l-8.08,1,.93,7.89-8.12,1-.93-7.9-27.46,3.25q-5.07.6-5.53,1.65t.38,8.22l-8.27,1-1.4-11.81q-1.18-10-1.24-14.32a22.35,22.35,0,0,1,1.15-7.77c.82-2.3,1.88-3.8,3.2-4.49s4.52-1.35,9.63-2L124.24,529l-.74-6.3,8.12-1,.74,6.3,8.09-1Z"/><path class="f8a53e58be194f2e836c80697c78f3ac" d="M127.27,605.07l-7.91-26.48,3.32-1q5.75-1.71,9.61-.17t8.47,8.32q4.62,6.76,8.19,18.71,4.28,14.32,3.74,22.4t-4,10.72q-3.51,2.64-15.78,6.31L108,651.3l-8.2-27.46,4.42-1.31a16.78,16.78,0,0,1-6-5.49A32.9,32.9,0,0,1,94,607.69a41.55,41.55,0,0,1-1.84-14.25q.38-6.86,7.87-9.09l4.07-1.21q5.56-1.67,8.55,1T122.26,599q7,13,8.36,13.71c.86.45,2.33.37,4.39-.25q3.88-1.15,4.74-2.59a5,5,0,0,0,.1-3.95c-.57-1.91-1.26-3-2-3.27s-2.58,0-5.34.84Zm-4.12,11c-3.12-4-5.38-6.17-6.79-6.54a10.5,10.5,0,0,0-5.47.45q-3.84,1.15-4.68,2.43c-.56.85-.56,2.21,0,4.07s1.17,2.84,1.91,3.2,2.36.17,4.85-.57Z"/><path class="f8a53e58be194f2e836c80697c78f3ac" d="M177.3,675.15,172.89,677a20.86,20.86,0,0,1,7.55,4.77,36,36,0,0,1,6.45,8.63,34,34,0,0,1,4.38,11.76q.67,5.13-1.18,7.75t-7.77,5.93l-31.63,17.65-14.36-25.73,31.25-17.44q4.66-2.6,5.36-3.74c.47-.76.22-2-.76-3.75s-2.05-2.76-3.09-2.79-3.26.91-6.66,2.8l-30.5,17-14.36-25.73L162.69,649Z"/><path class="f8a53e58be194f2e836c80697c78f3ac" d="M256.86,761.64l-47,42-19.63-22,2.79-2.5a36.82,36.82,0,0,1-8.55-4.29,39.91,39.91,0,0,1-7.39-6.51,33.3,33.3,0,0,1-6.48-10.14c-1.28-3.36-1.61-5.95-1-7.79s2.36-4,5.21-6.56l18-16.12q4.44-4,7.25-4.57t7.62,1.94a35.33,35.33,0,0,1,9.52,7.82,44.68,44.68,0,0,1,5.9,8.18,30.84,30.84,0,0,1,3.16,8.28l10.92-9.77Zm-37.81-5.71c1.41-1.26,2.16-2.34,2.24-3.22s-.48-2-1.68-3.34-2.17-2-3-2-2,.57-3.53,1.92L194.2,766.12c-1.56,1.4-2.4,2.54-2.51,3.41s.4,1.93,1.5,3.17c1.26,1.41,2.38,2.1,3.36,2.08s2.53-1,4.68-2.91Z"/><path class="f8a53e58be194f2e836c80697c78f3ac" d="M362.67,833.52l-45,46.18-32.49-20.35a260,260,0,0,1,9.67-33Q289,832.16,270,849.88L237.7,829.65l21.82-60.73,25.28,15.83-8.93,20.37-8.63,19.68q10.2-13.08,30.16-32.16l27,16.92q-.93,2.69-8.2,19.4l-9.86,22.13a301.92,301.92,0,0,1,31-33.4Z"/><path class="f8a53e58be194f2e836c80697c78f3ac" d="M395.53,851.92,378.9,900.85l-28.72-9.77,16.63-48.92Zm3.66-10.76-2.64,7.78-28.72-9.77,2.64-7.78Z"/><path class="f8a53e58be194f2e836c80697c78f3ac" d="M439.23,854.86l-1.65,8,7.78,1.61-1.66,8-7.78-1.61-5.61,27.07c-.68,3.33-.75,5.25-.18,5.77s3.2,1.26,7.91,2.23l-1.69,8.16-11.64-2.41q-9.85-2-14-3.35a22.16,22.16,0,0,1-7-3.56q-2.89-2.25-3.25-4.45c-.25-1.47.16-4.72,1.2-9.75l5.32-25.7-6.21-1.29,1.66-8,6.21,1.29,1.65-8Z"/><path class="f8a53e58be194f2e836c80697c78f3ac" d="M484.32,854.82,483.91,869a34.91,34.91,0,0,1,8.28-2.57,45.89,45.89,0,0,1,9.47-.67,36.5,36.5,0,0,1,13.1,2.49q5.37,2.25,6.49,5t.91,10.06l-1,35.62-29.45-.85,1.06-36.36c.08-3-.14-5-.68-5.82s-1.77-1.34-3.71-1.4-3,.36-3.68,1.22-1,2.61-1.1,5.23l-1.07,36.86L453.05,917l1.82-63Z"/><path class="f8a53e58be194f2e836c80697c78f3ac" d="M599,842.78l-14.79,43.59,4.11,22.45-28,5.12-4.11-22.45-28.47-35.68,27.74-5.08q9.83,17,11.81,23.1a196.34,196.34,0,0,1,3.93-26Z"/><path class="f8a53e58be194f2e836c80697c78f3ac" d="M670.24,846.19l4.6,11.79q2.53,6.49,2.49,10c0,2.34-1,4.9-3,7.7a31,31,0,0,1-8.78,7.89,79.51,79.51,0,0,1-13.95,6.89,100.88,100.88,0,0,1-15.84,4.94,30.05,30.05,0,0,1-11.08.61,13.76,13.76,0,0,1-7-3.28q-2.68-2.49-5.08-8.61l-4.81-12.34q-2.62-6.71-1.37-11.54t7.42-9.88q6.16-5,17.18-9.33a79.15,79.15,0,0,1,16.43-4.72,33.59,33.59,0,0,1,11.72-.16,15,15,0,0,1,6.82,2.94Q668.25,841.07,670.24,846.19Zm-28.86,7.08q-1.44-3.71-2.57-4.37c-.75-.45-1.94-.35-3.57.28s-2.59,1.38-2.88,2.24,0,2.51,1,5l8.48,21.73c.89,2.27,1.73,3.64,2.55,4.12s2,.41,3.59-.21,2.59-1.37,2.86-2.2,0-2.29-.8-4.37Z"/><path class="f8a53e58be194f2e836c80697c78f3ac" d="M731.18,785.61,760,828.5l-24.88,16.72-2-3.85a20,20,0,0,1-4.08,7.46,36.23,36.23,0,0,1-7.83,6.84,40.87,40.87,0,0,1-9.84,5.11,14.92,14.92,0,0,1-7.2.86,9,9,0,0,1-4.55-2.13,49.38,49.38,0,0,1-5.38-7.1l-19.44-28.93,24.45-16.43,19.61,29.18c2.25,3.34,3.77,5.2,4.57,5.56s2.06,0,3.75-1.15,2.68-2.27,2.59-3.15-1.32-3.07-3.68-6.58L706.72,802Z"/></g></svg>